<svg xmlns="http://www.w3.org/2000/svg" xmlns:xlink="http://www.w3.org/1999/xlink" width="1000" height="500" viewBox="0 0 1000 500"><title>编组 6</title><defs><linearGradient id="a" x1="15.56%" x2="81.699%" y1="28.751%" y2="71.249%"><stop offset="0%" stop-color="#212FD3" stop-opacity="0"/><stop offset="100%" stop-color="#5CD3FF"/></linearGradient><linearGradient id="b" x1="15.56%" x2="81.699%" y1="34.004%" y2="65.996%"><stop offset="0%" stop-color="#212FD3" stop-opacity="0"/><stop offset="100%" stop-color="#5CD3FF"/></linearGradient><linearGradient id="c" x1="15.56%" x2="81.699%" y1="28.36%" y2="71.64%"><stop offset="0%" stop-color="#212FD3" stop-opacity="0"/><stop offset="100%" stop-color="#5CD3FF"/></linearGradient><linearGradient id="d" x1="-29.697%" x2="85.607%" y1="28.835%" y2="54.788%"><stop offset="0%" stop-color="#7121D3" stop-opacity=".57"/><stop offset="100%" stop-color="#C34CCB"/></linearGradient><path id="e" d="M0 0h15.393v10.011H0z"/><path id="g" d="M0 0h10.972v7.075H0z"/></defs><g fill="none" fill-rule="evenodd"><path fill="#212FD2" fill-rule="nonzero" d="M0 0h1000v500H0z"/><g transform="translate(780.033 65)"><path fill="#1B6AE8" fill-rule="nonzero" d="M22.968 4.807 160.779 82.22v113.22L22.968 118.027z"/><path fill="#1F1BA8" fill-rule="nonzero" d="m37.345 135.73 132.622 72.347-37.345 23.732L0 159.462z" opacity=".341"/><path fill="#2995EB" fill-rule="nonzero" d="m30.625 0 137.81 77.413-7.656 4.807L22.968 4.807z"/><path fill="#2851F5" fill-rule="nonzero" d="M168.435 191.018V77.413l-7.656 4.807v113.606z"/><path fill="#3C81EE" fill-rule="nonzero" d="m4.594 17.008 137.81 77.413V207.64L4.594 130.227z"/><path fill="#5B9BFF" fill-rule="nonzero" d="m12.25 56.427 68.905 39.017v57.062L12.25 113.49V56.427Zm76.562 44.227 42.873 25.29v8.261l-42.873-25.29v-8.26Zm0 15.25 42.873 25.29v8.261l-42.873-25.29v-8.26Zm0 15.251 32.155 19.19v8.261l-32.155-19.19v-8.26Z"/><ellipse cx="11.484" cy="29.208" fill="#72A9FF" fill-rule="nonzero" rx="2.297" ry="3.05"/><ellipse cx="19.141" cy="32.258" fill="#72A9FF" fill-rule="nonzero" rx="2.297" ry="3.05"/><path stroke="#212FD3" stroke-width="1.665" d="m2.297 33.021 140.872 79.303"/></g><path stroke="url(#a)" stroke-dasharray="4.995" stroke-width="3.33" d="m368.625 144.88 82.612 54.903" transform="translate(50.002 65)"/><path fill="#3CDBE3" fill-rule="nonzero" d="m473.693 275.078 8.33 5.63-3.11 2-3.762-2.542-.689.444 4.06 2.744-.591.38-4.06-2.744-.719.462 4.927 3.331-.678.436-10.694-7.224.68-.439 4.898 3.31.72-.461-4.003-2.704.59-.38 4.002 2.703.689-.441-3.702-2.503 3.11-2.002h.002Zm2.747 4.26-.748.482 2.932 1.98.748-.482-2.932-1.98Zm-2.693-5.897 10.722 7.245-.659.423-10.723-7.245.66-.423Zm3.964 5.08-.757.488 2.93 1.98.758-.487-2.931-1.981Zm1.164-6.431 7.81 5.276-3.013 1.937-7.81-5.277 3.013-1.936Zm-6.186 4.714-.748.483 2.884 1.946.749-.48-2.885-1.949Zm1.27-.818-.756.489 2.882 1.948.758-.49-2.883-1.947Zm3.982-2.19-.718.462 6.142 4.15.72-.462-6.144-4.15Zm1.242-.799-.711.455 6.144 4.152.709-.456-6.142-4.151ZM468.06 272l.819.555-4.302 2.767c-.177.112-.198.227-.075.35l.522.353c.251.131.495.128.8-.032.333-.15.834-.448 1.485-.866l.456.699c-1.073.689-1.8 1.068-2.191 1.128-.37.049-.798-.072-1.31-.378l-.596-.403c-.695-.47-.699-.9-.068-1.305l4.46-2.868Zm-2.13-1.44.868.586-5.29 3.401-.866-.587 5.287-3.4Zm1.614-4.739 3.345 2.26c.279-.41.53-.797.71-1.17l1.015.492c-.22.396-.519.807-.866 1.259l3.143 2.123-.788.506-4.369-2.95c-1.572.274-2.812.422-3.719.434a76.403 76.403 0 0 0 4.473 2.541c.093-.404.188-.807.262-1.238l1.137.196c-.194 1.194-.442 2.169-.778 2.942l-1.215-.146c.142-.307.254-.634.377-.965a156.606 156.606 0 0 1-6.22-3.554l.554-.612.243.073c.748.117 2.075.027 4-.271l-2.092-1.412.787-.508h.001ZM464 269.244l.84.566c-1.646.994-2.981 1.638-3.988 1.943-1.068.303-2.239.409-3.466.32l.15-.82c1.042.08 2.017 0 2.908-.27.881-.261 2.07-.847 3.556-1.74Zm-2.83-1.015.466.716a82.801 82.801 0 0 1-5.973 1.77l-.445-.77a68.927 68.927 0 0 0 5.951-1.716Zm-6.49-2.49.97.316c-.375.92-.854 1.796-1.427 2.609l-1.056-.287c.6-.822 1.107-1.707 1.513-2.64v.002Zm7.307-.44 1.217.018c.162.89.208 1.698.117 2.418l-1.237-.005c.107-.667.063-1.478-.098-2.431Zm-5.363-7.856 7.183 4.853-.788.508-2.642-1.785c-.483.2-.977.374-1.48.52l2.334 1.575-4.292 2.762-1.988-1.342-3.455 2.222c-.659.424-1.304.418-1.93-.006l-1.003-.677.605-.63c.288.233.559.455.838.643.271.183.572.18.877-.016l3.25-2.09-2.053-1.389 4.29-2.76 1.709 1.154c.519-.157 1.007-.319 1.478-.52l-2.882-1.948-3.554 2.287c-2.688 1.662-5.267 2.725-7.72 3.17l-.056-.817c2.122-.383 4.436-1.351 6.936-2.922l4.343-2.792Zm8.556 6.159 1.237.03c.192.831.287 1.584.267 2.259l-1.238-.007c.038-.636-.046-1.381-.267-2.282h.001Zm-13.669-.25.605.627a17.817 17.817 0 0 1-4.1.93l-.261-.746a14.704 14.704 0 0 0 3.756-.812Zm3.15-1.402-1.102.707 3.326 2.248 1.103-.71-3.328-2.246Zm1.782-1.147-1.121.72 3.326 2.249 1.122-.722-3.327-2.248Zm-7.38-.494.448.69a72.313 72.313 0 0 1-6.116 1.581l-.436-.775c2.103-.41 4.127-.91 6.105-1.496Zm-7.526-12.746 9.604 6.49-10.278 6.609-.84-.567.521-.337-7.925-5.355-.522.336-.84-.567 10.28-6.609Zm8.278 9.656 1.158.03c.18.927.246 1.763.185 2.514l-1.18-.018c.1-.686.046-1.529-.163-2.526Zm-8.226-8.584-8.181 5.26 7.925 5.358 8.181-5.262-7.925-5.356Zm11.432 6.802 1.158.031c.219.978.312 1.872.28 2.655l-1.18-.004c.061-.737-.012-1.632-.258-2.682Zm-11.655-4.46 4.619 3.123-4.35 2.798-4.62-3.121 4.351-2.8Zm.043 1.03-2.846 1.83 3.008 2.032 2.846-1.83-3.008-2.032Zm-9.323-10.13 1.033.698-2.268 7.83.038.026 7.098-4.566.975.659-8.724 5.609-1.003-.68 2.318-7.897-.029-.02-7.177 4.616-.985-.665 8.724-5.609Zm-8.446-5.706 3.065 2.071c1.35.912 1.97 1.849 1.867 2.833-.103.902-.837 1.808-2.207 2.688-1.34.862-2.75 1.312-4.192 1.336-1.521.025-2.947-.406-4.288-1.311l-2.968-2.007 8.723-5.611Zm.116 1.222-6.99 4.494 1.813 1.226c1.118.756 2.263 1.126 3.422 1.117 1.121-.022 2.257-.397 3.39-1.124 1.172-.754 1.787-1.479 1.856-2.173.082-.738-.444-1.483-1.561-2.238l-1.93-1.302Zm-4.963-4.731c.944.639 1.478 1.35 1.614 2.117.134.765-.171 1.469-.931 2.109l-.944-.637c.523-.49.708-1.016.56-1.557-.129-.528-.54-1.013-1.205-1.463-.994-.67-2.12-.964-3.368-.872-1.161.084-2.279.473-3.37 1.176-1.085.695-1.71 1.416-1.847 2.166-.14.79.268 1.518 1.27 2.197a4.95 4.95 0 0 0 2.287.82c.895.083 1.815-.05 2.745-.42l.946.639c-1.207.521-2.448.734-3.713.62-1.188-.114-2.235-.471-3.151-1.09-1.33-.898-1.891-1.874-1.707-2.919.16-.956.896-1.848 2.185-2.678 1.3-.836 2.691-1.298 4.174-1.387 1.659-.114 3.133.285 4.455 1.179Z"/><path stroke="url(#b)" stroke-dasharray="4.995" stroke-width="3.33" d="m610.596 232.041 133.216-75.351" transform="translate(50.002 65)"/><path stroke="url(#c)" stroke-dasharray="4.995" stroke-width="3.33" d="m163.498 198.5 74.682-49.316" transform="translate(50.002 65)"/><path stroke="url(#d)" stroke-dasharray="4.995" stroke-width="3.33" d="m272.753 167.446-39.73 22.42L517.19 371l301.652-173.365" transform="translate(50.002 65)"/><path fill="#B031E2" fill-rule="nonzero" d="m853.532 260.424 19.906-1.011-1.532 11.037z"/><path fill="#4CA5F2" fill-rule="nonzero" d="m780.033 220.043 19.906-1.011-1.531 11.036-18.375-10.025Zm-297.228 44.451 18.545-9.311 1.421 10.503-19.966-1.192ZM274.401 212.537l19.906-1.011-1.53 11.036z"/><g fill-rule="nonzero"><path fill="#1F1BA8" d="m493.984 354.015 83.164-49.2 83.163 49.2-83.163 49.2z" opacity=".341"/><path fill="#2995EB" d="m493.984 306.621 83.164-49.2 83.163 49.2-83.163 49.2z"/><path fill="#5CD3FF" d="m493.904 305.857 84.008 50.07v10.98l-84.009-48.543z"/><path fill="#3B62FF" d="m660.392 305.857-84.008 48.931v12.12l84.008-48.933z"/><path fill="#1F1BA8" d="m509.106 308.228 68.042-40.256 68.042 40.256-68.042 40.253z" opacity=".257"/><path fill="#2995EB" d="m493.984 276.096 83.164-49.2 83.163 49.2-83.163 49.2z"/><path fill="#0069EB" d="m513.688 276.176 63.721-37.698 63.723 37.698-63.723 37.698z"/><path fill="#3FBAFF" d="m566.737 256.575 33.437 5.27 9.219 19.338-4.768-.755-7.937-16.558-28.663-4.522-20.713 12.029 7.908 16.575 28.663 4.522 14.678-8.522 4.775.747-18.165 10.548-33.438-5.27-9.218-19.337 24.222-14.065Zm22.849 13.182 4.613 9.67-12.11 7.033-1.328-2.762 8.632-5.013-3.296-6.903 3.489-2.025ZM580.459 268l4.613 9.67-12.11 7.034-1.308-2.763 8.622-5.008-3.296-6.913 3.479-2.02Zm-9.12-1.762 4.615 9.672-12.11 7.033-4.614-9.672 12.11-7.033Zm-2.168 4.794-5.136 2.982 1.968 4.142 5.145-2.99-1.977-4.134Z"/><path fill="#5CD3FF" d="m493.904 275.332 84.008 50.07v15.56l-84.009-48.545z"/><path fill="#3B62FF" d="m660.392 275.332-84.008 48.932v16.697l84.008-48.932z"/></g><g fill-rule="nonzero"><path fill="#1F1BA8" d="m296.513 222.862 83.348-49.337 83.35 49.336-83.349 49.336z" opacity=".341"/><path fill="#2995EB" d="m296.512 175.336 83.35-49.337 83.35 49.337-83.35 49.335z"/><path fill="#5CD3FF" d="m296.432 174.57 84.196 50.208v11.01l-84.196-48.676z"/><path fill="#3B62FF" d="m463.292 174.57-84.196 49.067v12.152l84.196-49.067z"/><path fill="#1F1BA8" d="m311.667 176.947 68.194-40.366 68.195 40.366-68.195 40.365z" opacity=".257"/><path fill="#2995EB" d="m296.512 144.726 83.35-49.336 83.35 49.335-83.35 49.337z"/><path fill="#0069EB" d="m316.26 144.806 63.863-37.803 63.865 37.803-63.865 37.803z"/><path fill="#3FBAFF" d="m370.748 123.757 34.443 5.427 9.5 19.896-4.942-.76-8.141-17.057-29.52-4.646-21.334 12.375 8.13 17.052 29.531 4.652 15.12-8.771 4.916.775-18.705 10.849-34.444-5.425-9.499-19.897 24.945-14.47Zm4.259 10.787 17.609 2.712 4.85 9.95-12.75 7.235-17.598-2.717-4.86-9.946 12.749-7.234Zm5.156 12.245-5.659 3.14 9.66 1.451 5.649-3.136-9.65-1.456Zm-7.07-7.653-6.243 3.398 2.932 5.785 6.253-3.404-2.941-5.779h-.001Zm4.473-1.53 3.307 7.216 12.001 1.966-3.298-7.221-12.01-1.962Z"/><path fill="#5CD3FF" d="m296.432 143.96 84.196 50.209v15.603l-84.196-48.678z"/><path fill="#3B62FF" d="m463.292 143.96-84.196 49.067v16.745l84.196-49.067z"/></g><path fill="#77FFED" fill-rule="nonzero" d="m535.097 353.113 1.522.889-3.065 10.145.057.033 10.198-5.986 1.445.843-12.531 7.356-1.48-.862 3.127-10.234-.05-.03-10.303 6.049-1.452-.846 12.532-7.357Zm-12.472-7.273 4.52 2.636c2 1.165 2.943 2.37 2.802 3.644-.114 1.167-1.165 2.342-3.13 3.496-1.931 1.133-3.972 1.73-6.064 1.785-2.198.05-4.302-.497-6.281-1.652l-4.376-2.553 12.53-7.356Zm.201 1.573-10.042 5.896 2.684 1.564c1.644.958 3.32 1.424 5.017 1.403 1.617-.041 3.267-.536 4.9-1.495 1.684-.987 2.565-1.938 2.645-2.835.08-.954-.698-1.906-2.357-2.873l-2.846-1.66h-.001Zm-7.377-6.048c1.395.813 2.208 1.718 2.426 2.705.213.993-.215 1.91-1.282 2.745l-1.395-.813c.735-.64.972-1.32.756-2.018-.217-.68-.817-1.304-1.806-1.881-1.466-.855-3.1-1.212-4.915-1.079-1.688.124-3.317.64-4.874 1.552-1.562.917-2.457 1.86-2.63 2.828-.178 1.021.437 1.96 1.917 2.821 1.012.592 2.127.929 3.355 1.03 1.307.11 2.646-.079 3.977-.576l1.396.814a12.05 12.05 0 0 1-5.39.847c-1.716-.125-3.272-.577-4.618-1.361-1.957-1.142-2.808-2.4-2.568-3.759.2-1.24 1.25-2.39 3.117-3.486a13.36 13.36 0 0 1 6.02-1.844c2.397-.165 4.57.341 6.514 1.475ZM340.76 221.76c1.41.155 2.768.62 4.087 1.384 1.419.82 2.246 1.666 2.408 2.52.182.891-.341 1.756-1.544 2.598l-1.44-.835c.762-.627 1.07-1.224.961-1.802-.103-.596-.691-1.187-1.724-1.784-.947-.548-1.813-.884-2.67-1.008-.959-.142-1.787-.01-2.513.414-.634.37-.795.872-.456 1.524.146.29.662.896 1.532 1.814 1.179 1.254 1.876 2.13 2.094 2.628.412.976.068 1.802-1.086 2.474-1.09.635-2.424.897-3.947.751-1.514-.158-3.018-.664-4.53-1.54-1.49-.863-2.354-1.726-2.566-2.593-.241-1.018.361-2.01 1.804-2.978l1.442.835c-.976.71-1.392 1.412-1.268 2.079.125.61.736 1.247 1.876 1.907 1.032.597 2.077.979 3.114 1.125 1.022.145 1.879.02 2.55-.37.796-.465.985-1.076.589-1.82-.146-.323-.75-1.029-1.762-2.086-1.08-1.155-1.697-1.928-1.892-2.288-.42-.897-.088-1.649.972-2.267 1.097-.639 2.432-.875 3.969-.681Zm-8.276-5.777c1.885 1.091 2.777 2.327 2.606 3.702-.171 1.3-1.186 2.515-3.115 3.641-1.91 1.113-3.985 1.697-6.22 1.802-2.35.095-4.496-.41-6.402-1.515-1.907-1.105-2.764-2.338-2.614-3.707.156-1.308 1.193-2.512 3.087-3.617a13.255 13.255 0 0 1 6.227-1.814c2.378-.104 4.502.391 6.43 1.508Zm-6.246-.374c-1.736.104-3.385.606-4.957 1.523-1.552.905-2.419 1.869-2.592 2.877-.173 1.05.497 2.01 1.952 2.851 1.463.846 3.108 1.23 4.879 1.147a11.1 11.1 0 0 0 4.992-1.527c1.609-.938 2.469-1.914 2.649-2.927.151-1.038-.511-1.976-1.966-2.82-1.462-.846-3.107-1.228-4.957-1.124Zm-6.786-7.174c1.405.814 2.233 1.723 2.453 2.71.218.989-.226 1.907-1.3 2.74l-1.405-.813c.74-.64.985-1.316.766-2.022-.21-.676-.82-1.294-1.816-1.872-1.477-.856-3.13-1.216-4.956-1.083-1.7.124-3.327.64-4.9 1.556-1.574.92-2.47 1.857-2.643 2.823-.193 1.022.432 1.955 1.931 2.824 1.011.584 2.135.929 3.378 1.029 1.309.104 2.65-.08 3.998-.573l1.405.814a12.251 12.251 0 0 1-5.42.843c-1.741-.126-3.296-.577-4.65-1.362-1.977-1.146-2.842-2.4-2.592-3.761.2-1.234 1.259-2.391 3.13-3.483a13.537 13.537 0 0 1 6.077-1.844c2.406-.161 4.589.341 6.544 1.474Z"/><path fill="#FF64CD" fill-rule="nonzero" d="m779.154 334.835.748.505c3.185 2.703 4.101 5.675 2.732 8.947l-1.323-.113c.69-1.55.819-3.035.403-4.45-1.152.053-2.237.179-3.199.386l-.203-.748c1.049-.2 2.096-.312 3.138-.347-.485-1.07-1.255-2.097-2.346-3.07l-2.431 1.54c.751 1.288 1.056 2.548.954 3.764l-1.332-.11c.146-1.745-.591-3.505-2.246-5.26l1.036-.47c.406.444.764.882 1.082 1.318l2.987-1.892Zm.342-2.38 3.574 2.418a88.498 88.498 0 0 1 5.572-.313l.248.87c-1.987-.018-3.605.004-4.865.089l6.31 4.268-.904.572-10.838-7.334.903-.57Zm15.107-8.966 9.232 6.247c.716.484.722.969-.013 1.434l-1.24.786-1.07-.413 1.229-.728c.337-.215.345-.442.03-.657l-8.22-5.561-8.078 5.116 9.548 6.46-.885.559-10.368-7.016 9.834-6.228v.001ZM791 328.072c1.017.946 1.876 1.867 2.573 2.753 1.076.118 2.251.264 3.475.453l-.023.753a130.55 130.55 0 0 0-2.873-.409c.712 1.064 1.168 2.09 1.366 3.041l-1.226-.088c-.235-1.003-.75-2.042-1.528-3.113a73.155 73.155 0 0 0-3.819-.31l.048-.695c.916.02 1.975.088 3.151.21a25.009 25.009 0 0 0-2.1-2.176l.957-.42Zm3.71-2.312c1.103 1.029 1.99 2.02 2.691 2.977 1.156.17 2.436.373 3.813.615l-.032.772c-1.07-.201-2.144-.385-3.22-.552.671 1.101 1.089 2.139 1.256 3.123l-1.216-.081c-.213-1.042-.689-2.13-1.436-3.233a64.675 64.675 0 0 0-3.895-.428l.03-.695a41.86 41.86 0 0 1 3.255.294c-.62-.771-1.377-1.556-2.222-2.361l.976-.432v.001Zm12.897-10.32.84.569-5.338 3.381 1.787 1.209c2.264-.47 4.672-.868 7.215-1.214l.23.857c-2.682.331-4.872.655-6.538.971l6.737 4.56-.903.571-9.43-6.382-4.705 2.979-.842-.57 10.947-6.931Zm7.89-1.68c.313.679.506 1.395.563 2.135l5.81 3.933-.874.552-4.94-3.342c-.075.597-.18 1.215-.386 1.857l-1.117-.419c.485-1.633.421-3.12-.213-4.446l1.158-.27Zm7.62-4.023.84.568-1.995 1.265 5.181 3.506c.687.464.624.955-.16 1.452l-1.815 1.15-1.02-.456a35.038 35.038 0 0 0 1.744-1.031c.387-.245.442-.479.137-.687l-4.97-3.362-3.881 2.456-.84-.568 6.779-4.293Zm-10.89 2.564c.615 1.325.669 2.82.144 4.466l-1.109-.413c.412-1.411.34-2.67-.201-3.79l1.166-.263Zm17.565-3.285a37.13 37.13 0 0 1 2.663 3.907l-1.176.296a29.658 29.658 0 0 0-2.568-3.907l1.08-.296Zm-10.232-.97.84.569-5.894 3.733-.842-.57 5.896-3.732Zm11.558-1.122c1.499 1.078 2.477 1.947 2.926 2.615.476.7.62 1.46.47 2.268l-1.245-.1c.137-.687.01-1.32-.383-1.91-.402-.572-1.286-1.352-2.63-2.327l.862-.546Zm2.034-1.277 5.13 3.474-.891.564-5.134-3.472.894-.566h.001Zm-5.19 2.26-.004.817c-1.022-.081-2.249-.053-3.694.048l.032-.796c1.348-.104 2.576-.128 3.666-.07Zm7.334-3.617 4.176 2.826c.155.113.36.132.534.049l.546-.344c.19-.16.185-.317-.052-.518-.228-.22-.677-.549-1.308-.976l1.061-.295c1.042.705 1.612 1.18 1.703 1.438.07.242-.115.522-.57.85l-.616.388c-.715.454-1.377.458-1.99.045l-4.329-2.93.845-.533Zm-2.645-3.948.766.518-4.497 2.846c.4 1.038.62 1.85.642 2.437a64.128 64.128 0 0 0 3.863-2.909 75.341 75.341 0 0 0-1.875-.18l.314-.736c1.808.12 3.275.293 4.457.508l-.228.808c-.474-.1-.968-.175-1.474-.256-1.603 1.28-3.427 2.634-5.416 4.057l-.926-.367.123-.164c.18-.488.038-1.352-.393-2.619l-2.162 1.372-.766-.518 3.445-2.18a24.546 24.546 0 0 0-1.77-.47l.75-.663c.6.146 1.238.342 1.903.572l3.244-2.056Zm-7.46 5.366-.024.803c-.954-.034-2.096.024-3.453.17l.043-.815c1.27-.127 2.402-.182 3.433-.158Zm22.53-9.988 3.03 2.051-3.872 2.45.66.446 4.178-2.645.573.39-4.177 2.643.698.473 5.07-3.212.66.446-11.005 6.97-.66-.446 5.05-3.199-.696-.473-4.129 2.614-.574-.387 4.128-2.616-.657-.446-3.822 2.421-3.028-2.05 8.573-5.43Zm-2.987 4.207-2.966 1.878.727.493 2.967-1.88-.728-.49Zm2.974-5.814.64.434-11.035 6.988-.64-.434 11.035-6.988Zm-4.205 4.98-2.968 1.878.737.5 2.967-1.88-.736-.497Zm5.132-1.638-3.016 1.912.726.491 3.016-1.91-.726-.493Zm-5.95-4.805 2.934 1.986-8.05 5.097-2.932-1.986 8.047-5.097Zm4.718 3.974-3.017 1.91.736.498 3.018-1.911-.737-.497Zm-3.862-2.262-6.32 4.002.696.471 6.322-4.002-.698-.471Zm-1.194-.81-6.322 4.004.689.465 6.32-4.004-.687-.464v-.001Z"/><path fill="#3BDAE2" fill-rule="nonzero" d="m775.22 250.595 11.035-6.988.638.433-11.034 6.988z"/><g transform="translate(777.693 245.215)"><mask id="f" fill="#fff"><use xlink:href="#e"/></mask><path fill="#3BDAE2" fill-rule="nonzero" d="m6.315 4.696-.728-.49-2.966 1.88.727.49 2.967-1.88ZM5.092 3.87l-.737-.497L1.388 5.25l.736.498L5.09 3.87h.002Zm1.38-.223.726.492 3.015-1.91-.725-.492-3.016 1.91Zm-1.234-.834.737.497 3.017-1.907-.736-.5-3.018 1.911Zm3.718 2.515.708.479 5.07-3.211.66.446L4.388 10.01l-.66-.446 5.05-3.2-.706-.479-4.128 2.616-.565-.382 4.129-2.614-.669-.454-3.821 2.42L0 5.43 8.574 0l3.02 2.043-3.87 2.45.668.454 4.178-2.645.564.381-4.178 2.645Z" mask="url(#f)"/></g><path fill="#3BDAE2" fill-rule="nonzero" d="M769.654 256.41c1.508 1.085 2.486 1.955 2.935 2.624.467.693.62 1.46.47 2.268l-1.243-.1a2.51 2.51 0 0 0-.394-1.917c-.393-.565-1.277-1.345-2.631-2.328l.863-.546Zm2.052-1.275 5.134 3.472-.903.572-5.133-3.474.903-.57Zm2.135-1.351 4.176 2.826c.155.114.361.133.535.05l.544-.346c.191-.157.176-.323-.052-.517-.237-.225-.675-.55-1.307-.975l1.061-.296c1.043.705 1.612 1.182 1.702 1.439.062.234-.113.52-.58.842l-.615.389c-.713.452-1.367.464-1.98.052l-4.329-2.93.846-.534h-.001Zm-2.655-3.952.776.523-4.495 2.846c.398 1.038.619 1.85.64 2.438a70.794 70.794 0 0 0 3.866-2.913 72.445 72.445 0 0 0-1.878-.176l.305-.742c1.82.125 3.285.297 4.467.512l-.237.801c-.465-.093-.96-.167-1.464-.25-1.606 1.281-3.427 2.636-5.417 4.057l-.925-.366.112-.17c.19-.483.049-1.346-.383-2.612l-2.163 1.368-.775-.521 3.445-2.181a25.015 25.015 0 0 0-1.76-.464l.759-.67c.59.153 1.218.344 1.884.575l3.244-2.055Zm-3.93 8.973 1.081-.296c.97 1.245 1.86 2.55 2.664 3.908l-1.177.297a30.098 30.098 0 0 0-2.568-3.909m-.762-.593c-1.012-.073-2.249-.054-3.685.053l.032-.796a27.075 27.075 0 0 1 3.667-.067l-.014.81Zm-2.78-2.208c-.955-.034-2.106.02-3.465.165l.052-.81a29.714 29.714 0 0 1 3.426-.164l-.015.81.001-.001Zm-22.75 16.182-.983.622a4.352 4.352 0 0 0-2.346-.366 5.07 5.07 0 0 0-2.224.783c-1.023.648-1.473 1.382-1.331 2.194.124.759.697 1.5 1.749 2.21 1.06.718 2.15 1.128 3.286 1.222a5.283 5.283 0 0 0 3.338-.823c.705-.446 1.118-.946 1.25-1.492.143-.592-.054-1.194-.62-1.799l.972-.615c.787.792 1.095 1.598.924 2.43-.167.771-.724 1.463-1.666 2.057a7.084 7.084 0 0 1-4.436 1.109c-1.45-.11-2.788-.601-4.05-1.454-1.252-.848-1.958-1.754-2.084-2.724-.165-1.086.458-2.054 1.807-2.91a6.85 6.85 0 0 1 3.207-1.055c1.172-.077 2.237.124 3.208.611Zm6.397-5.929c1.361.077 2.732.562 4.06 1.46 1.3.88 1.973 1.805 2.005 2.749.04.99-.63 1.926-2.01 2.8l-3.057 1.935-8.465-5.73 3.155-1.997c1.389-.882 2.813-1.295 4.312-1.217Zm-3.63 1.886-1.985 1.256 6.787 4.592 1.874-1.188c1.14-.723 1.707-1.469 1.702-2.228-.028-.733-.592-1.48-1.69-2.222-1.138-.77-2.238-1.177-3.297-1.231-1.11-.05-2.241.292-3.392 1.021Zm11.94-8.664 8.468 5.73-1.042.66-11.957-1.554-.04.027 6.965 4.714-1.012.64-8.467-5.73 1.062-.671 11.861 1.513.04-.024-6.89-4.664 1.013-.641Z"/><g transform="translate(773.182 242.144)"><mask id="h" fill="#fff"><use xlink:href="#g"/></mask><path fill="#3BDAE2" fill-rule="nonzero" d="M8.389 1.362 7.701.896 1.38 4.9l.69.464 6.32-4.002Zm1.213.82-.698-.47-6.32 4.003.698.471 6.321-4.004ZM8.05 0l2.924 1.979-8.048 5.096L0 5.095 8.048 0Z" mask="url(#h)"/></g><g fill-rule="nonzero"><path fill="#1F1BA8" d="m59.053 367.052 83.348-49.337 83.35 49.336-83.35 49.336z" opacity=".341"/><path fill="#2995EB" d="m59.052 319.526 83.349-49.337 83.35 49.337-83.35 49.335z"/><path fill="#5CD3FF" d="m58.972 318.76 84.196 50.208v11.01l-84.196-48.676z"/><path fill="#3B62FF" d="m225.832 318.76-84.196 49.067v12.152l84.196-49.067z"/><path fill="#1F1BA8" d="M74.207 321.137 142.4 280.77l68.195 40.366-68.195 40.365z" opacity=".257"/><path fill="#2995EB" d="M59.052 288.916 142.4 239.58l83.35 49.335-83.35 49.337z"/><path fill="#0069EB" d="m78.8 288.996 63.863-37.803 63.865 37.803-63.865 37.803z"/><path fill="#5CD3FF" d="m58.972 288.15 84.196 50.209v15.603l-84.196-48.678z"/><path fill="#3B62FF" d="m225.832 288.15-84.196 49.067v16.745l84.196-49.067z"/></g><g fill="#77FFED" fill-rule="nonzero"><path d="m62.544 352.034 1.499.849-5.57 2.438a15.488 15.488 0 0 1-3.236-.48c-1.031-.27-1.937-.626-2.717-1.068-1.103-.624-1.78-1.325-2.032-2.103-.252-.778-.076-1.552.528-2.323.604-.77 1.6-1.46 2.987-2.067 1.388-.607 2.892-1.012 4.512-1.215a17.098 17.098 0 0 1 4.703.042c1.515.23 2.83.66 3.943 1.29.874.495 1.48 1.026 1.819 1.594.339.567.397 1.15.176 1.748l-2.233.006c.228-.977-.277-1.816-1.516-2.518-.832-.471-1.813-.791-2.943-.96-1.13-.169-2.3-.176-3.512-.022a12.26 12.26 0 0 0-3.388.919c-1.034.452-1.782.967-2.244 1.546-.462.578-.6 1.158-.416 1.74.185.583.688 1.107 1.51 1.573.978.554 2.137.903 3.478 1.047l4.652-2.036ZM74.084 351.481l1.56.884-14.282 6.251-1.562-.884zM79.317 356.226l-3.747-2.12 1.776-.777 9.037 5.117-1.776.776-3.745-2.12-12.509 5.474-1.545-.876zM97.48 364.73l-14.284 6.25-1.56-.883 6.366-2.787-6.275-3.552-6.365 2.786-1.561-.884 14.282-6.25 1.561.882-6.14 2.689 6.273 3.553 6.142-2.688zM90.837 375.47c-1.457-.824-2.047-1.704-1.77-2.64.276-.936 1.435-1.85 3.475-2.743l8.121-3.554 1.561.883-8.04 3.519c-3.06 1.34-3.565 2.59-1.515 3.75.998.566 2.14.834 3.426.804 1.286-.03 2.704-.385 4.255-1.063l8.04-3.519 1.513.858-8.12 3.554c-2.055.899-4.028 1.355-5.921 1.369-1.893.013-3.568-.392-5.025-1.217ZM113.578 380.749c.403.46.484.926.243 1.397s-.824.91-1.75 1.314a8.024 8.024 0 0 1-3.925.645c-1.38-.112-2.75-.554-4.113-1.326l-5.213-2.952 14.283-6.25 4.9 2.775c1.25.707 1.888 1.396 1.916 2.068.029.671-.535 1.26-1.691 1.766a7.93 7.93 0 0 1-2.336.623c-.81.088-1.581.068-2.314-.06Zm-.567-5.565-4.57 2 3.199 1.812c.801.453 1.611.718 2.43.793a4.706 4.706 0 0 0 2.352-.38c.748-.327 1.1-.698 1.056-1.112-.044-.414-.466-.848-1.268-1.302l-3.2-1.811Zm-7.388 6.837c.884.5 1.74.794 2.57.88.827.088 1.65-.048 2.466-.405 1.591-.696 1.497-1.548-.282-2.556l-3.59-2.033-4.754 2.08 3.59 2.034Z"/></g><path fill="#3FBAFF" fill-rule="nonzero" d="M121.101 299.483c8.585 6.636 23.493 11.037 37.634 5.824.22-.112.401-.229.553-.35 1.142-.902.774-2.204-.649-3.044-1.178-.5-4.676-3.532-6.014-1.693-2.616 3.536-5.845 2.24-7.864 1.823 4.348.375 6.662-1.55 7.389-3.604.403-1.14-1.633-1.621-1.712-2.322-.12-1.07-2.107-1.735-3.198-1.066-3.885 2.375-8.492 3.978-15.826-.35-4.296-2.535-2.483-4.5-4.886-5.081-.088-.021-1.98-.497-3.73-2.11 2.59-1.333 5.562-.897 6.193-1.898 1.552-2.486 4.264-4.632 7.637-6.041 1.403-.593.175-2.331 1.812-4.453 3.922 1.425 3.388 2.953 5.455 3.011 2.27.065 4.37.657 6.241 1.76 11.026 6.507.954 10.077 2.896 11.997.442.439 1.194.695 1.913.655 1.907-.105 4.4 1.528 6.404 2.841 2.078 1.361 3.87 2.536 5.814 2.459.689-.025 1.648-.228 2.376-1.187 5.464-10.156-3.003-19.581-13.823-24.419-29.552-13.21-57.89 9.253-34.615 27.248Zm33.83 3.283 1.007.586a31.554 31.554 0 0 1-3.388.976 8.361 8.361 0 0 0 2.381-1.562Zm-6.792-4.754.137.111c-.746 1.28-2.201 1.745-4.348 1.382-.002-.002-.002-.002-.005-.002 1.714-.36 3.126-.94 4.216-1.49Zm-26.553-22.074c17.278-13.669 53.41 2.27 44.581 19.31-.644-.303-1.703-.998-2.45-1.488-1.8-1.179-3.897-2.553-6.227-3.244 5.331-7.116-5.12-14.14-12.912-14.787-1.532-1.394-6.108-3.897-7.927-3.208-.43.162-2.508 1.152-2.964 5.183-3.366 1.525-6.112 3.694-7.828 6.193-2.875.45-8.527 1.95-6.916 3.83 1.88 2.185 4.216 3.307 5.643 3.829 1.828 4.586 9.901 8.299 15.891 8.3-2.39.592-4.71 1.983-3.256 3.435 1.584 1.586 3.137.012 8.009 1.34.574.191 1.32.36 2.167.442-20.973 1.36-41.025-17.1-25.811-29.135Z"/></g></svg>