<svg xmlns="http://www.w3.org/2000/svg" xmlns:xlink="http://www.w3.org/1999/xlink" width="1000" height="500" viewBox="0 0 1000 500"><title>编组 4</title><defs><linearGradient id="a" x1="15.56%" x2="81.699%" y1="28.653%" y2="71.347%"><stop offset="0%" stop-color="#212FD3" stop-opacity="0"/><stop offset="100%" stop-color="#5CD3FF"/></linearGradient><linearGradient id="b" x1="15.56%" x2="81.699%" y1="33.93%" y2="66.07%"><stop offset="0%" stop-color="#212FD3" stop-opacity="0"/><stop offset="100%" stop-color="#5CD3FF"/></linearGradient><linearGradient id="c" x1="-29.697%" x2="85.607%" y1="28.737%" y2="54.81%"><stop offset="0%" stop-color="#7121D3" stop-opacity=".57"/><stop offset="100%" stop-color="#C34CCB"/></linearGradient><path id="d" d="M0 0h16.874v10.999H0z"/><path id="f" d="M0 0h12.028v7.774H0z"/></defs><g fill="none" fill-rule="evenodd"><path fill="#212FD2" d="M0 0h1000v500H0z"/><g transform="translate(679.32 47.28)"><path fill="#1B6AE8" fill-rule="nonzero" d="m25.178 5.282 151.067 85.055v124.397L25.178 129.679z"/><path fill="#1F1BA8" fill-rule="nonzero" d="m40.937 149.13 145.38 79.489-40.937 26.075L0 175.204z" opacity=".341"/><path fill="#2995EB" fill-rule="nonzero" d="m33.571 0 151.067 85.055-8.393 5.282L25.178 5.282z"/><path fill="#2851F5" fill-rule="nonzero" d="M184.638 209.876V85.055l-8.393 5.282v124.821z"/><path fill="#3C81EE" fill-rule="nonzero" d="m5.036 18.687 151.067 85.055v124.397L5.036 143.083z"/><path fill="#5B9BFF" fill-rule="nonzero" d="m13.428 61.998 75.534 42.868v62.696l-75.534-42.868zM97.355 110.591l46.998 27.787v9.076l-46.998-27.787zM97.355 127.347l46.998 27.787v9.076l-46.998-27.787zM97.355 144.103l35.249 21.085v9.076l-35.249-21.085z"/><ellipse cx="12.589" cy="32.092" fill="#72A9FF" fill-rule="nonzero" rx="2.518" ry="3.351"/><ellipse cx="20.982" cy="35.443" fill="#72A9FF" fill-rule="nonzero" rx="2.518" ry="3.351"/><path stroke="#212FD3" stroke-width="1.825" d="m2.518 36.281 154.424 87.132"/></g><path stroke="url(#a)" stroke-dasharray="5.475" stroke-width="3.65" d="m148.647 159.183 90.56 60.323" transform="translate(134.5 47.28)"/><path fill="#3CDBE3" fill-rule="nonzero" d="m343.51 278.097 9.132 6.186-3.41 2.197-4.123-2.792-.755.488 4.45 3.014-.648.418-4.45-3.015-.788.508 5.4 3.66-.743.479-11.723-7.938.745-.482 5.37 3.637.789-.507-4.388-2.971.648-.417 4.386 2.97.755-.485-4.058-2.75 3.41-2.2Zm3.012 4.68-.82.531 3.214 2.175.82-.53-3.214-2.176Zm-2.952-6.478 11.753 7.96-.722.465-11.755-7.96.724-.465Zm4.345 5.581-.83.537 3.212 2.174.831-.534-3.213-2.177Zm1.276-7.066 8.562 5.797-3.303 2.128-8.562-5.797 3.303-2.128Zm-6.781 5.18-.82.53 3.161 2.139.821-.528-3.162-2.141Zm1.393-.899-.83.537 3.16 2.141.83-.538-3.16-2.14Zm4.364-2.406-.787.507 6.733 4.56.789-.508-6.735-4.56Zm1.362-.878-.78.5 6.735 4.562.777-.501-6.732-4.561Zm-12.195-1.096.898.61-4.715 3.04c-.195.123-.218.25-.083.386l.573.387c.275.144.542.14.876-.035.366-.166.915-.492 1.628-.952l.5.768c-1.176.757-1.972 1.174-2.402 1.24-.406.053-.874-.079-1.435-.416l-.654-.442c-.762-.516-.766-.989-.074-1.434l4.888-3.152Zm-2.335-1.581.952.643-5.798 3.737-.95-.645 5.796-3.735Zm1.77-5.207 3.667 2.483c.305-.45.58-.876.779-1.285l1.112.54c-.241.435-.569.886-.95 1.383l3.446 2.333-.864.556-4.789-3.242c-1.724.301-3.083.464-4.077.477a83.701 83.701 0 0 0 4.903 2.792c.102-.444.206-.887.287-1.36l1.247.215c-.213 1.312-.485 2.383-.853 3.233l-1.332-.161c.156-.337.278-.696.413-1.06a171.567 171.567 0 0 1-6.819-3.905l.608-.672.267.08c.82.128 2.274.029 4.384-.298l-2.293-1.551.863-.558Zm-3.884 3.76.92.622c-1.803 1.092-3.267 1.8-4.371 2.135-1.17.333-2.454.449-3.799.352l.165-.902c1.141.089 2.21 0 3.187-.295.966-.288 2.27-.932 3.898-1.912Zm-3.103-1.115.512.787c-2.246.75-4.413 1.406-6.548 1.944l-.488-.846a75.424 75.424 0 0 0 6.524-1.885Zm-7.114-2.736 1.063.348a14.412 14.412 0 0 1-1.563 2.866l-1.158-.315a15.192 15.192 0 0 0 1.658-2.9Zm8.01-.483 1.334.02c.178.977.228 1.865.129 2.656l-1.356-.005c.117-.733.069-1.624-.108-2.671Zm-5.879-8.632 7.874 5.333-.863.558-2.897-1.962a15.55 15.55 0 0 1-1.621.572l2.558 1.73-4.705 3.035-2.179-1.475-3.788 2.442c-.722.466-1.429.459-2.115-.007l-1.1-.744.663-.692c.316.256.613.5.919.707.297.201.627.198.961-.018l3.562-2.296-2.25-1.526 4.704-3.033 1.872 1.268c.569-.172 1.104-.35 1.621-.571l-3.16-2.14-3.896 2.512c-2.946 1.826-5.773 2.994-8.462 3.483l-.062-.898c2.327-.42 4.863-1.484 7.604-3.21l4.76-3.068Zm9.38 6.767 1.356.033c.21.914.314 1.741.292 2.482l-1.357-.007c.042-.699-.05-1.518-.292-2.508Zm-14.984-.275.663.69c-1.516.53-3.028.877-4.494 1.022l-.287-.82a16.087 16.087 0 0 0 4.118-.892Zm3.452-1.54-1.207.777 3.646 2.47 1.209-.78-3.648-2.468Zm1.954-1.26-1.229.792 3.646 2.47 1.23-.793-3.647-2.47Zm-8.089-.543.49.759a79.122 79.122 0 0 1-6.704 1.737l-.478-.852c2.305-.451 4.524-1 6.692-1.644Zm-8.251-14.004 10.528 7.13-11.267 7.262-.92-.623.571-.37-8.688-5.884-.572.37-.92-.623 11.268-7.262Zm9.075 10.609 1.269.033c.198 1.019.27 1.937.203 2.763l-1.293-.02c.108-.754.05-1.68-.18-2.776Zm-9.018-9.431-8.968 5.78 8.688 5.886 8.968-5.781-8.688-5.885Zm12.532 7.473 1.269.035c.24 1.074.342 2.056.307 2.917l-1.293-.005c.067-.81-.013-1.793-.283-2.947Zm-12.776-4.899 5.063 3.43-4.769 3.075-5.064-3.43 4.77-3.075Zm.047 1.131-3.12 2.01 3.298 2.233 3.119-2.01-3.297-2.233Zm-10.22-11.13 1.132.767-2.486 8.602.042.029L304.37 246l1.068.724-9.563 6.163-1.099-.746 2.541-8.678-.032-.022-7.867 5.072-1.08-.73 9.563-6.163Zm-9.259-6.27 3.36 2.276c1.481 1.002 2.16 2.031 2.047 3.112-.113.992-.918 1.987-2.419 2.954-1.469.947-3.015 1.441-4.596 1.468-1.667.027-3.23-.446-4.7-1.441l-3.254-2.205 9.562-6.165Zm.128 1.343-7.663 4.938 1.988 1.347c1.225.83 2.48 1.237 3.751 1.227 1.229-.024 2.474-.436 3.717-1.235 1.284-.828 1.958-1.625 2.034-2.388.089-.81-.487-1.629-1.712-2.458l-2.115-1.431Zm-5.441-5.198c1.035.702 1.621 1.483 1.769 2.326.147.841-.187 1.614-1.02 2.317l-1.035-.7c.574-.538.776-1.116.613-1.71-.14-.58-.591-1.113-1.32-1.608-1.089-.735-2.323-1.059-3.692-.958-1.273.092-2.498.52-3.695 1.292-1.188.764-1.873 1.556-2.024 2.38-.154.867.294 1.668 1.393 2.414.75.507 1.59.804 2.506.9.982.092 1.99-.054 3.01-.461l1.036.702c-1.323.573-2.683.807-4.07.682-1.302-.126-2.45-.518-3.454-1.197-1.458-.988-2.073-2.06-1.871-3.208.176-1.05.982-2.031 2.395-2.943 1.425-.918 2.95-1.426 4.576-1.523 1.818-.126 3.434.313 4.883 1.295Z"/><path stroke="url(#b)" stroke-dasharray="5.475" stroke-width="3.65" d="m413.895 254.949 146.031-82.79" transform="translate(134.5 47.28)"/><path stroke="url(#c)" stroke-dasharray="5.475" stroke-width="3.65" d="M43.553 183.977 0 208.609l311.504 199.017 330.67-190.48" transform="translate(134.5 47.28)"/><path fill="#B031E2" fill-rule="nonzero" d="m759.889 261.997 21.821-1.111-1.679 12.126z"/><path fill="#4CA5F2" fill-rule="nonzero" d="m679.32 217.629 21.821-1.111-1.679 12.126zM353.499 266.469l20.329-10.231 1.558 11.54z"/><g fill-rule="nonzero"><path fill="#1F1BA8" d="m365.754 364.828 91.164-54.058 91.163 54.057-91.163 54.057z" opacity=".341"/><path fill="#2995EB" d="m365.754 312.755 91.164-54.058 91.163 54.057-91.163 54.057z"/><path fill="#5CD3FF" d="m365.666 311.915 92.089 55.013v12.064l-92.09-53.335z"/><path fill="#3B62FF" d="m548.17 311.915-92.09 53.762v13.315l92.09-53.762z"/><path fill="#1F1BA8" d="m382.33 314.52 74.588-44.23 74.587 44.23-74.587 44.227z" opacity=".257"/><path fill="#2995EB" d="m365.754 279.216 91.164-54.058 91.163 54.057-91.163 54.057z"/><path fill="#0069EB" d="m387.353 279.304 69.851-41.42 69.853 41.42-69.853 41.42z"/><path fill="#3FBAFF" d="m445.505 257.768 36.654 5.79 10.105 21.247-5.226-.829-8.701-18.193-31.42-4.968-22.705 13.216 8.668 18.211 31.42 4.969 16.09-9.364 5.235.821-19.913 11.59-36.654-5.79-10.105-21.247 26.552-15.453Zm25.047 14.483 5.057 10.625-13.276 7.727-1.455-3.035 9.463-5.507-3.613-7.585 3.824-2.225Zm-10.005-1.929 5.057 10.625-13.276 7.728-1.433-3.036 9.451-5.502-3.613-7.596 3.814-2.219Zm-9.997-1.936 5.059 10.627-13.276 7.727-5.057-10.627 13.274-7.727Zm-2.377 5.267-5.63 3.277 2.157 4.55 5.64-3.284-2.167-4.543Z"/><path fill="#5CD3FF" d="m365.666 278.377 92.089 55.012v17.096l-92.09-53.336z"/><path fill="#3B62FF" d="m548.17 278.377-92.09 53.762v18.346l92.09-53.763z"/></g><g fill-rule="nonzero"><path fill="#1F1BA8" d="m149.287 220.726 91.366-54.207 91.368 54.206-91.367 54.207z" opacity=".341"/><path fill="#2995EB" d="m149.286 168.508 91.367-54.207 91.368 54.207-91.367 54.206z"/><path fill="#5CD3FF" d="m149.198 167.668 92.295 55.164v12.098l-92.295-53.483z"/><path fill="#3B62FF" d="m332.11 167.668-92.296 53.91v13.352l92.295-53.911z"/><path fill="#1F1BA8" d="m165.899 170.278 74.754-44.35 74.755 44.35-74.755 44.35z" opacity=".257"/><path fill="#2995EB" d="m149.286 134.877 91.367-54.207 91.368 54.206-91.367 54.207z"/><path fill="#0069EB" d="M170.933 134.965 240.94 93.43l70.009 41.535L240.94 176.5z"/><path fill="#3FBAFF" d="m230.662 111.838 37.757 5.962 10.413 21.861-5.417-.835-8.924-18.741-32.36-5.105-23.386 13.597 8.913 18.735 32.371 5.111 16.575-9.637 5.388.852-20.504 11.92-37.757-5.961-10.413-21.861 27.344-15.898Zm4.669 11.852 19.303 2.979 5.317 10.933-13.976 7.949-19.292-2.985-5.327-10.928 13.975-7.948Zm5.652 13.453-6.203 3.451 10.59 1.594 6.191-3.446-10.578-1.6Zm-7.75-8.408-6.843 3.733 3.214 6.356 6.854-3.74-3.224-6.349Zm4.903-1.682 3.625 7.929 13.156 2.16-3.615-7.934-13.166-2.155Z"/><path fill="#5CD3FF" d="m149.198 134.036 92.295 55.165v17.143l-92.295-53.484z"/><path fill="#3B62FF" d="m332.11 134.036-92.296 53.91v18.398l92.295-53.911z"/></g><path fill="#77FFED" fill-rule="nonzero" d="m410.821 363.836 1.669.977-3.36 11.147.063.036 11.178-6.577 1.584.926-13.736 8.082-1.623-.947 3.429-11.244-.055-.033-11.294 6.646-1.592-.93zM397.15 355.845l4.955 2.896c2.192 1.28 3.226 2.605 3.071 4.004-.125 1.282-1.277 2.573-3.431 3.841-2.117 1.245-4.354 1.902-6.647 1.962-2.41.054-4.716-.547-6.886-1.816l-4.797-2.805 13.736-8.082Zm.22 1.728-11.008 6.478 2.942 1.719c1.802 1.053 3.64 1.565 5.5 1.541 1.772-.045 3.581-.589 5.371-1.642 1.846-1.085 2.812-2.13 2.9-3.115.087-1.048-.766-2.094-2.584-3.157l-3.12-1.824ZM389.283 350.928c1.53.894 2.421 1.888 2.66 2.973.233 1.09-.236 2.099-1.406 3.015l-1.529-.893c.806-.703 1.066-1.451.829-2.217-.238-.748-.896-1.433-1.98-2.067-1.607-.939-3.398-1.331-5.388-1.185-1.85.136-3.636.703-5.342 1.705-1.713 1.008-2.694 2.044-2.884 3.107-.195 1.122.48 2.153 2.102 3.1 1.109.65 2.332 1.02 3.678 1.132 1.432.12 2.9-.087 4.359-.634l1.53.895a13.181 13.181 0 0 1-5.907.93c-1.882-.137-3.588-.634-5.063-1.495-2.146-1.255-3.078-2.637-2.815-4.13.218-1.363 1.37-2.627 3.417-3.83a14.62 14.62 0 0 1 6.599-2.026c2.627-.182 5.01.375 7.14 1.62Z"/><g fill="#77FFED" fill-rule="nonzero"><path d="M206.027 226.585c1.545.17 3.035.68 4.48 1.52 1.556.902 2.462 1.83 2.64 2.768.2.98-.374 1.93-1.692 2.855l-1.579-.917c.835-.689 1.174-1.345 1.054-1.98-.113-.655-.758-1.304-1.89-1.96-1.038-.602-1.988-.972-2.928-1.108-1.05-.156-1.958-.01-2.754.455-.695.406-.871.958-.5 1.675.16.319.726.984 1.68 1.993 1.292 1.377 2.056 2.34 2.295 2.887.452 1.073.074 1.98-1.191 2.718-1.194.698-2.657.986-4.326.826-1.66-.174-3.309-.73-4.966-1.692-1.634-.949-2.58-1.897-2.813-2.85-.264-1.118.396-2.208 1.978-3.272l1.58.918c-1.069.78-1.525 1.551-1.389 2.284.137.67.806 1.37 2.056 2.095 1.131.656 2.277 1.076 3.414 1.236 1.12.16 2.059.022 2.794-.406.873-.511 1.081-1.182.646-2-.16-.355-.821-1.13-1.931-2.292-1.183-1.269-1.86-2.118-2.074-2.514-.46-.985-.097-1.811 1.066-2.49 1.202-.702 2.665-.962 4.35-.749ZM196.955 220.237c2.066 1.199 3.044 2.557 2.857 4.068-.188 1.427-1.3 2.763-3.415 4-2.093 1.223-4.368 1.865-6.818 1.98-2.576.104-4.929-.451-7.018-1.665-2.09-1.214-3.03-2.569-2.866-4.073.172-1.437 1.308-2.76 3.384-3.974a14.505 14.505 0 0 1 6.826-1.993c2.607-.114 4.936.43 7.05 1.657Zm-6.847-.411c-1.903.114-3.71.666-5.433 1.674-1.702.994-2.652 2.053-2.842 3.16-.19 1.155.545 2.208 2.14 3.133 1.604.93 3.407 1.352 5.348 1.26 1.903-.114 3.732-.66 5.473-1.678 1.763-1.03 2.706-2.103 2.903-3.216.166-1.14-.56-2.171-2.155-3.097-1.603-.93-3.406-1.35-5.434-1.236ZM182.67 211.944c1.54.894 2.447 1.893 2.688 2.978.24 1.086-.247 2.095-1.425 3.01l-1.54-.893c.811-.703 1.08-1.446.84-2.222-.23-.743-.899-1.422-1.991-2.057-1.619-.94-3.43-1.336-5.433-1.19-1.864.137-3.647.703-5.37 1.71-1.726 1.01-2.708 2.04-2.898 3.102-.212 1.122.474 2.148 2.117 3.102 1.108.642 2.34 1.021 3.703 1.131 1.434.114 2.904-.088 4.382-.63l1.54.895a13.402 13.402 0 0 1-5.94.926c-1.91-.138-3.614-.634-5.098-1.496-2.168-1.26-3.116-2.637-2.842-4.133.219-1.355 1.38-2.627 3.432-3.827a14.815 14.815 0 0 1 6.661-2.026c2.637-.177 5.03.375 7.174 1.62Z"/></g><path fill="#FF64CD" fill-rule="nonzero" d="m678.356 343.754.82.555c3.491 2.97 4.496 6.235 2.995 9.83l-1.45-.124c.755-1.704.897-3.335.441-4.889-1.262.058-2.452.196-3.506.423l-.223-.821c1.15-.22 2.298-.343 3.44-.382-.532-1.175-1.376-2.304-2.572-3.373l-2.665 1.692c.824 1.416 1.158 2.8 1.046 4.136l-1.46-.12c.16-1.918-.648-3.852-2.462-5.78l1.136-.517c.445.488.837.969 1.186 1.448l3.274-2.078Zm.375-2.616 3.918 2.657a96.791 96.791 0 0 1 6.108-.343l.272.955c-2.178-.019-3.952.005-5.333.098l6.916 4.69-.99.628-11.881-8.058.99-.627Zm16.56-9.85 10.12 6.863c.785.532.792 1.065-.014 1.576l-1.36.863-1.172-.453 1.347-.8c.37-.236.378-.486.032-.722l-9.01-6.11-8.855 5.621 10.467 7.098-.97.614-11.366-7.709 10.78-6.842Zm-3.948 5.035c1.114 1.039 2.056 2.051 2.82 3.025 1.18.13 2.468.29 3.809.498l-.025.827a142.799 142.799 0 0 0-3.149-.449c.78 1.169 1.28 2.295 1.497 3.341l-1.344-.097c-.257-1.102-.822-2.243-1.675-3.42a80.011 80.011 0 0 0-4.186-.34l.053-.764c1.004.022 2.165.096 3.454.23a27.45 27.45 0 0 0-2.303-2.39l1.05-.461Zm4.067-2.54c1.209 1.13 2.18 2.22 2.95 3.271 1.267.187 2.67.41 4.179.676l-.035.848a110.366 110.366 0 0 0-3.53-.607c.736 1.21 1.194 2.35 1.377 3.432l-1.333-.09c-.233-1.144-.755-2.34-1.574-3.552-1.522-.205-2.926-.372-4.27-.47l.033-.763c1.024.052 2.217.148 3.568.323-.68-.848-1.509-1.71-2.435-2.595l1.07-.474Zm14.137-11.34.921.626-5.851 3.715 1.958 1.328c2.482-.516 5.122-.953 7.909-1.333l.252.941c-2.939.364-5.34.72-7.166 1.067l7.385 5.01-.99.628-10.338-7.012-5.157 3.272-.923-.626 12-7.615Zm8.65-1.845c.342.746.554 1.533.616 2.346l6.37 4.321-.959.607-5.415-3.672c-.082.656-.198 1.335-.423 2.04l-1.225-.46c.532-1.794.462-3.428-.233-4.885l1.269-.297Zm8.352-4.42.921.624-2.187 1.39 5.68 3.852c.753.51.684 1.049-.175 1.595l-1.99 1.263-1.118-.5c.683-.38 1.312-.753 1.911-1.133.425-.269.485-.526.15-.755l-5.448-3.694-4.254 2.699-.92-.624 7.43-4.717Zm-11.937 2.817c.674 1.456.733 3.098.157 4.907l-1.215-.454c.452-1.55.373-2.933-.221-4.164l1.279-.289Zm19.254-3.609a40.8 40.8 0 0 1 2.92 4.293l-1.29.325a32.593 32.593 0 0 0-2.815-4.293l1.185-.325Zm-11.216-1.066.92.625-6.46 4.102-.923-.626 6.463-4.101Zm12.67-1.233c1.643 1.185 2.715 2.14 3.207 2.873.522.77.68 1.605.515 2.492l-1.364-.109c.15-.755.01-1.451-.42-2.1-.441-.627-1.41-1.485-2.884-2.556l.946-.6Zm2.23-1.403 5.624 3.817-.978.62-5.627-3.815.98-.622Zm-5.69 2.483-.004.898c-1.12-.089-2.465-.058-4.049.053l.035-.875c1.477-.114 2.824-.141 4.018-.076Zm8.04-3.974 4.578 3.105a.57.57 0 0 0 .585.054l.598-.378c.208-.175.203-.348-.057-.569-.25-.242-.742-.603-1.433-1.072l1.163-.325c1.142.775 1.767 1.298 1.866 1.58.078.266-.125.574-.625.934l-.674.427c-.784.498-1.51.503-2.182.049l-4.745-3.219.926-.586Zm-2.9-4.337.84.569-4.93 3.127c.439 1.14.68 2.032.704 2.677a70.31 70.31 0 0 0 4.235-3.196c-.67-.07-1.34-.14-2.055-.197l.344-.809c1.982.131 3.59.321 4.886.558l-.25.887c-.52-.11-1.062-.192-1.616-.281-1.758 1.406-3.757 2.894-5.937 4.458l-1.015-.404.134-.18c.198-.536.042-1.485-.43-2.877l-2.37 1.507-.84-.569 3.776-2.396a26.858 26.858 0 0 0-1.94-.516l.823-.728c.657.16 1.356.376 2.085.629l3.556-2.259Zm-8.178 5.895-.025.882c-1.046-.037-2.298.027-3.786.187l.047-.895c1.393-.14 2.633-.2 3.764-.174Zm24.698-10.974 3.321 2.254-4.244 2.692.724.49 4.58-2.907.628.428-4.579 2.905.765.52 5.558-3.53.723.491-12.063 7.658-.724-.49 5.536-3.515-.763-.52-4.526 2.872-.63-.425 4.526-2.874-.721-.49-4.189 2.66-3.32-2.252 9.398-5.967Zm-3.274 4.623-3.252 2.063.797.542 3.253-2.065-.798-.54Zm3.26-6.388.702.476-12.097 7.678-.702-.476 12.097-7.678Zm-4.61 5.472-3.253 2.063.808.548 3.252-2.065-.807-.546Zm5.626-1.8-3.306 2.1.796.54 3.306-2.098-.796-.542Zm-6.523-5.28 3.217 2.182-8.824 5.6-3.215-2.182 8.822-5.6Zm5.172 4.366-3.307 2.098.807.548 3.308-2.1-.808-.546Zm-4.233-2.485-6.928 4.397.763.518 6.93-4.397-.765-.518Zm-1.309-.89-6.93 4.4.755.51 6.929-4.399-.754-.51Z"/><path fill="#3BDAE2" fill-rule="nonzero" d="m674.043 251.197 12.097-7.678.7.476-12.096 7.678z"/><g transform="translate(676.754 245.286)"><mask id="e" fill="#fff"><use xlink:href="#d"/></mask><path fill="#3BDAE2" fill-rule="nonzero" d="m6.922 5.16-.797-.539-3.252 2.065.797.54L6.922 5.16Zm-1.34-.909-.808-.546-3.252 2.063.806.548L5.58 4.251Zm1.513-.245.795.541 3.306-2.099-.795-.541-3.306 2.099ZM5.742 3.09l.808.546L9.857 1.54 9.05.992 5.742 3.091Zm4.076 2.763.776.526 5.558-3.528.723.49L4.81 10.998l-.723-.49 5.536-3.515-.775-.527-4.525 2.874-.619-.42 4.526-2.872-.733-.498-4.189 2.658L0 5.966 9.399 0l3.31 2.245-4.243 2.692.733.498 4.58-2.906.619.419-4.58 2.906Z" mask="url(#e)"/></g><path fill="#3BDAE2" fill-rule="nonzero" d="M667.942 257.587c1.653 1.192 2.725 2.147 3.217 2.882.512.762.68 1.605.515 2.492l-1.362-.11a2.763 2.763 0 0 0-.432-2.106c-.43-.62-1.4-1.478-2.884-2.558l.946-.6Zm2.25-1.401L675.82 260l-.99.629-5.627-3.817.99-.627Zm2.34-1.485 4.578 3.105a.57.57 0 0 0 .586.055l.597-.38c.209-.173.192-.355-.057-.568-.26-.247-.741-.604-1.433-1.071l1.163-.325c1.143.774 1.767 1.298 1.866 1.58.067.258-.124.572-.636.926l-.674.427c-.782.497-1.499.51-2.17.057l-4.746-3.219.927-.587Zm-2.91-4.342.85.575-4.927 3.127c.436 1.14.678 2.032.701 2.678a77.62 77.62 0 0 0 4.238-3.2c-.672-.07-1.343-.138-2.058-.194l.334-.815c1.994.137 3.601.326 4.897.563l-.26.88c-.51-.102-1.052-.184-1.605-.275-1.76 1.408-3.757 2.896-5.938 4.458l-1.014-.402.123-.188c.208-.53.053-1.478-.42-2.869l-2.371 1.503-.85-.573 3.777-2.396a27.37 27.37 0 0 0-1.93-.51l.832-.735c.648.167 1.336.377 2.066.631l3.556-2.258ZM665.314 260.218l1.185-.325a40.974 40.974 0 0 1 2.92 4.293l-1.29.327a33.077 33.077 0 0 0-2.815-4.295M664.478 259.566c-1.109-.08-2.465-.059-4.039.059l.035-.875a29.611 29.611 0 0 1 4.02-.074l-.016.89ZM661.43 257.14c-1.046-.037-2.308.022-3.798.182l.057-.89a32.498 32.498 0 0 1 3.756-.181l-.016.89ZM636.493 274.92l-1.078.683a4.761 4.761 0 0 0-2.572-.402 5.55 5.55 0 0 0-2.438.861c-1.121.711-1.615 1.518-1.459 2.41.136.834.764 1.648 1.917 2.428 1.163.789 2.357 1.24 3.602 1.343a5.781 5.781 0 0 0 3.659-.904c.773-.49 1.226-1.04 1.37-1.64.158-.65-.058-1.311-.679-1.976l1.066-.676c.862.87 1.2 1.756 1.013 2.67-.184.847-.794 1.607-1.827 2.26a7.752 7.752 0 0 1-4.863 1.218c-1.588-.12-3.056-.66-4.439-1.597-1.372-.932-2.146-1.927-2.285-2.993-.18-1.193.503-2.257 1.981-3.197a7.497 7.497 0 0 1 3.516-1.159c1.284-.085 2.452.136 3.516.671Zm7.012-6.514c1.492.084 2.994.617 4.45 1.604 1.425.967 2.163 1.983 2.198 3.02.044 1.087-.691 2.116-2.203 3.076l-3.351 2.126-9.28-6.295 3.459-2.194c1.522-.969 3.084-1.423 4.727-1.337Zm-3.98 2.072-2.175 1.38 7.439 5.045 2.055-1.305c1.25-.795 1.871-1.614 1.865-2.448-.03-.806-.648-1.626-1.853-2.442-1.247-.846-2.452-1.293-3.613-1.352-1.217-.054-2.457.321-3.719 1.122Zm13.09-9.52 9.282 6.296-1.143.725-13.107-1.707-.044.029 7.635 5.18-1.109.704-9.281-6.296 1.164-.738 13.002 1.663.044-.027-7.553-5.124 1.11-.705Z"/><g transform="translate(671.81 241.912)"><mask id="g" fill="#fff"><use xlink:href="#f"/></mask><path fill="#3BDAE2" fill-rule="nonzero" d="M9.196 1.496 8.442.984l-6.93 4.4.755.51 6.929-4.398Zm1.33.902-.765-.518-6.928 4.399.765.518 6.929-4.4ZM8.823 0l3.206 2.174-8.823 5.6L0 5.599 8.822 0Z" mask="url(#g)"/></g></g></svg>