<svg xmlns="http://www.w3.org/2000/svg" width="900" height="450" viewBox="0 0 900 450"><title>webhooks备份</title><g fill="none" fill-rule="evenodd"><path fill="#5E5E5E" fill-rule="nonzero" d="M0 0h900v450H0z"/><g transform="translate(702.03 58.5)"><path fill="#009764" fill-rule="nonzero" d="m20.671 4.326 124.03 69.672v101.898l-124.03-69.672z"/><path fill="#2F2F2F" fill-rule="nonzero" d="m33.611 122.157 119.359 65.112-33.61 21.359L0 143.516z" opacity=".341"/><path fill="#00ED9C" fill-rule="nonzero" d="m27.563 0 124.028 69.672-6.89 4.326L20.671 4.326z"/><path fill="#00A76E" fill-rule="nonzero" d="M151.591 171.916V69.672l-6.89 4.326v102.245z"/><path fill="#00AF74" fill-rule="nonzero" d="m4.135 15.307 124.029 69.672v101.897L4.135 117.204z"/><path fill="#00ED9C" fill-rule="nonzero" d="M11.025 50.784 73.04 85.9v51.355l-62.015-35.114V50.784ZM79.931 90.59l38.585 22.76v7.435l-38.585-22.76V90.588Zm0 13.725 38.585 22.76v7.436l-38.585-22.761V104.314Zm0 13.726 28.94 17.27v7.435l-28.94-17.27v-7.435Z"/><ellipse cx="10.336" cy="26.287" fill="#00ED9C" fill-rule="nonzero" rx="2.067" ry="2.745"/><ellipse cx="17.227" cy="29.032" fill="#00ED9C" fill-rule="nonzero" rx="2.067" ry="2.745"/><path stroke="#00ED9C" stroke-width="1.498" d="m2.067 29.719 126.785 71.373"/></g><path stroke="#00B275" stroke-dasharray="4.495" stroke-width="2.997" d="m376.764 188.892 74.351 49.413M594.538 267.337l119.895-67.816M192.15 237.15l67.214-44.384"/><path fill="#00C280" fill-rule="nonzero" d="m702.03 198.039 17.915-.91-1.378 9.932-16.537-9.022Zm-267.505 40.006 16.69-8.38 1.279 9.452-17.97-1.072ZM246.96 191.283l17.915-.91-1.377 9.933-16.538-9.023Z"/><g fill-rule="nonzero"><path fill="#2F2F2F" d="m53.173 330.725 75.013-44.403 75.015 44.402-75.015 44.402z" opacity=".341"/><path fill="#00AF74" d="m53.172 287.951 75.014-44.403 75.015 44.403-75.015 44.402z"/><path fill="#00C280" d="m53.1 287.262 75.776 45.187v9.909L53.1 298.55z"/><path fill="#009764" d="m203.274 287.262-75.776 44.16v10.937l75.776-44.16z"/><path fill="#008759" d="m66.811 289.401 61.374-36.33 61.376 36.329-61.376 36.329z" opacity=".257"/><path fill="#00AF74" d="M53.172 260.402 128.185 216l75.015 44.401-75.015 44.404z"/><path fill="#008759" d="m70.945 260.474 57.477-34.022 57.478 34.022-57.478 34.023z"/><path fill="#00C280" d="m53.1 259.713 75.776 45.188v14.043L53.1 275.134z"/><path fill="#009764" d="m203.274 259.713-75.776 44.16v15.071l75.776-44.161z"/><path fill="#00ED9C" d="M109.016 269.913c7.727 5.972 21.144 9.933 33.87 5.241.199-.1.362-.206.498-.315 1.028-.811.697-1.983-.584-2.74-1.06-.45-4.208-3.178-5.412-1.523-2.355 3.182-5.26 2.016-7.078 1.64 3.913.338 5.996-1.394 6.65-3.243.363-1.026-1.47-1.459-1.54-2.09-.109-.963-1.897-1.561-2.879-.96-3.496 2.138-7.643 3.581-14.243-.314-3.867-2.282-2.235-4.05-4.398-4.573-.079-.019-1.782-.447-3.357-1.899 2.331-1.2 5.006-.807 5.574-1.708 1.397-2.238 3.838-4.169 6.873-5.437 1.263-.534.158-2.098 1.631-4.008 3.53 1.283 3.05 2.658 4.91 2.71 2.043.059 3.933.591 5.617 1.584 9.923 5.856.858 9.07 2.606 10.797.398.396 1.075.626 1.722.59 1.716-.095 3.96 1.375 5.763 2.557 1.87 1.225 3.483 2.282 5.233 2.213.62-.023 1.483-.205 2.138-1.068 4.918-9.14-2.702-17.623-12.44-21.978-26.597-11.889-52.101 8.328-31.154 24.524Zm30.447 2.954.906.528c-.999.35-2.017.642-3.049.878a7.525 7.525 0 0 0 2.143-1.406Zm-6.113-4.278.124.1c-.672 1.152-1.981 1.57-3.914 1.243l-.004-.001a15.443 15.443 0 0 0 3.794-1.341v-.001Zm-23.897-19.867c15.55-12.302 48.069 2.043 40.123 17.38-.58-.273-1.533-.899-2.206-1.34-1.62-1.061-3.507-2.298-5.604-2.92 4.798-6.404-4.608-12.726-11.62-13.308-1.38-1.255-5.498-3.507-7.135-2.887-.387.146-2.257 1.037-2.667 4.665-3.03 1.372-5.501 3.324-7.046 5.573-2.587.405-7.674 1.755-6.224 3.447 1.692 1.967 3.794 2.977 5.079 3.446 1.645 4.128 8.91 7.47 14.301 7.47-2.15.533-4.239 1.785-2.93 3.092 1.426 1.427 2.823.01 7.208 1.206a9.058 9.058 0 0 0 1.95.398c-18.875 1.224-36.922-15.39-23.23-26.222Z"/></g><g fill-rule="nonzero"><path fill="#2F2F2F" d="m265.173 197.725 75.013-44.403 75.015 44.402-75.015 44.402z" opacity=".341"/><path fill="#00AF74" d="m265.172 154.951 75.014-44.403 75.015 44.403-75.015 44.402z"/><path fill="#00C280" d="m265.1 154.262 75.776 45.187v9.909L265.1 165.55z"/><path fill="#009764" d="m415.274 154.262-75.776 44.16v10.937l75.776-44.16z"/><path fill="#008759" d="m278.811 156.401 61.374-36.33 61.376 36.329-61.376 36.329z" opacity=".257"/><path fill="#00AF74" d="M265.172 127.402 340.185 83l75.015 44.401-75.015 44.404z"/><path fill="#008759" d="m282.945 127.474 57.477-34.022 57.478 34.022-57.478 34.023z"/><path fill="#00C280" d="m265.1 126.713 75.776 45.188v14.043l-75.776-43.81z"/><path fill="#009764" d="m415.274 126.713-75.776 44.16v15.071l75.776-44.161z"/></g><g fill-rule="nonzero"><path fill="#2F2F2F" d="m459.173 332.725 75.013-44.403 75.015 44.402-75.015 44.402z" opacity=".341"/><path fill="#00AF74" d="m459.172 289.951 75.014-44.403 75.015 44.403-75.015 44.402z"/><path fill="#00C280" d="m459.1 289.262 75.776 45.187v9.909L459.1 300.55z"/><path fill="#009764" d="m609.274 289.262-75.776 44.16v10.937l75.776-44.16z"/><path fill="#008759" d="m472.811 291.401 61.374-36.33 61.376 36.329-61.376 36.329z" opacity=".257"/><path fill="#00AF74" d="M459.172 262.402 534.185 218l75.015 44.401-75.015 44.404z"/><path fill="#008759" d="m476.945 262.474 57.477-34.022 57.478 34.022-57.478 34.023z"/><path fill="#00C280" d="m459.1 261.713 75.776 45.188v14.043l-75.776-43.81z"/><path fill="#009764" d="m609.274 261.713-75.776 44.16v15.071l75.776-44.161z"/></g><text fill="#CCC" font-family="PingFangSC-Semibold, PingFang SC" font-size="14.4" font-weight="500">
                <tspan x="74.952" y="364.2">Github Hugo 源码</tspan>
            </text><text fill="#CCC" font-family="PingFangSC-Semibold, PingFang SC" font-size="14.4" font-weight="500">
                <tspan x="290.858" y="232.8">Hugo 静态文件</tspan>
            </text><text fill="#CCC" font-family="PingFangSC-Semibold, PingFang SC" font-size="14.4" font-weight="500">
                <tspan x="495" y="366">宝塔网站目录</tspan>
            </text><path fill="#00ED9C" d="m317.832 114.674 23.313-3.838c2.76-.395 5.869.085 8.16 1.25l19.953 10.152c2.534 1.29 3.762 3.041 3.213 4.57l-4.13 11.02c-.548 1.4-2.748 2.416-5.789 2.699l-21.217 2.39c-3.333.443-7.097.07-9.87-.991l-18.934-7.247c-2.788-1.068-4.206-2.768-3.745-4.509l2.923-11.464c.456-1.854 2.81-3.415 6.123-4.032Zm2.32 8.908-5.152 3.15 30.632 12.768 5.152-2.619-13.394-5.815 8.548-4.729 13.394 6.2 5.168-2.626-30.632-14.711-5.168 3.158 11.158 5.165-8.548 4.904-11.158-4.845Z"/><path fill="#00ED9C" fill-rule="nonzero" d="M529.346 255.92a.38.38 0 0 1 .112-.019.63.63 0 0 1 .048-.007l1.812-.386c.602-.128 1.202-.258 1.798-.392.306-.07.465-.026.671.116.65.451 1.344.889 1.983 1.345.262.186.46.21.797.121.717-.189 1.504-.302 2.2-.515a.143.143 0 0 0 .052-.022c.156-.145.413-.133.669-.165a.203.203 0 0 0 .05-.014c.247-.106.168-.136.063-.16l-.049-.012a.748.748 0 0 1-.046-.012 8.557 8.557 0 0 1-.766.148c-.553-.377-1.09-.762-1.665-1.127-.262-.166-.259-.273-.057-.389a.64.64 0 0 0 .104-.076l.092-.082a.556.556 0 0 1 .247-.133c.027.047.061.09.102.132a.135.135 0 0 1 .057-.023c1.207-.25 2.412-.496 3.613-.746a.481.481 0 0 1 .415.085l.064.045c.636.447 1.278.89 1.906 1.34.204.142.354.197.656.124.686-.168 1.398-.308 2.099-.458a.153.153 0 0 0 .066-.028c.184-.176.606-.142.858-.257.045-.02.058-.057.032-.09-.104-.135-.262-.249-.429-.36l-.201-.13a3.646 3.646 0 0 1-.193-.136 9.518 9.518 0 0 0-1.083-.752c-.024-.017-.04-.035-.068-.048-.128-.083-.033-.084.071-.105 1.177-.238 2.361-.469 3.535-.715.313-.065.403.074.538.172 2.038 1.486 4.073 2.972 6.107 4.458 2.494 1.827 4.98 3.658 7.48 5.482.297.213.511.457.626.711.604 1.269.678 2.5.51 3.707-.275 2.199-1.418 4.14-2.906 5.968-.682.846-1.559 1.598-2.277 2.43-.06.071-.075.09-.084.097l-.016.02-.031.036.067.044-.118.022-.011.002c-.025.023-.05.045-.078.066l-.078-.043c-.53.08-2.201.334-3.127.458-3.862.52-7.906.811-12.323.563-2.467-.128-4.943-.417-7.414-1.012-.704-.164-1.352-.416-1.875-.73-5.084-3.002-10.182-6-15.295-8.99-.303-.177-.33-.29-.12-.456.497-.396.973-.8 1.452-1.203l.349-.294-.297-.177a.093.093 0 0 1 .03-.017c.943-.263.943-.263 1.818.262.413.252.834.501 1.253.751a2.26 2.26 0 0 1-.347.332c.18.077.27.037.488-.106.08-.064.184-.119.305-.162l.094-.03c.446-.348.88-.7 1.34-1.043.144-.108.065-.184-.078-.273l-2.23-1.362c-.112-.07-.192-.138-.077-.232l1.05-.866.823-.681-.197-.123c.263-.132.606-.187.92-.27l.131-.036c.252-.078.34.017.453.088.517.325 1.025.65 1.546.97.104.065.174.191.43.09-.092.067-.192.131-.298.193l-.364.258.105.057c.397.021.381-.197.593-.282.079-.067.184-.056.334-.138.407-.328.793-.665 1.228-.978.219-.157.224-.263-.068-.439-.725-.437-1.41-.893-2.114-1.342-.138-.088-.267-.158-.114-.276.704-.544 1.385-1.087 2.07-1.629-.012-.02-.008-.042.012-.06a.623.623 0 0 1 .157-.074l.013-.01Zm-6.446-5.123c.517-.199.995-.226 1.554.078.469.256 1.022.584 1.558.632.535.05 1.118-.2 1.675-.323 6.738-1.48 13.411-2.931 20.02-4.353.337-.071.557-.17.583-.398.002-.02.022-.04.024-.06.113-.84.805-1.385 2.183-1.573.09.04.021.131.027.21.084 1.123.162 2.244.272 3.36.024.213-.05.312-.39.382a3608.02 3608.02 0 0 0-22.896 4.814 2.04 2.04 0 0 0-.646.234c-.288-.37-.785-.662-1.234-.971l-2.346-1.613c-.17-.124-.377-.246-.384-.419Zm-.267.303 3.626 2.516c.188.13.323.247.184.4-1.2 1.043-2.384 2.086-3.577 3.12-3.158 2.75-6.272 5.478-9.343 8.185-.112.098-.162.217-.498.167-2.062-.306-4.144-.596-6.325-.9l1.257-.756a.516.516 0 0 1 .28-.063c.107-.005.216-.007.325-.005 1.501.125 2.301-.233 3.025-.875 3.69-3.25 7.554-6.486 11.45-9.76.19-.16.258-.292.05-.487-.24-.225-.38-.484-.639-.7-.425-.352-.255-.608.185-.842Zm-4.509-4.271c.998.533 2 1.063 2.983 1.607.182.122.465.16.687.09 6.4-1.472 12.746-2.911 19.036-4.317.206-.03.357-.136.39-.274l.027-.066c.209-.905.784-1.608 2.322-1.769.081.051-.02.155-.035.248-.186 1.135-.387 2.266-.533 3.396-.036.276-.196.403-.578.492a3178.163 3178.163 0 0 0-19.748 4.727c-.164.04-.32.091-.477.137a1.148 1.148 0 0 1-.412-.24l-4.771-3.566-.056-.043-.115-.087c-.133-.102-.25-.21-.244-.353.733-.402.734-.403 1.524.018Zm-2.659-.138c.073-.028.142-.058.207-.091l5.092 3.674.106.075c.105.075.201.154.23.257-1.874 1.658-3.733 3.309-5.577 4.953-1.944 1.735-3.888 3.455-5.78 5.183-.25.231-.526.292-1.014.242-1.897-.191-3.803-.363-5.629-.529.25-.164.647-.42 1.034-.678.155-.103.392-.097.597-.081 1.523.127 2.27-.294 2.97-.964 3.065-2.951 6.298-5.882 9.544-8.847.216-.196.224-.34-.007-.562-.676-.655-1.27-1.337-1.951-1.987-.314-.3-.35-.495.178-.645Z"/></g></svg>