<svg xmlns="http://www.w3.org/2000/svg" width="900" height="450" viewBox="0 0 900 450"><title>webhooks</title><g fill="none" fill-rule="evenodd"><path fill="#5E5E5E" fill-rule="nonzero" d="M0 0h900v450H0z"/><g transform="translate(704.03 66)"><path fill="#009764" fill-rule="nonzero" d="m20.671 4.326 124.03 69.672v101.898l-124.03-69.672z"/><path fill="#2F2F2F" fill-rule="nonzero" d="m33.611 122.157 119.359 65.112-33.61 21.359L0 143.516z" opacity=".341"/><path fill="#00ED9C" fill-rule="nonzero" d="m27.563 0 124.028 69.672-6.89 4.326L20.671 4.326z"/><path fill="#00A76E" fill-rule="nonzero" d="M151.591 171.916V69.672l-6.89 4.326v102.245z"/><path fill="#00AF74" fill-rule="nonzero" d="m4.135 15.307 124.029 69.672v101.897L4.135 117.204z"/><path fill="#00ED9C" fill-rule="nonzero" d="M11.025 50.784 73.04 85.9v51.355l-62.015-35.114V50.784ZM79.931 90.59l38.585 22.76v7.435l-38.585-22.76v-7.437.002Zm0 13.725 38.585 22.76v7.436L79.931 111.75v-7.436.001Zm0 13.726 28.94 17.27v7.435l-28.94-17.27v-7.435Z"/><ellipse cx="10.336" cy="26.287" fill="#00ED9C" fill-rule="nonzero" rx="2.067" ry="2.745"/><ellipse cx="17.227" cy="29.032" fill="#00ED9C" fill-rule="nonzero" rx="2.067" ry="2.745"/><path stroke="#00ED9C" stroke-width="1.498" d="m2.067 29.719 126.785 71.373"/></g><path stroke="#00B275" stroke-dasharray="4.495" stroke-width="2.997" d="m378.764 196.392 74.351 49.413m143.423 29.032 119.895-67.816M194.15 244.65l67.214-44.384"/><path fill="#00C280" fill-rule="nonzero" d="m704.03 205.539 17.915-.91-1.378 9.932-16.537-9.022Zm-267.505 40.006 16.69-8.38 1.279 9.452-17.97-1.072h.001ZM248.96 198.783l17.915-.91-1.377 9.933-16.538-9.023Z"/><g fill-rule="nonzero"><path fill="#2F2F2F" d="m55.173 338.225 75.013-44.403 75.015 44.402-75.015 44.402z" opacity=".341"/><path fill="#00AF74" d="m55.172 295.451 75.014-44.403 75.015 44.403-75.015 44.402z"/><path fill="#00C280" d="m55.1 294.762 75.776 45.187v9.909L55.1 306.05z"/><path fill="#009764" d="m205.274 294.762-75.776 44.16v10.937l75.776-44.16z"/><path fill="#008759" d="m68.811 296.901 61.374-36.33 61.376 36.329-61.376 36.329z" opacity=".257"/><path fill="#00AF74" d="m55.172 267.902 75.013-44.402 75.015 44.401-75.015 44.404z"/><path fill="#008759" d="m72.945 267.974 57.477-34.022 57.478 34.022-57.478 34.023z"/><path fill="#00C280" d="m55.1 267.213 75.776 45.188v14.043L55.1 282.634z"/><path fill="#009764" d="m205.274 267.213-75.776 44.16v15.071l75.776-44.161z"/><path fill="#00ED9C" d="M111.016 277.413c7.727 5.972 21.144 9.933 33.87 5.241a2.8 2.8 0 0 0 .498-.315c1.028-.811.697-1.983-.584-2.74-1.06-.45-4.208-3.178-5.412-1.523-2.355 3.182-5.26 2.016-7.078 1.64 3.913.338 5.996-1.394 6.65-3.243.363-1.026-1.47-1.459-1.54-2.09-.109-.963-1.897-1.561-2.879-.96-3.496 2.138-7.643 3.581-14.243-.314-3.867-2.282-2.235-4.05-4.398-4.573-.079-.019-1.782-.447-3.357-1.899 2.331-1.2 5.006-.807 5.574-1.708 1.397-2.238 3.838-4.169 6.873-5.437 1.263-.534.158-2.098 1.631-4.008 3.53 1.283 3.05 2.658 4.91 2.71 2.043.059 3.933.591 5.617 1.584 9.923 5.856.858 9.07 2.606 10.797.398.396 1.075.626 1.722.59 1.716-.095 3.96 1.375 5.763 2.557 1.87 1.225 3.483 2.282 5.233 2.213.62-.023 1.483-.205 2.138-1.068 4.918-9.14-2.702-17.623-12.44-21.978-26.597-11.889-52.101 8.328-31.154 24.524Zm30.447 2.954.906.528c-.999.35-2.017.642-3.049.878a7.525 7.525 0 0 0 2.143-1.406Zm-6.113-4.278.124.1c-.672 1.152-1.981 1.57-3.914 1.243l-.004-.001c1.318-.28 2.593-.73 3.794-1.341v-.001Zm-23.897-19.867c15.55-12.302 48.069 2.043 40.123 17.38-.58-.273-1.533-.899-2.206-1.34-1.62-1.061-3.507-2.298-5.604-2.92 4.798-6.404-4.608-12.726-11.62-13.308-1.38-1.255-5.498-3.507-7.135-2.887-.387.146-2.257 1.037-2.667 4.665-3.03 1.372-5.501 3.324-7.046 5.573-2.587.405-7.674 1.755-6.224 3.447 1.692 1.967 3.794 2.977 5.079 3.446 1.645 4.128 8.91 7.47 14.301 7.47-2.15.533-4.239 1.785-2.93 3.092 1.426 1.427 2.823.01 7.208 1.206a9.058 9.058 0 0 0 1.95.398c-18.875 1.224-36.922-15.39-23.23-26.222h.001Z"/></g><g fill-rule="nonzero"><path fill="#2F2F2F" d="m267.173 205.225 75.013-44.403 75.015 44.402-75.015 44.402z" opacity=".341"/><path fill="#00AF74" d="m267.172 162.451 75.014-44.403 75.015 44.403-75.015 44.402z"/><path fill="#00C280" d="m267.1 161.762 75.776 45.187v9.909L267.1 173.05z"/><path fill="#009764" d="m417.274 161.762-75.776 44.16v10.937l75.776-44.16z"/><path fill="#008759" d="m280.811 163.901 61.374-36.33 61.376 36.329-61.376 36.329z" opacity=".257"/><path fill="#00AF74" d="M267.172 134.902 342.185 90.5l75.015 44.401-75.015 44.404z"/><path fill="#008759" d="m284.945 134.974 57.477-34.022 57.478 34.022-57.478 34.023z"/><path fill="#00C280" d="m267.1 134.213 75.776 45.188v14.043l-75.776-43.81z"/><path fill="#009764" d="m417.274 134.213-75.776 44.16v15.071l75.776-44.161z"/></g><g fill-rule="nonzero"><path fill="#2F2F2F" d="m461.173 340.225 75.013-44.403 75.015 44.402-75.015 44.402z" opacity=".341"/><path fill="#00AF74" d="m461.172 297.451 75.014-44.403 75.015 44.403-75.015 44.402z"/><path fill="#00C280" d="m461.1 296.762 75.776 45.187v9.909L461.1 308.05z"/><path fill="#009764" d="m611.274 296.762-75.776 44.16v10.937l75.776-44.16z"/><path fill="#008759" d="m474.811 298.901 61.374-36.33 61.376 36.329-61.376 36.329z" opacity=".257"/><path fill="#00AF74" d="m461.172 269.902 75.013-44.402 75.015 44.401-75.015 44.404z"/><path fill="#008759" d="m478.945 269.974 57.477-34.022 57.478 34.022-57.478 34.023z"/><path fill="#00C280" d="m461.1 269.213 75.776 45.188v14.043l-75.776-43.81z"/><path fill="#009764" d="m611.274 269.213-75.776 44.16v15.071l75.776-44.161z"/></g><g fill="#00ED9C" fill-rule="nonzero"><path d="m296.881 214.5-6.502 3.91 1.336.816 2.914-1.765 4.583 2.754-2.914 1.806 1.335.815 6.502-4.057-1.335-.788-2.741 1.699-4.583-2.742 2.74-1.66-1.335-.788Zm7.053 6.347-2.932 1.844c-1.266.796-1.143 1.66.388 2.596.797.486 1.713.727 2.763.728l-.638.41 1.299.792 4.708-3.044-1.299-.773-2.878 1.849c-.456.155-.946.21-1.45.166-.494-.05-.91-.167-1.253-.375-.503-.306-.77-.593-.808-.842-.051-.257.13-.509.53-.762l2.87-1.816-1.3-.773Zm9.832 5.694a5.554 5.554 0 0 0-2.747-.806c-.977-.037-1.799.176-2.509.638s-1.017.985-.906 1.591c.099.6.579 1.17 1.436 1.692a4.537 4.537 0 0 0 2.72.66l-.729.484c-.883.588-1.88.547-2.984-.13-.514-.316-.83-.591-.954-.806-.127-.228-.073-.449.126-.673l-1.299-.794c-.396.413-.497.835-.286 1.288.22.447.766.946 1.648 1.49 1.961 1.208 3.7 1.32 5.194.32l4.398-2.944-1.299-.773-.628.418c.044-.617-.347-1.16-1.18-1.655Zm-.587.633c.552.33.844.676.871 1.06.012.364-.22.72-.712 1.047a2.93 2.93 0 0 1-1.6.489 3.37 3.37 0 0 1-1.71-.517c-.637-.387-.926-.77-.898-1.144.019-.321.26-.634.716-.932.5-.327 1.04-.495 1.631-.483.586-.016 1.151.15 1.702.48Zm8.21 3.902c-.957-.569-1.965-.868-3.015-.891-1.04-.03-1.914.199-2.633.683-.71.478-1.02 1.048-.912 1.697.114.679.64 1.317 1.596 1.9a6.102 6.102 0 0 0 3.036.917c1.018.028 1.892-.21 2.602-.703.72-.498 1.018-1.084.918-1.742-.102-.67-.637-1.293-1.593-1.861Zm-.793.54c.6.36.893.756.88 1.206-.006.383-.25.74-.724 1.067a3.06 3.06 0 0 1-1.597.529 3.372 3.372 0 0 1-1.938-.494c-.6-.365-.883-.772-.868-1.208.006-.382.254-.722.727-1.043.474-.32 1-.505 1.595-.532a3.269 3.269 0 0 1 1.925.476ZM278 216.857l-.537.31-1.912-1.199-.7.402 1.91 1.204-.446.258-1.617-1.02-.692.396 1.617 1.024-.455.264-2.095-1.33-.72.412 5.208 3.316.72-.423-1.998-1.268.455-.265 1.544.978.692-.406-1.544-.975.447-.26 1.789 1.127.7-.412-1.788-1.123.537-.312-1.115-.698Zm-6.327 3.062 2.12 1.365-.483.282-2.12-1.369.483-.278Zm2.775.982-2.12-1.36.52-.3 2.12 1.357-.52.303Zm-3.913-.325 2.12 1.372-.492.287c-.11.064-.26.046-.418-.058l-.671-.47-.48.597.771.503c.662.431 1.239.502 1.712.224l3.67-2.154-4.313-2.752-4.435 2.544 1.115.727 1.42-.82Zm12.491-.652a14.487 14.487 0 0 1-3.926-.28l.08.807.042.004-.555.328 1.642 1.042-.847.504-2.034-1.297-.801.472 2.034 1.302-.856.509-1.716-1.103-.82.483 1.716 1.107-1.056.628c-.219.13-.475.1-.757-.083-.33-.215-.647-.454-.965-.706l-.587.635 1.2.783c.76.495 1.453.571 2.036.222l1.256-.752 2.206 1.423 1.676-1.014.539.345.801-.486-.54-.344 1.658-1.003-1.348-.852c.601.032 1.235.027 1.924-.01l.592-.358-2.34-1.468c.216-.01.442-.024.676-.044l-.93-.794Zm-1.59 2.617 1.09.692-.846.51-1.09-.696.846-.506Zm-1.648.986 1.09.698-.855.515-1.091-.701.856-.512Zm.118-2.95c.656.09 1.328.157 2.01.187l1.692 1.064a26.767 26.767 0 0 1-1.827-.067l-1.875-1.185Zm13.272 5.675c-.395.186-.8.332-1.22.456l-4.239-2.665-.829.507 3.811 2.405a8.27 8.27 0 0 1-1.488.02c-1.351-.116-3.032-.614-5.066-1.512l-.348.779c1.728.752 3.22 1.247 4.49 1.507.23.582.408 1.168.522 1.748l1.41.14a15.347 15.347 0 0 0-.671-1.717l.064.006c.811.034 1.603-.015 2.374-.159l.049.031c-.61 1.142.066 2.797 2.033 4.985l1.36-.09c-1.8-1.821-2.54-3.205-2.217-4.153l3.737 2.36.83-.534-4.62-2.903c.359-.118.723-.255 1.091-.425l-1.073-.786Zm-9.3.863a13.182 13.182 0 0 1-3.263.64l.54.937c1.207-.09 2.43-.333 3.672-.728l-.948-.85Zm5.26 2.938-1.263-.498c-.075.529-.257 1.095-.536 1.692l1.42.465a5.084 5.084 0 0 0 .38-1.659Zm3.488 2.493-1.379-.547a8.12 8.12 0 0 1-.702 2.449l1.421.463a8.245 8.245 0 0 0 .66-2.365Zm-5.424.419c.477.311.915.49 1.302.544.434.07 1.097-.131 2.033-.602l-.839-.88c-.613.326-1.027.479-1.25.463-.207.005-.409-.055-.63-.198l-2.548-1.654c-.343-.223-.375-.405-.129-.558l1.73-1.078-1.176-.755-1.903 1.178c-.692.428-.61.922.273 1.497l3.137 2.043Zm11.87-1.042-.857.555 1.875 1.187c-.82 1.218-1.061 2.6-.715 4.128-2.127-.29-4.358-.95-6.726-1.99l-.14.904c2.46 1.031 4.836 1.693 7.132 1.985.479 1.388 1.438 2.913 2.864 4.569l1.378-.074c-1.377-1.572-2.323-3.04-2.824-4.38 2.09.11 4.117-.112 6.089-.674l1.875 1.187.856-.584-4.644-2.928a5.44 5.44 0 0 0 .32-1.814l-1.484-.518c.074.551.057 1.069-.062 1.56l-4.938-3.113Zm2.133 2.448 4.742 3.002c-1.637.46-3.368.642-5.171.547-.327-1.303-.176-2.484.429-3.549Zm14.011 5.69c-1.99.604-4.126.88-6.408.828l-.54.874c.68.036 1.358.058 2.028.05l-4.808 3.32 1.14.743 6.065-4.209a18.924 18.924 0 0 0 3.24-.663l-.717-.942Zm1.403 1.748a12.533 12.533 0 0 1-4.414 1.16l.028.978c.914-.05 1.8-.18 2.68-.387l1.851 1.173-1.958 1.386-3.48-2.228-.837.584 3.48 2.237-2.869 2.03 1.164.759 2.869-2.04 3.161 2.032.838-.604-3.162-2.025 1.958-1.392 2.708 1.717.847-.61-2.708-1.71 1.821-1.296-1.164-.728-1.82 1.289-1.471-.929c.499-.171 1-.377 1.508-.604l-1.03-.792ZM472.038 340.323l-2.09.89-2.542-1.446-1.262.539 2.542 1.446-2.637 1.125-3.688-2.1-1.235.527 8.354 4.754 1.234-.526-1.465-.834 1.057.085c.298-.375.58-.843.851-1.415l-1.335-.145c-.266.49-.55.93-.862 1.31l-1.944-1.106 2.637-1.124 2.482 1.412 1.262-.538-2.482-1.413 2.09-.891 2.811 1.6 1.164-.497.828.471 2.917-1.244-3.559-2.025c.367-.266.693-.514.966-.75l-1.241-.483a8.156 8.156 0 0 1-.751.648l-3.679-2.093-2.973 1.268.887.505-1.108.473 2.771 1.577Zm-1.453-2.07 1.557-.664 6.36 3.62-1.557.663-6.36-3.62Zm14.486 5.116-1.234.526 1.355.772-1.108.472.918.522 1.108-.473 1.664.948-1.108.472.927.528 1.108-.473 1.396.795 1.234-.527-1.395-.794.94-.4-.928-.528-.94.4-1.664-.947.94-.4-.918-.523-.94.401-1.355-.771Zm-4.13 3.081-.603.257 3.588 2.042.603-.257c.029.296.101.602.228.926l1.722-.18c-.522-1.176-.509-2.174.063-2.993l-.757-.432c-1.967.124-4.007-.018-6.109-.431l-.605.814c.607.108 1.222.193 1.87.254Zm3.593 1.445-2.392-1.362c.954.04 1.937.027 2.941-.043a2.863 2.863 0 0 0-.549 1.405Zm-1.009 1.562-4.635-2.638-4.783 2.04.917.521.617-.263 2.801 1.594-.617.263.917.522 4.783-2.04Zm-6.65-.866 1.697-.724 2.802 1.594-1.698.724-2.8-1.594Zm3.166-5.697-1.29.55.857.488-4.937 2.106c-.46-.122-.915-.255-1.356-.395l-1.223.77c1.395.348 2.844.613 4.326.815l1.375-.587a46.893 46.893 0 0 1-1.67-.28l4.432-1.89.947.539 1.29-.55-.947-.54 3.338-1.423-.947-.539-3.338 1.424-.857-.488Zm7.742 10.661 1.498-.013c.434-.563.819-1.084 1.153-1.564a68.47 68.47 0 0 0 4.436-1.316l-.657-.583a68.566 68.566 0 0 1-3.198.987c.294-.503.53-.941.688-1.326l-1.378.012a16.683 16.683 0 0 1-1.026 1.748 38.827 38.827 0 0 1-4.669.82l-.43.788a39.25 39.25 0 0 0 4.479-.719c-.264.38-.566.768-.896 1.166Zm2.198 1.921 1.522-.013c.526-.622.99-1.197 1.402-1.73a70.73 70.73 0 0 0 4.853-1.385l-.667-.589a69.748 69.748 0 0 1-3.492 1.043c.357-.51.62-.96.807-1.356h-1.374a21.203 21.203 0 0 1-1.196 1.79 38.795 38.795 0 0 1-4.845.776l-.426.777a38.441 38.441 0 0 0 4.578-.662c-.356.44-.74.891-1.162 1.35Zm-1.894 1.394c.657.374 1.473.364 2.427-.043l10.94-4.666-8.134-4.629-12.455 5.312.937.533 11.178-4.767 6.26 3.562-9.369 3.996c-.322.138-.62.136-.86 0l-.88-.558-1.041.692.997.568Zm20.89-.93-6.087 2.596-1.446-.823-6.802 2.901.907.516.87-.37 2.591 1.474-.855.365.917.522 6.788-2.895-2.013-1.146 2.44-1.04 2.423 1.378 1.29-.55-2.422-1.379 2.356-1.005-.957-.545Zm-11.324 4.293 3.534-1.507 2.592 1.475-3.534 1.507-2.592-1.475Zm3.521-6.514-1.29.55 3.978 2.264 1.29-.55-1.555-.885c.666-.403 1.271-.77 1.769-1.102l-1.168-.455c-.435.325-.927.674-1.508 1.04l-1.516-.862Zm-.874 1.416-1.207-.31a94.322 94.322 0 0 1-4.76 2.695l1.054.335a115.313 115.313 0 0 0 4.913-2.72Zm-2.757 3.904a98.297 98.297 0 0 1-1.204-.35 94.174 94.174 0 0 0 6.386-2.048l-.734-.6a103.354 103.354 0 0 1-6.81 2.269 37.736 37.736 0 0 1-2.608-.982l-1.057.67a59.781 59.781 0 0 0 4.722 1.598l1.305-.557Zm-26.21-4.541-6.948-3.954L452 355.825l.967.55.856-.364 5.024 2.859-.828.353.957.544 12.357-5.27Zm-16.22.963 2.328-.993 5.024 2.859-2.328.993-5.024-2.86Zm3.534-1.508 2.16-.921 5.025 2.859-2.16.921-5.025-2.859Zm3.395-1.447 2.02-.862 5.024 2.86-2.02.86-5.024-2.858Zm12.607 3.753-1.192.508 4.924 2.803-1.108.472-4.585-2.61-1.15.491 4.585 2.61-1.08.46-5.921-3.37-1.22.521 3.768 2.145-1.585.675a46.56 46.56 0 0 1-7.4-.734l-.856.742c2.352.347 4.636.544 6.867.585l-2.047.873c-.38.162-.665.194-.835.098a9.127 9.127 0 0 1-.948-.638l-1.053.658 1.156.658c.578.329 1.354.296 2.308-.111l2.427-1.035c-.47 1.073-.473 2.216.008 3.44l1.657-.23c-.394-.825-.574-1.611-.546-2.377 1.197.164 2.524.193 3.978.1l.128-.78c-1.474.153-2.81.147-4.01-.006.055-.262.144-.518.257-.775l1.43-.61 3.899 2.218 1.22-.52-1.715-.976 4.53-1.932-5.89-3.353Zm-5.846 2.692-1.483.007c.02.626-.056 1.155-.23 1.587l1.488-.02c.162-.466.238-.994.225-1.574ZM319.832 122.174l23.313-3.838c2.76-.395 5.869.085 8.16 1.25l19.953 10.152c2.534 1.29 3.762 3.041 3.213 4.57l-4.13 11.02c-.548 1.4-2.748 2.416-5.789 2.699l-21.217 2.39c-3.333.443-7.097.07-9.87-.991l-18.934-7.247c-2.788-1.068-4.206-2.768-3.745-4.509l2.923-11.464c.456-1.854 2.81-3.415 6.123-4.032Zm2.32 8.908-5.152 3.15L347.632 147l5.152-2.619-13.394-5.815 8.548-4.729 13.394 6.2 5.168-2.626-30.632-14.711-5.168 3.158 11.158 5.165-8.548 4.904-11.158-4.845ZM531.346 263.42a.38.38 0 0 1 .112-.019.63.63 0 0 1 .048-.007l1.812-.386a158.09 158.09 0 0 0 1.798-.392c.306-.07.465-.026.671.116.65.451 1.344.889 1.983 1.345.262.186.46.21.797.121.717-.189 1.504-.302 2.2-.515a.143.143 0 0 0 .052-.022c.156-.145.413-.133.669-.165a.203.203 0 0 0 .05-.014c.247-.106.168-.136.063-.16l-.049-.012a.748.748 0 0 1-.046-.012c-.253.061-.509.11-.766.148-.553-.377-1.09-.762-1.665-1.127-.262-.166-.259-.273-.057-.389a.64.64 0 0 0 .104-.076l.092-.082a.556.556 0 0 1 .247-.133c.027.047.061.09.102.132a.135.135 0 0 1 .057-.023c1.207-.25 2.412-.496 3.613-.746a.481.481 0 0 1 .415.085l.064.045c.636.447 1.278.89 1.906 1.34.204.142.354.197.656.124.686-.168 1.398-.308 2.099-.458a.153.153 0 0 0 .066-.028c.184-.176.606-.142.858-.257.045-.02.058-.057.032-.09-.104-.135-.262-.249-.429-.36l-.201-.13a3.646 3.646 0 0 1-.193-.136 9.518 9.518 0 0 0-1.083-.752c-.024-.017-.04-.035-.068-.048-.128-.083-.033-.084.071-.105 1.177-.238 2.361-.469 3.535-.715.313-.065.403.074.538.172 2.038 1.486 4.073 2.972 6.107 4.458 2.494 1.827 4.98 3.658 7.48 5.482.297.213.511.457.626.711.604 1.269.678 2.5.51 3.707-.275 2.199-1.418 4.14-2.906 5.968-.682.846-1.559 1.598-2.277 2.43-.06.071-.075.09-.084.097l-.016.02-.031.036.067.044-.118.022-.011.002c-.025.023-.05.045-.078.066l-.078-.043c-.53.08-2.201.334-3.127.458-3.862.52-7.906.811-12.323.563-2.467-.128-4.943-.417-7.414-1.012-.704-.164-1.352-.416-1.875-.73-5.084-3.002-10.182-6-15.295-8.99-.303-.177-.33-.29-.12-.456.497-.396.973-.8 1.452-1.203l.349-.294-.297-.177a.093.093 0 0 1 .03-.017c.943-.263.943-.263 1.818.262.413.252.834.501 1.253.751a2.26 2.26 0 0 1-.347.332c.18.077.27.037.488-.106.08-.064.184-.119.305-.162l.094-.03c.446-.348.88-.7 1.34-1.043.144-.108.065-.184-.078-.273l-2.23-1.362c-.112-.07-.192-.138-.077-.232l1.05-.866.823-.681-.197-.123c.263-.132.606-.187.92-.27l.131-.036c.252-.078.34.017.453.088.517.325 1.025.65 1.546.97.104.065.174.191.43.09a3.56 3.56 0 0 1-.298.193l-.364.258.105.057c.397.021.381-.197.593-.282.079-.067.184-.056.334-.138.407-.328.793-.665 1.228-.978.219-.157.224-.263-.068-.439-.725-.437-1.41-.893-2.114-1.342-.138-.088-.267-.158-.114-.276.704-.544 1.385-1.087 2.07-1.629-.012-.02-.008-.042.012-.06a.623.623 0 0 1 .157-.074l.013-.01Zm-6.446-5.123c.517-.199.995-.226 1.554.078.469.256 1.022.584 1.558.632.535.05 1.118-.2 1.675-.323 6.738-1.48 13.411-2.931 20.02-4.353.337-.071.557-.17.583-.398.002-.02.022-.04.024-.06.113-.84.805-1.385 2.183-1.573.09.04.021.131.027.21.084 1.123.162 2.244.272 3.36.024.213-.05.312-.39.382-7.637 1.58-15.27 3.185-22.896 4.814a2.04 2.04 0 0 0-.646.234c-.288-.37-.785-.662-1.234-.971l-2.346-1.613c-.17-.124-.377-.246-.384-.419Zm-.267.303 3.626 2.516c.188.13.323.247.184.4-1.2 1.043-2.384 2.086-3.577 3.12-3.158 2.75-6.272 5.478-9.343 8.185-.112.098-.162.217-.498.167-2.062-.306-4.144-.596-6.325-.9l1.257-.756a.516.516 0 0 1 .28-.063c.107-.005.216-.007.325-.005 1.501.125 2.301-.233 3.025-.875 3.69-3.25 7.554-6.486 11.45-9.76.19-.16.258-.292.05-.487-.24-.225-.38-.484-.639-.7-.425-.352-.255-.608.185-.842Zm-4.509-4.271c.998.533 2 1.063 2.983 1.607.182.122.465.16.687.09 6.4-1.472 12.746-2.911 19.036-4.317.206-.03.357-.136.39-.274l.027-.066c.209-.905.784-1.608 2.322-1.769.081.051-.02.155-.035.248-.186 1.135-.387 2.266-.533 3.396-.036.276-.196.403-.578.492-6.588 1.555-13.17 3.13-19.748 4.727-.164.04-.32.091-.477.137a1.148 1.148 0 0 1-.412-.24l-4.771-3.566-.056-.043-.115-.087c-.133-.102-.25-.21-.244-.353.733-.402.734-.403 1.524.018Zm-2.659-.138c.073-.028.142-.058.207-.091l5.092 3.674.106.075c.105.075.201.154.23.257a1961.713 1961.713 0 0 0-5.577 4.953c-1.944 1.735-3.888 3.455-5.78 5.183-.25.231-.526.292-1.014.242-1.897-.191-3.803-.363-5.629-.529.25-.164.647-.42 1.034-.678.155-.103.392-.097.597-.081 1.523.127 2.27-.294 2.97-.964 3.065-2.951 6.298-5.882 9.544-8.847.216-.196.224-.34-.007-.562-.676-.655-1.27-1.337-1.951-1.987-.314-.3-.35-.495.178-.645ZM54.872 330.248c-1.085-.594-2.419-.84-4.016-.717-1.502.107-2.94.505-4.323 1.188-1.37.678-2.195 1.397-2.452 2.16-.28.816.164 1.543 1.342 2.188.641.35 1.334.622 2.078.814.713.175 1.442.278 2.2.302l3.878-1.917-3.163-1.73-1.202.593 2.036 1.115-2.004.99a6.843 6.843 0 0 1-1.28-.229 6.01 6.01 0 0 1-1.19-.477c-.92-.503-1.279-1.036-1.067-1.593.182-.52.839-1.05 1.95-1.6 1.138-.561 2.247-.883 3.349-.954 1.044-.075 1.91.09 2.623.48.578.317.899.654.927 1.006.04.345-.197.7-.714 1.063l1.136.622c.9-.584 1.332-1.142 1.322-1.686-.004-.569-.49-1.104-1.43-1.618Zm5.219 2.91c-.217-.119-.47-.176-.796-.166a2.009 2.009 0 0 0-.877.207c-.258.128-.419.282-.455.45-.023.163.062.304.279.423.206.113.483.17.796.166.325-.01.628-.073.9-.208.27-.134.418-.282.442-.444.036-.169-.072-.309-.29-.428Zm-3.224 1.023-6.685 3.303 1.096.6 6.684-3.304-1.095-.6Zm6.354 1.23-1.664-.319-1.59.786-.992-.543-1.138.562.992.543-3.879 1.917c-.53.262-.837.51-.915.764-.09.26.095.524.55.773l.878.48 1.138-.562-.703-.384c-.134-.074-.175-.15-.16-.223.029-.078.127-.16.308-.249l3.879-1.916 1.219.667 1.138-.562-1.22-.667 2.16-1.067Zm2.667.867-9.412 4.65 1.095.6 3.75-1.852a5.017 5.017 0 0 1 1.786-.517c.602-.06 1.083.014 1.455.217.414.227.579.479.462.752-.124.255-.46.528-1.055.822l-3.917 1.936 1.095.6 4.15-2.051c.88-.434 1.397-.852 1.54-1.245.147-.417-.106-.798-.747-1.149a3.235 3.235 0 0 0-1.168-.37c-.48-.074-1.026-.063-1.61.02l3.672-1.813-1.096-.6Zm3.183 4.584-4.163 2.057c-1.797.888-2.061 1.686-.77 2.393.672.368 1.592.494 2.771.385l-.905.447 1.095.6 6.685-3.303-1.096-.6-4.085 2.02a5.882 5.882 0 0 1-1.706.304c-.533.005-.946-.06-1.236-.218-.423-.232-.591-.472-.519-.702.063-.235.383-.49.952-.771l4.073-2.013-1.096-.6Zm8.691 1.916-9.412 4.65 1.023.56.802-.395c-.275.523-.063.989.67 1.39.786.43 1.745.591 2.898.495a8.77 8.77 0 0 0 3.128-.9c.982-.485 1.59-1 1.834-1.54.253-.59.003-1.09-.762-1.508-.661-.362-1.586-.465-2.809-.313l3.724-1.84-1.096-.6Zm-1.179 3.165c.538.294.721.624.514.995-.16.316-.616.66-1.353 1.024s-1.42.583-2.04.674c-.736.095-1.375.001-1.912-.293-.475-.26-.602-.585-.395-.956.2-.336.629-.666 1.301-.998l.117-.058c.724-.358 1.44-.572 2.169-.63.661-.07 1.186.016 1.6.242Zm10.723 2.247-9.232 4.562 1.127.616 4.137-2.044 3.865 2.116-4.137 2.044 1.126.617 9.231-4.562-1.126-.617-3.892 1.923-3.865-2.115 3.892-1.923-1.126-.617Zm4.914 5.343-4.163 2.057c-1.797.888-2.062 1.686-.77 2.393.672.368 1.592.495 2.77.386l-.904.447 1.095.6 6.684-3.303-1.095-.6-4.086 2.019a5.882 5.882 0 0 1-1.706.305c-.532.004-.946-.06-1.235-.219-.424-.232-.592-.472-.52-.701.063-.235.384-.49.953-.772l4.072-2.012-1.095-.6Zm8.366 4.39c-.724-.395-1.623-.564-2.701-.494a7.85 7.85 0 0 0-3.102.833c-1.009.498-1.593 1.013-1.746 1.562-.164.544.115 1.02.839 1.416.702.384 1.615.493 2.744.344l-1.034.511c-1.254.62-2.353.678-3.283.17-.434-.238-.664-.459-.705-.643-.039-.196.122-.404.448-.63l-1.096-.6c-.633.421-.939.82-.908 1.213.044.388.431.788 1.175 1.196 1.654.905 3.55.84 5.671-.209l6.245-3.085-1.096-.6-.892.44c.332-.572.143-1.038-.56-1.423Zm-.947.64c.465.255.633.55.488.9-.153.335-.575.683-1.273 1.028a5.8 5.8 0 0 1-2.011.595c-.657.045-1.212-.057-1.677-.312-.538-.294-.687-.618-.485-.965.168-.299.582-.611 1.228-.93.711-.352 1.391-.559 2.048-.603.661-.069 1.217.033 1.682.288Zm7.374 2.88c-.806-.442-1.793-.632-2.95-.566a8.21 8.21 0 0 0-3.245.85c-1.009.498-1.611 1.044-1.783 1.623-.176.604.126 1.133.932 1.574.806.442 1.806.625 2.975.565a8.173 8.173 0 0 0 3.208-.843c1.022-.505 1.614-1.056 1.798-1.642.186-.598-.128-1.12-.935-1.562Zm-1.124.555c.506.277.653.614.438 1.021-.178.347-.61.69-1.283 1.022a6.137 6.137 0 0 1-2.014.607c-.78.085-1.432-.002-1.938-.28-.506-.277-.64-.62-.428-1.015.178-.347.608-.677 1.28-1.01.672-.332 1.342-.544 2.017-.62.783-.095 1.421-.002 1.928.275Zm-49.944-13.67-1.45.027c.061.788.022 1.453-.164 1.997l1.499-.041c.14-.597.18-1.262.115-1.984Zm-3.354 1.463-1.45.027c.046.753-.032 1.383-.223 1.898l1.501-.054c.156-.56.221-1.185.172-1.871Zm-2.537 2.287c-1.96.516-3.986.969-6.047 1.363l.416.752a99.355 99.355 0 0 0 6.065-1.447l-.434-.668Zm7.256-.593-4.72 2.332 1.696.927-3.155 1.56c-.31.152-.569.173-.776.06a4.517 4.517 0 0 1-.676-.452l-.906.663.868.475c.61.334 1.334.299 2.136-.097l3.439-1.7 1.653.906 4.72-2.332-1.933-1.058c.416-.109.824-.235 1.223-.368l2.221 1.217 1.086-.537-6.314-3.456-4.473 2.21c-2.682 1.293-5.08 2.134-7.188 2.53l-.083.815c2.515-.468 5.248-1.409 8.211-2.83l3.388-1.674 2.221 1.216a21.59 21.59 0 0 1-1.222.368l-1.416-.775Zm-.329 3.725-2.563-1.403.944-.466 2.563 1.402-.944.467Zm-.727-2.31.97-.48 2.563 1.404-.97.479-2.563-1.403Zm-4.287 1.397a19.26 19.26 0 0 1-3.603.747l.165.737a23.292 23.292 0 0 0 4.074-.894l-.636-.59Zm3.827 2.027-1.166-.274c-.481.625-1.11 1.29-1.912 2.01l1.28.229a14.187 14.187 0 0 0 1.798-1.965Zm8.993 1.26-1.89-1.035a34.846 34.846 0 0 0 3.195-.998l1.519.832 1.19-.588-3.587-1.963-1.189.588 1.137.622a31.168 31.168 0 0 1-6.246 1.59l-.497.752c.486-.057.974-.126 1.476-.202l-4.874 2.409.91.497.878-.434.89.486-.634.313.909.498 6.813-3.367Zm-6.853 1.514 3.943-1.948.89.486-3.944 1.949-.889-.487Zm10.103-1.903-4.89 1.835 4.176 2.285c-1.9.94-3.134 1.463-3.7 1.57-.533.113-1.192-.046-1.967-.47-.176-.097-.447-.285-.837-.566l-.92.735c.283.182.568.365.857.523.95.52 1.827.744 2.618.665.78-.084 2.797-.92 6.03-2.516l-1.055-.577 5.655-2.224-4.61-2.523-1.163.575 3.535 1.935-4.409 1.694-1.974-1.08 3.537-1.297-.883-.564Zm-6.485 2.375-1.163.575 3.844 2.105 1.164-.575-3.845-2.105Z"/></g></g></svg>