<?xml version="1.0" encoding="UTF-8"?>
<svg width="28px" height="28px" viewBox="0 0 28 28" version="1.1" xmlns="http://www.w3.org/2000/svg" xmlns:xlink="http://www.w3.org/1999/xlink">
    <title>编组</title>
    <defs>
        <path d="M14.0334799,13.7230051 C10.7182306,13.6172734 8.08553291,11.0400629 8.08553291,7.86811092 C8.08553291,4.63007672 10.8435974,2 14.2702836,2 C17.6830401,2 20.4550356,4.63007672 20.4550356,7.86811092 C20.4411059,11.0400629 17.8084066,13.6172734 14.4931572,13.7230051 C14.3538611,13.7097886 14.1867057,13.7097886 14.0334799,13.7230051 Z" id="path-1"></path>
        <mask id="mask-2" maskContentUnits="userSpaceOnUse" maskUnits="objectBoundingBox" x="0" y="0" width="12.3695026" height="11.7230051" fill="white">
            <use xlink:href="#path-1"></use>
        </mask>
        <path d="M7.52822582,24.1761282 C11.3588709,26.607958 17.6411298,26.607958 21.4717748,24.1761282 C24.8427426,22.0350607 24.8427426,18.5459141 21.4717748,16.418063 C17.6550594,13.9994497 11.3728005,13.9994497 7.52822582,16.418063 C4.15725806,18.5591305 4.15725806,22.0482772 7.52822582,24.1761282 Z" id="path-3"></path>
        <mask id="mask-4" maskContentUnits="userSpaceOnUse" maskUnits="objectBoundingBox" x="0" y="0" width="19" height="11.395897" fill="white">
            <use xlink:href="#path-3"></use>
        </mask>
    </defs>
    <g id="控件" stroke="none" stroke-width="1" fill="none" fill-rule="evenodd">
        <g id="编组" transform="translate(0.000000, -0.000000)">
            <path d="M28,0 L28,28 L0,28 L0,0 L28,0 Z" id="Vector" opacity="0" transform="translate(14.000000, 14.000000) rotate(-180.000000) translate(-14.000000, -14.000000) "></path>
            <use id="Vector" stroke="#999999" mask="url(#mask-2)" stroke-width="4" stroke-linecap="round" stroke-linejoin="round" stroke-dasharray="0,0" fill-rule="nonzero" xlink:href="#path-1"></use>
            <use id="Vector" stroke="#999999" mask="url(#mask-4)" stroke-width="4" stroke-linecap="round" stroke-linejoin="round" stroke-dasharray="0,0" fill-rule="nonzero" xlink:href="#path-3"></use>
        </g>
    </g>
</svg>