<?xml version="1.0" encoding="UTF-8"?>
<svg width="24px" height="24px" viewBox="0 0 24 24" version="1.1" xmlns="http://www.w3.org/2000/svg" xmlns:xlink="http://www.w3.org/1999/xlink">
    <title>图标/全局/客服</title>
    <g id="图标/全局/客服" stroke="none" stroke-width="1" fill="none" fill-rule="evenodd">
        <g id="编组" fill-rule="nonzero">
            <rect id="Rectangle" opacity="0" x="0" y="0" width="24" height="24"></rect>
            <path d="M12,1.5 C16.95,1.5 21,5.55 21,10.5 L20.999183,13.1721031 C22.1618396,13.5860347 23,14.6998884 23,16 L23,19 C23,20.65 21.65,22 20,22 C18.35,22 17,20.65 17,19 L17,16 C17,14.7002567 17.8376856,13.5866658 18.999829,13.172455 L19,10.5 C19,6.64999999 15.85,3.5 12,3.5 C8.14999999,3.5 5,6.64999999 5,10.5 L4.99918302,13.1721031 C6.16183958,13.5860347 7.00000001,14.6998884 7.00000001,16 L6.9996046,18.6271382 C7.59649585,19.0670133 8.4149965,19.2601435 9.4905586,19.185534 C9.77286875,18.6937729 10.3024261,18.3636364 10.9090909,18.3636364 C11.8128296,18.3636364 12.5454545,19.0962613 12.5454545,20 C12.5454545,20.9037387 11.8128296,21.6363636 10.9090909,21.6363636 C10.4263748,21.6363636 9.99247706,21.4273476 9.69296434,21.0948825 C8.47925158,21.1866973 7.42284135,21.0217449 6.54214094,20.5890724 C6.01063629,21.4342063 5.06818411,22 4.00000001,22 C2.35000001,22 1.00000001,20.65 1.00000001,19 L1.00000001,16 C1.00000001,14.7002567 1.83768562,13.5866658 2.99982898,13.172455 L3,10.5 C3,5.55 7.05,1.5 12,1.5 Z M4,15 C3.45,15 3,15.45 3,16 L3,19 C3,19.55 3.45,20 4,20 C4.55000002,20 5,19.55 5,19 L5,16 C5,15.45 4.54999999,15 4,15 Z M20,15 C19.45,15 19,15.45 19,16 L19,19 C19,19.55 19.45,20 20,20 C20.55,20 21,19.55 21,19 L21,16 C21,15.45 20.55,15 20,15 Z" id="Combined-Shape" fill="#000000"></path>
        </g>
    </g>
</svg>