<svg xmlns="http://www.w3.org/2000/svg" width="24" height="24" viewBox="0 0 24 24"><title>email</title><g fill="none" fill-rule="nonzero"><path fill="#444" d="M11.953 0C5.362 0 0 5.362 0 11.953 0 18.544 5.362 24 11.953 24 18.544 24 24 18.544 24 11.953S18.544 0 11.953 0Z"/><path fill="#DEDEDE" d="M16.969 15.469c-.95 0-1.789-.477-2.298-1.2a3.494 3.494 0 0 1-2.624 1.2 3.52 3.52 0 0 1-3.516-3.516 3.52 3.52 0 0 1 3.516-3.515c.794 0 1.52.274 2.11.72v-.017a.703.703 0 1 1 1.405 0v3.515c0 .775.632 1.406 1.407 1.406s1.406-.63 1.406-1.406c0-4.706-3.114-7.031-6.328-7.031a6.335 6.335 0 0 0-6.328 6.328 6.335 6.335 0 0 0 6.328 6.328 6.26 6.26 0 0 0 3.846-1.303c.742-.566 1.591.551.857 1.115a7.659 7.659 0 0 1-4.703 1.595c-4.265 0-7.735-3.47-7.735-7.735 0-4.265 3.47-7.734 7.735-7.734 3.886 0 7.734 2.865 7.734 8.437a2.815 2.815 0 0 1-2.812 2.813Z"/><path fill="#444" d="M12.047 9.844c-1.163 0-2.11.946-2.11 2.11 0 1.162.947 2.108 2.11 2.108 1.163 0 2.11-.946 2.11-2.109s-.947-2.11-2.11-2.11Z"/></g></svg>