<svg xmlns="http://www.w3.org/2000/svg" xmlns:xlink="http://www.w3.org/1999/xlink" width="50" height="50" viewBox="0 0 50 50"><title>koobai</title><defs><path id="a" d="M0 0h50v50H0z"/></defs><g fill="none" fill-rule="evenodd"><mask id="b" fill="#fff"><use xlink:href="#a"/></mask><use xlink:href="#a" fill="#FFF"/><g mask="url(#b)"><path fill="#000" fill-rule="nonzero" d="M45.52 42.803s-1.247-1.93-4.505-5.537c-3.793-4.201-21.039-2.913-21.039-2.913S11.116 38.2 8.14 40.66c-2.776 2.295-5.091 7.937-5.455 10.044-.244 1.416 1.937 1.92 5.742 1.707 3.805-.214 5.075-.488 7.798.065 1.196.243-.918.392-.976.553-.416 1.157 8.215.406 11.034.302 4.127-.152 11.663.484 10.186-.514-.509-.344 1.143-.608 5.157-1.147 2.966-.398 5.273.433 6.04-.753.264-.407.015-1.714 0-2.49"/><path stroke="#000" stroke-linecap="round" stroke-width=".608" d="M2.667 51.667s0-5.292 5.497-10.687c3.666-3.597 12.697-6.675 12.697-6.675s15.57-1.38 21.279 4.579c5.454 5.693 5.527 11.207 5.527 11.207"/><path fill="#F9CFC2" fill-rule="nonzero" d="M18 38.092s-3.047 5.49 1.208 8.48c5.155 3.623 16.809 3.058 15.388-9.999"/><path fill="#ECA495" fill-rule="nonzero" d="M19.848 36.556c.013.755-1.885.835-1.16 4.093.169.76.52 2.94.52 2.94s-.13-1.873-1.182-2.288c-.393-.155-.75-.164-.86-.563-.157-.578.085-1.534.484-2.629.456-1.249.595-2.289 1.058-2.267.464.022 1.123-.299 1.14.714"/><path fill="#DD9B90" fill-rule="nonzero" d="M17.8 44.734s4.459 3.275 9.215 2.6c4.033-.574 5.78-3.197 5.782-2.32.003.879-1.885 2.87-3.422 3.254-1.537.384-7.483.692-10.685-2.029-.002 0-1.43-.774-.89-1.505Z"/><path stroke="#0F0F0F" stroke-width=".608" d="M18 38.092s-3.152 6.514 1.582 8.668c8.889 4.046 14.96 1.599 15.122-10.194"/><path fill="#FFE1D2" fill-rule="nonzero" d="m31.515 42.138 1.135-6.057-3.795-2.495-10.27 2.204 1.868 7.579"/><path fill="#ECA495" fill-rule="nonzero" d="M32.434 40.967s-1.424 2.336-3.014 2.904c-1.589.569-4.524 2.505-8.453-.377-2.978-2.185-2.279-3.02-2.279-3.02l.112-.7s2.236 1.492 3.82 1.91c1.586.418 6.488 1.088 8.789-.986 0 0 .761-.859 1.024-.453.262.405 0 .722 0 .722Z"/><path stroke="#0F0F0F" stroke-linecap="round" stroke-width=".608" d="m32.058 42.709 1.49-6.91-4.892-2.213L17.82 35.79l1.406 7.579"/><path fill="#ECA495" fill-rule="nonzero" d="M18.577 37.26c2.542.996 5.824 1.63 8.659 1.056 2.835-.574 4.007-1.195 4.312-1.514l.722-3.448-12.393-.287-1.85 1.96.55 2.233Z"/><path fill="#000" fill-rule="nonzero" d="M12.178 42.784s2.258 2.751 1.9 4.852c-.36 2.101.73.485.338-1.594-.393-2.079-1.655-2.993-2.239-3.258"/><path fill="#FFE1D2" fill-rule="nonzero" d="M8.56 17.947s-1.37-1.539-3.707-.762c-2.335.777-3.027 3.423-.951 6.273 1.761 2.42-.156 6.958 2.396 7.47.455.09 1.857.179 2.276-.809.583-1.376-.034-12.556-.034-12.556"/><path fill="#ECA495" fill-rule="nonzero" d="M4.529 21.082c.149.613.89 3.726 2.375 3.718.72-.004-.283-3.364-.296-3.677-.053-1.265.077-2.25-.648-2.348-.609-.083-1.882.454-1.431 2.307M7.56 28.613s-.102 1.647-1.077 1.756c-1.139.128-1.32-.588-1.49-.804 0 0-.305.967.504 1.393.81.426 2.333.101 2.495-.39.162-.49-.433-1.955-.433-1.955Z"/><path stroke="#0F0F0F" stroke-linecap="round" stroke-width=".608" d="M4.887 22.098s-1.094-3.311 1.336-3.227"/><path stroke="#0F0F0F" stroke-linecap="round" stroke-width=".608" d="M4.887 19.54s.867.313 1.22 1.59"/><path stroke="#141414" stroke-width=".608" d="M8.443 19.04s-1.254-2.634-3.59-1.857c-2.335.776-2.856 3.423-.782 6.275 2.082 2.863-1.312 8.047 2.937 7.899 1.237-.043 1.566-1.238 1.985-1.596 1.136-.972-.55-10.721-.55-10.721Z"/><path fill="#FFE1D2" fill-rule="nonzero" d="M41.443 17.9s1.395-2.008 3.73-1.23c2.336.777 2.986 4.275.91 7.126-1.687 2.315.988 6.662-1.793 7.5-.644.194-2.118-.355-2.969-1.023-1.176-.923.123-12.373.123-12.373"/><path fill="#ECA495" fill-rule="nonzero" d="M45.455 21.195c-.149.612-1.458 4.197-2.237 4.008-.698-.168.145-3.655.158-3.967.053-1.266-.077-2.25.648-2.349.608-.082 1.882.455 1.431 2.308"/><path stroke="#0F0F0F" stroke-linecap="round" stroke-width=".608" d="M45.494 21.053s.383-2.075-1.693-2.166"/><path stroke="#0F0F0F" stroke-linecap="round" stroke-width=".608" d="M44.933 19.835s-.84.376-1.098 1.677"/><path stroke="#141414" stroke-width=".608" d="M41.443 17.9s1.395-2.008 3.73-1.23c2.336.777 2.986 4.275.91 7.126-1.722 2.364.846 6.462-1.867 7.523-.594.232-1.095.1-1.601-.252-.292-.203-.471-1.132-.807-1.507-.999-1.112-.365-11.66-.365-11.66Z"/><path fill="#FFE1D2" fill-rule="nonzero" d="M8.219 7.817c-.46 1.864-2.317 1.317-1.07 12.812.21 1.932.41 12.126 3.805 14.823 3.543 2.81 6.789 2.87 8.928 4.592 2.348 1.888 8.914 1.545 12.438-.326 3.483-1.85 8.373-2.384 9.77-6.054 0 0 2.096-8.06 1.782-16.415-.36-9.589-.815-10.968-4.948-15.793-4.874-5.693-10.865-8.652-17.53-6.678-6.498 1.924-10.988 7.56-12.506 10.87"/><path fill="#ECA495" fill-rule="nonzero" d="M6.786 17.598s1.104-1.234 1.053-.101c-.202 4.602.99 12.294 1.629 13.658.527 1.13 2.124 4.418 7.318 5.967 0 0 1.758.382 2.656 1.358 1.272 1.385 6.183 3.214 10.272 1.621 1.776-.692 4.103-2.467 5.001-2.71 2.438-.659 2.853-.844 4.126-1.59 1.64-.96 2.53-2.954 3.139-6.43.342-1.956 1.136-8.655.96-10.985-.135-1.765.304-2.56.86-1.467 0 0 .67 13.182-2.62 18.22 0 0-.568 1.348-3.885 2.56-3.316 1.213-5.403 2.403-6.965 3.186-1.562.783-5.12 2.566-10.752-.709 0 0-3.973-2.09-5.99-2.816 0 0-4.244-1.647-5.57-6.63-1.326-4.982-1.158-12.374-1.232-13.132Z"/><path fill="#F1A394" fill-rule="nonzero" d="M23.94 11.933s-.16 1.701-.804 1.97c-.644.269-1.022.337-.089.482 1.681.264 1.003-2.802 1.003-2.802s-.204.009-.11.35ZM20.373 12.983c-.384.091-.78.121-1.172.09-.694-.06-1.509-.274-1.782-.338-.54-.123-2.607-.425-2.84-.328-.233.097-3.541 1.674-2.671 1.955.552.178 2.623-.244 4.176-.17 1.983.098 4 .512 4.28.555.97.153 1.05-.776.927-1.447-.068-.376-.372-.692-.372-.692s-.456-.218-.546.375ZM30.46 13.433s.15.135.783.038c.688-.108 1.486-.377 1.754-.458.531-.16 2.572-.603 2.81-.522.24.081 3.649 1.428 2.8 1.767-.539.215-2.633-.063-4.178.12-1.972.232-3.783.813-4.059.877-.957.218-1.303-.837-1.352-1.517-.034-.473.428-.658.428-.658s.884-.233 1.014.353ZM26.62 12.858s-.507 1.748.575 1.579c.601-.094.357-.138-.057-.31-.414-.174-.518-1.269-.518-1.269"/><path fill="#ECA495" fill-rule="nonzero" d="M7.042 18.384s1.445.238 1.496.914c.05.675.258 2.475 1.172 3.426 1.049 1.091 3.365 1.553 3.365 1.553s4.345.54 6.627-.152c2.283-.692 2.863-1.89 3.13-4.018 0 0 .082-1.925.034-2.481 0 0 2.228-1.368 4.44-.034 0 0-.221 3.35.611 4.54.934 1.335 3.782 1.805 5.507 1.959 1.724.154 6.953-.388 7.748-1.823.795-1.435.947-4.06.947-4.06s.758-.88 1.69-.96l-.218-.94-14.387-.66-18.324.676-3.976.692.138 1.368Z"/><path fill="#F2C3BB" fill-rule="nonzero" d="M26.313-5.487s-2.764.22-5.395 1.317c-1.463.61-2.886 1.577-3.769 2.278-1.589 1.261-7.754 6.603-5.112 8.933.71.626-1.095 1.413-1.568 1.688-1.204.708-2.258 2.362-2.258 4.35 0 1.126-.252 1.541-.157 3.946 0 0-1.129.21-1.331-.17 0 0 .005-5.458.646-7.292.641-1.835 2.005-7.315 7.45-11.595 0 0 6.32-4.231 11.494-3.455ZM34.011-2.643c1.473 1.396 7.961 7.524 8.464 15.554.054.848.265 1.541.17 3.945 0 0 .81.379 1.014 0 0 0 .589-5.38-.052-7.214-.641-1.834-2.739-7.452-8.186-11.733-.001 0-2.377-1.47-1.41-.552Z"/><path stroke="#141414" stroke-width=".608" d="M8.52 6.189C7.397 8.913 6.776 9.642 6.856 20.813c.017 2.363.682 9.036 1.506 10.953 2.725 6.334 8.065 6.416 10.438 8.007 6.376 4.272 10.828 1.846 13.884.155 4.247-2.35 8.748-2.042 9.717-7.607 0 0 1.78-6.49 1.41-15.072-.39-9.035-.009-8.723-3.756-14.25C38.406.57 32.65-6.264 25.941-5.785c-1.875.135-1.1.008-3.246.317C17.8-4.765 12.823-1.591 8.52 6.189Z"/><path stroke="#0F0F0F" stroke-linecap="round" stroke-width=".5" d="m26.613 41.524-.454 1.522M25.689 41.693l-.1 1.816M24.442 41.43l.454 1.522M23.436 41.43l.358 1.289M22.593 41.062l.357 1.289M28.853 30.765l.22.647M28.212 30.667l.222.647M27.442 30.362l.22.647M30.016 30.73l.22.647M29.375 30.733l.222.647M30.589 30.83l.22.649M31.829 31.644l.222.648M31.317 31.61l.222.649M31.188 31.189l.222.647M27.456 41.34l-.357 1.288M28.332 41.109l-.357 1.289M29.476 40.818l-.623 1.184M30.644 40.47l-.623 1.184M31.61 39.7l-.622 1.183M21.776 40.818l.623 1.184M20.819 40.29l.623 1.185M19.64 39.7l.623 1.183"/><path fill="#E99F91" fill-rule="nonzero" d="M20.878 28.527s.778.03 1.259.135c.635.14.501.382 1.176.726 1.014.518 2.722 1.625 4.843-.461 0 0 .421-.187 1.04-.427.778-.301 1.145-1.55 1.454-2.052 0 0-.896 1.137-1.302 1.42-.405.285-.736-.141-2.207.716-2.104 1.225-3.327-.286-4.724-.385-.232-.017-1.116.195-1.539-.11-.733-.531-.93-1.412-1.008-1.207-.141.365.046 1.24 1.008 1.645Z"/><path fill="#0F0F0F" fill-rule="nonzero" d="M19.848 24.718s-1.15 2.509.812 3.571l.563.148s-1.059-.473-1.217-1.655c-.158-1.181.023-1.741.158-2.066.135-.325-.18-.362-.316.002ZM30.11 24.098s1.978 2.683-.304 3.762l-.545.339s1.06-.826 1.217-2.007c.158-1.18-.57-2-.706-2.324-.135-.325.203-.135.338.23Z"/><path fill="#141414" fill-rule="nonzero" d="M11.98 14.195s1.684-1.737 2.712-1.876c.514-.067 2.285.343 3.866.773.523.143 1.274.36 1.747.185.746-.276.834.472.834.472s-.326 2.113-2.08 1.374c-.575-.243-.676-1.097-2.483-1.11-1.662-.012-4.595.182-4.595.182ZM12.292 12.323S9.87 14.168 9.47 14.628c0 0-.03.131.125.014.642-.489 2.456-1.99 2.697-2.32M13.237 11.995s-2.422 1.845-2.823 2.306c0 0-.029.13.125.014.644-.49 2.457-1.99 2.698-2.32M13.75 11.967s-1.664 1.26-2.062 1.72c0 0-.03.131.125.014.642-.49 1.863-1.413 2.104-1.742M11.16 11.93s-2.197 2.136-2.54 2.646c0 0-.015.135.125 0 .584-.567 2.213-2.285 2.416-2.645"/><path fill="#0F0F0F" fill-rule="nonzero" d="M9.392 14.389c.664-.588 2.088-1.731 2.908-2.28l-.474-.028a.816.816 0 0 0-.6.215c-.681.629-2.136 2.116-2.458 2.528l.128-.024c.067-.06.297-.234.497-.411"/><path fill="#141414" fill-rule="nonzero" d="M38.378 14.02s-1.84-1.978-2.869-2.115c-.514-.068-2.025.669-3.606 1.1-.522.141-.933.186-1.364.325-.23.074-.61-.098-.78-.089a.473.473 0 0 0-.41.669c.259.558 1.005 1.466 2.018 1.04.574-.244.676-1.097 2.482-1.11 1.664-.014 4.529.18 4.529.18ZM38.134 11.948s2.423 1.845 2.823 2.306c0 0 .03.13-.125.014-.642-.49-2.456-1.99-2.698-2.32M37.19 11.622s2.422 1.845 2.822 2.306c0 0 .03.131-.125.014-.642-.49-2.456-1.99-2.697-2.32M36.677 11.595s1.663 1.259 2.062 1.72c0 0 .03.13-.125.013-.642-.489-1.863-1.413-2.104-1.742M39.266 11.558s2.198 2.135 2.541 2.645c0 0 .015.135-.125 0-.584-.566-2.214-2.285-2.416-2.645"/><path fill="#0F0F0F" fill-rule="nonzero" d="M41.035 14.016c-.664-.588-2.088-1.73-2.908-2.28l.474-.028a.815.815 0 0 1 .601.215c.681.63 2.137 2.116 2.458 2.528l-.127-.024c-.068-.059-.298-.234-.498-.41M5.497 17.286v-.61s1.197-.462 3.145-.825c0 0 .034-.514.217-.613 1.098-.603 10.398-1.956 13.752-.317l.214.52s.215 4.189 0 4.917c-.214.729-.483 2.134-2.575 2.758-2.092.624-6.04.417-6.04.417s-3.896-.287-4.7-1.925c-.326-.94-.541-1.916-.643-2.906l-.329-.439c-.896-.436-1.85-.774-2.83-.94l-.21-.037ZM44.723 16.82v-.955s-1.066-.335-2.054-.414c-.646-.051-.514-.06-.773-.062-.259-.002.13-.664-.452-.853-3.263-1.056-7.794-1.625-13.817-.065l-.215.52s-.214 4.188 0 4.916c.215.73.483 2.134 2.573 2.758 2.09.624 6.78.416 6.78.416s3.649-.355 4.453-1.994c0 0 .509-1.42.536-2.984l.26-.251a3.576 3.576 0 0 1 2.207-.993l.502-.038Z"/><path fill="#0F0F0F" fill-rule="nonzero" d="M22.041 16.16s2.322-1.47 5.836-.325l.8.568v.978s-3.468-1.618-6.636-.068v-.954"/><path fill="#ECA495" fill-rule="nonzero" d="M18.259 32.562s.17-.817 1.2-.928c.278-.03.376.595 2.158.685 1.074.055 2.24.058 2.57.117.328.058.805.236 1.318.233.514-.002.815-.017 1.478-.255.664-.239 2.06-.118 2.615-.223.553-.106 1.095-.427 1.493-.224.96.494.304 1.099 0 .848-.193-.158-.752-.426-1.188-.304-.437.123-2.21.164-2.46.278-.25.115-1.683.365-2.127.327-.819-.067-1.5-.08-1.879-.187s-2.367-.286-3.05-.427c-.683-.14-.877-.117-.877-.117s-.932.616-1.251.177Z"/><path fill="#0F0F0F" fill-rule="nonzero" d="M18.803 32.3s.394-.477.673-.492c.279-.014.358.252 2.14.342 1.074.055 2.24.025 2.57.083.328.059.804.169 1.318.166.513-.002.815.05 1.478-.188s2.282-.012 2.836-.117c.554-.106.93-.226 1.294.034.363.26.051.526-.121.347-.173-.18-.653-.288-1.09-.165-.436.123-2.475.165-2.725.28-.25.114-1.138.178-1.582.151-.445-.027-1.205.047-1.583-.06-.38-.106-2.942-.273-3.625-.414-.683-.14-.804-.185-.804-.185s-.37.567-.78.218Z"/><path fill="#ECA495" fill-rule="nonzero" d="M19.12 38.092s-1.026-1.047-1.11-1.486c0 0-.288-.135-.238.27.051.406.638 1.655 1.25 2.11.61.457.873-.018.097-.894ZM33.209 37.975s.884-1.008 1.26-1.415c0 0 .305-.086.19.304-.115.39-.9 1.528-1.578 1.878-.677.35-1.03.16.128-.767Z"/><path fill="#F1A394" fill-rule="nonzero" d="M21.934 34.329s.671 1.697 2.35 1.967c1.68.27 3.481-.084 4.414-1.053.933-.968.63-1.09.63-1.09s-.774.953-2.587.952c-1.947 0-2.976.313-4.807-.777"/><path fill="#FFF" fill-rule="nonzero" d="M24.578 25.56s-1.028.156-.459.54c.57.385 1.934.231 1.714-.189-.219-.42-.642-.412-1.255-.351M25.007 34.104s-.699.096-.312.332c.387.237 1.314.142 1.165-.116-.148-.258-.437-.253-.853-.216"/><path fill="#443C3B" fill-rule="nonzero" d="M21.725 18.725s-.51-.04-.332.312c.178.353.842.443.834.116-.008-.326-.205-.382-.502-.428"/><path fill="#FFF" fill-rule="nonzero" d="M26.77 25.73s-.189.083-.084.29c.105.207.356.124.316-.101-.04-.226-.119-.222-.232-.19"/><path stroke="#0F0F0F" stroke-linecap="round" stroke-width=".5" d="m21.982 30.67-.222.648M22.622 30.572l-.221.613M23.393 30.165l-.222.647M20.819 30.635l-.222.647M21.459 30.604l-.221.647M20.245 30.736l-.221.647M18.887 31.422l-.222.647M18.369 31.935l-.222.648M19.582 30.969l-.221.648"/><path fill="#FFF" fill-rule="nonzero" d="m38.106 14.537-3.396 8.579h.47l3.365-9.165-.228-.035zM12.658 22.293l3.544-8.153-.869.07-3.74 8.81.42.125c.186.053.606.144.626.147l.75.141-.38-.158c-.065-.05-.115-.093-.17-.13a.627.627 0 0 1-.254-.602l.073-.25ZM17.173 15.152l-3.257 8.343.279.042 3.496-9.331h-.124zM36.661 13.587h.003s-.314-.026-.79-.052l-.387-.026v.007c-.69-.03-1.565.015-2.343.059-.55.028-1.097.084-1.64.168 0 0 1.416-.05 1.905-.055.48-.004 1.488.05 2.224.256l.085.034c.229.09.362.331.316.573l-.088.252-3.33 8.23.992.06 3.604-9.47-.55-.036Z"/><path fill="#0F0F0F" fill-rule="nonzero" d="M23.261 34.781s.517.257.805.275c.287.019 2.758.068 3.029.041.192-.018.84-.182 1.056-.352.095-.076.137 0 .109.047 0 0-.22.506-1.171.564-.95.059-2.51.026-2.838.016-.327-.01-1.166-.463-.99-.59Z"/><path fill="#443C3B" fill-rule="nonzero" d="M21.787 19.799c.152.061.23.23.18.386-.18.551-.704 1.762-1.945 2.238-.77.295-1.31.428-1.666.487a.062.062 0 0 1-.03-.12c.778-.249 2.17-.774 2.517-1.437l.004-.008c.034-.045.406-.541.489-1.177v-.005l.007-.127a.291.291 0 0 1 .401-.254l.043.017ZM40.92 19.173c.075.04.073.439.022.596a4.804 4.804 0 0 1-.557 1.184c-.281.42-.575.644-1.127.87-.764.313-.61.18-.963.239-.076.012-.304-.244-.047-.329.464-.15.865-.188 1.241-.416.546-.332.92-.937 1.132-1.41.165-.368.299-.734.299-.734Z"/></g></g></svg>