<svg xmlns="http://www.w3.org/2000/svg" xmlns:xlink="http://www.w3.org/1999/xlink" width="100" height="100" viewBox="0 0 100 100"><title>koobai备份 2</title><defs><path id="a" d="M0 0h100v100H0z"/></defs><g fill="none" fill-rule="evenodd"><mask id="b" fill="#fff"><use xlink:href="#a"/></mask><use xlink:href="#a" fill="#FFF"/><g mask="url(#b)"><path fill="#000" fill-rule="nonzero" d="M90.189 84.414s-2.332-3.657-8.427-10.495c-7.096-7.96-39.36-5.52-39.36-5.52s-16.576 7.293-22.145 11.953c-5.193 4.348-9.524 15.04-10.205 19.034-.457 2.683 3.624 3.639 10.743 3.234 7.119-.405 9.493-.924 14.588.123 2.239.46-1.717.743-1.826 1.048-.777 2.194 15.368.77 20.644.573 7.72-.289 21.818.918 19.056-.974-.952-.652 2.138-1.152 9.648-2.173 7.453-1.013 11.416-.393 11.298-6.145"/><path fill="#F9CFC2" fill-rule="nonzero" d="M36.001 76.183s-6.094 10.98 2.415 16.961c10.31 7.247 33.617 6.116 30.777-19.997"/><path fill="#ECA495" fill-rule="nonzero" d="M39.696 73.112c.026 1.51-3.77 1.67-2.32 8.185.338 1.52 1.039 5.88 1.039 5.88s-.258-3.745-2.363-4.575c-.786-.31-1.501-.327-1.719-1.126-.315-1.156.17-3.068.968-5.257.91-2.499 1.189-4.578 2.116-4.535.927.043 2.246-.598 2.28 1.428"/><path fill="#DD9B90" fill-rule="nonzero" d="M35.6 89.468s8.917 6.55 18.43 5.2c8.066-1.148 11.558-6.394 11.564-4.638.007 1.755-3.77 5.74-6.845 6.507-3.074.767-14.965 1.382-21.37-4.059-.002 0-2.86-1.548-1.779-3.01Z"/><path stroke="#000" stroke-linecap="round" stroke-width="1.217" d="M9.963 100.549s0-10 10.292-20.196c6.863-6.796 23.77-12.613 23.77-12.613s29.146-2.61 39.835 8.652c10.211 10.758 10.346 21.18 10.346 21.18"/><path stroke="#0F0F0F" stroke-width="1.217" d="M36.001 76.183s-6.306 13.029 3.163 17.338c17.777 8.09 29.92 3.196 30.244-20.39"/><path fill="#FFE1D2" fill-rule="nonzero" d="M63.03 84.275 65.3 72.16l-7.59-4.989-20.538 4.407 3.733 15.16"/><path fill="#ECA495" fill-rule="nonzero" d="M64.868 81.935s-2.849 4.67-6.027 5.807c-3.179 1.138-9.049 5.01-16.907-.753-5.956-4.37-4.557-6.04-4.557-6.04l.223-1.402s4.472 2.984 7.642 3.82c3.17.836 12.974 2.177 17.575-1.971 0 0 1.524-1.717 2.048-.907.525.81.003 1.446.003 1.446ZM37.154 74.52c5.083 1.993 11.648 3.26 17.318 2.112 5.67-1.148 8.014-2.39 8.623-3.028l1.445-6.896-24.785-.574-3.7 3.922 1.099 4.465Z"/><path fill="#FFE1D2" fill-rule="nonzero" d="M17.121 35.894s-2.742-3.077-7.414-1.524-6.055 6.845-1.904 12.547c3.524 4.838-.31 13.915 4.793 14.938.91.182 3.714.359 4.551-1.617 1.166-2.751-.067-25.112-.067-25.112"/><path fill="#ECA495" fill-rule="nonzero" d="M9.057 42.164c.298 1.225 1.782 7.451 4.75 7.436 1.44-.008-.565-6.729-.591-7.353-.105-2.531.154-4.5-1.296-4.697-1.218-.165-3.764.908-2.863 4.614M15.118 57.227s-.203 3.293-2.151 3.511c-2.278.255-2.643-1.177-2.981-1.608 0 0-.61 1.934 1.009 2.786 1.617.852 4.666.202 4.989-.78.323-.981-.866-3.91-.866-3.91Z"/><path stroke="#0F0F0F" stroke-linecap="round" stroke-width="1.217" d="M9.775 44.196s-2.189-6.622 2.671-6.454"/><path stroke="#0F0F0F" stroke-linecap="round" stroke-width="1.217" d="M9.775 39.08s1.732.626 2.439 3.182"/><path stroke="#141414" stroke-width="1.217" d="M16.885 38.08s-2.506-5.268-7.178-3.715c-4.672 1.553-5.714 6.848-1.566 12.552 4.164 5.726-2.624 16.092 5.876 15.797 2.474-.086 3.13-2.476 3.969-3.193 2.273-1.943-1.1-21.442-1.1-21.442Z"/><path fill="#FFE1D2" fill-rule="nonzero" d="M82.886 35.801s2.79-4.017 7.462-2.462c4.67 1.554 5.969 8.552 1.817 14.253-3.372 4.63 1.978 13.324-3.584 15-1.29.387-4.237-.71-5.939-2.046-2.352-1.847.247-24.745.247-24.745"/><path fill="#ECA495" fill-rule="nonzero" d="M90.911 42.39c-.298 1.224-2.917 8.393-4.474 8.017-1.397-.338.289-7.31.315-7.935.105-2.532-.154-4.5 1.296-4.697 1.217-.166 3.764.908 2.863 4.614"/><path stroke="#0F0F0F" stroke-linecap="round" stroke-width="1.217" d="M90.989 42.106s.765-4.15-3.387-4.331"/><path stroke="#0F0F0F" stroke-linecap="round" stroke-width="1.217" d="M89.867 39.67s-1.682.752-2.197 3.353"/><path stroke="#141414" stroke-width="1.217" d="M82.886 35.801s2.79-4.017 7.462-2.462c4.67 1.554 5.969 8.552 1.817 14.253-3.443 4.727 1.694 12.924-3.734 15.046-1.186.464-2.19.198-3.202-.504-.584-.405-.941-2.265-1.614-3.013-1.997-2.225-.729-23.32-.729-23.32Z"/><path fill="#FFE1D2" fill-rule="nonzero" d="M16.437 15.633c-.918 3.73-4.634 2.634-2.139 25.625.42 3.865.82 24.252 7.61 29.645 7.087 5.621 13.577 5.74 17.856 9.184 4.697 3.777 17.828 3.091 24.876-.651 6.965-3.701 16.745-4.768 19.54-12.108 0 0 4.193-16.12 3.564-32.83-.72-19.178-1.629-21.935-9.896-31.586-9.749-11.386-21.73-17.303-35.062-13.356-12.993 3.849-21.974 15.12-25.01 21.739"/><path fill="#ECA495" fill-rule="nonzero" d="M13.571 35.196s2.208-2.469 2.108-.203c-.406 9.205 1.98 24.59 3.256 27.318 1.056 2.258 4.25 8.834 14.637 11.934 0 0 3.517.762 5.313 2.716 2.543 2.768 12.365 6.427 20.543 3.241 3.551-1.384 8.207-4.935 10.003-5.42 4.874-1.318 5.706-1.689 8.25-3.18 3.28-1.922 5.061-5.909 6.279-12.86.685-3.912 2.272-17.31 1.92-21.97-.27-3.529.609-5.12 1.719-2.933 0 0 1.343 26.363-5.24 36.44 0 0-1.135 2.695-7.768 5.12-6.633 2.425-10.806 4.805-13.93 6.371-3.125 1.566-10.24 5.132-21.506-1.418 0 0-7.944-4.18-11.98-5.633 0 0-8.487-3.292-11.14-13.258-2.652-9.965-2.315-24.75-2.464-26.265Z"/><path fill="#F1A394" fill-rule="nonzero" d="M47.88 23.867s-.32 3.401-1.608 3.939c-1.288.537-2.045.675-.177.965 3.361.526 2.006-5.605 2.006-5.605s-.408.018-.222.7ZM40.746 25.965a7.506 7.506 0 0 1-2.345.18c-1.387-.12-3.016-.548-3.562-.675-1.082-.246-5.215-.85-5.68-.656-.467.194-7.083 3.349-5.343 3.91 1.105.355 5.246-.488 8.352-.338 3.967.193 8 1.021 8.558 1.108 1.941.305 2.101-1.553 1.856-2.893-.135-.754-.744-1.385-.744-1.385s-.912-.435-1.092.75ZM60.92 26.866s.301.27 1.566.075c1.376-.215 2.972-.753 3.508-.915 1.063-.32 5.144-1.206 5.621-1.044.478.162 7.296 2.855 5.599 3.534-1.078.43-5.267-.126-8.355.238-3.944.466-7.568 1.628-8.119 1.756-1.915.437-2.607-1.673-2.705-3.035-.067-.945.857-1.316.857-1.316s1.768-.464 2.029.707ZM53.24 25.716s-1.015 3.497 1.15 3.158c1.202-.189.714-.276-.114-.621-.829-.346-1.035-2.537-1.035-2.537"/><path fill="#ECA495" fill-rule="nonzero" d="M14.084 36.769s2.89.476 2.992 1.826c.102 1.35.517 4.95 2.345 6.853 2.096 2.183 6.729 3.106 6.729 3.106s8.69 1.08 13.254-.304c4.565-1.384 5.726-3.782 6.261-8.036 0 0 .162-3.85.068-4.963 0 0 4.455-2.735 8.879-.067 0 0-.443 6.699 1.223 9.081 1.867 2.67 7.564 3.61 11.013 3.917 3.449.307 13.907-.777 15.496-3.647 1.59-2.87 1.894-8.117 1.894-8.117s1.515-1.764 3.381-1.922l-.437-1.882-28.775-1.317-36.647 1.351-7.952 1.384.276 2.737Z"/><path fill="#F2C3BB" fill-rule="nonzero" d="M52.626-10.973s-5.528.439-10.79 2.634c-2.927 1.22-5.771 3.153-7.538 4.555C31.12-1.262 18.79 9.422 24.074 14.082c1.42 1.253-2.191 2.825-3.136 3.376-2.409 1.415-4.515 4.723-4.515 8.7 0 2.253-.506 3.083-.316 7.891 0 0-2.257.42-2.661-.337 0 0 .01-10.917 1.292-14.587 1.283-3.67 4.01-14.63 14.902-23.19 0 .003 12.638-8.461 22.986-6.908ZM68.023-5.286C70.968-2.494 83.944 9.762 84.95 25.822c.107 1.695.53 3.082.339 7.891 0 0 1.623.756 2.028 0 0 0 1.18-10.761-.103-14.43-1.282-3.668-5.478-14.904-16.372-23.465-.002 0-4.754-2.939-2.82-1.104Z"/><path stroke="#141414" stroke-width="1.217" d="M17.042 12.378c-2.25 5.447-3.493 6.905-3.332 29.247.034 4.727 1.363 18.073 3.012 21.908 5.45 12.667 16.13 12.83 20.877 16.012 12.752 8.544 21.655 3.694 27.767.311 8.494-4.7 17.497-4.084 19.434-15.215 0 0 3.559-12.977 2.819-30.144-.78-18.068-.017-17.445-7.51-28.497-3.297-4.862-14.81-18.531-28.228-17.572-3.748.27-2.198.016-6.492.633-9.789 1.41-19.743 7.757-28.347 23.317Z"/><path stroke="#0F0F0F" stroke-linecap="round" stroke-width=".5" d="m53.225 83.046-.909 3.045M51.277 83.386l-.1 3.631M48.884 82.86l.908 3.044M46.872 82.86l.714 2.577M45.185 82.122l.714 2.58M57.704 61.53l.443 1.294M56.423 61.333l.443 1.295M54.882 60.722l.443 1.295M60.031 61.458l.443 1.296M58.75 61.465l.443 1.295M61.176 61.661l.444 1.295M63.657 63.287l.443 1.295M62.633 63.222l.443 1.295M62.376 62.376l.443 1.295M54.911 82.678l-.713 2.578M56.663 82.217l-.714 2.578M58.951 81.635l-1.247 2.367M61.288 80.94l-1.247 2.366M63.22 79.398l-1.246 2.368M43.55 81.635l1.246 2.367M41.636 80.582l1.247 2.368M39.28 79.398l1.246 2.368"/><path fill="#E99F91" fill-rule="nonzero" d="M41.756 57.054s1.556.06 2.517.27c1.27.28 1.004.764 2.352 1.452 2.03 1.036 5.446 3.25 9.686-.922 0 0 .844-.375 2.081-.854 1.556-.602 2.29-3.1 2.908-4.104 0 0-1.792 2.274-2.603 2.842-.812.568-1.473-.284-4.414 1.43-4.208 2.45-6.655-.571-9.45-.77-.462-.033-2.231.39-3.077-.221-1.465-1.061-1.859-2.823-2.016-2.413-.282.73.092 2.48 2.016 3.29Z"/><path fill="#0F0F0F" fill-rule="nonzero" d="M39.696 49.436s-2.299 5.017 1.623 7.142l1.128.295s-2.119-.945-2.435-3.308c-.316-2.364.046-3.483.316-4.133.27-.65-.361-.725-.632.004ZM60.22 48.196s3.955 5.366-.608 7.523l-1.09.68s2.12-1.653 2.435-4.014c.315-2.361-1.143-4-1.413-4.65-.27-.649.406-.268.676.461Z"/><path fill="#141414" fill-rule="nonzero" d="M23.962 28.39s3.366-3.474 5.422-3.752c1.028-.135 4.57.686 7.732 1.546 1.046.285 2.548.72 3.495.37 1.492-.551 1.667.945 1.667.945s-.653 4.225-4.16 2.747c-1.15-.485-1.353-2.193-4.965-2.22-3.325-.023-9.191.364-9.191.364ZM24.585 24.646s-4.846 3.69-5.646 4.61c0 0-.058.263.25.028 1.285-.978 4.913-3.98 5.396-4.638M26.475 23.99s-4.846 3.69-5.646 4.611c0 0-.058.263.25.028 1.288-.979 4.912-3.98 5.395-4.639M27.5 23.935s-3.327 2.519-4.124 3.44c0 0-.059.262.25.027 1.285-.978 3.726-2.826 4.209-3.485M22.321 23.862s-4.395 4.27-5.082 5.29c0 0-.028.27.252 0 1.167-1.133 4.426-4.57 4.83-5.29"/><path fill="#0F0F0F" fill-rule="nonzero" d="M18.784 28.778c1.328-1.176 4.176-3.462 5.816-4.56l-.947-.056a1.632 1.632 0 0 0-1.201.43c-1.362 1.258-4.273 4.232-4.915 5.055l.255-.048c.135-.117.595-.467.994-.821"/><path fill="#141414" fill-rule="nonzero" d="M76.755 28.04s-3.68-3.956-5.737-4.23c-1.028-.136-4.05 1.338-7.213 2.199-1.043.284-1.865.373-2.728.652-.458.148-1.217-.198-1.56-.179a.947.947 0 0 0-.818 1.338c.517 1.115 2.01 2.932 4.034 2.079 1.15-.486 1.353-2.193 4.965-2.22 3.328-.026 9.057.36 9.057.36ZM76.269 23.896s4.846 3.69 5.645 4.611c0 0 .059.263-.25.029-1.284-.979-4.913-3.98-5.395-4.64M74.38 23.245s4.845 3.69 5.645 4.61c0 0 .058.263-.25.028-1.286-.978-4.914-3.98-5.396-4.638M73.353 23.19s3.327 2.517 4.125 3.439c0 0 .06.262-.25.028-1.284-.979-3.726-2.826-4.209-3.486M78.532 23.116s4.396 4.27 5.083 5.29c0 0 .028.27-.252 0-1.167-1.133-4.427-4.57-4.831-5.29"/><path fill="#0F0F0F" fill-rule="nonzero" d="M82.07 28.032c-1.328-1.176-4.176-3.462-5.816-4.56l.947-.056a1.63 1.63 0 0 1 1.203.43c1.363 1.258 4.274 4.232 4.916 5.056l-.255-.048c-.135-.118-.595-.468-.994-.822M10.995 34.573V33.35s2.392-.922 6.289-1.648c0 0 .067-1.027.433-1.226 2.197-1.205 20.798-3.912 27.504-.634l.43 1.04s.429 8.378 0 9.834c-.429 1.457-.967 4.268-5.151 5.516-4.185 1.249-12.08.834-12.08.834s-7.791-.573-9.401-3.85a25.872 25.872 0 0 1-1.285-5.812l-.657-.878c-1.794-.873-3.7-1.548-5.663-1.881l-.42-.072ZM89.447 33.641V31.73s-2.134-.67-4.11-.828c-1.29-.102-1.026-.121-1.544-.125-.518-.003.257-1.328-.905-1.705-6.526-2.113-15.588-3.25-27.635-.13l-.429 1.039s-.428 8.377 0 9.834c.43 1.457.965 4.266 5.145 5.515 4.18 1.249 13.56.833 13.56.833s7.298-.711 8.906-3.99c0 0 1.019-2.84 1.072-5.966l.522-.504a7.151 7.151 0 0 1 4.414-1.985l1.004-.077Z"/><path fill="#0F0F0F" fill-rule="nonzero" d="M44.083 32.322s4.643-2.944 11.671-.651l1.599 1.135v1.955s-6.935-3.236-13.27-.135v-1.908"/><path fill="#ECA495" fill-rule="nonzero" d="M36.518 65.124s.338-1.634 2.4-1.857c.556-.06.752 1.191 4.315 1.372 2.15.108 4.483.116 5.14.233.657.116 1.61.472 2.637.467 1.027-.005 1.63-.036 2.957-.512 1.327-.476 4.12-.234 5.228-.446 1.108-.211 2.192-.854 2.986-.446 1.922.987.609 2.196 0 1.696-.385-.316-1.502-.853-2.375-.608-.873.244-4.421.326-4.921.556-.5.23-3.366.728-4.253.654-1.638-.135-3-.162-3.758-.375-.757-.214-4.734-.572-6.1-.854-1.366-.282-1.755-.233-1.755-.233s-1.864 1.231-2.501.353Z"/><path fill="#0F0F0F" fill-rule="nonzero" d="M37.605 64.6s.788-.953 1.346-.983c.558-.03.716.504 4.28.684 2.149.109 4.482.049 5.14.165.656.117 1.61.338 2.637.333 1.027-.006 1.63.099 2.956-.377 1.327-.476 4.565-.024 5.673-.234 1.107-.211 1.86-.452 2.587.067.727.52.103 1.053-.243.694-.345-.358-1.305-.575-2.178-.329-.873.247-4.95.33-5.45.559-.501.23-2.277.357-3.166.303-.888-.054-2.408.095-3.166-.119-.757-.213-5.883-.547-7.25-.829-1.365-.282-1.607-.37-1.607-.37s-.74 1.134-1.559.436Z"/><path fill="#ECA495" fill-rule="nonzero" d="M38.238 76.184s-2.05-2.093-2.22-2.971c0 0-.575-.27-.473.54.101.81 1.276 3.309 2.497 4.22 1.222.912 1.748-.037.196-1.789ZM66.417 75.95s1.77-2.017 2.522-2.83c0 0 .609-.173.379.608-.23.78-1.802 3.056-3.155 3.756-1.354.7-2.062.32.254-1.534Z"/><path fill="#F1A394" fill-rule="nonzero" d="M43.868 68.657s1.342 3.394 4.7 3.935c3.36.54 6.962-.169 8.828-2.105 1.866-1.937 1.26-2.18 1.26-2.18s-1.549 1.905-5.174 1.903c-3.894 0-5.951.626-9.614-1.553"/><path fill="#FFF" fill-rule="nonzero" d="M49.156 51.12s-2.057.313-.918 1.081c1.14.769 3.867.461 3.429-.378-.438-.84-1.285-.825-2.511-.703M50.013 68.209s-1.397.191-.623.664c.774.472 2.629.283 2.331-.233-.298-.516-.874-.507-1.708-.431"/><path fill="#443C3B" fill-rule="nonzero" d="M43.45 37.45s-1.018-.08-.663.625 1.683.885 1.667.232c-.016-.653-.41-.766-1.004-.858"/><path fill="#FFF" fill-rule="nonzero" d="M53.54 51.458s-.378.168-.168.582c.21.414.712.248.631-.203-.08-.45-.236-.444-.462-.377"/><path stroke="#0F0F0F" stroke-linecap="round" stroke-width=".5" d="m43.963 61.34-.443 1.294M45.243 61.143 44.8 62.37M46.785 60.33l-.444 1.294M41.636 61.27l-.443 1.293M42.917 61.207l-.443 1.295M40.49 61.471l-.443 1.295M37.772 62.843l-.443 1.294M36.737 63.87l-.444 1.294M39.164 61.937l-.444 1.295"/><path fill="#FFF" fill-rule="nonzero" d="m76.21 29.072-6.79 17.16h.94L77.09 27.9l-.458-.07zM25.316 44.587l7.089-16.307-1.738.14-7.482 17.62.84.251a26.85 26.85 0 0 0 1.252.294l1.503.282-.764-.317c-.128-.1-.228-.187-.338-.258-.379-.25-.577-.757-.507-1.205l.145-.5ZM34.345 30.304 27.832 46.99l.557.085L35.38 28.41h-.247zM73.323 27.174h.005s-.629-.052-1.58-.104l-.774-.052v.014c-1.38-.061-3.13.03-4.686.117a32.07 32.07 0 0 0-3.28.338s2.832-.102 3.81-.11c.96-.009 2.975.098 4.448.51l.17.068c.458.182.723.663.632 1.148l-.176.502-6.66 16.461 1.983.122 7.209-18.94-1.101-.074Z"/><path fill="#0F0F0F" fill-rule="nonzero" d="M46.522 69.562s1.034.513 1.61.55c.575.038 5.516.136 6.058.083.385-.037 1.682-.365 2.111-.706.192-.152.276 0 .219.095 0 0-.442 1.013-2.342 1.129-1.9.116-5.021.051-5.675.03-.654-.02-2.333-.924-1.981-1.18Z"/><path fill="#443C3B" fill-rule="nonzero" d="M43.573 39.597c.305.124.462.46.36.772-.36 1.103-1.408 3.525-3.89 4.477-1.54.59-2.62.857-3.332.974a.124.124 0 0 1-.058-.24c1.556-.498 4.34-1.547 5.032-2.874l.01-.015c.067-.09.811-1.084.977-2.354v-.012l.014-.253a.583.583 0 0 1 .802-.508l.085.033ZM81.84 38.345c.15.08.146.878.045 1.194-.184.565-.523 1.485-1.115 2.367-.563.842-1.15 1.287-2.255 1.74-1.526.627-1.217.361-1.925.478-.152.025-.609-.489-.094-.658.928-.302 1.73-.375 2.482-.832 1.093-.664 1.84-1.874 2.264-2.82.33-.736.598-1.469.598-1.469Z"/></g></g></svg>