<svg xmlns="http://www.w3.org/2000/svg" width="24" height="24" viewBox="0 0 24 24"><title>编组 3</title><g fill="none" fill-rule="evenodd"><path d="M0 0h24v24H0z"/><g fill="#AAA" fill-rule="nonzero"><path d="M12 5.647A6.353 6.353 0 1 0 18.353 12 6.36 6.36 0 0 0 12 5.647Zm0 11.647a5.294 5.294 0 1 1 0-10.588 5.294 5.294 0 0 1 0 10.588ZM11.471 3h1.058v1.588h-1.058zM11.471 19.412h1.058V21h-1.058zM19.412 11.471H21v1.058h-1.588zM3 11.471h1.588v1.058H3zM16.86 17.614l.75-.749 1.122 1.123-.749.75zM5.258 6.01l.75-.749L7.13 6.384l-.749.749zM5.257 17.988l1.123-1.123.749.749-1.123 1.123zM16.863 6.385l1.122-1.122.749.748-1.123 1.123z"/></g></g></svg>