<svg xmlns="http://www.w3.org/2000/svg" xmlns:xlink="http://www.w3.org/1999/xlink" width="111" height="176" viewBox="0 0 111 176"><title>编组 2</title><defs><path id="a" d="M7.535 12.245 5.09 13.529a1 1 0 0 1-1.45-1.054l.466-2.72a1 1 0 0 0-.288-.886L1.842 6.942a1 1 0 0 1 .555-1.706l2.732-.396a1 1 0 0 0 .753-.548l1.221-2.475a1 1 0 0 1 1.794 0l1.221 2.475a1 1 0 0 0 .753.548l2.732.396a1 1 0 0 1 .555 1.706L12.18 8.87a1 1 0 0 0-.288.885l.467 2.721a1 1 0 0 1-1.451 1.054l-2.444-1.284a1 1 0 0 0-.93 0Z"/><path id="c" d="M7.535 12.245 5.09 13.529a1 1 0 0 1-1.45-1.054l.466-2.72a1 1 0 0 0-.288-.886L1.842 6.942a1 1 0 0 1 .555-1.706l2.732-.396a1 1 0 0 0 .753-.548l1.221-2.475a1 1 0 0 1 1.794 0l1.221 2.475a1 1 0 0 0 .753.548l2.732.396a1 1 0 0 1 .555 1.706L12.18 8.87a1 1 0 0 0-.288.885l.467 2.721a1 1 0 0 1-1.451 1.054l-2.444-1.284a1 1 0 0 0-.93 0Z"/><path id="e" d="M7.535 12.245 5.09 13.529a1 1 0 0 1-1.45-1.054l.466-2.72a1 1 0 0 0-.288-.886L1.842 6.942a1 1 0 0 1 .555-1.706l2.732-.396a1 1 0 0 0 .753-.548l1.221-2.475a1 1 0 0 1 1.794 0l1.221 2.475a1 1 0 0 0 .753.548l2.732.396a1 1 0 0 1 .555 1.706L12.18 8.87a1 1 0 0 0-.288.885l.467 2.721a1 1 0 0 1-1.451 1.054l-2.444-1.284a1 1 0 0 0-.93 0Z"/><path id="g" d="M7.535 12.245 5.09 13.529a1 1 0 0 1-1.45-1.054l.466-2.72a1 1 0 0 0-.288-.886L1.842 6.942a1 1 0 0 1 .555-1.706l2.732-.396a1 1 0 0 0 .753-.548l1.221-2.475a1 1 0 0 1 1.794 0l1.221 2.475a1 1 0 0 0 .753.548l2.732.396a1 1 0 0 1 .555 1.706L12.18 8.87a1 1 0 0 0-.288.885l.467 2.721a1 1 0 0 1-1.451 1.054l-2.444-1.284a1 1 0 0 0-.93 0Z"/><path id="i" d="M7.535 12.245 5.09 13.529a1 1 0 0 1-1.45-1.054l.466-2.72a1 1 0 0 0-.288-.886L1.842 6.942a1 1 0 0 1 .555-1.706l2.732-.396a1 1 0 0 0 .753-.548l1.221-2.475a1 1 0 0 1 1.794 0l1.221 2.475a1 1 0 0 0 .753.548l2.732.396a1 1 0 0 1 .555 1.706L12.18 8.87a1 1 0 0 0-.288.885l.467 2.721a1 1 0 0 1-1.451 1.054l-2.444-1.284a1 1 0 0 0-.93 0Z"/></defs><g fill="none" fill-rule="evenodd"><path fill="#FF9A00" d="M7.535 44.245 5.09 45.529a1 1 0 0 1-1.45-1.054l.466-2.72a1 1 0 0 0-.288-.886l-1.977-1.927a1 1 0 0 1 .555-1.706l2.732-.396a1 1 0 0 0 .753-.548l1.221-2.475a1 1 0 0 1 1.794 0l1.221 2.475a1 1 0 0 0 .753.548l2.732.396a1 1 0 0 1 .555 1.706L12.18 40.87a1 1 0 0 0-.288.885l.467 2.721a1 1 0 0 1-1.451 1.054l-2.444-1.284a1 1 0 0 0-.93 0ZM43.535 44.245l-2.444 1.284a1 1 0 0 1-1.45-1.054l.466-2.72a1 1 0 0 0-.288-.886l-1.977-1.927a1 1 0 0 1 .555-1.706l2.732-.396a1 1 0 0 0 .753-.548l1.221-2.475a1 1 0 0 1 1.794 0l1.221 2.475a1 1 0 0 0 .753.548l2.732.396a1 1 0 0 1 .555 1.706L48.18 40.87a1 1 0 0 0-.288.885l.467 2.721a1 1 0 0 1-1.451 1.054l-2.444-1.284a1 1 0 0 0-.93 0Z"/><path fill="#BFBFBF" d="m79.535 44.245-2.444 1.284a1 1 0 0 1-1.45-1.054l.466-2.72a1 1 0 0 0-.288-.886l-1.977-1.927a1 1 0 0 1 .555-1.706l2.732-.396a1 1 0 0 0 .753-.548l1.221-2.475a1 1 0 0 1 1.794 0l1.221 2.475a1 1 0 0 0 .753.548l2.732.396a1 1 0 0 1 .555 1.706L84.18 40.87a1 1 0 0 0-.288.885l.467 2.721a1 1 0 0 1-1.451 1.054l-2.444-1.284a1 1 0 0 0-.93 0Z"/><path fill="#FF9A00" d="m25.535 44.245-2.444 1.284a1 1 0 0 1-1.45-1.054l.466-2.72a1 1 0 0 0-.288-.886l-1.977-1.927a1 1 0 0 1 .555-1.706l2.732-.396a1 1 0 0 0 .753-.548l1.221-2.475a1 1 0 0 1 1.794 0l1.221 2.475a1 1 0 0 0 .753.548l2.732.396a1 1 0 0 1 .555 1.706L30.18 40.87a1 1 0 0 0-.288.885l.467 2.721a1 1 0 0 1-1.451 1.054l-2.444-1.284a1 1 0 0 0-.93 0ZM61.535 44.245l-2.444 1.284a1 1 0 0 1-1.45-1.054l.466-2.72a1 1 0 0 0-.288-.886l-1.977-1.927a1 1 0 0 1 .555-1.706l2.732-.396a1 1 0 0 0 .753-.548l1.221-2.475a1 1 0 0 1 1.794 0l1.221 2.475a1 1 0 0 0 .753.548l2.732.396a1 1 0 0 1 .555 1.706L66.18 40.87a1 1 0 0 0-.288.885l.467 2.721a1 1 0 0 1-1.451 1.054l-2.444-1.284a1 1 0 0 0-.93 0Z"/><path fill="gray" fill-rule="nonzero" d="M99.318 45.512c-.662 0-1.243-.115-1.743-.345-.5-.23-.888-.55-1.163-.959A2.48 2.48 0 0 1 96 42.791c0-.619.206-1.183.617-1.693.41-.51.955-.898 1.632-1.162l1.41-.551a2.487 2.487 0 0 0 1.011-.696 1.5 1.5 0 0 0 .386-.996c0-.439-.16-.795-.48-1.07-.321-.274-.74-.41-1.258-.41s-.937.138-1.26.416a1.343 1.343 0 0 0-.482 1.064c0 .37.125.702.376 1 .25.297.576.523.977.678l1.41.541c.703.27 1.262.663 1.676 1.177.414.515.621 1.082.621 1.702 0 .539-.137 1.013-.412 1.422-.275.408-.66.727-1.157.956-.496.228-1.08.343-1.749.343Zm0-1.212c.587 0 1.06-.156 1.422-.466.361-.31.542-.714.542-1.211 0-.391-.124-.748-.371-1.07-.248-.322-.589-.569-1.023-.739l-1.428-.568c-.734-.292-1.29-.663-1.67-1.114-.379-.451-.568-.95-.568-1.495 0-.514.134-.968.401-1.363a2.751 2.751 0 0 1 1.097-.934c.463-.227.996-.34 1.598-.34.602 0 1.136.113 1.603.34.467.227.832.538 1.095.934.262.395.394.85.394 1.363 0 .542-.19 1.041-.572 1.499-.382.457-.947.831-1.696 1.122l-1.43.568c-.426.17-.759.416-.998.738a1.73 1.73 0 0 0-.36 1.057c0 .499.18.903.542 1.213.361.31.835.465 1.422.465Z"/><path fill="#FF9A00" d="m7.535 108.245-2.444 1.284a1 1 0 0 1-1.45-1.054l.466-2.72a1 1 0 0 0-.288-.886l-1.977-1.927a1 1 0 0 1 .555-1.706l2.732-.396a1 1 0 0 0 .753-.548l1.221-2.475a1 1 0 0 1 1.794 0l1.221 2.475a1 1 0 0 0 .753.548l2.732.396a1 1 0 0 1 .555 1.706l-1.977 1.927a1 1 0 0 0-.288.885l.467 2.721a1 1 0 0 1-1.451 1.054l-2.444-1.284a1 1 0 0 0-.93 0Z"/><path fill="#BFBFBF" d="m43.535 108.245-2.444 1.284a1 1 0 0 1-1.45-1.054l.466-2.72a1 1 0 0 0-.288-.886l-1.977-1.927a1 1 0 0 1 .555-1.706l2.732-.396a1 1 0 0 0 .753-.548l1.221-2.475a1 1 0 0 1 1.794 0l1.221 2.475a1 1 0 0 0 .753.548l2.732.396a1 1 0 0 1 .555 1.706l-1.977 1.927a1 1 0 0 0-.288.885l.467 2.721a1 1 0 0 1-1.451 1.054l-2.444-1.284a1 1 0 0 0-.93 0ZM79.535 108.245l-2.444 1.284a1 1 0 0 1-1.45-1.054l.466-2.72a1 1 0 0 0-.288-.886l-1.977-1.927a1 1 0 0 1 .555-1.706l2.732-.396a1 1 0 0 0 .753-.548l1.221-2.475a1 1 0 0 1 1.794 0l1.221 2.475a1 1 0 0 0 .753.548l2.732.396a1 1 0 0 1 .555 1.706l-1.977 1.927a1 1 0 0 0-.288.885l.467 2.721a1 1 0 0 1-1.451 1.054l-2.444-1.284a1 1 0 0 0-.93 0Z"/><path fill="#FF9A00" d="m25.535 108.245-2.444 1.284a1 1 0 0 1-1.45-1.054l.466-2.72a1 1 0 0 0-.288-.886l-1.977-1.927a1 1 0 0 1 .555-1.706l2.732-.396a1 1 0 0 0 .753-.548l1.221-2.475a1 1 0 0 1 1.794 0l1.221 2.475a1 1 0 0 0 .753.548l2.732.396a1 1 0 0 1 .555 1.706l-1.977 1.927a1 1 0 0 0-.288.885l.467 2.721a1 1 0 0 1-1.451 1.054l-2.444-1.284a1 1 0 0 0-.93 0Z"/><path fill="#BFBFBF" d="m61.535 108.245-2.444 1.284a1 1 0 0 1-1.45-1.054l.466-2.72a1 1 0 0 0-.288-.886l-1.977-1.927a1 1 0 0 1 .555-1.706l2.732-.396a1 1 0 0 0 .753-.548l1.221-2.475a1 1 0 0 1 1.794 0l1.221 2.475a1 1 0 0 0 .753.548l2.732.396a1 1 0 0 1 .555 1.706l-1.977 1.927a1 1 0 0 0-.288.885l.467 2.721a1 1 0 0 1-1.451 1.054l-2.444-1.284a1 1 0 0 0-.93 0Z"/><path fill="gray" fill-rule="nonzero" d="M100.599 109.22v-2.185H96v-2.117L99.741 99h1.524l-3.9 6.22v.566h3.234v-2.446h1.386v5.88z"/><g transform="translate(0 144)"><mask id="b" fill="#fff"><use xlink:href="#a"/></mask><use xlink:href="#a" fill="#FF9A00"/><path fill="#BFBFBF" d="M8 0h11v16H8z" mask="url(#b)"/></g><path fill="#BFBFBF" d="m43.535 156.245-2.444 1.284a1 1 0 0 1-1.45-1.054l.466-2.72a1 1 0 0 0-.288-.886l-1.977-1.927a1 1 0 0 1 .555-1.706l2.732-.396a1 1 0 0 0 .753-.548l1.221-2.475a1 1 0 0 1 1.794 0l1.221 2.475a1 1 0 0 0 .753.548l2.732.396a1 1 0 0 1 .555 1.706l-1.977 1.927a1 1 0 0 0-.288.885l.467 2.721a1 1 0 0 1-1.451 1.054l-2.444-1.284a1 1 0 0 0-.93 0ZM79.535 156.245l-2.444 1.284a1 1 0 0 1-1.45-1.054l.466-2.72a1 1 0 0 0-.288-.886l-1.977-1.927a1 1 0 0 1 .555-1.706l2.732-.396a1 1 0 0 0 .753-.548l1.221-2.475a1 1 0 0 1 1.794 0l1.221 2.475a1 1 0 0 0 .753.548l2.732.396a1 1 0 0 1 .555 1.706l-1.977 1.927a1 1 0 0 0-.288.885l.467 2.721a1 1 0 0 1-1.451 1.054l-2.444-1.284a1 1 0 0 0-.93 0ZM25.535 156.245l-2.444 1.284a1 1 0 0 1-1.45-1.054l.466-2.72a1 1 0 0 0-.288-.886l-1.977-1.927a1 1 0 0 1 .555-1.706l2.732-.396a1 1 0 0 0 .753-.548l1.221-2.475a1 1 0 0 1 1.794 0l1.221 2.475a1 1 0 0 0 .753.548l2.732.396a1 1 0 0 1 .555 1.706l-1.977 1.927a1 1 0 0 0-.288.885l.467 2.721a1 1 0 0 1-1.451 1.054l-2.444-1.284a1 1 0 0 0-.93 0ZM61.535 156.245l-2.444 1.284a1 1 0 0 1-1.45-1.054l.466-2.72a1 1 0 0 0-.288-.886l-1.977-1.927a1 1 0 0 1 .555-1.706l2.732-.396a1 1 0 0 0 .753-.548l1.221-2.475a1 1 0 0 1 1.794 0l1.221 2.475a1 1 0 0 0 .753.548l2.732.396a1 1 0 0 1 .555 1.706l-1.977 1.927a1 1 0 0 0-.288.885l.467 2.721a1 1 0 0 1-1.451 1.054l-2.444-1.284a1 1 0 0 0-.93 0Z"/><path fill="gray" fill-rule="nonzero" d="M96.004 157.22v-1.259h2.743v-7.781L96 150.231v-1.515L98.322 147h1.811v8.961h2.234v1.259z"/><g fill="#FF9A00"><path d="M7.535 12.245 5.09 13.529a1 1 0 0 1-1.45-1.054l.466-2.72a1 1 0 0 0-.288-.886L1.842 6.942a1 1 0 0 1 .555-1.706l2.732-.396a1 1 0 0 0 .753-.548l1.221-2.475a1 1 0 0 1 1.794 0l1.221 2.475a1 1 0 0 0 .753.548l2.732.396a1 1 0 0 1 .555 1.706L12.18 8.87a1 1 0 0 0-.288.885l.467 2.721a1 1 0 0 1-1.451 1.054l-2.444-1.284a1 1 0 0 0-.93 0ZM43.535 12.245l-2.444 1.284a1 1 0 0 1-1.45-1.054l.466-2.72a1 1 0 0 0-.288-.886l-1.977-1.927a1 1 0 0 1 .555-1.706l2.732-.396a1 1 0 0 0 .753-.548l1.221-2.475a1 1 0 0 1 1.794 0l1.221 2.475a1 1 0 0 0 .753.548l2.732.396a1 1 0 0 1 .555 1.706L48.18 8.87a1 1 0 0 0-.288.885l.467 2.721a1 1 0 0 1-1.451 1.054l-2.444-1.284a1 1 0 0 0-.93 0ZM79.535 12.245l-2.444 1.284a1 1 0 0 1-1.45-1.054l.466-2.72a1 1 0 0 0-.288-.886l-1.977-1.927a1 1 0 0 1 .555-1.706l2.732-.396a1 1 0 0 0 .753-.548l1.221-2.475a1 1 0 0 1 1.794 0l1.221 2.475a1 1 0 0 0 .753.548l2.732.396a1 1 0 0 1 .555 1.706L84.18 8.87a1 1 0 0 0-.288.885l.467 2.721a1 1 0 0 1-1.451 1.054l-2.444-1.284a1 1 0 0 0-.93 0ZM25.535 12.245l-2.444 1.284a1 1 0 0 1-1.45-1.054l.466-2.72a1 1 0 0 0-.288-.886l-1.977-1.927a1 1 0 0 1 .555-1.706l2.732-.396a1 1 0 0 0 .753-.548l1.221-2.475a1 1 0 0 1 1.794 0l1.221 2.475a1 1 0 0 0 .753.548l2.732.396a1 1 0 0 1 .555 1.706L30.18 8.87a1 1 0 0 0-.288.885l.467 2.721a1 1 0 0 1-1.451 1.054l-2.444-1.284a1 1 0 0 0-.93 0ZM61.535 12.245l-2.444 1.284a1 1 0 0 1-1.45-1.054l.466-2.72a1 1 0 0 0-.288-.886l-1.977-1.927a1 1 0 0 1 .555-1.706l2.732-.396a1 1 0 0 0 .753-.548l1.221-2.475a1 1 0 0 1 1.794 0l1.221 2.475a1 1 0 0 0 .753.548l2.732.396a1 1 0 0 1 .555 1.706L66.18 8.87a1 1 0 0 0-.288.885l.467 2.721a1 1 0 0 1-1.451 1.054l-2.444-1.284a1 1 0 0 0-.93 0Z"/></g><g fill="gray" fill-rule="nonzero"><path d="M96.004 13.36v-1.259h2.743V4.32L96 6.371V4.856l2.322-1.716h1.811v8.961h2.234v1.259zM107.366 13.5c-.634 0-1.186-.124-1.654-.373-.468-.249-.83-.6-1.086-1.054-.255-.454-.383-.985-.383-1.594V6.021c0-.616.128-1.15.383-1.6.256-.45.618-.8 1.086-1.048.468-.249 1.02-.373 1.653-.373.643 0 1.197.124 1.66.373.464.248.823.598 1.079 1.048.255.45.383.984.383 1.6v4.458c0 .609-.128 1.14-.383 1.594a2.64 2.64 0 0 1-1.085 1.054c-.467.249-1.018.373-1.653.373Zm0-1.19c.541 0 .975-.169 1.302-.508.326-.339.49-.78.49-1.322V6.02c0-.542-.164-.983-.49-1.322-.327-.34-.761-.509-1.303-.509-.542 0-.976.17-1.302.509-.327.339-.49.78-.49 1.322v4.46c0 .542.163.983.49 1.322.328.34.762.509 1.303.509Zm0-3.213a.832.832 0 0 1-.624-.244c-.159-.163-.238-.378-.238-.646 0-.258.08-.466.237-.624.158-.157.366-.236.625-.236.258 0 .466.079.624.236.157.158.236.366.236.624 0 .268-.079.483-.236.646-.158.163-.366.244-.624.244Z"/></g><path fill="gray" fill-rule="nonzero" d="m97.877 29.36 2.756-4.729-.062-.044a1.823 1.823 0 0 1-.718.617 2.345 2.345 0 0 1-1.06.228c-.554 0-1.04-.13-1.458-.393a2.7 2.7 0 0 1-.98-1.094c-.237-.467-.355-1.008-.355-1.623 0-.661.14-1.242.42-1.742.279-.5.67-.888 1.171-1.165.502-.277 1.082-.415 1.741-.415.668 0 1.255.14 1.76.418.505.28.897.664 1.176 1.154.28.49.42 1.064.42 1.722 0 .445-.084.905-.252 1.382-.168.476-.4.976-.695 1.5l-2.326 4.184h-1.538Zm1.467-4.982c.583 0 1.056-.19 1.42-.573.364-.382.546-.886.546-1.51 0-.625-.182-1.127-.546-1.509-.364-.38-.837-.572-1.42-.572s-1.057.191-1.42.572c-.365.382-.547.884-.547 1.508 0 .625.182 1.13.546 1.511.364.382.838.573 1.42.573Z"/><path fill="#FF9A00" d="M7.535 28.245 5.09 29.529a1 1 0 0 1-1.45-1.054l.466-2.72a1 1 0 0 0-.288-.886l-1.977-1.927a1 1 0 0 1 .555-1.706l2.732-.396a1 1 0 0 0 .753-.548l1.221-2.475a1 1 0 0 1 1.794 0l1.221 2.475a1 1 0 0 0 .753.548l2.732.396a1 1 0 0 1 .555 1.706L12.18 24.87a1 1 0 0 0-.288.885l.467 2.721a1 1 0 0 1-1.451 1.054l-2.444-1.284a1 1 0 0 0-.93 0ZM43.535 28.245l-2.444 1.284a1 1 0 0 1-1.45-1.054l.466-2.72a1 1 0 0 0-.288-.886l-1.977-1.927a1 1 0 0 1 .555-1.706l2.732-.396a1 1 0 0 0 .753-.548l1.221-2.475a1 1 0 0 1 1.794 0l1.221 2.475a1 1 0 0 0 .753.548l2.732.396a1 1 0 0 1 .555 1.706L48.18 24.87a1 1 0 0 0-.288.885l.467 2.721a1 1 0 0 1-1.451 1.054l-2.444-1.284a1 1 0 0 0-.93 0Z"/><g transform="translate(72 16)"><mask id="d" fill="#fff"><use xlink:href="#c"/></mask><use xlink:href="#c" fill="#FF9A00"/><path fill="#BFBFBF" d="M8 0h10v16H8z" mask="url(#d)"/></g><path fill="#FF9A00" d="m25.535 28.245-2.444 1.284a1 1 0 0 1-1.45-1.054l.466-2.72a1 1 0 0 0-.288-.886l-1.977-1.927a1 1 0 0 1 .555-1.706l2.732-.396a1 1 0 0 0 .753-.548l1.221-2.475a1 1 0 0 1 1.794 0l1.221 2.475a1 1 0 0 0 .753.548l2.732.396a1 1 0 0 1 .555 1.706L30.18 24.87a1 1 0 0 0-.288.885l.467 2.721a1 1 0 0 1-1.451 1.054l-2.444-1.284a1 1 0 0 0-.93 0ZM61.535 28.245l-2.444 1.284a1 1 0 0 1-1.45-1.054l.466-2.72a1 1 0 0 0-.288-.886l-1.977-1.927a1 1 0 0 1 .555-1.706l2.732-.396a1 1 0 0 0 .753-.548l1.221-2.475a1 1 0 0 1 1.794 0l1.221 2.475a1 1 0 0 0 .753.548l2.732.396a1 1 0 0 1 .555 1.706L66.18 24.87a1 1 0 0 0-.288.885l.467 2.721a1 1 0 0 1-1.451 1.054l-2.444-1.284a1 1 0 0 0-.93 0Z"/><path fill="gray" fill-rule="nonzero" d="m97.491 61.22 3.675-8.971h-3.78v1.656H96V51h6.604v1.27l-3.59 8.95z"/><path fill="#FF9A00" d="M7.535 60.245 5.09 61.529a1 1 0 0 1-1.45-1.054l.466-2.72a1 1 0 0 0-.288-.886l-1.977-1.927a1 1 0 0 1 .555-1.706l2.732-.396a1 1 0 0 0 .753-.548l1.221-2.475a1 1 0 0 1 1.794 0l1.221 2.475a1 1 0 0 0 .753.548l2.732.396a1 1 0 0 1 .555 1.706L12.18 56.87a1 1 0 0 0-.288.885l.467 2.721a1 1 0 0 1-1.451 1.054l-2.444-1.284a1 1 0 0 0-.93 0ZM43.535 60.245l-2.444 1.284a1 1 0 0 1-1.45-1.054l.466-2.72a1 1 0 0 0-.288-.886l-1.977-1.927a1 1 0 0 1 .555-1.706l2.732-.396a1 1 0 0 0 .753-.548l1.221-2.475a1 1 0 0 1 1.794 0l1.221 2.475a1 1 0 0 0 .753.548l2.732.396a1 1 0 0 1 .555 1.706L48.18 56.87a1 1 0 0 0-.288.885l.467 2.721a1 1 0 0 1-1.451 1.054l-2.444-1.284a1 1 0 0 0-.93 0Z"/><path fill="#BFBFBF" d="m79.535 60.245-2.444 1.284a1 1 0 0 1-1.45-1.054l.466-2.72a1 1 0 0 0-.288-.886l-1.977-1.927a1 1 0 0 1 .555-1.706l2.732-.396a1 1 0 0 0 .753-.548l1.221-2.475a1 1 0 0 1 1.794 0l1.221 2.475a1 1 0 0 0 .753.548l2.732.396a1 1 0 0 1 .555 1.706L84.18 56.87a1 1 0 0 0-.288.885l.467 2.721a1 1 0 0 1-1.451 1.054l-2.444-1.284a1 1 0 0 0-.93 0Z"/><path fill="#FF9A00" d="m25.535 60.245-2.444 1.284a1 1 0 0 1-1.45-1.054l.466-2.72a1 1 0 0 0-.288-.886l-1.977-1.927a1 1 0 0 1 .555-1.706l2.732-.396a1 1 0 0 0 .753-.548l1.221-2.475a1 1 0 0 1 1.794 0l1.221 2.475a1 1 0 0 0 .753.548l2.732.396a1 1 0 0 1 .555 1.706L30.18 56.87a1 1 0 0 0-.288.885l.467 2.721a1 1 0 0 1-1.451 1.054l-2.444-1.284a1 1 0 0 0-.93 0Z"/><g transform="translate(54 48)"><mask id="f" fill="#fff"><use xlink:href="#e"/></mask><use xlink:href="#e" fill="#FF9A00"/><path fill="#BFBFBF" d="M8 0h7v16H8z" mask="url(#f)"/></g><path fill="gray" fill-rule="nonzero" d="M99.356 77.36c-.67 0-1.257-.14-1.762-.417a2.957 2.957 0 0 1-1.176-1.162c-.279-.496-.418-1.07-.418-1.723 0-.444.082-.903.245-1.378.163-.475.393-.974.69-1.499L99.313 67h1.508l-2.784 4.741.062.044a1.81 1.81 0 0 1 .727-.617 2.402 2.402 0 0 1 1.069-.228c.556 0 1.044.13 1.465.391.421.26.748.622.98 1.084.232.462.348 1.005.348 1.63 0 .66-.14 1.24-.419 1.74-.278.5-.666.887-1.162 1.162-.497.275-1.08.413-1.751.413Zm-.012-1.215c.584 0 1.058-.19 1.421-.57.363-.38.545-.88.545-1.503 0-.419-.083-.783-.248-1.092a1.837 1.837 0 0 0-.687-.724 1.975 1.975 0 0 0-1.031-.261c-.386 0-.727.087-1.024.26a1.822 1.822 0 0 0-.694.725c-.166.31-.249.673-.249 1.092 0 .623.182 1.124.545 1.504.364.38.838.57 1.422.57Z"/><path fill="#FF9A00" d="M7.535 76.245 5.09 77.529a1 1 0 0 1-1.45-1.054l.466-2.72a1 1 0 0 0-.288-.886l-1.977-1.927a1 1 0 0 1 .555-1.706l2.732-.396a1 1 0 0 0 .753-.548l1.221-2.475a1 1 0 0 1 1.794 0l1.221 2.475a1 1 0 0 0 .753.548l2.732.396a1 1 0 0 1 .555 1.706L12.18 72.87a1 1 0 0 0-.288.885l.467 2.721a1 1 0 0 1-1.451 1.054l-2.444-1.284a1 1 0 0 0-.93 0ZM43.535 76.245l-2.444 1.284a1 1 0 0 1-1.45-1.054l.466-2.72a1 1 0 0 0-.288-.886l-1.977-1.927a1 1 0 0 1 .555-1.706l2.732-.396a1 1 0 0 0 .753-.548l1.221-2.475a1 1 0 0 1 1.794 0l1.221 2.475a1 1 0 0 0 .753.548l2.732.396a1 1 0 0 1 .555 1.706L48.18 72.87a1 1 0 0 0-.288.885l.467 2.721a1 1 0 0 1-1.451 1.054l-2.444-1.284a1 1 0 0 0-.93 0Z"/><path fill="#BFBFBF" d="m79.535 76.245-2.444 1.284a1 1 0 0 1-1.45-1.054l.466-2.72a1 1 0 0 0-.288-.886l-1.977-1.927a1 1 0 0 1 .555-1.706l2.732-.396a1 1 0 0 0 .753-.548l1.221-2.475a1 1 0 0 1 1.794 0l1.221 2.475a1 1 0 0 0 .753.548l2.732.396a1 1 0 0 1 .555 1.706L84.18 72.87a1 1 0 0 0-.288.885l.467 2.721a1 1 0 0 1-1.451 1.054l-2.444-1.284a1 1 0 0 0-.93 0Z"/><path fill="#FF9A00" d="m25.535 76.245-2.444 1.284a1 1 0 0 1-1.45-1.054l.466-2.72a1 1 0 0 0-.288-.886l-1.977-1.927a1 1 0 0 1 .555-1.706l2.732-.396a1 1 0 0 0 .753-.548l1.221-2.475a1 1 0 0 1 1.794 0l1.221 2.475a1 1 0 0 0 .753.548l2.732.396a1 1 0 0 1 .555 1.706L30.18 72.87a1 1 0 0 0-.288.885l.467 2.721a1 1 0 0 1-1.451 1.054l-2.444-1.284a1 1 0 0 0-.93 0Z"/><path fill="#BFBFBF" d="m61.535 76.245-2.444 1.284a1 1 0 0 1-1.45-1.054l.466-2.72a1 1 0 0 0-.288-.886l-1.977-1.927a1 1 0 0 1 .555-1.706l2.732-.396a1 1 0 0 0 .753-.548l1.221-2.475a1 1 0 0 1 1.794 0l1.221 2.475a1 1 0 0 0 .753.548l2.732.396a1 1 0 0 1 .555 1.706L66.18 72.87a1 1 0 0 0-.288.885l.467 2.721a1 1 0 0 1-1.451 1.054l-2.444-1.284a1 1 0 0 0-.93 0Z"/><path fill="gray" fill-rule="nonzero" d="M99.037 93.36c-.859 0-1.56-.22-2.101-.66-.542-.441-.854-1.035-.936-1.783h1.386c.042.387.207.687.493.9.286.212.676.318 1.17.318.561 0 .983-.15 1.266-.452.283-.301.424-.726.424-1.274v-.994c0-.549-.141-.973-.423-1.273-.282-.3-.7-.45-1.256-.45-.347 0-.649.087-.906.26a1.504 1.504 0 0 0-.564.696h-1.376l.07-5.648h5.475v1.26h-4.143l-.04 3.29h.398l-.4.362c0-.437.173-.782.52-1.033.348-.251.814-.377 1.399-.377.83-.008 1.477.246 1.939.761.462.515.693 1.233.693 2.152v.994c0 .91-.27 1.63-.813 2.158-.541.529-1.3.793-2.275.793Z"/><path fill="#FF9A00" d="M7.535 92.245 5.09 93.529a1 1 0 0 1-1.45-1.054l.466-2.72a1 1 0 0 0-.288-.886l-1.977-1.927a1 1 0 0 1 .555-1.706l2.732-.396a1 1 0 0 0 .753-.548l1.221-2.475a1 1 0 0 1 1.794 0l1.221 2.475a1 1 0 0 0 .753.548l2.732.396a1 1 0 0 1 .555 1.706L12.18 88.87a1 1 0 0 0-.288.885l.467 2.721a1 1 0 0 1-1.451 1.054l-2.444-1.284a1 1 0 0 0-.93 0Z"/><g transform="translate(36 80)"><mask id="h" fill="#fff"><use xlink:href="#g"/></mask><use xlink:href="#g" fill="#FF9A00"/><path fill="#BFBFBF" d="M8 0h9v16H8z" mask="url(#h)"/></g><path fill="#BFBFBF" d="m79.535 92.245-2.444 1.284a1 1 0 0 1-1.45-1.054l.466-2.72a1 1 0 0 0-.288-.886l-1.977-1.927a1 1 0 0 1 .555-1.706l2.732-.396a1 1 0 0 0 .753-.548l1.221-2.475a1 1 0 0 1 1.794 0l1.221 2.475a1 1 0 0 0 .753.548l2.732.396a1 1 0 0 1 .555 1.706L84.18 88.87a1 1 0 0 0-.288.885l.467 2.721a1 1 0 0 1-1.451 1.054l-2.444-1.284a1 1 0 0 0-.93 0Z"/><path fill="#FF9A00" d="m25.535 92.245-2.444 1.284a1 1 0 0 1-1.45-1.054l.466-2.72a1 1 0 0 0-.288-.886l-1.977-1.927a1 1 0 0 1 .555-1.706l2.732-.396a1 1 0 0 0 .753-.548l1.221-2.475a1 1 0 0 1 1.794 0l1.221 2.475a1 1 0 0 0 .753.548l2.732.396a1 1 0 0 1 .555 1.706L30.18 88.87a1 1 0 0 0-.288.885l.467 2.721a1 1 0 0 1-1.451 1.054l-2.444-1.284a1 1 0 0 0-.93 0Z"/><path fill="#BFBFBF" d="m61.535 92.245-2.444 1.284a1 1 0 0 1-1.45-1.054l.466-2.72a1 1 0 0 0-.288-.886l-1.977-1.927a1 1 0 0 1 .555-1.706l2.732-.396a1 1 0 0 0 .753-.548l1.221-2.475a1 1 0 0 1 1.794 0l1.221 2.475a1 1 0 0 0 .753.548l2.732.396a1 1 0 0 1 .555 1.706L66.18 88.87a1 1 0 0 0-.288.885l.467 2.721a1 1 0 0 1-1.451 1.054l-2.444-1.284a1 1 0 0 0-.93 0Z"/><path fill="gray" fill-rule="nonzero" d="M99.118 125.36c-.628 0-1.177-.123-1.646-.369a2.658 2.658 0 0 1-1.088-1.028c-.256-.44-.384-.954-.384-1.543h1.386c0 .54.154.962.462 1.268.308.305.736.457 1.283.457.556 0 .986-.158 1.289-.474.303-.316.455-.733.455-1.251v-.717c0-.55-.152-.974-.456-1.275-.304-.302-.734-.452-1.288-.452H98v-1.172l2.382-2.566H96.43V115h5.498v1.243l-2.774 2.978v-.464c.952 0 1.707.266 2.267.798.56.532.84 1.247.84 2.146v.719c0 .59-.13 1.104-.39 1.543a2.68 2.68 0 0 1-1.099 1.028c-.474.246-1.025.369-1.654.369Z"/><path fill="#FF9A00" d="m7.535 124.245-2.444 1.284a1 1 0 0 1-1.45-1.054l.466-2.72a1 1 0 0 0-.288-.886l-1.977-1.927a1 1 0 0 1 .555-1.706l2.732-.396a1 1 0 0 0 .753-.548l1.221-2.475a1 1 0 0 1 1.794 0l1.221 2.475a1 1 0 0 0 .753.548l2.732.396a1 1 0 0 1 .555 1.706l-1.977 1.927a1 1 0 0 0-.288.885l.467 2.721a1 1 0 0 1-1.451 1.054l-2.444-1.284a1 1 0 0 0-.93 0Z"/><path fill="#BFBFBF" d="m43.535 124.245-2.444 1.284a1 1 0 0 1-1.45-1.054l.466-2.72a1 1 0 0 0-.288-.886l-1.977-1.927a1 1 0 0 1 .555-1.706l2.732-.396a1 1 0 0 0 .753-.548l1.221-2.475a1 1 0 0 1 1.794 0l1.221 2.475a1 1 0 0 0 .753.548l2.732.396a1 1 0 0 1 .555 1.706l-1.977 1.927a1 1 0 0 0-.288.885l.467 2.721a1 1 0 0 1-1.451 1.054l-2.444-1.284a1 1 0 0 0-.93 0ZM79.535 124.245l-2.444 1.284a1 1 0 0 1-1.45-1.054l.466-2.72a1 1 0 0 0-.288-.886l-1.977-1.927a1 1 0 0 1 .555-1.706l2.732-.396a1 1 0 0 0 .753-.548l1.221-2.475a1 1 0 0 1 1.794 0l1.221 2.475a1 1 0 0 0 .753.548l2.732.396a1 1 0 0 1 .555 1.706l-1.977 1.927a1 1 0 0 0-.288.885l.467 2.721a1 1 0 0 1-1.451 1.054l-2.444-1.284a1 1 0 0 0-.93 0Z"/><g transform="translate(18 112)"><mask id="j" fill="#fff"><use xlink:href="#i"/></mask><use xlink:href="#i" fill="#FF9A00"/><path fill="#BFBFBF" d="M8 0h9v16H8z" mask="url(#j)"/></g><path fill="#BFBFBF" d="m61.535 124.245-2.444 1.284a1 1 0 0 1-1.45-1.054l.466-2.72a1 1 0 0 0-.288-.886l-1.977-1.927a1 1 0 0 1 .555-1.706l2.732-.396a1 1 0 0 0 .753-.548l1.221-2.475a1 1 0 0 1 1.794 0l1.221 2.475a1 1 0 0 0 .753.548l2.732.396a1 1 0 0 1 .555 1.706l-1.977 1.927a1 1 0 0 0-.288.885l.467 2.721a1 1 0 0 1-1.451 1.054l-2.444-1.284a1 1 0 0 0-.93 0Z"/><path fill="gray" fill-rule="nonzero" d="M96.28 141.36v-1.336l3.312-3.563c.452-.484.781-.922.988-1.311.207-.39.31-.773.31-1.15 0-.542-.155-.971-.467-1.288-.311-.318-.734-.476-1.269-.476-.544 0-.975.163-1.292.49-.317.326-.476.768-.476 1.326H96c.016-.624.156-1.166.421-1.624.265-.458.63-.81 1.097-1.058.466-.247 1.014-.37 1.642-.37.64 0 1.192.122 1.655.365.463.243.822.588 1.078 1.033.255.446.383.974.383 1.585 0 .499-.14 1.014-.423 1.545-.282.53-.736 1.132-1.364 1.804l-2.586 2.769h4.533v1.259H96.28Z"/><path fill="#FF9A00" d="m7.535 140.245-2.444 1.284a1 1 0 0 1-1.45-1.054l.466-2.72a1 1 0 0 0-.288-.886l-1.977-1.927a1 1 0 0 1 .555-1.706l2.732-.396a1 1 0 0 0 .753-.548l1.221-2.475a1 1 0 0 1 1.794 0l1.221 2.475a1 1 0 0 0 .753.548l2.732.396a1 1 0 0 1 .555 1.706l-1.977 1.927a1 1 0 0 0-.288.885l.467 2.721a1 1 0 0 1-1.451 1.054l-2.444-1.284a1 1 0 0 0-.93 0Z"/><path fill="#BFBFBF" d="m43.535 140.245-2.444 1.284a1 1 0 0 1-1.45-1.054l.466-2.72a1 1 0 0 0-.288-.886l-1.977-1.927a1 1 0 0 1 .555-1.706l2.732-.396a1 1 0 0 0 .753-.548l1.221-2.475a1 1 0 0 1 1.794 0l1.221 2.475a1 1 0 0 0 .753.548l2.732.396a1 1 0 0 1 .555 1.706l-1.977 1.927a1 1 0 0 0-.288.885l.467 2.721a1 1 0 0 1-1.451 1.054l-2.444-1.284a1 1 0 0 0-.93 0ZM79.535 140.245l-2.444 1.284a1 1 0 0 1-1.45-1.054l.466-2.72a1 1 0 0 0-.288-.886l-1.977-1.927a1 1 0 0 1 .555-1.706l2.732-.396a1 1 0 0 0 .753-.548l1.221-2.475a1 1 0 0 1 1.794 0l1.221 2.475a1 1 0 0 0 .753.548l2.732.396a1 1 0 0 1 .555 1.706l-1.977 1.927a1 1 0 0 0-.288.885l.467 2.721a1 1 0 0 1-1.451 1.054l-2.444-1.284a1 1 0 0 0-.93 0ZM25.535 140.245l-2.444 1.284a1 1 0 0 1-1.45-1.054l.466-2.72a1 1 0 0 0-.288-.886l-1.977-1.927a1 1 0 0 1 .555-1.706l2.732-.396a1 1 0 0 0 .753-.548l1.221-2.475a1 1 0 0 1 1.794 0l1.221 2.475a1 1 0 0 0 .753.548l2.732.396a1 1 0 0 1 .555 1.706l-1.977 1.927a1 1 0 0 0-.288.885l.467 2.721a1 1 0 0 1-1.451 1.054l-2.444-1.284a1 1 0 0 0-.93 0ZM61.535 140.245l-2.444 1.284a1 1 0 0 1-1.45-1.054l.466-2.72a1 1 0 0 0-.288-.886l-1.977-1.927a1 1 0 0 1 .555-1.706l2.732-.396a1 1 0 0 0 .753-.548l1.221-2.475a1 1 0 0 1 1.794 0l1.221 2.475a1 1 0 0 0 .753.548l2.732.396a1 1 0 0 1 .555 1.706l-1.977 1.927a1 1 0 0 0-.288.885l.467 2.721a1 1 0 0 1-1.451 1.054l-2.444-1.284a1 1 0 0 0-.93 0Z"/><path fill="gray" fill-rule="nonzero" d="M99.123 173.5c-.634 0-1.186-.124-1.654-.373-.468-.249-.83-.6-1.086-1.054-.255-.454-.383-.985-.383-1.594v-4.459c0-.615.128-1.149.383-1.599.256-.45.617-.8 1.086-1.048.468-.249 1.019-.373 1.653-.373.643 0 1.196.124 1.66.373.464.248.823.598 1.079 1.048.255.45.383.984.383 1.6v4.459c0 .608-.128 1.14-.383 1.593a2.64 2.64 0 0 1-1.085 1.054c-.468.249-1.019.373-1.653.373Zm0-1.19c.541 0 .975-.169 1.302-.508.326-.339.49-.78.49-1.322v-4.46c0-.542-.164-.983-.49-1.322-.327-.34-.761-.509-1.303-.509-.542 0-.976.17-1.303.509-.326.339-.49.78-.49 1.322v4.46c0 .542.164.983.491 1.322.328.34.762.509 1.303.509Zm0-3.213a.832.832 0 0 1-.625-.244c-.158-.163-.237-.378-.237-.646 0-.258.079-.466.237-.624.158-.157.366-.236.625-.236.258 0 .466.079.624.236.157.158.236.366.236.624 0 .268-.079.483-.237.646-.157.163-.365.244-.623.244Z"/><g fill="#BFBFBF"><path d="m7.535 172.245-2.444 1.284a1 1 0 0 1-1.45-1.054l.466-2.72a1 1 0 0 0-.288-.886l-1.977-1.927a1 1 0 0 1 .555-1.706l2.732-.396a1 1 0 0 0 .753-.548l1.221-2.475a1 1 0 0 1 1.794 0l1.221 2.475a1 1 0 0 0 .753.548l2.732.396a1 1 0 0 1 .555 1.706l-1.977 1.927a1 1 0 0 0-.288.885l.467 2.721a1 1 0 0 1-1.451 1.054l-2.444-1.284a1 1 0 0 0-.93 0ZM43.535 172.245l-2.444 1.284a1 1 0 0 1-1.45-1.054l.466-2.72a1 1 0 0 0-.288-.886l-1.977-1.927a1 1 0 0 1 .555-1.706l2.732-.396a1 1 0 0 0 .753-.548l1.221-2.475a1 1 0 0 1 1.794 0l1.221 2.475a1 1 0 0 0 .753.548l2.732.396a1 1 0 0 1 .555 1.706l-1.977 1.927a1 1 0 0 0-.288.885l.467 2.721a1 1 0 0 1-1.451 1.054l-2.444-1.284a1 1 0 0 0-.93 0ZM79.535 172.245l-2.444 1.284a1 1 0 0 1-1.45-1.054l.466-2.72a1 1 0 0 0-.288-.886l-1.977-1.927a1 1 0 0 1 .555-1.706l2.732-.396a1 1 0 0 0 .753-.548l1.221-2.475a1 1 0 0 1 1.794 0l1.221 2.475a1 1 0 0 0 .753.548l2.732.396a1 1 0 0 1 .555 1.706l-1.977 1.927a1 1 0 0 0-.288.885l.467 2.721a1 1 0 0 1-1.451 1.054l-2.444-1.284a1 1 0 0 0-.93 0ZM25.535 172.245l-2.444 1.284a1 1 0 0 1-1.45-1.054l.466-2.72a1 1 0 0 0-.288-.886l-1.977-1.927a1 1 0 0 1 .555-1.706l2.732-.396a1 1 0 0 0 .753-.548l1.221-2.475a1 1 0 0 1 1.794 0l1.221 2.475a1 1 0 0 0 .753.548l2.732.396a1 1 0 0 1 .555 1.706l-1.977 1.927a1 1 0 0 0-.288.885l.467 2.721a1 1 0 0 1-1.451 1.054l-2.444-1.284a1 1 0 0 0-.93 0ZM61.535 172.245l-2.444 1.284a1 1 0 0 1-1.45-1.054l.466-2.72a1 1 0 0 0-.288-.886l-1.977-1.927a1 1 0 0 1 .555-1.706l2.732-.396a1 1 0 0 0 .753-.548l1.221-2.475a1 1 0 0 1 1.794 0l1.221 2.475a1 1 0 0 0 .753.548l2.732.396a1 1 0 0 1 .555 1.706l-1.977 1.927a1 1 0 0 0-.288.885l.467 2.721a1 1 0 0 1-1.451 1.054l-2.444-1.284a1 1 0 0 0-.93 0Z"/></g></g></svg>