<svg xmlns="http://www.w3.org/2000/svg" xmlns:xlink="http://www.w3.org/1999/xlink" width="110" height="176" viewBox="0 0 110 176"><title>编组 2</title><defs><path id="a" d="M7.535 12.245 5.09 13.529a1 1 0 0 1-1.45-1.054l.466-2.72a1 1 0 0 0-.288-.886L1.842 6.942a1 1 0 0 1 .555-1.706l2.732-.396a1 1 0 0 0 .753-.548l1.221-2.475a1 1 0 0 1 1.794 0l1.221 2.475a1 1 0 0 0 .753.548l2.732.396a1 1 0 0 1 .555 1.706L12.18 8.87a1 1 0 0 0-.288.885l.467 2.721a1 1 0 0 1-1.451 1.054l-2.444-1.284a1 1 0 0 0-.93 0Z"/><path id="c" d="M7.535 12.245 5.09 13.529a1 1 0 0 1-1.45-1.054l.466-2.72a1 1 0 0 0-.288-.886L1.842 6.942a1 1 0 0 1 .555-1.706l2.732-.396a1 1 0 0 0 .753-.548l1.221-2.475a1 1 0 0 1 1.794 0l1.221 2.475a1 1 0 0 0 .753.548l2.732.396a1 1 0 0 1 .555 1.706L12.18 8.87a1 1 0 0 0-.288.885l.467 2.721a1 1 0 0 1-1.451 1.054l-2.444-1.284a1 1 0 0 0-.93 0Z"/><path id="e" d="M7.535 12.245 5.09 13.529a1 1 0 0 1-1.45-1.054l.466-2.72a1 1 0 0 0-.288-.886L1.842 6.942a1 1 0 0 1 .555-1.706l2.732-.396a1 1 0 0 0 .753-.548l1.221-2.475a1 1 0 0 1 1.794 0l1.221 2.475a1 1 0 0 0 .753.548l2.732.396a1 1 0 0 1 .555 1.706L12.18 8.87a1 1 0 0 0-.288.885l.467 2.721a1 1 0 0 1-1.451 1.054l-2.444-1.284a1 1 0 0 0-.93 0Z"/><path id="g" d="M7.535 12.245 5.09 13.529a1 1 0 0 1-1.45-1.054l.466-2.72a1 1 0 0 0-.288-.886L1.842 6.942a1 1 0 0 1 .555-1.706l2.732-.396a1 1 0 0 0 .753-.548l1.221-2.475a1 1 0 0 1 1.794 0l1.221 2.475a1 1 0 0 0 .753.548l2.732.396a1 1 0 0 1 .555 1.706L12.18 8.87a1 1 0 0 0-.288.885l.467 2.721a1 1 0 0 1-1.451 1.054l-2.444-1.284a1 1 0 0 0-.93 0Z"/><path id="i" d="M7.535 12.245 5.09 13.529a1 1 0 0 1-1.45-1.054l.466-2.72a1 1 0 0 0-.288-.886L1.842 6.942a1 1 0 0 1 .555-1.706l2.732-.396a1 1 0 0 0 .753-.548l1.221-2.475a1 1 0 0 1 1.794 0l1.221 2.475a1 1 0 0 0 .753.548l2.732.396a1 1 0 0 1 .555 1.706L12.18 8.87a1 1 0 0 0-.288.885l.467 2.721a1 1 0 0 1-1.451 1.054l-2.444-1.284a1 1 0 0 0-.93 0Z"/></defs><g fill="none" fill-rule="evenodd"><path fill="#FF9A00" d="M7.535 44.245 5.09 45.529a1 1 0 0 1-1.45-1.054l.466-2.72a1 1 0 0 0-.288-.886l-1.977-1.927a1 1 0 0 1 .555-1.706l2.732-.396a1 1 0 0 0 .753-.548l1.221-2.475a1 1 0 0 1 1.794 0l1.221 2.475a1 1 0 0 0 .753.548l2.732.396a1 1 0 0 1 .555 1.706L12.18 40.87a1 1 0 0 0-.288.885l.467 2.721a1 1 0 0 1-1.451 1.054l-2.444-1.284a1 1 0 0 0-.93 0ZM43.535 44.245l-2.444 1.284a1 1 0 0 1-1.45-1.054l.466-2.72a1 1 0 0 0-.288-.886l-1.977-1.927a1 1 0 0 1 .555-1.706l2.732-.396a1 1 0 0 0 .753-.548l1.221-2.475a1 1 0 0 1 1.794 0l1.221 2.475a1 1 0 0 0 .753.548l2.732.396a1 1 0 0 1 .555 1.706L48.18 40.87a1 1 0 0 0-.288.885l.467 2.721a1 1 0 0 1-1.451 1.054l-2.444-1.284a1 1 0 0 0-.93 0Z"/><path fill="#BFBFBF" d="m79.535 44.245-2.444 1.284a1 1 0 0 1-1.45-1.054l.466-2.72a1 1 0 0 0-.288-.886l-1.977-1.927a1 1 0 0 1 .555-1.706l2.732-.396a1 1 0 0 0 .753-.548l1.221-2.475a1 1 0 0 1 1.794 0l1.221 2.475a1 1 0 0 0 .753.548l2.732.396a1 1 0 0 1 .555 1.706L84.18 40.87a1 1 0 0 0-.288.885l.467 2.721a1 1 0 0 1-1.451 1.054l-2.444-1.284a1 1 0 0 0-.93 0Z"/><path fill="#FF9A00" d="m25.535 44.245-2.444 1.284a1 1 0 0 1-1.45-1.054l.466-2.72a1 1 0 0 0-.288-.886l-1.977-1.927a1 1 0 0 1 .555-1.706l2.732-.396a1 1 0 0 0 .753-.548l1.221-2.475a1 1 0 0 1 1.794 0l1.221 2.475a1 1 0 0 0 .753.548l2.732.396a1 1 0 0 1 .555 1.706L30.18 40.87a1 1 0 0 0-.288.885l.467 2.721a1 1 0 0 1-1.451 1.054l-2.444-1.284a1 1 0 0 0-.93 0ZM61.535 44.245l-2.444 1.284a1 1 0 0 1-1.45-1.054l.466-2.72a1 1 0 0 0-.288-.886l-1.977-1.927a1 1 0 0 1 .555-1.706l2.732-.396a1 1 0 0 0 .753-.548l1.221-2.475a1 1 0 0 1 1.794 0l1.221 2.475a1 1 0 0 0 .753.548l2.732.396a1 1 0 0 1 .555 1.706L66.18 40.87a1 1 0 0 0-.288.885l.467 2.721a1 1 0 0 1-1.451 1.054l-2.444-1.284a1 1 0 0 0-.93 0Z"/><path fill="gray" fill-rule="nonzero" d="M99.44 45.506c-.686 0-1.288-.117-1.804-.351-.517-.234-.918-.56-1.205-.977A2.49 2.49 0 0 1 96 42.73c0-.627.2-1.177.599-1.65.398-.474.93-.847 1.595-1.12l1.563-.648c.351-.146.636-.354.855-.623.22-.269.328-.568.328-.898 0-.386-.138-.701-.414-.945-.276-.244-.638-.365-1.086-.365-.449 0-.814.122-1.095.368s-.422.56-.422.942c0 .328.11.626.33.893.22.267.503.471.846.614l1.563.651c.711.294 1.258.68 1.642 1.159.384.478.576 1.019.576 1.622 0 .56-.144 1.048-.43 1.465-.288.416-.689.74-1.203.968-.515.229-1.117.343-1.807.343Zm0-1.48c.501 0 .915-.138 1.242-.414.327-.275.49-.625.49-1.05 0-.334-.117-.65-.353-.945a2.198 2.198 0 0 0-.9-.669l-1.672-.714c-.645-.272-1.145-.624-1.5-1.056a2.279 2.279 0 0 1-.531-1.486c0-.514.136-.973.407-1.379a2.802 2.802 0 0 1 1.13-.96c.482-.236 1.044-.353 1.687-.353.642 0 1.204.117 1.685.352a2.75 2.75 0 0 1 1.122.961c.267.406.4.865.4 1.379a2.31 2.31 0 0 1-.526 1.502c-.351.431-.85.78-1.498 1.045l-1.68.715c-.36.15-.657.372-.888.665-.232.293-.348.605-.348.935 0 .43.164.783.49 1.058.327.276.741.414 1.243.414Z"/><path fill="#FF9A00" d="m7.535 108.245-2.444 1.284a1 1 0 0 1-1.45-1.054l.466-2.72a1 1 0 0 0-.288-.886l-1.977-1.927a1 1 0 0 1 .555-1.706l2.732-.396a1 1 0 0 0 .753-.548l1.221-2.475a1 1 0 0 1 1.794 0l1.221 2.475a1 1 0 0 0 .753.548l2.732.396a1 1 0 0 1 .555 1.706l-1.977 1.927a1 1 0 0 0-.288.885l.467 2.721a1 1 0 0 1-1.451 1.054l-2.444-1.284a1 1 0 0 0-.93 0Z"/><path fill="#BFBFBF" d="m43.535 108.245-2.444 1.284a1 1 0 0 1-1.45-1.054l.466-2.72a1 1 0 0 0-.288-.886l-1.977-1.927a1 1 0 0 1 .555-1.706l2.732-.396a1 1 0 0 0 .753-.548l1.221-2.475a1 1 0 0 1 1.794 0l1.221 2.475a1 1 0 0 0 .753.548l2.732.396a1 1 0 0 1 .555 1.706l-1.977 1.927a1 1 0 0 0-.288.885l.467 2.721a1 1 0 0 1-1.451 1.054l-2.444-1.284a1 1 0 0 0-.93 0ZM79.535 108.245l-2.444 1.284a1 1 0 0 1-1.45-1.054l.466-2.72a1 1 0 0 0-.288-.886l-1.977-1.927a1 1 0 0 1 .555-1.706l2.732-.396a1 1 0 0 0 .753-.548l1.221-2.475a1 1 0 0 1 1.794 0l1.221 2.475a1 1 0 0 0 .753.548l2.732.396a1 1 0 0 1 .555 1.706l-1.977 1.927a1 1 0 0 0-.288.885l.467 2.721a1 1 0 0 1-1.451 1.054l-2.444-1.284a1 1 0 0 0-.93 0Z"/><path fill="#FF9A00" d="m25.535 108.245-2.444 1.284a1 1 0 0 1-1.45-1.054l.466-2.72a1 1 0 0 0-.288-.886l-1.977-1.927a1 1 0 0 1 .555-1.706l2.732-.396a1 1 0 0 0 .753-.548l1.221-2.475a1 1 0 0 1 1.794 0l1.221 2.475a1 1 0 0 0 .753.548l2.732.396a1 1 0 0 1 .555 1.706l-1.977 1.927a1 1 0 0 0-.288.885l.467 2.721a1 1 0 0 1-1.451 1.054l-2.444-1.284a1 1 0 0 0-.93 0Z"/><path fill="#BFBFBF" d="m61.535 108.245-2.444 1.284a1 1 0 0 1-1.45-1.054l.466-2.72a1 1 0 0 0-.288-.886l-1.977-1.927a1 1 0 0 1 .555-1.706l2.732-.396a1 1 0 0 0 .753-.548l1.221-2.475a1 1 0 0 1 1.794 0l1.221 2.475a1 1 0 0 0 .753.548l2.732.396a1 1 0 0 1 .555 1.706l-1.977 1.927a1 1 0 0 0-.288.885l.467 2.721a1 1 0 0 1-1.451 1.054l-2.444-1.284a1 1 0 0 0-.93 0Z"/><path fill="gray" fill-rule="nonzero" d="M100.538 109.22v-2.027H96v-2.531L99.79 99h1.926l-4.047 6.111v.541h2.869v-2.312h1.752v5.88z"/><g transform="translate(0 144)"><mask id="b" fill="#fff"><use xlink:href="#a"/></mask><use xlink:href="#a" fill="#FF9A00"/><path fill="#BFBFBF" d="M8 0h11v16H8z" mask="url(#b)"/></g><path fill="#BFBFBF" d="m43.535 156.245-2.444 1.284a1 1 0 0 1-1.45-1.054l.466-2.72a1 1 0 0 0-.288-.886l-1.977-1.927a1 1 0 0 1 .555-1.706l2.732-.396a1 1 0 0 0 .753-.548l1.221-2.475a1 1 0 0 1 1.794 0l1.221 2.475a1 1 0 0 0 .753.548l2.732.396a1 1 0 0 1 .555 1.706l-1.977 1.927a1 1 0 0 0-.288.885l.467 2.721a1 1 0 0 1-1.451 1.054l-2.444-1.284a1 1 0 0 0-.93 0ZM79.535 156.245l-2.444 1.284a1 1 0 0 1-1.45-1.054l.466-2.72a1 1 0 0 0-.288-.886l-1.977-1.927a1 1 0 0 1 .555-1.706l2.732-.396a1 1 0 0 0 .753-.548l1.221-2.475a1 1 0 0 1 1.794 0l1.221 2.475a1 1 0 0 0 .753.548l2.732.396a1 1 0 0 1 .555 1.706l-1.977 1.927a1 1 0 0 0-.288.885l.467 2.721a1 1 0 0 1-1.451 1.054l-2.444-1.284a1 1 0 0 0-.93 0ZM25.535 156.245l-2.444 1.284a1 1 0 0 1-1.45-1.054l.466-2.72a1 1 0 0 0-.288-.886l-1.977-1.927a1 1 0 0 1 .555-1.706l2.732-.396a1 1 0 0 0 .753-.548l1.221-2.475a1 1 0 0 1 1.794 0l1.221 2.475a1 1 0 0 0 .753.548l2.732.396a1 1 0 0 1 .555 1.706l-1.977 1.927a1 1 0 0 0-.288.885l.467 2.721a1 1 0 0 1-1.451 1.054l-2.444-1.284a1 1 0 0 0-.93 0ZM61.535 156.245l-2.444 1.284a1 1 0 0 1-1.45-1.054l.466-2.72a1 1 0 0 0-.288-.886l-1.977-1.927a1 1 0 0 1 .555-1.706l2.732-.396a1 1 0 0 0 .753-.548l1.221-2.475a1 1 0 0 1 1.794 0l1.221 2.475a1 1 0 0 0 .753.548l2.732.396a1 1 0 0 1 .555 1.706l-1.977 1.927a1 1 0 0 0-.288.885l.467 2.721a1 1 0 0 1-1.451 1.054l-2.444-1.284a1 1 0 0 0-.93 0Z"/><path fill="gray" fill-rule="nonzero" d="M96.016 157.22v-1.582h2.658v-7.08L96 150.548v-1.85L98.359 147h2.066v8.638h2.137v1.582z"/><g fill="#FF9A00"><path d="M7.535 12.245 5.09 13.529a1 1 0 0 1-1.45-1.054l.466-2.72a1 1 0 0 0-.288-.886L1.842 6.942a1 1 0 0 1 .555-1.706l2.732-.396a1 1 0 0 0 .753-.548l1.221-2.475a1 1 0 0 1 1.794 0l1.221 2.475a1 1 0 0 0 .753.548l2.732.396a1 1 0 0 1 .555 1.706L12.18 8.87a1 1 0 0 0-.288.885l.467 2.721a1 1 0 0 1-1.451 1.054l-2.444-1.284a1 1 0 0 0-.93 0ZM43.535 12.245l-2.444 1.284a1 1 0 0 1-1.45-1.054l.466-2.72a1 1 0 0 0-.288-.886l-1.977-1.927a1 1 0 0 1 .555-1.706l2.732-.396a1 1 0 0 0 .753-.548l1.221-2.475a1 1 0 0 1 1.794 0l1.221 2.475a1 1 0 0 0 .753.548l2.732.396a1 1 0 0 1 .555 1.706L48.18 8.87a1 1 0 0 0-.288.885l.467 2.721a1 1 0 0 1-1.451 1.054l-2.444-1.284a1 1 0 0 0-.93 0ZM79.535 12.245l-2.444 1.284a1 1 0 0 1-1.45-1.054l.466-2.72a1 1 0 0 0-.288-.886l-1.977-1.927a1 1 0 0 1 .555-1.706l2.732-.396a1 1 0 0 0 .753-.548l1.221-2.475a1 1 0 0 1 1.794 0l1.221 2.475a1 1 0 0 0 .753.548l2.732.396a1 1 0 0 1 .555 1.706L84.18 8.87a1 1 0 0 0-.288.885l.467 2.721a1 1 0 0 1-1.451 1.054l-2.444-1.284a1 1 0 0 0-.93 0ZM25.535 12.245l-2.444 1.284a1 1 0 0 1-1.45-1.054l.466-2.72a1 1 0 0 0-.288-.886l-1.977-1.927a1 1 0 0 1 .555-1.706l2.732-.396a1 1 0 0 0 .753-.548l1.221-2.475a1 1 0 0 1 1.794 0l1.221 2.475a1 1 0 0 0 .753.548l2.732.396a1 1 0 0 1 .555 1.706L30.18 8.87a1 1 0 0 0-.288.885l.467 2.721a1 1 0 0 1-1.451 1.054l-2.444-1.284a1 1 0 0 0-.93 0ZM61.535 12.245l-2.444 1.284a1 1 0 0 1-1.45-1.054l.466-2.72a1 1 0 0 0-.288-.886l-1.977-1.927a1 1 0 0 1 .555-1.706l2.732-.396a1 1 0 0 0 .753-.548l1.221-2.475a1 1 0 0 1 1.794 0l1.221 2.475a1 1 0 0 0 .753.548l2.732.396a1 1 0 0 1 .555 1.706L66.18 8.87a1 1 0 0 0-.288.885l.467 2.721a1 1 0 0 1-1.451 1.054l-2.444-1.284a1 1 0 0 0-.93 0Z"/></g><g fill="gray" fill-rule="nonzero"><path d="M96.016 13.36v-1.582h2.533v-7.08L96 6.688V4.837l2.249-1.697h1.971v8.638h2.037v1.582zM106.91 13.5c-.63 0-1.176-.126-1.64-.38a2.657 2.657 0 0 1-1.076-1.065c-.254-.457-.38-.993-.38-1.606V6.051c0-.616.126-1.152.38-1.61a2.651 2.651 0 0 1 1.074-1.063c.464-.252 1.01-.378 1.638-.378.637 0 1.185.126 1.645.378.46.253.816.607 1.07 1.064.252.457.379.993.379 1.609v4.398c0 .613-.127 1.149-.38 1.606-.253.458-.61.813-1.072 1.066-.461.253-1.007.379-1.637.379Zm0-1.512c.464 0 .833-.14 1.105-.42.273-.28.41-.653.41-1.119V6.051c0-.466-.137-.838-.41-1.119-.272-.28-.642-.42-1.108-.42-.466 0-.836.14-1.109.42-.272.28-.409.653-.409 1.119v4.398c0 .466.138.838.413 1.119.276.28.645.42 1.109.42Zm0-2.83a.832.832 0 0 1-.639-.262c-.162-.174-.243-.405-.243-.692 0-.277.08-.499.242-.666.162-.168.375-.252.64-.252.264 0 .476.084.636.253.16.168.24.39.24.665 0 .286-.08.516-.241.691a.821.821 0 0 1-.635.263Z"/></g><path fill="gray" fill-rule="nonzero" d="m97.797 29.36 2.794-4.759-.081-.05c-.19.28-.433.499-.73.66-.297.16-.647.24-1.048.24-.538 0-1.012-.133-1.42-.397-.41-.264-.73-.63-.963-1.1-.233-.47-.349-1.01-.349-1.62 0-.657.146-1.237.438-1.739a3.056 3.056 0 0 1 1.22-1.174c.522-.28 1.12-.421 1.796-.421.684 0 1.287.144 1.808.433.521.29.928.686 1.22 1.19.291.505.437 1.092.437 1.762 0 .437-.084.9-.252 1.391a9.705 9.705 0 0 1-.719 1.571l-2.21 4.013h-1.94Zm1.663-5.22c.513 0 .932-.17 1.255-.508.324-.34.486-.781.486-1.326 0-.538-.162-.976-.486-1.313-.323-.336-.742-.504-1.255-.504-.514 0-.933.168-1.256.504-.324.337-.485.775-.485 1.313 0 .545.161.986.485 1.326.323.339.742.509 1.256.509Z"/><path fill="#FF9A00" d="M7.535 28.245 5.09 29.529a1 1 0 0 1-1.45-1.054l.466-2.72a1 1 0 0 0-.288-.886l-1.977-1.927a1 1 0 0 1 .555-1.706l2.732-.396a1 1 0 0 0 .753-.548l1.221-2.475a1 1 0 0 1 1.794 0l1.221 2.475a1 1 0 0 0 .753.548l2.732.396a1 1 0 0 1 .555 1.706L12.18 24.87a1 1 0 0 0-.288.885l.467 2.721a1 1 0 0 1-1.451 1.054l-2.444-1.284a1 1 0 0 0-.93 0ZM43.535 28.245l-2.444 1.284a1 1 0 0 1-1.45-1.054l.466-2.72a1 1 0 0 0-.288-.886l-1.977-1.927a1 1 0 0 1 .555-1.706l2.732-.396a1 1 0 0 0 .753-.548l1.221-2.475a1 1 0 0 1 1.794 0l1.221 2.475a1 1 0 0 0 .753.548l2.732.396a1 1 0 0 1 .555 1.706L48.18 24.87a1 1 0 0 0-.288.885l.467 2.721a1 1 0 0 1-1.451 1.054l-2.444-1.284a1 1 0 0 0-.93 0Z"/><g transform="translate(72 16)"><mask id="d" fill="#fff"><use xlink:href="#c"/></mask><use xlink:href="#c" fill="#FF9A00"/><path fill="#BFBFBF" d="M8 0h10v16H8z" mask="url(#d)"/></g><path fill="#FF9A00" d="m25.535 28.245-2.444 1.284a1 1 0 0 1-1.45-1.054l.466-2.72a1 1 0 0 0-.288-.886l-1.977-1.927a1 1 0 0 1 .555-1.706l2.732-.396a1 1 0 0 0 .753-.548l1.221-2.475a1 1 0 0 1 1.794 0l1.221 2.475a1 1 0 0 0 .753.548l2.732.396a1 1 0 0 1 .555 1.706L30.18 24.87a1 1 0 0 0-.288.885l.467 2.721a1 1 0 0 1-1.451 1.054l-2.444-1.284a1 1 0 0 0-.93 0ZM61.535 28.245l-2.444 1.284a1 1 0 0 1-1.45-1.054l.466-2.72a1 1 0 0 0-.288-.886l-1.977-1.927a1 1 0 0 1 .555-1.706l2.732-.396a1 1 0 0 0 .753-.548l1.221-2.475a1 1 0 0 1 1.794 0l1.221 2.475a1 1 0 0 0 .753.548l2.732.396a1 1 0 0 1 .555 1.706L66.18 24.87a1 1 0 0 0-.288.885l.467 2.721a1 1 0 0 1-1.451 1.054l-2.444-1.284a1 1 0 0 0-.93 0Z"/><path fill="gray" fill-rule="nonzero" d="m97.308 61.22 3.736-8.679h-3.293v1.668H96V51h6.879v1.545l-3.652 8.675z"/><path fill="#FF9A00" d="M7.535 60.245 5.09 61.529a1 1 0 0 1-1.45-1.054l.466-2.72a1 1 0 0 0-.288-.886l-1.977-1.927a1 1 0 0 1 .555-1.706l2.732-.396a1 1 0 0 0 .753-.548l1.221-2.475a1 1 0 0 1 1.794 0l1.221 2.475a1 1 0 0 0 .753.548l2.732.396a1 1 0 0 1 .555 1.706L12.18 56.87a1 1 0 0 0-.288.885l.467 2.721a1 1 0 0 1-1.451 1.054l-2.444-1.284a1 1 0 0 0-.93 0ZM43.535 60.245l-2.444 1.284a1 1 0 0 1-1.45-1.054l.466-2.72a1 1 0 0 0-.288-.886l-1.977-1.927a1 1 0 0 1 .555-1.706l2.732-.396a1 1 0 0 0 .753-.548l1.221-2.475a1 1 0 0 1 1.794 0l1.221 2.475a1 1 0 0 0 .753.548l2.732.396a1 1 0 0 1 .555 1.706L48.18 56.87a1 1 0 0 0-.288.885l.467 2.721a1 1 0 0 1-1.451 1.054l-2.444-1.284a1 1 0 0 0-.93 0Z"/><path fill="#BFBFBF" d="m79.535 60.245-2.444 1.284a1 1 0 0 1-1.45-1.054l.466-2.72a1 1 0 0 0-.288-.886l-1.977-1.927a1 1 0 0 1 .555-1.706l2.732-.396a1 1 0 0 0 .753-.548l1.221-2.475a1 1 0 0 1 1.794 0l1.221 2.475a1 1 0 0 0 .753.548l2.732.396a1 1 0 0 1 .555 1.706L84.18 56.87a1 1 0 0 0-.288.885l.467 2.721a1 1 0 0 1-1.451 1.054l-2.444-1.284a1 1 0 0 0-.93 0Z"/><path fill="#FF9A00" d="m25.535 60.245-2.444 1.284a1 1 0 0 1-1.45-1.054l.466-2.72a1 1 0 0 0-.288-.886l-1.977-1.927a1 1 0 0 1 .555-1.706l2.732-.396a1 1 0 0 0 .753-.548l1.221-2.475a1 1 0 0 1 1.794 0l1.221 2.475a1 1 0 0 0 .753.548l2.732.396a1 1 0 0 1 .555 1.706L30.18 56.87a1 1 0 0 0-.288.885l.467 2.721a1 1 0 0 1-1.451 1.054l-2.444-1.284a1 1 0 0 0-.93 0Z"/><g transform="translate(54 48)"><mask id="f" fill="#fff"><use xlink:href="#e"/></mask><use xlink:href="#e" fill="#FF9A00"/><path fill="#BFBFBF" d="M8 0h7v16H8z" mask="url(#f)"/></g><path fill="gray" fill-rule="nonzero" d="M99.465 77.36c-.69 0-1.295-.143-1.816-.43a3.05 3.05 0 0 1-1.216-1.2c-.289-.515-.433-1.11-.433-1.788 0-.431.082-.89.245-1.374a9.044 9.044 0 0 1 .72-1.564L99.258 67h1.904l-2.82 4.808.08.05c.19-.28.431-.499.724-.66.293-.16.64-.24 1.041-.24.544 0 1.02.13 1.432.388.411.26.73.62.958 1.081.228.462.342 1.003.342 1.623 0 .657-.144 1.236-.433 1.735a3 3 0 0 1-1.206 1.162c-.514.275-1.12.413-1.815.413Zm-.005-1.489c.519 0 .939-.165 1.26-.496.32-.331.48-.764.48-1.297 0-.362-.072-.678-.218-.948a1.593 1.593 0 0 0-.607-.633 1.78 1.78 0 0 0-.915-.228 1.79 1.79 0 0 0-.909.228 1.58 1.58 0 0 0-.614.633c-.146.27-.218.586-.218.948 0 .533.16.966.48 1.297.321.33.741.496 1.26.496Z"/><path fill="#FF9A00" d="M7.535 76.245 5.09 77.529a1 1 0 0 1-1.45-1.054l.466-2.72a1 1 0 0 0-.288-.886l-1.977-1.927a1 1 0 0 1 .555-1.706l2.732-.396a1 1 0 0 0 .753-.548l1.221-2.475a1 1 0 0 1 1.794 0l1.221 2.475a1 1 0 0 0 .753.548l2.732.396a1 1 0 0 1 .555 1.706L12.18 72.87a1 1 0 0 0-.288.885l.467 2.721a1 1 0 0 1-1.451 1.054l-2.444-1.284a1 1 0 0 0-.93 0ZM43.535 76.245l-2.444 1.284a1 1 0 0 1-1.45-1.054l.466-2.72a1 1 0 0 0-.288-.886l-1.977-1.927a1 1 0 0 1 .555-1.706l2.732-.396a1 1 0 0 0 .753-.548l1.221-2.475a1 1 0 0 1 1.794 0l1.221 2.475a1 1 0 0 0 .753.548l2.732.396a1 1 0 0 1 .555 1.706L48.18 72.87a1 1 0 0 0-.288.885l.467 2.721a1 1 0 0 1-1.451 1.054l-2.444-1.284a1 1 0 0 0-.93 0Z"/><path fill="#BFBFBF" d="m79.535 76.245-2.444 1.284a1 1 0 0 1-1.45-1.054l.466-2.72a1 1 0 0 0-.288-.886l-1.977-1.927a1 1 0 0 1 .555-1.706l2.732-.396a1 1 0 0 0 .753-.548l1.221-2.475a1 1 0 0 1 1.794 0l1.221 2.475a1 1 0 0 0 .753.548l2.732.396a1 1 0 0 1 .555 1.706L84.18 72.87a1 1 0 0 0-.288.885l.467 2.721a1 1 0 0 1-1.451 1.054l-2.444-1.284a1 1 0 0 0-.93 0Z"/><path fill="#FF9A00" d="m25.535 76.245-2.444 1.284a1 1 0 0 1-1.45-1.054l.466-2.72a1 1 0 0 0-.288-.886l-1.977-1.927a1 1 0 0 1 .555-1.706l2.732-.396a1 1 0 0 0 .753-.548l1.221-2.475a1 1 0 0 1 1.794 0l1.221 2.475a1 1 0 0 0 .753.548l2.732.396a1 1 0 0 1 .555 1.706L30.18 72.87a1 1 0 0 0-.288.885l.467 2.721a1 1 0 0 1-1.451 1.054l-2.444-1.284a1 1 0 0 0-.93 0Z"/><path fill="#BFBFBF" d="m61.535 76.245-2.444 1.284a1 1 0 0 1-1.45-1.054l.466-2.72a1 1 0 0 0-.288-.886l-1.977-1.927a1 1 0 0 1 .555-1.706l2.732-.396a1 1 0 0 0 .753-.548l1.221-2.475a1 1 0 0 1 1.794 0l1.221 2.475a1 1 0 0 0 .753.548l2.732.396a1 1 0 0 1 .555 1.706L66.18 72.87a1 1 0 0 0-.288.885l.467 2.721a1 1 0 0 1-1.451 1.054l-2.444-1.284a1 1 0 0 0-.93 0Z"/><path fill="gray" fill-rule="nonzero" d="M99.195 93.36c-.94 0-1.695-.237-2.265-.71-.57-.473-.88-1.111-.93-1.916h1.751c.03.347.17.616.42.808.25.192.593.288 1.03.288.484 0 .851-.127 1.102-.381.25-.255.375-.611.375-1.07v-.994c0-.464-.124-.82-.371-1.07-.248-.249-.615-.373-1.1-.373-.299 0-.558.06-.776.18-.22.12-.384.288-.494.501h-1.71l.07-5.623h5.76v1.582h-4.1l-.034 2.968h.416l-.424.356c0-.433.17-.775.508-1.024.34-.25.797-.374 1.374-.374.831-.004 1.478.248 1.94.755.462.507.693 1.214.693 2.122v.994c0 .922-.286 1.649-.856 2.182-.57.533-1.363.799-2.38.799Z"/><path fill="#FF9A00" d="M7.535 92.245 5.09 93.529a1 1 0 0 1-1.45-1.054l.466-2.72a1 1 0 0 0-.288-.886l-1.977-1.927a1 1 0 0 1 .555-1.706l2.732-.396a1 1 0 0 0 .753-.548l1.221-2.475a1 1 0 0 1 1.794 0l1.221 2.475a1 1 0 0 0 .753.548l2.732.396a1 1 0 0 1 .555 1.706L12.18 88.87a1 1 0 0 0-.288.885l.467 2.721a1 1 0 0 1-1.451 1.054l-2.444-1.284a1 1 0 0 0-.93 0Z"/><g transform="translate(36 80)"><mask id="h" fill="#fff"><use xlink:href="#g"/></mask><use xlink:href="#g" fill="#FF9A00"/><path fill="#BFBFBF" d="M8 0h9v16H8z" mask="url(#h)"/></g><path fill="#BFBFBF" d="m79.535 92.245-2.444 1.284a1 1 0 0 1-1.45-1.054l.466-2.72a1 1 0 0 0-.288-.886l-1.977-1.927a1 1 0 0 1 .555-1.706l2.732-.396a1 1 0 0 0 .753-.548l1.221-2.475a1 1 0 0 1 1.794 0l1.221 2.475a1 1 0 0 0 .753.548l2.732.396a1 1 0 0 1 .555 1.706L84.18 88.87a1 1 0 0 0-.288.885l.467 2.721a1 1 0 0 1-1.451 1.054l-2.444-1.284a1 1 0 0 0-.93 0Z"/><path fill="#FF9A00" d="m25.535 92.245-2.444 1.284a1 1 0 0 1-1.45-1.054l.466-2.72a1 1 0 0 0-.288-.886l-1.977-1.927a1 1 0 0 1 .555-1.706l2.732-.396a1 1 0 0 0 .753-.548l1.221-2.475a1 1 0 0 1 1.794 0l1.221 2.475a1 1 0 0 0 .753.548l2.732.396a1 1 0 0 1 .555 1.706L30.18 88.87a1 1 0 0 0-.288.885l.467 2.721a1 1 0 0 1-1.451 1.054l-2.444-1.284a1 1 0 0 0-.93 0Z"/><path fill="#BFBFBF" d="m61.535 92.245-2.444 1.284a1 1 0 0 1-1.45-1.054l.466-2.72a1 1 0 0 0-.288-.886l-1.977-1.927a1 1 0 0 1 .555-1.706l2.732-.396a1 1 0 0 0 .753-.548l1.221-2.475a1 1 0 0 1 1.794 0l1.221 2.475a1 1 0 0 0 .753.548l2.732.396a1 1 0 0 1 .555 1.706L66.18 88.87a1 1 0 0 0-.288.885l.467 2.721a1 1 0 0 1-1.451 1.054l-2.444-1.284a1 1 0 0 0-.93 0Z"/><path fill="gray" fill-rule="nonzero" d="M99.27 125.36c-.664 0-1.242-.12-1.73-.363a2.691 2.691 0 0 1-1.137-1.025c-.269-.441-.403-.959-.403-1.552h1.752c0 .455.133.81.4 1.067.268.256.643.384 1.125.384.491 0 .868-.13 1.13-.389.263-.26.395-.614.395-1.062v-.766c0-.464-.133-.823-.398-1.077-.266-.255-.642-.382-1.127-.382H98.08v-1.403l2.222-2.292h-3.842V115h5.73v1.438l-2.903 2.966v-.714c1.005 0 1.8.266 2.386.798.586.532.88 1.251.88 2.158v.774c0 .593-.135 1.11-.402 1.552a2.675 2.675 0 0 1-1.143 1.025c-.494.242-1.073.363-1.738.363Z"/><path fill="#FF9A00" d="m7.535 124.245-2.444 1.284a1 1 0 0 1-1.45-1.054l.466-2.72a1 1 0 0 0-.288-.886l-1.977-1.927a1 1 0 0 1 .555-1.706l2.732-.396a1 1 0 0 0 .753-.548l1.221-2.475a1 1 0 0 1 1.794 0l1.221 2.475a1 1 0 0 0 .753.548l2.732.396a1 1 0 0 1 .555 1.706l-1.977 1.927a1 1 0 0 0-.288.885l.467 2.721a1 1 0 0 1-1.451 1.054l-2.444-1.284a1 1 0 0 0-.93 0Z"/><path fill="#BFBFBF" d="m43.535 124.245-2.444 1.284a1 1 0 0 1-1.45-1.054l.466-2.72a1 1 0 0 0-.288-.886l-1.977-1.927a1 1 0 0 1 .555-1.706l2.732-.396a1 1 0 0 0 .753-.548l1.221-2.475a1 1 0 0 1 1.794 0l1.221 2.475a1 1 0 0 0 .753.548l2.732.396a1 1 0 0 1 .555 1.706l-1.977 1.927a1 1 0 0 0-.288.885l.467 2.721a1 1 0 0 1-1.451 1.054l-2.444-1.284a1 1 0 0 0-.93 0ZM79.535 124.245l-2.444 1.284a1 1 0 0 1-1.45-1.054l.466-2.72a1 1 0 0 0-.288-.886l-1.977-1.927a1 1 0 0 1 .555-1.706l2.732-.396a1 1 0 0 0 .753-.548l1.221-2.475a1 1 0 0 1 1.794 0l1.221 2.475a1 1 0 0 0 .753.548l2.732.396a1 1 0 0 1 .555 1.706l-1.977 1.927a1 1 0 0 0-.288.885l.467 2.721a1 1 0 0 1-1.451 1.054l-2.444-1.284a1 1 0 0 0-.93 0Z"/><g transform="translate(18 112)"><mask id="j" fill="#fff"><use xlink:href="#i"/></mask><use xlink:href="#i" fill="#FF9A00"/><path fill="#BFBFBF" d="M8 0h9v16H8z" mask="url(#j)"/></g><path fill="#BFBFBF" d="m61.535 124.245-2.444 1.284a1 1 0 0 1-1.45-1.054l.466-2.72a1 1 0 0 0-.288-.886l-1.977-1.927a1 1 0 0 1 .555-1.706l2.732-.396a1 1 0 0 0 .753-.548l1.221-2.475a1 1 0 0 1 1.794 0l1.221 2.475a1 1 0 0 0 .753.548l2.732.396a1 1 0 0 1 .555 1.706l-1.977 1.927a1 1 0 0 0-.288.885l.467 2.721a1 1 0 0 1-1.451 1.054l-2.444-1.284a1 1 0 0 0-.93 0Z"/><path fill="gray" fill-rule="nonzero" d="M96.28 141.36v-1.598l3.459-3.58c.354-.376.616-.728.786-1.057.17-.328.256-.659.256-.99 0-.49-.134-.873-.4-1.15-.267-.276-.631-.415-1.093-.415-.47 0-.845.143-1.121.43-.277.286-.415.677-.415 1.174H96c.008-.649.15-1.21.424-1.685a2.82 2.82 0 0 1 1.152-1.1c.493-.26 1.072-.389 1.737-.389.656 0 1.224.123 1.703.368.48.245.852.594 1.118 1.045.265.452.398.99.398 1.612 0 .54-.137 1.074-.41 1.6-.274.527-.715 1.1-1.322 1.72l-2.374 2.433h4.241v1.582H96.28Z"/><path fill="#FF9A00" d="m7.535 140.245-2.444 1.284a1 1 0 0 1-1.45-1.054l.466-2.72a1 1 0 0 0-.288-.886l-1.977-1.927a1 1 0 0 1 .555-1.706l2.732-.396a1 1 0 0 0 .753-.548l1.221-2.475a1 1 0 0 1 1.794 0l1.221 2.475a1 1 0 0 0 .753.548l2.732.396a1 1 0 0 1 .555 1.706l-1.977 1.927a1 1 0 0 0-.288.885l.467 2.721a1 1 0 0 1-1.451 1.054l-2.444-1.284a1 1 0 0 0-.93 0Z"/><path fill="#BFBFBF" d="m43.535 140.245-2.444 1.284a1 1 0 0 1-1.45-1.054l.466-2.72a1 1 0 0 0-.288-.886l-1.977-1.927a1 1 0 0 1 .555-1.706l2.732-.396a1 1 0 0 0 .753-.548l1.221-2.475a1 1 0 0 1 1.794 0l1.221 2.475a1 1 0 0 0 .753.548l2.732.396a1 1 0 0 1 .555 1.706l-1.977 1.927a1 1 0 0 0-.288.885l.467 2.721a1 1 0 0 1-1.451 1.054l-2.444-1.284a1 1 0 0 0-.93 0ZM79.535 140.245l-2.444 1.284a1 1 0 0 1-1.45-1.054l.466-2.72a1 1 0 0 0-.288-.886l-1.977-1.927a1 1 0 0 1 .555-1.706l2.732-.396a1 1 0 0 0 .753-.548l1.221-2.475a1 1 0 0 1 1.794 0l1.221 2.475a1 1 0 0 0 .753.548l2.732.396a1 1 0 0 1 .555 1.706l-1.977 1.927a1 1 0 0 0-.288.885l.467 2.721a1 1 0 0 1-1.451 1.054l-2.444-1.284a1 1 0 0 0-.93 0ZM25.535 140.245l-2.444 1.284a1 1 0 0 1-1.45-1.054l.466-2.72a1 1 0 0 0-.288-.886l-1.977-1.927a1 1 0 0 1 .555-1.706l2.732-.396a1 1 0 0 0 .753-.548l1.221-2.475a1 1 0 0 1 1.794 0l1.221 2.475a1 1 0 0 0 .753.548l2.732.396a1 1 0 0 1 .555 1.706l-1.977 1.927a1 1 0 0 0-.288.885l.467 2.721a1 1 0 0 1-1.451 1.054l-2.444-1.284a1 1 0 0 0-.93 0ZM61.535 140.245l-2.444 1.284a1 1 0 0 1-1.45-1.054l.466-2.72a1 1 0 0 0-.288-.886l-1.977-1.927a1 1 0 0 1 .555-1.706l2.732-.396a1 1 0 0 0 .753-.548l1.221-2.475a1 1 0 0 1 1.794 0l1.221 2.475a1 1 0 0 0 .753.548l2.732.396a1 1 0 0 1 .555 1.706l-1.977 1.927a1 1 0 0 0-.288.885l.467 2.721a1 1 0 0 1-1.451 1.054l-2.444-1.284a1 1 0 0 0-.93 0Z"/><path fill="gray" fill-rule="nonzero" d="M99.248 173.5c-.66 0-1.235-.126-1.721-.38a2.727 2.727 0 0 1-1.129-1.065c-.265-.457-.398-.993-.398-1.606v-4.398c0-.616.133-1.152.398-1.61a2.721 2.721 0 0 1 1.128-1.063c.486-.252 1.058-.378 1.717-.378.668 0 1.243.126 1.725.378.482.253.856.607 1.121 1.064.266.457.399.993.399 1.609v4.398c0 .613-.133 1.149-.399 1.606-.265.458-.64.813-1.124 1.066-.484.253-1.056.379-1.717.379Zm0-1.512c.486 0 .872-.14 1.158-.42.286-.28.43-.653.43-1.119v-4.398c0-.466-.144-.838-.43-1.119-.286-.28-.673-.42-1.162-.42-.49 0-.877.14-1.163.42-.286.28-.429.653-.429 1.119v4.398c0 .466.145.838.433 1.119.29.28.677.42 1.163.42Zm-.001-2.83c-.276 0-.5-.087-.67-.262-.17-.174-.255-.405-.255-.692 0-.277.085-.499.254-.666.17-.168.393-.252.67-.252.278 0 .5.084.668.253.168.168.252.39.252.665 0 .286-.085.516-.253.691-.168.175-.39.263-.666.263Z"/><g fill="#BFBFBF"><path d="m7.535 172.245-2.444 1.284a1 1 0 0 1-1.45-1.054l.466-2.72a1 1 0 0 0-.288-.886l-1.977-1.927a1 1 0 0 1 .555-1.706l2.732-.396a1 1 0 0 0 .753-.548l1.221-2.475a1 1 0 0 1 1.794 0l1.221 2.475a1 1 0 0 0 .753.548l2.732.396a1 1 0 0 1 .555 1.706l-1.977 1.927a1 1 0 0 0-.288.885l.467 2.721a1 1 0 0 1-1.451 1.054l-2.444-1.284a1 1 0 0 0-.93 0ZM43.535 172.245l-2.444 1.284a1 1 0 0 1-1.45-1.054l.466-2.72a1 1 0 0 0-.288-.886l-1.977-1.927a1 1 0 0 1 .555-1.706l2.732-.396a1 1 0 0 0 .753-.548l1.221-2.475a1 1 0 0 1 1.794 0l1.221 2.475a1 1 0 0 0 .753.548l2.732.396a1 1 0 0 1 .555 1.706l-1.977 1.927a1 1 0 0 0-.288.885l.467 2.721a1 1 0 0 1-1.451 1.054l-2.444-1.284a1 1 0 0 0-.93 0ZM79.535 172.245l-2.444 1.284a1 1 0 0 1-1.45-1.054l.466-2.72a1 1 0 0 0-.288-.886l-1.977-1.927a1 1 0 0 1 .555-1.706l2.732-.396a1 1 0 0 0 .753-.548l1.221-2.475a1 1 0 0 1 1.794 0l1.221 2.475a1 1 0 0 0 .753.548l2.732.396a1 1 0 0 1 .555 1.706l-1.977 1.927a1 1 0 0 0-.288.885l.467 2.721a1 1 0 0 1-1.451 1.054l-2.444-1.284a1 1 0 0 0-.93 0ZM25.535 172.245l-2.444 1.284a1 1 0 0 1-1.45-1.054l.466-2.72a1 1 0 0 0-.288-.886l-1.977-1.927a1 1 0 0 1 .555-1.706l2.732-.396a1 1 0 0 0 .753-.548l1.221-2.475a1 1 0 0 1 1.794 0l1.221 2.475a1 1 0 0 0 .753.548l2.732.396a1 1 0 0 1 .555 1.706l-1.977 1.927a1 1 0 0 0-.288.885l.467 2.721a1 1 0 0 1-1.451 1.054l-2.444-1.284a1 1 0 0 0-.93 0ZM61.535 172.245l-2.444 1.284a1 1 0 0 1-1.45-1.054l.466-2.72a1 1 0 0 0-.288-.886l-1.977-1.927a1 1 0 0 1 .555-1.706l2.732-.396a1 1 0 0 0 .753-.548l1.221-2.475a1 1 0 0 1 1.794 0l1.221 2.475a1 1 0 0 0 .753.548l2.732.396a1 1 0 0 1 .555 1.706l-1.977 1.927a1 1 0 0 0-.288.885l.467 2.721a1 1 0 0 1-1.451 1.054l-2.444-1.284a1 1 0 0 0-.93 0Z"/></g></g></svg>