<svg xmlns="http://www.w3.org/2000/svg" xmlns:xlink="http://www.w3.org/1999/xlink" width="113" height="178" viewBox="0 0 113 178"><title>编组 2</title><defs><path id="a" d="M7.535 12.245 5.09 13.529a1 1 0 0 1-1.45-1.054l.466-2.72a1 1 0 0 0-.288-.886L1.842 6.942a1 1 0 0 1 .555-1.706l2.732-.396a1 1 0 0 0 .753-.548l1.221-2.475a1 1 0 0 1 1.794 0l1.221 2.475a1 1 0 0 0 .753.548l2.732.396a1 1 0 0 1 .555 1.706L12.18 8.87a1 1 0 0 0-.288.885l.467 2.721a1 1 0 0 1-1.451 1.054l-2.444-1.284a1 1 0 0 0-.93 0Z"/><path id="c" d="M7.535 12.245 5.09 13.529a1 1 0 0 1-1.45-1.054l.466-2.72a1 1 0 0 0-.288-.886L1.842 6.942a1 1 0 0 1 .555-1.706l2.732-.396a1 1 0 0 0 .753-.548l1.221-2.475a1 1 0 0 1 1.794 0l1.221 2.475a1 1 0 0 0 .753.548l2.732.396a1 1 0 0 1 .555 1.706L12.18 8.87a1 1 0 0 0-.288.885l.467 2.721a1 1 0 0 1-1.451 1.054l-2.444-1.284a1 1 0 0 0-.93 0Z"/><path id="e" d="M7.535 12.245 5.09 13.529a1 1 0 0 1-1.45-1.054l.466-2.72a1 1 0 0 0-.288-.886L1.842 6.942a1 1 0 0 1 .555-1.706l2.732-.396a1 1 0 0 0 .753-.548l1.221-2.475a1 1 0 0 1 1.794 0l1.221 2.475a1 1 0 0 0 .753.548l2.732.396a1 1 0 0 1 .555 1.706L12.18 8.87a1 1 0 0 0-.288.885l.467 2.721a1 1 0 0 1-1.451 1.054l-2.444-1.284a1 1 0 0 0-.93 0Z"/><path id="g" d="M7.535 12.245 5.09 13.529a1 1 0 0 1-1.45-1.054l.466-2.72a1 1 0 0 0-.288-.886L1.842 6.942a1 1 0 0 1 .555-1.706l2.732-.396a1 1 0 0 0 .753-.548l1.221-2.475a1 1 0 0 1 1.794 0l1.221 2.475a1 1 0 0 0 .753.548l2.732.396a1 1 0 0 1 .555 1.706L12.18 8.87a1 1 0 0 0-.288.885l.467 2.721a1 1 0 0 1-1.451 1.054l-2.444-1.284a1 1 0 0 0-.93 0Z"/><path id="i" d="M7.535 12.245 5.09 13.529a1 1 0 0 1-1.45-1.054l.466-2.72a1 1 0 0 0-.288-.886L1.842 6.942a1 1 0 0 1 .555-1.706l2.732-.396a1 1 0 0 0 .753-.548l1.221-2.475a1 1 0 0 1 1.794 0l1.221 2.475a1 1 0 0 0 .753.548l2.732.396a1 1 0 0 1 .555 1.706L12.18 8.87a1 1 0 0 0-.288.885l.467 2.721a1 1 0 0 1-1.451 1.054l-2.444-1.284a1 1 0 0 0-.93 0Z"/></defs><g fill="none" fill-rule="evenodd"><path fill="#FF9A00" d="M7.535 45.245 5.09 46.529a1 1 0 0 1-1.45-1.054l.466-2.72a1 1 0 0 0-.288-.886l-1.977-1.927a1 1 0 0 1 .555-1.706l2.732-.396a1 1 0 0 0 .753-.548l1.221-2.475a1 1 0 0 1 1.794 0l1.221 2.475a1 1 0 0 0 .753.548l2.732.396a1 1 0 0 1 .555 1.706L12.18 41.87a1 1 0 0 0-.288.885l.467 2.721a1 1 0 0 1-1.451 1.054l-2.444-1.284a1 1 0 0 0-.93 0ZM43.535 45.245l-2.444 1.284a1 1 0 0 1-1.45-1.054l.466-2.72a1 1 0 0 0-.288-.886l-1.977-1.927a1 1 0 0 1 .555-1.706l2.732-.396a1 1 0 0 0 .753-.548l1.221-2.475a1 1 0 0 1 1.794 0l1.221 2.475a1 1 0 0 0 .753.548l2.732.396a1 1 0 0 1 .555 1.706L48.18 41.87a1 1 0 0 0-.288.885l.467 2.721a1 1 0 0 1-1.451 1.054l-2.444-1.284a1 1 0 0 0-.93 0Z"/><path fill="#BFBFBF" d="m79.535 45.245-2.444 1.284a1 1 0 0 1-1.45-1.054l.466-2.72a1 1 0 0 0-.288-.886l-1.977-1.927a1 1 0 0 1 .555-1.706l2.732-.396a1 1 0 0 0 .753-.548l1.221-2.475a1 1 0 0 1 1.794 0l1.221 2.475a1 1 0 0 0 .753.548l2.732.396a1 1 0 0 1 .555 1.706L84.18 41.87a1 1 0 0 0-.288.885l.467 2.721a1 1 0 0 1-1.451 1.054l-2.444-1.284a1 1 0 0 0-.93 0Z"/><path fill="#FF9A00" d="m25.535 45.245-2.444 1.284a1 1 0 0 1-1.45-1.054l.466-2.72a1 1 0 0 0-.288-.886l-1.977-1.927a1 1 0 0 1 .555-1.706l2.732-.396a1 1 0 0 0 .753-.548l1.221-2.475a1 1 0 0 1 1.794 0l1.221 2.475a1 1 0 0 0 .753.548l2.732.396a1 1 0 0 1 .555 1.706L30.18 41.87a1 1 0 0 0-.288.885l.467 2.721a1 1 0 0 1-1.451 1.054l-2.444-1.284a1 1 0 0 0-.93 0ZM61.535 45.245l-2.444 1.284a1 1 0 0 1-1.45-1.054l.466-2.72a1 1 0 0 0-.288-.886l-1.977-1.927a1 1 0 0 1 .555-1.706l2.732-.396a1 1 0 0 0 .753-.548l1.221-2.475a1 1 0 0 1 1.794 0l1.221 2.475a1 1 0 0 0 .753.548l2.732.396a1 1 0 0 1 .555 1.706L66.18 41.87a1 1 0 0 0-.288.885l.467 2.721a1 1 0 0 1-1.451 1.054l-2.444-1.284a1 1 0 0 0-.93 0Z"/><text fill="gray" font-family="JetBrainsMonoRoman-Medium, JetBrains Mono" font-size="14" font-weight="400">
                <tspan x="96" y="46">8</tspan>
            </text><path fill="#FF9A00" d="m7.535 109.245-2.444 1.284a1 1 0 0 1-1.45-1.054l.466-2.72a1 1 0 0 0-.288-.886l-1.977-1.927a1 1 0 0 1 .555-1.706l2.732-.396a1 1 0 0 0 .753-.548l1.221-2.475a1 1 0 0 1 1.794 0l1.221 2.475a1 1 0 0 0 .753.548l2.732.396a1 1 0 0 1 .555 1.706l-1.977 1.927a1 1 0 0 0-.288.885l.467 2.721a1 1 0 0 1-1.451 1.054l-2.444-1.284a1 1 0 0 0-.93 0Z"/><path fill="#BFBFBF" d="m43.535 109.245-2.444 1.284a1 1 0 0 1-1.45-1.054l.466-2.72a1 1 0 0 0-.288-.886l-1.977-1.927a1 1 0 0 1 .555-1.706l2.732-.396a1 1 0 0 0 .753-.548l1.221-2.475a1 1 0 0 1 1.794 0l1.221 2.475a1 1 0 0 0 .753.548l2.732.396a1 1 0 0 1 .555 1.706l-1.977 1.927a1 1 0 0 0-.288.885l.467 2.721a1 1 0 0 1-1.451 1.054l-2.444-1.284a1 1 0 0 0-.93 0ZM79.535 109.245l-2.444 1.284a1 1 0 0 1-1.45-1.054l.466-2.72a1 1 0 0 0-.288-.886l-1.977-1.927a1 1 0 0 1 .555-1.706l2.732-.396a1 1 0 0 0 .753-.548l1.221-2.475a1 1 0 0 1 1.794 0l1.221 2.475a1 1 0 0 0 .753.548l2.732.396a1 1 0 0 1 .555 1.706l-1.977 1.927a1 1 0 0 0-.288.885l.467 2.721a1 1 0 0 1-1.451 1.054l-2.444-1.284a1 1 0 0 0-.93 0Z"/><path fill="#FF9A00" d="m25.535 109.245-2.444 1.284a1 1 0 0 1-1.45-1.054l.466-2.72a1 1 0 0 0-.288-.886l-1.977-1.927a1 1 0 0 1 .555-1.706l2.732-.396a1 1 0 0 0 .753-.548l1.221-2.475a1 1 0 0 1 1.794 0l1.221 2.475a1 1 0 0 0 .753.548l2.732.396a1 1 0 0 1 .555 1.706l-1.977 1.927a1 1 0 0 0-.288.885l.467 2.721a1 1 0 0 1-1.451 1.054l-2.444-1.284a1 1 0 0 0-.93 0Z"/><path fill="#BFBFBF" d="m61.535 109.245-2.444 1.284a1 1 0 0 1-1.45-1.054l.466-2.72a1 1 0 0 0-.288-.886l-1.977-1.927a1 1 0 0 1 .555-1.706l2.732-.396a1 1 0 0 0 .753-.548l1.221-2.475a1 1 0 0 1 1.794 0l1.221 2.475a1 1 0 0 0 .753.548l2.732.396a1 1 0 0 1 .555 1.706l-1.977 1.927a1 1 0 0 0-.288.885l.467 2.721a1 1 0 0 1-1.451 1.054l-2.444-1.284a1 1 0 0 0-.93 0Z"/><text fill="gray" font-family="JetBrainsMonoRoman-Medium, JetBrains Mono" font-size="14" font-weight="400">
                <tspan x="96" y="110">4</tspan>
            </text><g transform="translate(0 145)"><mask id="b" fill="#fff"><use xlink:href="#a"/></mask><use xlink:href="#a" fill="#FF9A00"/><path fill="#BFBFBF" d="M8 0h11v16H8z" mask="url(#b)"/></g><path fill="#BFBFBF" d="m43.535 157.245-2.444 1.284a1 1 0 0 1-1.45-1.054l.466-2.72a1 1 0 0 0-.288-.886l-1.977-1.927a1 1 0 0 1 .555-1.706l2.732-.396a1 1 0 0 0 .753-.548l1.221-2.475a1 1 0 0 1 1.794 0l1.221 2.475a1 1 0 0 0 .753.548l2.732.396a1 1 0 0 1 .555 1.706l-1.977 1.927a1 1 0 0 0-.288.885l.467 2.721a1 1 0 0 1-1.451 1.054l-2.444-1.284a1 1 0 0 0-.93 0ZM79.535 157.245l-2.444 1.284a1 1 0 0 1-1.45-1.054l.466-2.72a1 1 0 0 0-.288-.886l-1.977-1.927a1 1 0 0 1 .555-1.706l2.732-.396a1 1 0 0 0 .753-.548l1.221-2.475a1 1 0 0 1 1.794 0l1.221 2.475a1 1 0 0 0 .753.548l2.732.396a1 1 0 0 1 .555 1.706l-1.977 1.927a1 1 0 0 0-.288.885l.467 2.721a1 1 0 0 1-1.451 1.054l-2.444-1.284a1 1 0 0 0-.93 0ZM25.535 157.245l-2.444 1.284a1 1 0 0 1-1.45-1.054l.466-2.72a1 1 0 0 0-.288-.886l-1.977-1.927a1 1 0 0 1 .555-1.706l2.732-.396a1 1 0 0 0 .753-.548l1.221-2.475a1 1 0 0 1 1.794 0l1.221 2.475a1 1 0 0 0 .753.548l2.732.396a1 1 0 0 1 .555 1.706l-1.977 1.927a1 1 0 0 0-.288.885l.467 2.721a1 1 0 0 1-1.451 1.054l-2.444-1.284a1 1 0 0 0-.93 0ZM61.535 157.245l-2.444 1.284a1 1 0 0 1-1.45-1.054l.466-2.72a1 1 0 0 0-.288-.886l-1.977-1.927a1 1 0 0 1 .555-1.706l2.732-.396a1 1 0 0 0 .753-.548l1.221-2.475a1 1 0 0 1 1.794 0l1.221 2.475a1 1 0 0 0 .753.548l2.732.396a1 1 0 0 1 .555 1.706l-1.977 1.927a1 1 0 0 0-.288.885l.467 2.721a1 1 0 0 1-1.451 1.054l-2.444-1.284a1 1 0 0 0-.93 0Z"/><text fill="gray" font-family="JetBrainsMonoRoman-Medium, JetBrains Mono" font-size="14" font-weight="400">
                <tspan x="96" y="158">1</tspan>
            </text><g fill="#FF9A00"><path d="M7.535 13.245 5.09 14.529a1 1 0 0 1-1.45-1.054l.466-2.72a1 1 0 0 0-.288-.886L1.842 7.942a1 1 0 0 1 .555-1.706l2.732-.396a1 1 0 0 0 .753-.548l1.221-2.475a1 1 0 0 1 1.794 0l1.221 2.475a1 1 0 0 0 .753.548l2.732.396a1 1 0 0 1 .555 1.706L12.18 9.87a1 1 0 0 0-.288.885l.467 2.721a1 1 0 0 1-1.451 1.054l-2.444-1.284a1 1 0 0 0-.93 0ZM43.535 13.245l-2.444 1.284a1 1 0 0 1-1.45-1.054l.466-2.72a1 1 0 0 0-.288-.886l-1.977-1.927a1 1 0 0 1 .555-1.706l2.732-.396a1 1 0 0 0 .753-.548l1.221-2.475a1 1 0 0 1 1.794 0l1.221 2.475a1 1 0 0 0 .753.548l2.732.396a1 1 0 0 1 .555 1.706L48.18 9.87a1 1 0 0 0-.288.885l.467 2.721a1 1 0 0 1-1.451 1.054l-2.444-1.284a1 1 0 0 0-.93 0ZM79.535 13.245l-2.444 1.284a1 1 0 0 1-1.45-1.054l.466-2.72a1 1 0 0 0-.288-.886l-1.977-1.927a1 1 0 0 1 .555-1.706l2.732-.396a1 1 0 0 0 .753-.548l1.221-2.475a1 1 0 0 1 1.794 0l1.221 2.475a1 1 0 0 0 .753.548l2.732.396a1 1 0 0 1 .555 1.706L84.18 9.87a1 1 0 0 0-.288.885l.467 2.721a1 1 0 0 1-1.451 1.054l-2.444-1.284a1 1 0 0 0-.93 0ZM25.535 13.245l-2.444 1.284a1 1 0 0 1-1.45-1.054l.466-2.72a1 1 0 0 0-.288-.886l-1.977-1.927a1 1 0 0 1 .555-1.706l2.732-.396a1 1 0 0 0 .753-.548l1.221-2.475a1 1 0 0 1 1.794 0l1.221 2.475a1 1 0 0 0 .753.548l2.732.396a1 1 0 0 1 .555 1.706L30.18 9.87a1 1 0 0 0-.288.885l.467 2.721a1 1 0 0 1-1.451 1.054l-2.444-1.284a1 1 0 0 0-.93 0ZM61.535 13.245l-2.444 1.284a1 1 0 0 1-1.45-1.054l.466-2.72a1 1 0 0 0-.288-.886l-1.977-1.927a1 1 0 0 1 .555-1.706l2.732-.396a1 1 0 0 0 .753-.548l1.221-2.475a1 1 0 0 1 1.794 0l1.221 2.475a1 1 0 0 0 .753.548l2.732.396a1 1 0 0 1 .555 1.706L66.18 9.87a1 1 0 0 0-.288.885l.467 2.721a1 1 0 0 1-1.451 1.054l-2.444-1.284a1 1 0 0 0-.93 0Z"/></g><text fill="gray" font-family="JetBrainsMonoRoman-Medium, JetBrains Mono" font-size="14" font-weight="400">
                <tspan x="96" y="14">10</tspan>
            </text><text fill="gray" font-family="JetBrainsMonoRoman-Medium, JetBrains Mono" font-size="14" font-weight="400">
                <tspan x="96" y="30">9</tspan>
            </text><path fill="#FF9A00" d="M7.535 29.245 5.09 30.529a1 1 0 0 1-1.45-1.054l.466-2.72a1 1 0 0 0-.288-.886l-1.977-1.927a1 1 0 0 1 .555-1.706l2.732-.396a1 1 0 0 0 .753-.548l1.221-2.475a1 1 0 0 1 1.794 0l1.221 2.475a1 1 0 0 0 .753.548l2.732.396a1 1 0 0 1 .555 1.706L12.18 25.87a1 1 0 0 0-.288.885l.467 2.721a1 1 0 0 1-1.451 1.054l-2.444-1.284a1 1 0 0 0-.93 0ZM43.535 29.245l-2.444 1.284a1 1 0 0 1-1.45-1.054l.466-2.72a1 1 0 0 0-.288-.886l-1.977-1.927a1 1 0 0 1 .555-1.706l2.732-.396a1 1 0 0 0 .753-.548l1.221-2.475a1 1 0 0 1 1.794 0l1.221 2.475a1 1 0 0 0 .753.548l2.732.396a1 1 0 0 1 .555 1.706L48.18 25.87a1 1 0 0 0-.288.885l.467 2.721a1 1 0 0 1-1.451 1.054l-2.444-1.284a1 1 0 0 0-.93 0Z"/><g transform="translate(72 17)"><mask id="d" fill="#fff"><use xlink:href="#c"/></mask><use xlink:href="#c" fill="#FF9A00"/><path fill="#BFBFBF" d="M8 0h10v16H8z" mask="url(#d)"/></g><path fill="#FF9A00" d="m25.535 29.245-2.444 1.284a1 1 0 0 1-1.45-1.054l.466-2.72a1 1 0 0 0-.288-.886l-1.977-1.927a1 1 0 0 1 .555-1.706l2.732-.396a1 1 0 0 0 .753-.548l1.221-2.475a1 1 0 0 1 1.794 0l1.221 2.475a1 1 0 0 0 .753.548l2.732.396a1 1 0 0 1 .555 1.706L30.18 25.87a1 1 0 0 0-.288.885l.467 2.721a1 1 0 0 1-1.451 1.054l-2.444-1.284a1 1 0 0 0-.93 0ZM61.535 29.245l-2.444 1.284a1 1 0 0 1-1.45-1.054l.466-2.72a1 1 0 0 0-.288-.886l-1.977-1.927a1 1 0 0 1 .555-1.706l2.732-.396a1 1 0 0 0 .753-.548l1.221-2.475a1 1 0 0 1 1.794 0l1.221 2.475a1 1 0 0 0 .753.548l2.732.396a1 1 0 0 1 .555 1.706L66.18 25.87a1 1 0 0 0-.288.885l.467 2.721a1 1 0 0 1-1.451 1.054l-2.444-1.284a1 1 0 0 0-.93 0Z"/><text fill="gray" font-family="JetBrainsMonoRoman-Medium, JetBrains Mono" font-size="14" font-weight="400">
                <tspan x="96" y="62">7</tspan>
            </text><path fill="#FF9A00" d="M7.535 61.245 5.09 62.529a1 1 0 0 1-1.45-1.054l.466-2.72a1 1 0 0 0-.288-.886l-1.977-1.927a1 1 0 0 1 .555-1.706l2.732-.396a1 1 0 0 0 .753-.548l1.221-2.475a1 1 0 0 1 1.794 0l1.221 2.475a1 1 0 0 0 .753.548l2.732.396a1 1 0 0 1 .555 1.706L12.18 57.87a1 1 0 0 0-.288.885l.467 2.721a1 1 0 0 1-1.451 1.054l-2.444-1.284a1 1 0 0 0-.93 0ZM43.535 61.245l-2.444 1.284a1 1 0 0 1-1.45-1.054l.466-2.72a1 1 0 0 0-.288-.886l-1.977-1.927a1 1 0 0 1 .555-1.706l2.732-.396a1 1 0 0 0 .753-.548l1.221-2.475a1 1 0 0 1 1.794 0l1.221 2.475a1 1 0 0 0 .753.548l2.732.396a1 1 0 0 1 .555 1.706L48.18 57.87a1 1 0 0 0-.288.885l.467 2.721a1 1 0 0 1-1.451 1.054l-2.444-1.284a1 1 0 0 0-.93 0Z"/><path fill="#BFBFBF" d="m79.535 61.245-2.444 1.284a1 1 0 0 1-1.45-1.054l.466-2.72a1 1 0 0 0-.288-.886l-1.977-1.927a1 1 0 0 1 .555-1.706l2.732-.396a1 1 0 0 0 .753-.548l1.221-2.475a1 1 0 0 1 1.794 0l1.221 2.475a1 1 0 0 0 .753.548l2.732.396a1 1 0 0 1 .555 1.706L84.18 57.87a1 1 0 0 0-.288.885l.467 2.721a1 1 0 0 1-1.451 1.054l-2.444-1.284a1 1 0 0 0-.93 0Z"/><path fill="#FF9A00" d="m25.535 61.245-2.444 1.284a1 1 0 0 1-1.45-1.054l.466-2.72a1 1 0 0 0-.288-.886l-1.977-1.927a1 1 0 0 1 .555-1.706l2.732-.396a1 1 0 0 0 .753-.548l1.221-2.475a1 1 0 0 1 1.794 0l1.221 2.475a1 1 0 0 0 .753.548l2.732.396a1 1 0 0 1 .555 1.706L30.18 57.87a1 1 0 0 0-.288.885l.467 2.721a1 1 0 0 1-1.451 1.054l-2.444-1.284a1 1 0 0 0-.93 0Z"/><g transform="translate(54 49)"><mask id="f" fill="#fff"><use xlink:href="#e"/></mask><use xlink:href="#e" fill="#FF9A00"/><path fill="#BFBFBF" d="M8 0h7v16H8z" mask="url(#f)"/></g><text fill="gray" font-family="JetBrainsMonoRoman-Medium, JetBrains Mono" font-size="14" font-weight="400">
                <tspan x="96" y="78">6</tspan>
            </text><path fill="#FF9A00" d="M7.535 77.245 5.09 78.529a1 1 0 0 1-1.45-1.054l.466-2.72a1 1 0 0 0-.288-.886l-1.977-1.927a1 1 0 0 1 .555-1.706l2.732-.396a1 1 0 0 0 .753-.548l1.221-2.475a1 1 0 0 1 1.794 0l1.221 2.475a1 1 0 0 0 .753.548l2.732.396a1 1 0 0 1 .555 1.706L12.18 73.87a1 1 0 0 0-.288.885l.467 2.721a1 1 0 0 1-1.451 1.054l-2.444-1.284a1 1 0 0 0-.93 0ZM43.535 77.245l-2.444 1.284a1 1 0 0 1-1.45-1.054l.466-2.72a1 1 0 0 0-.288-.886l-1.977-1.927a1 1 0 0 1 .555-1.706l2.732-.396a1 1 0 0 0 .753-.548l1.221-2.475a1 1 0 0 1 1.794 0l1.221 2.475a1 1 0 0 0 .753.548l2.732.396a1 1 0 0 1 .555 1.706L48.18 73.87a1 1 0 0 0-.288.885l.467 2.721a1 1 0 0 1-1.451 1.054l-2.444-1.284a1 1 0 0 0-.93 0Z"/><path fill="#BFBFBF" d="m79.535 77.245-2.444 1.284a1 1 0 0 1-1.45-1.054l.466-2.72a1 1 0 0 0-.288-.886l-1.977-1.927a1 1 0 0 1 .555-1.706l2.732-.396a1 1 0 0 0 .753-.548l1.221-2.475a1 1 0 0 1 1.794 0l1.221 2.475a1 1 0 0 0 .753.548l2.732.396a1 1 0 0 1 .555 1.706L84.18 73.87a1 1 0 0 0-.288.885l.467 2.721a1 1 0 0 1-1.451 1.054l-2.444-1.284a1 1 0 0 0-.93 0Z"/><path fill="#FF9A00" d="m25.535 77.245-2.444 1.284a1 1 0 0 1-1.45-1.054l.466-2.72a1 1 0 0 0-.288-.886l-1.977-1.927a1 1 0 0 1 .555-1.706l2.732-.396a1 1 0 0 0 .753-.548l1.221-2.475a1 1 0 0 1 1.794 0l1.221 2.475a1 1 0 0 0 .753.548l2.732.396a1 1 0 0 1 .555 1.706L30.18 73.87a1 1 0 0 0-.288.885l.467 2.721a1 1 0 0 1-1.451 1.054l-2.444-1.284a1 1 0 0 0-.93 0Z"/><path fill="#BFBFBF" d="m61.535 77.245-2.444 1.284a1 1 0 0 1-1.45-1.054l.466-2.72a1 1 0 0 0-.288-.886l-1.977-1.927a1 1 0 0 1 .555-1.706l2.732-.396a1 1 0 0 0 .753-.548l1.221-2.475a1 1 0 0 1 1.794 0l1.221 2.475a1 1 0 0 0 .753.548l2.732.396a1 1 0 0 1 .555 1.706L66.18 73.87a1 1 0 0 0-.288.885l.467 2.721a1 1 0 0 1-1.451 1.054l-2.444-1.284a1 1 0 0 0-.93 0Z"/><text fill="gray" font-family="JetBrainsMonoRoman-Medium, JetBrains Mono" font-size="14" font-weight="400">
                <tspan x="96" y="94">5</tspan>
            </text><path fill="#FF9A00" d="M7.535 93.245 5.09 94.529a1 1 0 0 1-1.45-1.054l.466-2.72a1 1 0 0 0-.288-.886l-1.977-1.927a1 1 0 0 1 .555-1.706l2.732-.396a1 1 0 0 0 .753-.548l1.221-2.475a1 1 0 0 1 1.794 0l1.221 2.475a1 1 0 0 0 .753.548l2.732.396a1 1 0 0 1 .555 1.706L12.18 89.87a1 1 0 0 0-.288.885l.467 2.721a1 1 0 0 1-1.451 1.054l-2.444-1.284a1 1 0 0 0-.93 0Z"/><g transform="translate(36 81)"><mask id="h" fill="#fff"><use xlink:href="#g"/></mask><use xlink:href="#g" fill="#FF9A00"/><path fill="#BFBFBF" d="M8 0h9v16H8z" mask="url(#h)"/></g><path fill="#BFBFBF" d="m79.535 93.245-2.444 1.284a1 1 0 0 1-1.45-1.054l.466-2.72a1 1 0 0 0-.288-.886l-1.977-1.927a1 1 0 0 1 .555-1.706l2.732-.396a1 1 0 0 0 .753-.548l1.221-2.475a1 1 0 0 1 1.794 0l1.221 2.475a1 1 0 0 0 .753.548l2.732.396a1 1 0 0 1 .555 1.706L84.18 89.87a1 1 0 0 0-.288.885l.467 2.721a1 1 0 0 1-1.451 1.054l-2.444-1.284a1 1 0 0 0-.93 0Z"/><path fill="#FF9A00" d="m25.535 93.245-2.444 1.284a1 1 0 0 1-1.45-1.054l.466-2.72a1 1 0 0 0-.288-.886l-1.977-1.927a1 1 0 0 1 .555-1.706l2.732-.396a1 1 0 0 0 .753-.548l1.221-2.475a1 1 0 0 1 1.794 0l1.221 2.475a1 1 0 0 0 .753.548l2.732.396a1 1 0 0 1 .555 1.706L30.18 89.87a1 1 0 0 0-.288.885l.467 2.721a1 1 0 0 1-1.451 1.054l-2.444-1.284a1 1 0 0 0-.93 0Z"/><path fill="#BFBFBF" d="m61.535 93.245-2.444 1.284a1 1 0 0 1-1.45-1.054l.466-2.72a1 1 0 0 0-.288-.886l-1.977-1.927a1 1 0 0 1 .555-1.706l2.732-.396a1 1 0 0 0 .753-.548l1.221-2.475a1 1 0 0 1 1.794 0l1.221 2.475a1 1 0 0 0 .753.548l2.732.396a1 1 0 0 1 .555 1.706L66.18 89.87a1 1 0 0 0-.288.885l.467 2.721a1 1 0 0 1-1.451 1.054l-2.444-1.284a1 1 0 0 0-.93 0Z"/><text fill="gray" font-family="JetBrainsMonoRoman-Medium, JetBrains Mono" font-size="14" font-weight="400">
                <tspan x="96" y="126">3</tspan>
            </text><path fill="#FF9A00" d="m7.535 125.245-2.444 1.284a1 1 0 0 1-1.45-1.054l.466-2.72a1 1 0 0 0-.288-.886l-1.977-1.927a1 1 0 0 1 .555-1.706l2.732-.396a1 1 0 0 0 .753-.548l1.221-2.475a1 1 0 0 1 1.794 0l1.221 2.475a1 1 0 0 0 .753.548l2.732.396a1 1 0 0 1 .555 1.706l-1.977 1.927a1 1 0 0 0-.288.885l.467 2.721a1 1 0 0 1-1.451 1.054l-2.444-1.284a1 1 0 0 0-.93 0Z"/><path fill="#BFBFBF" d="m43.535 125.245-2.444 1.284a1 1 0 0 1-1.45-1.054l.466-2.72a1 1 0 0 0-.288-.886l-1.977-1.927a1 1 0 0 1 .555-1.706l2.732-.396a1 1 0 0 0 .753-.548l1.221-2.475a1 1 0 0 1 1.794 0l1.221 2.475a1 1 0 0 0 .753.548l2.732.396a1 1 0 0 1 .555 1.706l-1.977 1.927a1 1 0 0 0-.288.885l.467 2.721a1 1 0 0 1-1.451 1.054l-2.444-1.284a1 1 0 0 0-.93 0ZM79.535 125.245l-2.444 1.284a1 1 0 0 1-1.45-1.054l.466-2.72a1 1 0 0 0-.288-.886l-1.977-1.927a1 1 0 0 1 .555-1.706l2.732-.396a1 1 0 0 0 .753-.548l1.221-2.475a1 1 0 0 1 1.794 0l1.221 2.475a1 1 0 0 0 .753.548l2.732.396a1 1 0 0 1 .555 1.706l-1.977 1.927a1 1 0 0 0-.288.885l.467 2.721a1 1 0 0 1-1.451 1.054l-2.444-1.284a1 1 0 0 0-.93 0Z"/><g transform="translate(18 113)"><mask id="j" fill="#fff"><use xlink:href="#i"/></mask><use xlink:href="#i" fill="#FF9A00"/><path fill="#BFBFBF" d="M8 0h9v16H8z" mask="url(#j)"/></g><path fill="#BFBFBF" d="m61.535 125.245-2.444 1.284a1 1 0 0 1-1.45-1.054l.466-2.72a1 1 0 0 0-.288-.886l-1.977-1.927a1 1 0 0 1 .555-1.706l2.732-.396a1 1 0 0 0 .753-.548l1.221-2.475a1 1 0 0 1 1.794 0l1.221 2.475a1 1 0 0 0 .753.548l2.732.396a1 1 0 0 1 .555 1.706l-1.977 1.927a1 1 0 0 0-.288.885l.467 2.721a1 1 0 0 1-1.451 1.054l-2.444-1.284a1 1 0 0 0-.93 0Z"/><text fill="gray" font-family="JetBrainsMonoRoman-Medium, JetBrains Mono" font-size="14" font-weight="400">
                <tspan x="96" y="142">2</tspan>
            </text><path fill="#FF9A00" d="m7.535 141.245-2.444 1.284a1 1 0 0 1-1.45-1.054l.466-2.72a1 1 0 0 0-.288-.886l-1.977-1.927a1 1 0 0 1 .555-1.706l2.732-.396a1 1 0 0 0 .753-.548l1.221-2.475a1 1 0 0 1 1.794 0l1.221 2.475a1 1 0 0 0 .753.548l2.732.396a1 1 0 0 1 .555 1.706l-1.977 1.927a1 1 0 0 0-.288.885l.467 2.721a1 1 0 0 1-1.451 1.054l-2.444-1.284a1 1 0 0 0-.93 0Z"/><path fill="#BFBFBF" d="m43.535 141.245-2.444 1.284a1 1 0 0 1-1.45-1.054l.466-2.72a1 1 0 0 0-.288-.886l-1.977-1.927a1 1 0 0 1 .555-1.706l2.732-.396a1 1 0 0 0 .753-.548l1.221-2.475a1 1 0 0 1 1.794 0l1.221 2.475a1 1 0 0 0 .753.548l2.732.396a1 1 0 0 1 .555 1.706l-1.977 1.927a1 1 0 0 0-.288.885l.467 2.721a1 1 0 0 1-1.451 1.054l-2.444-1.284a1 1 0 0 0-.93 0ZM79.535 141.245l-2.444 1.284a1 1 0 0 1-1.45-1.054l.466-2.72a1 1 0 0 0-.288-.886l-1.977-1.927a1 1 0 0 1 .555-1.706l2.732-.396a1 1 0 0 0 .753-.548l1.221-2.475a1 1 0 0 1 1.794 0l1.221 2.475a1 1 0 0 0 .753.548l2.732.396a1 1 0 0 1 .555 1.706l-1.977 1.927a1 1 0 0 0-.288.885l.467 2.721a1 1 0 0 1-1.451 1.054l-2.444-1.284a1 1 0 0 0-.93 0ZM25.535 141.245l-2.444 1.284a1 1 0 0 1-1.45-1.054l.466-2.72a1 1 0 0 0-.288-.886l-1.977-1.927a1 1 0 0 1 .555-1.706l2.732-.396a1 1 0 0 0 .753-.548l1.221-2.475a1 1 0 0 1 1.794 0l1.221 2.475a1 1 0 0 0 .753.548l2.732.396a1 1 0 0 1 .555 1.706l-1.977 1.927a1 1 0 0 0-.288.885l.467 2.721a1 1 0 0 1-1.451 1.054l-2.444-1.284a1 1 0 0 0-.93 0ZM61.535 141.245l-2.444 1.284a1 1 0 0 1-1.45-1.054l.466-2.72a1 1 0 0 0-.288-.886l-1.977-1.927a1 1 0 0 1 .555-1.706l2.732-.396a1 1 0 0 0 .753-.548l1.221-2.475a1 1 0 0 1 1.794 0l1.221 2.475a1 1 0 0 0 .753.548l2.732.396a1 1 0 0 1 .555 1.706l-1.977 1.927a1 1 0 0 0-.288.885l.467 2.721a1 1 0 0 1-1.451 1.054l-2.444-1.284a1 1 0 0 0-.93 0Z"/><text fill="gray" font-family="JetBrainsMonoRoman-Medium, JetBrains Mono" font-size="14" font-weight="400">
                <tspan x="96" y="174">0</tspan>
            </text><g fill="#BFBFBF"><path d="m7.535 173.245-2.444 1.284a1 1 0 0 1-1.45-1.054l.466-2.72a1 1 0 0 0-.288-.886l-1.977-1.927a1 1 0 0 1 .555-1.706l2.732-.396a1 1 0 0 0 .753-.548l1.221-2.475a1 1 0 0 1 1.794 0l1.221 2.475a1 1 0 0 0 .753.548l2.732.396a1 1 0 0 1 .555 1.706l-1.977 1.927a1 1 0 0 0-.288.885l.467 2.721a1 1 0 0 1-1.451 1.054l-2.444-1.284a1 1 0 0 0-.93 0ZM43.535 173.245l-2.444 1.284a1 1 0 0 1-1.45-1.054l.466-2.72a1 1 0 0 0-.288-.886l-1.977-1.927a1 1 0 0 1 .555-1.706l2.732-.396a1 1 0 0 0 .753-.548l1.221-2.475a1 1 0 0 1 1.794 0l1.221 2.475a1 1 0 0 0 .753.548l2.732.396a1 1 0 0 1 .555 1.706l-1.977 1.927a1 1 0 0 0-.288.885l.467 2.721a1 1 0 0 1-1.451 1.054l-2.444-1.284a1 1 0 0 0-.93 0ZM79.535 173.245l-2.444 1.284a1 1 0 0 1-1.45-1.054l.466-2.72a1 1 0 0 0-.288-.886l-1.977-1.927a1 1 0 0 1 .555-1.706l2.732-.396a1 1 0 0 0 .753-.548l1.221-2.475a1 1 0 0 1 1.794 0l1.221 2.475a1 1 0 0 0 .753.548l2.732.396a1 1 0 0 1 .555 1.706l-1.977 1.927a1 1 0 0 0-.288.885l.467 2.721a1 1 0 0 1-1.451 1.054l-2.444-1.284a1 1 0 0 0-.93 0ZM25.535 173.245l-2.444 1.284a1 1 0 0 1-1.45-1.054l.466-2.72a1 1 0 0 0-.288-.886l-1.977-1.927a1 1 0 0 1 .555-1.706l2.732-.396a1 1 0 0 0 .753-.548l1.221-2.475a1 1 0 0 1 1.794 0l1.221 2.475a1 1 0 0 0 .753.548l2.732.396a1 1 0 0 1 .555 1.706l-1.977 1.927a1 1 0 0 0-.288.885l.467 2.721a1 1 0 0 1-1.451 1.054l-2.444-1.284a1 1 0 0 0-.93 0ZM61.535 173.245l-2.444 1.284a1 1 0 0 1-1.45-1.054l.466-2.72a1 1 0 0 0-.288-.886l-1.977-1.927a1 1 0 0 1 .555-1.706l2.732-.396a1 1 0 0 0 .753-.548l1.221-2.475a1 1 0 0 1 1.794 0l1.221 2.475a1 1 0 0 0 .753.548l2.732.396a1 1 0 0 1 .555 1.706l-1.977 1.927a1 1 0 0 0-.288.885l.467 2.721a1 1 0 0 1-1.451 1.054l-2.444-1.284a1 1 0 0 0-.93 0Z"/></g></g></svg>