<?xml version="1.0" encoding="UTF-8"?>
<svg width="24px" height="24px" viewBox="0 0 24 24" version="1.1" xmlns="http://www.w3.org/2000/svg" xmlns:xlink="http://www.w3.org/1999/xlink">
    <title>形状</title>
    <g id="页面-1" stroke="none" stroke-width="1" fill="none" fill-rule="evenodd">
        <path d="M12.0013063,0 C8.74202327,0 8.3330144,0.014437124 7.05304832,0.0728731023 C5.77548857,0.13130908 4.90350008,0.333428817 4.14048436,0.630421083 C3.35127393,0.937038098 2.68176167,1.34677743 2.0147245,2.01432254 C1.34720607,2.68118018 0.937234658,3.35078774 0.629704536,4.1393297 C0.332212285,4.90243483 0.129736048,5.77484961 0.0722589221,7.05219135 C0.0149880542,8.33159553 0,8.74133486 0,12 C0,15.2586651 0.0145067864,15.666342 0.0724651797,16.9464337 C0.131248603,18.2237754 0.333449831,19.0961902 0.629979546,19.8592953 C0.93675339,20.6485248 1.3467248,21.3174449 2.01396822,21.98499 C2.68073038,22.6525351 3.35024264,23.0629619 4.13897181,23.3695789 C4.90253754,23.6665712 5.77473229,23.8686909 7.05201703,23.9271269 C8.33205186,23.9855629 8.74078573,24 11.9992437,24 C15.2588018,24 15.6665043,23.9855629 16.9466767,23.9271269 C18.2240989,23.8686909 19.0972562,23.6665712 19.8604094,23.3695789 C20.6496886,23.0629619 21.3179633,22.6525351 21.984863,21.98499 C22.6524502,21.3174449 23.0622153,20.6485248 23.3695392,19.8592953 C23.6651751,19.0961902 23.8673076,18.2237754 23.9271223,16.9471212 C23.9848744,15.6670295 24,15.2586651 24,12 C24,8.74133486 23.9848744,8.33228301 23.9271223,7.05219135 C23.8673076,5.77484961 23.6651751,4.90243483 23.3695392,4.14001719 C23.0622153,3.35078774 22.6524502,2.68118018 21.984863,2.01432254 C21.3172758,1.34677743 20.6496886,0.936350616 19.8597219,0.630421083 C19.0951936,0.333428817 18.2220363,0.13130908 16.9446141,0.0728731023 C15.6651293,0.014437124 15.2574267,0 11.9971811,0 L12.0013063,0 Z M10.9246415,2.16281868 C11.2443408,2.16213119 11.600479,2.16281868 12.0013063,2.16281868 C15.2051748,2.16281868 15.5846888,2.17450587 16.8504231,2.23156689 C18.0199039,2.28519049 18.6551774,2.48043541 19.0780055,2.64474363 C19.6383387,2.86267545 20.0371035,3.12254368 20.4571815,3.54259524 C20.8772595,3.96264681 21.1371441,4.36276139 21.3550897,4.92237181 C21.5194083,5.3451733 21.715353,5.97971928 21.7682925,7.14981381 C21.8260446,8.41478087 21.8384201,8.79495846 21.8384201,11.9972501 C21.8384201,15.1995417 21.8260446,15.5797193 21.7682925,16.8446863 C21.7146655,18.0147809 21.5194083,18.6493268 21.3550897,19.0721283 C21.1378317,19.6317388 20.8772595,20.0304784 20.4571815,20.4505299 C20.0371035,20.8705815 19.6383387,21.1304497 19.0780055,21.3476941 C18.6558649,21.5126898 18.0199039,21.7079347 16.8504231,21.7615583 C15.5853763,21.8193068 15.2051748,21.8316815 12.0013063,21.8316815 C8.7967503,21.8316815 8.41703,21.8193068 7.15205198,21.7615583 C5.98202121,21.7072472 5.34702273,21.5120023 4.92378208,21.3476941 C4.36372387,21.1304497 3.96372158,20.8705815 3.54378105,20.4505299 C3.12377176,20.0304784 2.86374965,19.6310513 2.64573534,19.0707534 C2.48148551,18.6486394 2.28574703,18.0134059 2.2324638,16.8433114 C2.17498668,15.5783443 2.163505,15.1988542 2.163505,11.9945001 C2.163505,8.79014609 2.17498668,8.41203094 2.2324638,7.14706388 C2.28602204,5.97696935 2.48148551,5.34173589 2.64573534,4.9189344 C2.86326838,4.35863649 3.12377176,3.9592094 3.54378105,3.53915783 C3.96372158,3.11910627 4.36372387,2.85923804 4.92378208,2.64130622 C5.34674772,2.47631051 5.98202121,2.2810656 7.15205198,2.22744199 C8.25903666,2.1772558 8.68805253,2.16213119 10.9246415,2.16006875 L10.9246415,2.16281868 Z M18.4062931,4.15514179 C17.6115138,4.15514179 16.9666149,4.79931252 16.9666149,5.5947293 C16.9666149,6.38945861 17.6115138,7.03431681 18.4062931,7.03431681 C19.2017601,7.03431681 19.8466589,6.38945861 19.8466589,5.5947293 C19.8466589,4.8 19.2017601,4.15445431 18.4062931,4.15445431 L18.4062931,4.15514179 Z M12.0013063,5.83741048 C8.59778044,5.83741048 5.83853465,8.59696362 5.83853465,12 C5.83853465,15.4030364 8.59778044,18.1612146 12.0013063,18.1612146 C15.4045571,18.1612146 18.1629091,15.4030364 18.1629091,12 C18.1629091,8.59696362 15.4038696,5.83741048 12.0006188,5.83741048 L12.0013063,5.83741048 Z M12.0013063,8.00022916 C14.2103255,8.00022916 16.0013292,9.79112002 16.0013292,12 C16.0013292,14.20888 14.2103255,15.9997708 12.0013063,15.9997708 C9.79159959,15.9997708 8.00100837,14.20888 8.00100837,12 C8.00100837,9.79112002 9.79159959,8.00022916 12.0013063,8.00022916 Z" id="形状" fill="#000000" fill-rule="nonzero"></path>
    </g>
</svg>