<?xml version="1.0" encoding="UTF-8"?>
<svg width="24px" height="20px" viewBox="0 0 24 20" version="1.1" xmlns="http://www.w3.org/2000/svg" xmlns:xlink="http://www.w3.org/1999/xlink">
    <title>形状</title>
    <g id="页面-1" stroke="none" stroke-width="1" fill="none" fill-rule="evenodd">
        <path d="M22.3795965,0.132249996 L1.12071656,8.27916027 C-0.330725415,8.85732338 -0.321897587,9.6620738 0.855881733,10.0202279 L6.15846346,11.6648133 L8.18665683,17.8440686 C8.43310034,18.5209068 8.31171771,18.7891569 9.02677174,18.7891569 C9.57851096,18.7891569 9.82348318,18.53918 10.1302502,18.2409618 C10.3259337,18.0509208 11.4860574,16.93041 12.781541,15.6790633 L18.2967263,19.727667 C19.3111908,20.2839023 20.0439005,19.9959171 20.2969649,18.7913497 L23.9171098,1.84042596 C24.2878785,0.363953796 23.3506575,-0.305575166 22.3795965,0.132249996 Z M6.9904862,11.2869241 L18.9411577,3.79492426 C19.5377717,3.4360392 20.085097,3.62900388 19.6356134,4.02516621 L9.40269006,13.1990287 L9.00396652,17.4208619 L6.9904862,11.2869241 Z" id="形状" fill="#000000" fill-rule="nonzero"></path>
    </g>
</svg>