<?xml version="1.0" encoding="UTF-8"?>
<svg width="24px" height="21px" viewBox="0 0 24 21" version="1.1" xmlns="http://www.w3.org/2000/svg" xmlns:xlink="http://www.w3.org/1999/xlink">
    <title>路径</title>
    <g id="页面-1" stroke="none" stroke-width="1" fill="none" fill-rule="evenodd">
        <path d="M21.5446976,5.22612586 C21.5539921,5.45716591 21.5563158,5.68820596 21.5563158,5.91847587 C21.5563158,12.9189893 16.6038856,21 7.54792487,21 C4.76576518,21 2.17956496,20.1189673 0,18.6179771 C0.384948041,18.6595643 0.776092429,18.6911398 1.17343316,18.6911398 C3.48002324,18.6911398 5.60459562,17.8409124 7.29000194,16.4138551 C5.13522236,16.3822796 3.31582005,14.8397022 2.68843994,12.7403183 C2.9897373,12.8034693 3.30032918,12.8350447 3.61711741,12.8350447 C4.06480346,12.8350447 4.49854773,12.7718938 4.91525205,12.646362 C2.66055638,12.1634883 0.961982831,10.0225172 0.961982831,7.45104151 C0.961982831,7.41946604 0.961982831,7.40945431 0.961982831,7.3886607 C1.62654102,7.77680798 2.38714258,8.01785976 3.19499129,8.04943524 C1.87207126,7.09446971 1.00225908,5.46794778 1.00225908,3.6311794 C1.00225908,2.66543201 1.24469115,1.75205369 1.67068999,0.964977263 C4.09888337,4.17643392 7.72839347,6.28659968 11.8195314,6.50685786 C11.7358807,6.11871058 11.6925063,5.70899956 11.6925063,5.30005868 C11.6925063,2.37201115 13.8976312,0 16.6170529,0 C18.0329181,0 19.3124637,0.63998093 20.2093849,1.66887927 C21.3332473,1.43783923 22.3866262,0.997322869 23.33854,0.388147279 C22.9698574,1.62652193 22.1898922,2.66543201 21.1713677,3.31619481 C22.168205,3.18989291 23.1185697,2.90725392 24,2.48753117 C23.33854,3.54723485 22.5066804,4.48140678 21.5446976,5.22612586 Z" id="路径" fill="#000000"></path>
    </g>
</svg>