<?xml version="1.0" encoding="UTF-8"?>
<svg width="24px" height="19px" viewBox="0 0 24 19" version="1.1" xmlns="http://www.w3.org/2000/svg" xmlns:xlink="http://www.w3.org/1999/xlink">
    <title>weibo-website-logo</title>
    <g id="页面-1" stroke="none" stroke-width="1" fill="none" fill-rule="evenodd">
        <g id="weibo-website-logo" fill="#000000" fill-rule="nonzero">
            <path d="M19.3995407,9.75927199 C18.9893607,9.50612522 18.5294263,9.30106809 18.0207224,9.14405475 C17.9135232,9.10898461 17.8375084,9.08294561 17.7928655,9.06543347 C17.7482695,9.04796717 17.6944823,9.01532673 17.6322542,8.96728294 C17.569651,8.9191933 17.5493929,8.86459392 17.5720426,8.80357647 C17.5945047,8.74251318 17.6143877,8.6553192 17.6322542,8.54190285 C18.0336182,7.53848444 18.0336182,6.76189875 17.6322542,6.2121916 C17.2213708,5.67995075 16.5389254,5.41373864 15.5835582,5.41373864 C14.628566,5.41373864 13.5307354,5.67124052 12.2902539,6.18596922 L12.2096903,6.2121916 C12.1564659,6.2296579 12.0961136,6.24474035 12.0292899,6.25794322 C11.9621849,6.27114609 11.8974246,6.27320904 11.8350089,6.26454466 C11.772734,6.25592612 11.7280442,6.22539447 11.7012209,6.17299556 C11.6743977,6.12059666 11.6789933,6.03335684 11.7146794,5.91118441 C12.1161372,4.64590901 12.027039,3.73417723 11.4467752,3.17562232 C10.7863699,2.52996512 9.68633527,2.49943347 8.14653064,3.08407323 C6.60714805,3.66885051 5.08314663,4.6983996 3.57457326,6.17317894 C2.43214664,7.2900137 1.55068399,8.41565037 0.93037288,9.54999727 C0.310014874,10.6845275 0,11.7530893 0,12.7567828 C0,13.6990462 0.290085012,14.5694273 0.870114354,15.367972 C1.45042506,16.1665166 2.215638,16.8252391 3.16631589,17.3443688 C4.11675931,17.8633151 5.19015826,18.2693493 6.3861376,18.5616463 C7.58216382,18.8537598 8.8095151,19 10.0680039,19 C11.3265395,19 12.5336796,18.8648998 13.689424,18.5944242 C14.8451685,18.3238112 15.8539478,17.9618782 16.7150585,17.5080294 C17.5765444,17.0544557 18.3285333,16.5417899 18.9710721,15.970078 C19.6139391,15.3985494 20.1001809,14.8011652 20.4305945,14.1769169 C20.7608675,13.5531728 20.9261682,12.9444194 20.9261682,12.3512987 C20.9261682,11.7929271 20.7747012,11.2843414 20.4708763,10.8263668 C20.1676141,10.3677961 19.8103772,10.0122812 19.3995407,9.75927199 Z M15.028617,15.7611242 C13.7210304,16.7950284 12.0719633,17.4123544 10.08165,17.6130106 C8.77847141,17.7352289 7.55337103,17.6435881 6.4065364,17.33818 C5.25965487,17.0325426 4.32904752,16.5571933 3.6150895,15.9114903 C2.90103769,15.265558 2.50384726,14.5238132 2.42351819,13.6860725 C2.29845244,12.4121786 2.88987697,11.2583024 4.19746353,10.2243065 C5.50505009,9.19008143 7.15411727,8.57280124 9.14447747,8.37214507 C10.447656,8.24983511 11.6726626,8.34161342 12.8193097,8.64702156 C13.9660974,8.95238386 14.8968923,9.42791653 15.610991,10.0735737 C16.3251366,10.7194602 16.7221395,11.4612049 16.8023748,12.2988081 C16.9272061,13.5729312 16.3362036,14.7268074 15.028617,15.7611242 Z" id="形状"></path>
            <path d="M10.4699306,10.3356599 C9.52389516,10.0999795 8.58442489,10.1831392 7.65170732,10.5844516 C6.71889596,10.9857639 6.04292191,11.5919959 5.62336314,12.4036976 C5.20385125,13.2323613 5.17473021,14.0505269 5.53628136,14.8576442 C5.89783251,15.6648074 6.55598692,16.2166233 7.51107283,16.5135505 C8.50175113,16.8274855 9.50157372,16.7752241 10.5100717,16.3561704 C11.5186634,15.9373 12.2236647,15.2827951 12.6256852,14.3929764 C13.0270492,13.5202114 13.0159353,12.6892097 12.5919686,11.8994211 C12.1677673,11.1100452 11.4606089,10.588715 10.4699306,10.3356599 Z M9.03732515,14.5763496 C8.84093394,14.8728642 8.56205655,15.0802593 8.20036471,15.1979391 C7.83890734,15.3158939 7.50619587,15.3049374 7.20288681,15.1652987 C6.89948396,15.0256599 6.70759456,14.8053828 6.62726549,14.5041923 C6.54688952,14.2034143 6.60489715,13.9047451 6.80124146,13.6079097 C6.98858217,13.3197386 7.25643952,13.11922 7.60448527,13.0059412 C7.95271858,12.892479 8.27844288,12.8967424 8.58193952,13.0189607 C8.89434597,13.1496599 9.09533278,13.3680116 9.18457167,13.6732822 C9.27376366,13.9786445 9.22475965,14.2795142 9.03732515,14.5763496 Z M10.2957201,12.9922799 C10.2333045,13.1058796 10.1350151,13.1866555 10.0012271,13.2346534 C9.86734531,13.2826972 9.73782465,13.2847143 9.61294648,13.2412549 C9.3452767,13.1188991 9.28726908,12.9228272 9.43892361,12.6523059 C9.50138614,12.5387061 9.59733084,12.4581136 9.72666393,12.4099323 C9.85599701,12.3619343 9.98317298,12.3598714 10.1081918,12.4035142 C10.2242071,12.4469278 10.3022853,12.5278871 10.342567,12.6457044 C10.3827081,12.7632467 10.3671863,12.8791844 10.2957201,12.9922799 Z" id="形状"></path>
            <path d="M19.1318709,7.25306399 C19.2304417,7.44070066 19.3819086,7.56933699 19.5873034,7.6392022 C19.7927451,7.70026549 19.991059,7.68289088 20.1829953,7.5868033 C20.3749316,7.49094493 20.5066563,7.34259597 20.5781224,7.14180227 C20.7475497,6.65329594 20.7767645,6.14049266 20.6647821,5.60398838 C20.5534094,5.06743826 20.3101713,4.59396854 19.9355836,4.18385427 C19.5607146,3.77369416 19.1095963,3.48790696 18.5832135,3.32640097 C18.0565493,3.16498667 17.5254771,3.14105646 16.9901375,3.25447282 C16.7755984,3.29816149 16.6105792,3.40946905 16.4944232,3.58830381 C16.3785487,3.76709273 16.3429563,3.961285 16.3877398,4.1706514 C16.4233791,4.38010949 16.5347519,4.54152379 16.7219988,4.65494014 C16.9096209,4.7683565 17.1103732,4.80324326 17.3247716,4.75973795 C17.8872627,4.64627576 18.3643602,4.79902567 18.7573771,5.21780432 C19.1502533,5.63653713 19.2570773,6.12082588 19.0786933,6.67062471 C19.0156681,6.87128089 19.033816,7.06547316 19.1318709,7.25306399 Z" id="路径"></path>
            <path d="M23.8650491,4.96245708 C23.6371922,3.85877935 23.1353348,2.88800138 22.3587736,2.05039824 C21.5821185,1.2041307 20.6539028,0.617290473 19.5735167,0.289877541 C18.4936464,-0.0373978608 17.4050069,-0.0875046004 16.306848,0.139328106 C16.0568103,0.191727011 15.8626231,0.320363343 15.7242864,0.525512163 C15.5859497,0.730706825 15.5435578,0.955293209 15.5973449,1.19963806 C15.6508039,1.44398291 15.7844512,1.63372838 15.9989903,1.76896615 C16.2129198,1.90420392 16.4451378,1.94569211 16.6948473,1.89329321 C17.4715492,1.73632571 18.2437493,1.77345879 19.0112132,2.00460077 C19.7789115,2.23583443 20.4394575,2.65236676 20.9929449,3.25447282 C21.546151,3.84786864 21.9035286,4.53707699 22.0641868,5.32251045 C22.2249856,6.10771469 22.1803896,6.8581697 21.9303519,7.57364626 C21.8590733,7.80937257 21.8812541,8.03620528 21.9974569,8.2543736 C22.1133314,8.47249608 22.2917623,8.62075335 22.5327964,8.69937462 C22.7738774,8.77772084 23.0059079,8.76039207 23.2289817,8.64697572 C23.4521962,8.53355937 23.6039914,8.35907972 23.6844142,8.1234451 C24.0324131,7.11998085 24.0925778,6.06631818 23.8650491,4.96245708 Z" id="路径"></path>
        </g>
    </g>
</svg>