<svg xmlns="http://www.w3.org/2000/svg" xmlns:xlink="http://www.w3.org/1999/xlink" width="95" height="95" viewBox="0 0 95 95"><title>angry</title><defs><linearGradient id="d" x1="49.995%" x2="49.995%" y1="99.916%" y2="0%"><stop offset="0%" stop-color="#801400"/><stop offset="100%" stop-color="#2E0E03"/></linearGradient><linearGradient id="e" x1="44.671%" x2="56.517%" y1="63.051%" y2="39.86%"><stop offset="26%" stop-color="#8A2108"/><stop offset="31%" stop-color="#A02907"/><stop offset="37%" stop-color="#B63006"/><stop offset="44%" stop-color="#C73605"/><stop offset="53%" stop-color="#D23A04"/><stop offset="65%" stop-color="#D93C04"/><stop offset="100%" stop-color="#DB3D04"/></linearGradient><linearGradient id="f" x1="55.316%" x2="43.499%" y1="62.988%" y2="39.909%"><stop offset="26%" stop-color="#8A2108"/><stop offset="31%" stop-color="#A02907"/><stop offset="37%" stop-color="#B63006"/><stop offset="44%" stop-color="#C73605"/><stop offset="53%" stop-color="#D23A04"/><stop offset="65%" stop-color="#D93C04"/><stop offset="100%" stop-color="#DB3D04"/></linearGradient><radialGradient id="c" cx="50%" cy="50%" r="50%" fx="50%" fy="50%"><stop offset="0%" stop-color="#FFA926"/><stop offset="27%" stop-color="#FFA626"/><stop offset="48%" stop-color="#FF9C24"/><stop offset="68%" stop-color="#FF8B22"/><stop offset="87%" stop-color="#FF731F"/><stop offset="100%" stop-color="#FF5D1C"/></radialGradient><path id="a" d="M0 0h95v95H0z"/></defs><g fill="none" fill-rule="evenodd"><mask id="b" fill="#fff"><use xlink:href="#a"/></mask><g fill-rule="nonzero" mask="url(#b)"><g transform="translate(6 6)"><circle cx="41.5" cy="41.5" r="41.5" fill="url(#c)"/><path fill="url(#d)" d="M56.088 68.47a1.7 1.7 0 0 1-.156.684 1.514 1.514 0 0 1-1.484.84 250.91 250.91 0 0 0-13.739-.362c-4.287 0-8.388.098-12.196.283a1.504 1.504 0 0 1-1.592-1.132 1.777 1.777 0 0 1 0-.313c0-2.627 6.533-4.755 14.599-4.755 8.065 0 14.568 2.128 14.568 4.755Z"/><ellipse cx="25.281" cy="52.329" fill="#1A1A1A" rx="6.337" ry="6.581"/><path fill="url(#e)" d="M36.56 46.87a2.148 2.148 0 0 1-1.954 2.286 1.953 1.953 0 0 1-.41 0h-.107a80.647 80.647 0 0 1-10.507-2.305 75.344 75.344 0 0 1-10.048-3.681 1.387 1.387 0 1 1 1.025-2.578 75.579 75.579 0 0 0 17.665 3.857l.341-5.185a1.777 1.777 0 1 1 3.555 0l.44 7.607Z"/><ellipse cx="57.709" cy="52.329" fill="#1A1A1A" rx="6.337" ry="6.581"/><path fill="url(#f)" d="M46.402 46.87a2.148 2.148 0 0 0 2.011 2.286c.137.014.274.014.41 0h.108a80.647 80.647 0 0 0 10.507-2.305 75.344 75.344 0 0 0 10.048-3.681 1.387 1.387 0 0 0-1.026-2.578 75.579 75.579 0 0 1-17.664 3.857l-.342-5.185a1.777 1.777 0 1 0-3.554 0l-.498 7.607Z"/></g></g></g></svg>