<svg xmlns="http://www.w3.org/2000/svg" xmlns:xlink="http://www.w3.org/1999/xlink" width="95" height="95" viewBox="0 0 95 95"><title>andry</title><defs><linearGradient id="d" x1="49.995%" x2="49.995%" y1="99.916%" y2="0%"><stop offset="0%" stop-color="#801400"/><stop offset="100%" stop-color="#2E0E03"/></linearGradient><linearGradient id="e" x1="44.671%" x2="56.517%" y1="63.051%" y2="39.86%"><stop offset="26%" stop-color="#8A2108"/><stop offset="31%" stop-color="#A02907"/><stop offset="37%" stop-color="#B63006"/><stop offset="44%" stop-color="#C73605"/><stop offset="53%" stop-color="#D23A04"/><stop offset="65%" stop-color="#D93C04"/><stop offset="100%" stop-color="#DB3D04"/></linearGradient><linearGradient id="f" x1="55.316%" x2="43.499%" y1="62.988%" y2="39.909%"><stop offset="26%" stop-color="#8A2108"/><stop offset="31%" stop-color="#A02907"/><stop offset="37%" stop-color="#B63006"/><stop offset="44%" stop-color="#C73605"/><stop offset="53%" stop-color="#D23A04"/><stop offset="65%" stop-color="#D93C04"/><stop offset="100%" stop-color="#DB3D04"/></linearGradient><radialGradient id="c" cx="50%" cy="50%" r="50%" fx="50%" fy="50%"><stop offset="0%" stop-color="#FFA926"/><stop offset="27%" stop-color="#FFA626"/><stop offset="48%" stop-color="#FF9C24"/><stop offset="68%" stop-color="#FF8B22"/><stop offset="87%" stop-color="#FF731F"/><stop offset="100%" stop-color="#FF5D1C"/></radialGradient><path id="a" d="M0 0h95v95H0z"/></defs><g fill="none" fill-rule="evenodd"><mask id="b" fill="#fff"><use xlink:href="#a"/></mask><g fill-rule="nonzero" mask="url(#b)"><g transform="translate(5 5)"><circle cx="42.5" cy="42.5" r="42.5" fill="url(#c)"/><path fill="url(#d)" d="M57.44 70.12a1.74 1.74 0 0 1-.16.7 1.55 1.55 0 0 1-1.52.86c-4.34-.24-9.09-.37-14.07-.37-4.39 0-8.59.1-12.49.29a1.54 1.54 0 0 1-1.63-1.16 1.82 1.82 0 0 1 0-.32c0-2.69 6.69-4.87 14.95-4.87 8.26 0 14.92 2.18 14.92 4.87Z"/><ellipse cx="25.89" cy="53.59" fill="#1A1A1A" rx="6.49" ry="6.74"/><path fill="url(#e)" d="M37.44 48a2.2 2.2 0 0 1-2 2.34 2 2 0 0 1-.42 0h-.11a82.59 82.59 0 0 1-10.76-2.36 77.16 77.16 0 0 1-10.29-3.77 1.42 1.42 0 0 1 1.05-2.64A77.4 77.4 0 0 0 33 45.52l.35-5.31a1.82 1.82 0 0 1 3.64 0l.45 7.79Z"/><ellipse cx="59.1" cy="53.59" fill="#1A1A1A" rx="6.49" ry="6.74"/><path fill="url(#f)" d="M47.52 48a2.2 2.2 0 0 0 2.06 2.34 2 2 0 0 0 .42 0h.11a82.59 82.59 0 0 0 10.76-2.36 77.16 77.16 0 0 0 10.29-3.77 1.42 1.42 0 1 0-1.05-2.64 77.4 77.4 0 0 1-18.09 3.95l-.35-5.31a1.82 1.82 0 0 0-3.64 0L47.52 48Z"/></g></g></g></svg>