<svg xmlns="http://www.w3.org/2000/svg" xmlns:xlink="http://www.w3.org/1999/xlink" width="95" height="95" viewBox="0 0 95 95"><title>care</title><defs><linearGradient id="c" x1="13.346%" x2="91.927%" y1="54.757%" y2="44.497%"><stop offset="19%" stop-color="#F7971B"/><stop offset="74%" stop-color="#FD671C"/></linearGradient><linearGradient id="d" x1="42.696%" x2="58.92%" y1="55.071%" y2="43.5%"><stop offset="0%" stop-color="#FFA738"/><stop offset="12%" stop-color="#FF9E34"/><stop offset="31%" stop-color="#FE8529"/><stop offset="49%" stop-color="#FD671C"/></linearGradient><linearGradient id="e" x1="50%" x2="50%" y1="100%" y2="0%"><stop offset="0%" stop-color="#691805"/><stop offset="100%" stop-color="#3E1800"/></linearGradient><linearGradient id="f" x1="23.955%" x2="63.872%" y1="87.736%" y2="10.188%"><stop offset="0%" stop-color="#F41B2C"/><stop offset="100%" stop-color="#FE5B81"/></linearGradient><linearGradient id="g" x1="80.88%" x2="-4.434%" y1="93.558%" y2="14.212%"><stop offset="0%" stop-color="#FCE35C"/><stop offset="100%" stop-color="#FDB62E"/></linearGradient><linearGradient id="h" x1="26.448%" x2="87.917%" y1="97.881%" y2="19.414%"><stop offset="0%" stop-color="#FCE35C"/><stop offset="100%" stop-color="#FDB62E"/></linearGradient><path id="a" d="M0 0h95v95H0z"/></defs><g fill="none" fill-rule="evenodd"><mask id="b" fill="#fff"><use xlink:href="#a"/></mask><g mask="url(#b)"><path fill="url(#c)" fill-rule="nonzero" d="M69.652 75.01a42.34 42.34 0 0 1-27.202 9.83c-3.241.001-6.472-.365-9.631-1.09a59.565 59.565 0 0 0 13.015-6.76c.52.26 1.071.52 1.672.78 4.545 2.08 17.62.18 22.146-2.76Z" transform="translate(5 5)"/><path fill="url(#d)" fill-rule="nonzero" d="M15.678 75.38a42.38 42.38 0 0 1-11.303-14 48.172 48.172 0 0 0 5.006 2.38 41.29 41.29 0 0 0 4.836 9.65c.474.654.96 1.31 1.461 1.97Z" transform="translate(5 5)"/><path fill="#EFB33C" fill-rule="nonzero" d="M20.678 80.38a42.38 42.38 0 0 1-11.303-14 48.172 48.172 0 0 0 5.006 2.38 41.29 41.29 0 0 0 4.836 9.65c.474.654.96 1.31 1.461 1.97Z" opacity=".7"/><path fill="#FEE65D" fill-rule="nonzero" d="M90 47.36v1.23c0 1-.1 2.09-.2 3.12l-.09.81c-.09.71-.19 1.41-.31 2.11a22 22 0 0 1-.211 1.12c-.08.37-.16.77-.25 1.15-.09.38-.18.77-.28 1.15-.1.38-.2.75-.31 1.13-.111.38-.221.75-.341 1.12-.12.37-.24.74-.37 1.1-.13.36-.171.49-.261.74s-.2.54-.31.8a41.24 41.24 0 0 1-2.814 5.79c-.19.33-.39.66-.59 1-.2.34-.26.42-.4.63-.141.21-.281.43-.421.65-.14.22-.29.43-.44.63-.151.2-.371.53-.562.79a43.55 43.55 0 0 1-3.003 3.7c-.26.27-.5.53-.761.79l-.801.81c-.27.27-.55.53-.83.79l-.842.76-.871.74c-4.525 2.92-17.6 4.82-22.146 2.76-.6-.26-1.151-.52-1.672-.78a59.565 59.565 0 0 1-13.015 6.76 42.32 42.32 0 0 1-17.14-8.39c-.501-.666-.982-1.333-1.442-2a41.29 41.29 0 0 1-4.836-9.65 48.172 48.172 0 0 1-5.006-2.38c-.37-.73-.71-1.48-1-2.24l-.331-.78a42.624 42.624 0 0 1-1.943-6c-.1-.413-.19-.823-.27-1.23-.09-.44-.18-.88-.25-1.32-.07-.44-.15-.88-.21-1.33-.15-1-.26-2.1-.33-3.16v-.68c-.04-.72-.06-1.45-.06-2.19v-1.48c0-.48 0-.75.05-1.12v-.4c0-.45.06-.9.11-1.35l.06-.53c.09-.8.2-1.59.34-2.38.14-.79.34-1.8.55-2.68.12-.5.25-1 .39-1.49C11.2 19.618 25.132 7.576 42.008 5.363c16.875-2.213 33.448 5.83 42.136 20.447.23.4.46.79.68 1.2.221.41.431.81.642 1.22.21.41.41.82.6 1.24.39.84.761 1.69 1.082 2.55a39.326 39.326 0 0 1 1.672 5.34 35.987 35.987 0 0 1 .79 4.19c.06.42.11.84.16 1.25v.37c0 .41.07.82.1 1.24.03.42.06 1 .07 1.47.01.47.061.99.061 1.48Z"/><path fill="#EFB33C" fill-rule="nonzero" d="M90 47.36v1.23c0 1-.1 2.09-.2 3.12l-.09.81c-.09.71-.19 1.41-.31 2.11a22 22 0 0 1-.211 1.12c-.08.37-.16.77-.25 1.15-.09.38-.18.77-.28 1.15-.1.38-.2.75-.31 1.13-.111.38-.221.75-.341 1.12-.12.37-.24.74-.37 1.1-.13.36-.171.49-.261.74s-.2.54-.31.8a41.24 41.24 0 0 1-2.814 5.79c-.19.33-.39.66-.59 1-.2.34-.26.42-.4.63-.141.21-.281.43-.421.65-.14.22-.29.43-.44.63-.151.2-.371.53-.562.79a43.55 43.55 0 0 1-3.003 3.7c-.26.27-.5.53-.761.79l-.801.81c-.27.27-.55.53-.83.79l-.842.76-.871.74c-4.525 2.92-17.6 4.82-22.146 2.76-.6-.26-1.151-.52-1.672-.78a59.565 59.565 0 0 1-13.015 6.76 42.32 42.32 0 0 1-17.14-8.39c-.501-.666-.982-1.333-1.442-2a41.29 41.29 0 0 1-4.836-9.65 48.172 48.172 0 0 1-5.006-2.38c-.37-.73-.71-1.48-1-2.24l-.331-.78a42.624 42.624 0 0 1-1.943-6c-.1-.413-.19-.823-.27-1.23-.09-.44-.18-.88-.25-1.32-.07-.44-.15-.88-.21-1.33-.15-1-.26-2.1-.33-3.16v-.68c-.04-.72-.06-1.45-.06-2.19v-1.48c0-.48 0-.75.05-1.12v-.4c0-.45.06-.9.11-1.35l.06-.53c.09-.8.2-1.59.34-2.38.14-.79.34-1.8.55-2.68.12-.5.25-1 .39-1.49C11.2 19.618 25.132 7.576 42.008 5.363c16.875-2.213 33.448 5.83 42.136 20.447.23.4.46.79.68 1.2.221.41.431.81.642 1.22.21.41.41.82.6 1.24.39.84.761 1.69 1.082 2.55a39.326 39.326 0 0 1 1.672 5.34 35.987 35.987 0 0 1 .79 4.19c.06.42.11.84.16 1.25v.37c0 .41.07.82.1 1.24.03.42.06 1 .07 1.47.01.47.061.99.061 1.48Z" opacity=".7"/><path fill="#FB7707" fill-rule="nonzero" d="M40.001 15.01c-.37.84-1.542 1-2.453.93-2.623-.14-9.2-.26-12.084 1.86-1.822 1.33-3.134 1.22-3.084.32.08-1.24 2.193-3.25 3.254-3.92a14.91 14.91 0 0 1 8.16-2.46c4.045.01 7.138 1.21 6.207 3.27Z"/><path fill="#000" fill-rule="nonzero" d="M40.001 15.01c-.37.84-1.542 1-2.453.93-2.623-.14-9.2-.26-12.084 1.86-1.822 1.33-3.134 1.22-3.084.32.08-1.24 2.193-3.25 3.254-3.92a14.91 14.91 0 0 1 8.16-2.46c4.045.01 7.138 1.21 6.207 3.27Z" opacity=".15"/><path fill="#000" fill-rule="nonzero" d="M26.836 21.59a7.164 7.164 0 0 0-1.232 4.79c.07.83.31 3.9 2.543 5 1.572.77 3.294.14 4.305-.23a6.007 6.007 0 0 0 3.104-2.16 6.094 6.094 0 0 0 .61-5 6.85 6.85 0 0 0-2.713-3.89 4.679 4.679 0 0 0-2.723-1c-2.132.07-3.494 1.91-3.894 2.49Z"/><path fill="#FB7707" fill-rule="nonzero" d="M54.899 15.01c.38.84 1.542 1 2.463.93 2.623-.14 9.2-.26 12.084 1.86 1.822 1.33 3.134 1.22 3.073.32-.07-1.24-2.192-3.25-3.243-3.92a14.91 14.91 0 0 0-8.16-2.47c-4.005.02-7.148 1.22-6.217 3.28Z"/><path fill="#000" fill-rule="nonzero" d="M54.899 15.01c.38.84 1.542 1 2.463.93 2.623-.14 9.2-.26 12.084 1.86 1.822 1.33 3.134 1.22 3.073.32-.07-1.24-2.192-3.25-3.243-3.92a14.91 14.91 0 0 0-8.16-2.47c-4.005.02-7.148 1.22-6.217 3.28Z" opacity=".15"/><path fill="#000" fill-rule="nonzero" d="M68.064 21.59a7.044 7.044 0 0 1 1.232 4.79c-.06.83-.31 3.9-2.543 5-1.572.77-3.284.14-4.295-.23a5.927 5.927 0 0 1-3.104-2.16 6.074 6.074 0 0 1-.62-5 6.83 6.83 0 0 1 2.722-3.89 4.659 4.659 0 0 1 2.724-1c2.122.07 3.484 1.91 3.884 2.49Z"/><path fill="url(#e)" fill-rule="nonzero" d="M51.961 31.75c0 1.56-4.255 3.83-9.511 3.83-5.256 0-9.511-2.27-9.511-3.83s4.265-1.82 9.51-1.82c5.247 0 9.512.27 9.512 1.82Z" transform="translate(5 5)"/><path fill="url(#f)" fill-rule="nonzero" d="M59.12 58.56a15.477 15.477 0 0 1-2.073 6.57 37.598 37.598 0 0 1-11.213 11.88 59.565 59.565 0 0 1-13.015 6.76 80.803 80.803 0 0 1-6.258 2.1 47.42 47.42 0 0 1-10.883-10.49c-.5-.666-.98-1.333-1.441-2-.25-.38-.5-.76-.741-1.15-.24-.39-.51-.81-.751-1.22-.4-.68-.78-1.38-1.131-2.08a38.975 38.975 0 0 1-2.213-5.2 37.206 37.206 0 0 1-1.271-4.54 24.782 24.782 0 0 1-.27-10.88c.118-.517.265-1.028.44-1.53.12-.35.26-.68.41-1 .402-.911.913-1.77 1.522-2.56a13.45 13.45 0 0 1 3.294-3 13.97 13.97 0 0 1 14.497-.71c3.244 1.83 5.506 4.83 6.608 9.22 8.74-6.21 16.51-6 21.135-.36a14.33 14.33 0 0 1 3.354 10.19Z" transform="translate(5 5)"/><path fill="url(#g)" fill-rule="nonzero" d="M30.926 64.95c-5.656 2.29-13.065 2.22-21.525-1.23a48.172 48.172 0 0 1-5.006-2.38c-.37-.73-.71-1.48-1.001-2.24l-.33-.78a42.624 42.624 0 0 1-1.943-6c-.1-.413-.19-.823-.27-1.23-.09-.44-.18-.88-.25-1.32-.07-.44-.15-.88-.21-1.33-.15-1-.26-2.1-.33-3.16v-.68C.02 43.88 0 43.15 0 42.41v-1.48c0-.48 0-.75.05-1.12v-.4c0-.45.06-.9.11-1.35l.06-.53c.09-.8.2-1.59.34-2.38.14-.79.341-1.79.551-2.68.12-.5.25-1 .39-1.49a23.11 23.11 0 0 0 8.771 12.26c.44.32.901.62 1.392.92a16.194 16.194 0 0 0 9.32 2.29 14.03 14.03 0 0 0 5.427-1.11c2.703-1.47 6.818.86 3.004 3.86-4.175 3.23 2.092 1.44 2.092 1.44s5.847-1.12 6.488 2.63c.64 3.75-.31 8.95-7.069 11.68Z" transform="translate(5 5)"/><path fill="url(#h)" fill-rule="nonzero" d="M85 42.36v1.23c0 1-.1 2.09-.2 3.12l-.09.81c-.09.71-.19 1.41-.31 2.11a22 22 0 0 1-.211 1.12c-.08.37-.16.77-.25 1.15-.09.38-.18.77-.28 1.15-.1.38-.2.75-.31 1.13-.111.38-.221.75-.341 1.12-.12.37-.24.74-.37 1.1-.13.36-.171.49-.261.74s-.2.54-.31.8a41.24 41.24 0 0 1-2.814 5.79c-.19.33-.39.66-.59 1-.2.34-.26.42-.4.63-.141.21-.281.43-.421.65-.14.22-.29.43-.44.63-.151.2-.371.53-.562.79a43.55 43.55 0 0 1-3.003 3.7c-.26.27-.5.53-.761.79l-.801.81c-.27.27-.55.53-.83.79l-.842.76-.871.74c-4.525 2.92-17.6 4.82-22.146 2.76-.6-.26-1.151-.52-1.672-.78-7.619-3.88-7.008-8.61-4.225-11.16a11.56 11.56 0 0 1 6.378-2.8c.88-.12 1.381-.44-.12-1.26-3.004-1.64-6.508-8.07 4.074-4.07a13.701 13.701 0 0 0 7.159.84c6.657-1.1 11.413-7.56 14.867-13.7 4.505-8 5.146-23.57 5.166-24 .23.4.46.79.681 1.2.22.41.43.81.64 1.22.211.41.411.82.601 1.24.34.82.678 1.654 1.012 2.5a39.326 39.326 0 0 1 1.672 5.34c.22.92.42 1.84.58 2.78.08.467.15.937.21 1.41.06.42.11.84.16 1.25v.37c0 .41.07.82.1 1.24.03.42.06 1 .07 1.47.01.47.061 1 .061 1.49Z" transform="translate(5 5)"/></g></g></svg>