<svg xmlns="http://www.w3.org/2000/svg" xmlns:xlink="http://www.w3.org/1999/xlink" width="95" height="95" viewBox="0 0 95 95"><title>care</title><defs><linearGradient id="c" x1="13.346%" x2="91.927%" y1="54.774%" y2="44.477%"><stop offset="19%" stop-color="#F7971B"/><stop offset="74%" stop-color="#FD671C"/></linearGradient><linearGradient id="d" x1="42.722%" x2="58.888%" y1="55.071%" y2="43.5%"><stop offset="0%" stop-color="#FFA738"/><stop offset="12%" stop-color="#FF9E34"/><stop offset="31%" stop-color="#FE8529"/><stop offset="49%" stop-color="#FD671C"/></linearGradient><linearGradient id="e" x1="50%" x2="50%" y1="100%" y2="0%"><stop offset="0%" stop-color="#691805"/><stop offset="100%" stop-color="#3E1800"/></linearGradient><linearGradient id="f" x1="23.955%" x2="63.872%" y1="87.873%" y2="10.044%"><stop offset="0%" stop-color="#F41B2C"/><stop offset="100%" stop-color="#FE5B81"/></linearGradient><linearGradient id="g" x1="80.88%" x2="-4.434%" y1="93.716%" y2="14.083%"><stop offset="0%" stop-color="#FCE35C"/><stop offset="100%" stop-color="#FDB62E"/></linearGradient><linearGradient id="h" x1="26.533%" x2="87.78%" y1="97.881%" y2="19.414%"><stop offset="0%" stop-color="#FCE35C"/><stop offset="100%" stop-color="#FDB62E"/></linearGradient><path id="a" d="M0 0h95v95H0z"/></defs><g fill="none" fill-rule="evenodd"><mask id="b" fill="#fff"><use xlink:href="#a"/></mask><g fill-rule="nonzero" mask="url(#b)"><path fill="url(#c)" d="M68.012 73.376a41.298 41.298 0 0 1-26.561 9.616c-3.165.001-6.32-.357-9.405-1.066a58.125 58.125 0 0 0 12.709-6.613c.508.255 1.046.509 1.633.763 4.438 2.035 17.205.176 21.624-2.7Z" transform="translate(6 6)"/><path fill="url(#d)" d="M15.309 73.738A41.443 41.443 0 0 1 4.272 60.043a47 47 0 0 0 4.888 2.328 40.42 40.42 0 0 0 4.722 9.44c.463.64.938 1.282 1.427 1.927Z" transform="translate(6 6)"/><path fill="#EFB33C" d="M21.309 79.738a41.443 41.443 0 0 1-11.037-13.695 47 47 0 0 0 4.888 2.328 40.42 40.42 0 0 0 4.722 9.44c.463.64.938 1.282 1.427 1.927Z" opacity=".7"/><path fill="#FEE65D" d="M88.999 47.437v1.204c0 .978-.098 2.044-.195 3.052l-.088.792a47.72 47.72 0 0 1-.303 2.064c-.06.367-.128.732-.206 1.096-.078.362-.156.753-.244 1.125-.088.371-.176.753-.273 1.125a38.843 38.843 0 0 1-.636 2.201c-.117.362-.234.724-.361 1.076-.127.352-.167.48-.255.724a15.98 15.98 0 0 1-.303.782 40.373 40.373 0 0 1-2.748 5.664c-.185.323-.38.646-.576.978-.195.333-.254.411-.39.617-.138.205-.275.42-.411.635-.137.216-.284.421-.43.617-.148.195-.362.518-.549.773A42.587 42.587 0 0 1 78.1 75.58c-.254.264-.488.518-.743.773l-.782.792c-.264.264-.537.519-.81.773l-.823.743-.85.724c-4.419 2.857-17.186 4.715-21.625 2.7a33.124 33.124 0 0 1-1.633-.763 58.125 58.125 0 0 1-12.708 6.613 41.294 41.294 0 0 1-16.737-8.207 58.577 58.577 0 0 1-1.408-1.957 40.42 40.42 0 0 1-4.722-9.44 47 47 0 0 1-4.888-2.328 23.045 23.045 0 0 1-.977-2.191l-.323-.763a41.75 41.75 0 0 1-1.897-5.87 28.383 28.383 0 0 1-.264-1.203c-.088-.43-.176-.86-.244-1.29-.068-.431-.147-.862-.205-1.302a38.44 38.44 0 0 1-.322-3.091v-.665a38.688 38.688 0 0 1-.059-2.143V46.04c0-.47 0-.734.049-1.096v-.391c0-.44.059-.88.107-1.32l.059-.52c.088-.782.195-1.555.332-2.328.137-.772.332-1.76.537-2.621.117-.49.244-.978.38-1.458C12.055 20.3 25.659 8.52 42.138 6.355c16.478-2.165 32.66 5.703 41.144 20.002.224.391.45.773.664 1.174.216.4.42.792.627 1.193.205.401.4.802.586 1.213.38.822.743 1.653 1.056 2.495a38.52 38.52 0 0 1 1.633 5.223 35.26 35.26 0 0 1 .771 4.099c.059.41.108.822.156 1.223v.362c0 .4.069.802.098 1.213.03.41.059.978.068 1.438.01.46.06.968.06 1.447h-.001Z"/><path fill="#EFB33C" d="M88.999 47.437v1.204c0 .978-.098 2.044-.195 3.052l-.088.792a47.72 47.72 0 0 1-.303 2.064c-.06.367-.128.732-.206 1.096-.078.362-.156.753-.244 1.125-.088.371-.176.753-.273 1.125a38.843 38.843 0 0 1-.636 2.201c-.117.362-.234.724-.361 1.076-.127.352-.167.48-.255.724a15.98 15.98 0 0 1-.303.782 40.373 40.373 0 0 1-2.748 5.664c-.185.323-.38.646-.576.978-.195.333-.254.411-.39.617-.138.205-.275.42-.411.635-.137.216-.284.421-.43.617-.148.195-.362.518-.549.773A42.587 42.587 0 0 1 78.1 75.58c-.254.264-.488.518-.743.773l-.782.792c-.264.264-.537.519-.81.773l-.823.743-.85.724c-4.419 2.857-17.186 4.715-21.625 2.7a33.124 33.124 0 0 1-1.633-.763 58.125 58.125 0 0 1-12.708 6.613 41.294 41.294 0 0 1-16.737-8.207 58.577 58.577 0 0 1-1.408-1.957 40.42 40.42 0 0 1-4.722-9.44 47 47 0 0 1-4.888-2.328 23.045 23.045 0 0 1-.977-2.191l-.323-.763a41.75 41.75 0 0 1-1.897-5.87 28.383 28.383 0 0 1-.264-1.203c-.088-.43-.176-.86-.244-1.29-.068-.431-.147-.862-.205-1.302a38.44 38.44 0 0 1-.322-3.091v-.665a38.688 38.688 0 0 1-.059-2.143V46.04c0-.47 0-.734.049-1.096v-.391c0-.44.059-.88.107-1.32l.059-.52c.088-.782.195-1.555.332-2.328.137-.772.332-1.76.537-2.621.117-.49.244-.978.38-1.458C12.055 20.3 25.659 8.52 42.138 6.355c16.478-2.165 32.66 5.703 41.144 20.002.224.391.45.773.664 1.174.216.4.42.792.627 1.193.205.401.4.802.586 1.213.38.822.743 1.653 1.056 2.495a38.52 38.52 0 0 1 1.633 5.223 35.26 35.26 0 0 1 .771 4.099c.059.41.108.822.156 1.223v.362c0 .4.069.802.098 1.213.03.41.059.978.068 1.438.01.46.06.968.06 1.447h-.001Z" opacity=".7"/><path fill="#FB7707" d="M40.177 15.792c-.361.822-1.506.978-2.395.91-2.561-.137-8.984-.255-11.8 1.82-1.779 1.3-3.06 1.193-3.011.312.078-1.213 2.141-3.179 3.177-3.834a14.54 14.54 0 0 1 7.968-2.407c3.95.01 6.97 1.184 6.061 3.199Z"/><path fill="#000" d="M40.177 15.792c-.361.822-1.506.978-2.395.91-2.561-.137-8.984-.255-11.8 1.82-1.779 1.3-3.06 1.193-3.011.312.078-1.213 2.141-3.179 3.177-3.834a14.54 14.54 0 0 1 7.968-2.407c3.95.01 6.97 1.184 6.061 3.199Z" opacity=".15"/><path fill="#000" d="M27.322 22.229a7.018 7.018 0 0 0-1.203 4.685c.068.812.303 3.815 2.483 4.891 1.535.754 3.217.137 4.204-.225a5.866 5.866 0 0 0 3.03-2.113 5.97 5.97 0 0 0 .596-4.89 6.7 6.7 0 0 0-2.649-3.806 4.564 4.564 0 0 0-2.659-.978c-2.082.068-3.411 1.868-3.802 2.436Z"/><path fill="#FB7707" d="M54.724 15.792c.371.822 1.506.978 2.405.91 2.562-.137 8.984-.255 11.8 1.82 1.779 1.3 3.06 1.193 3 .312-.068-1.213-2.14-3.179-3.166-3.834a14.54 14.54 0 0 0-7.968-2.417c-3.91.02-6.98 1.194-6.07 3.209Z"/><path fill="#000" d="M54.724 15.792c.371.822 1.506.978 2.405.91 2.562-.137 8.984-.255 11.8 1.82 1.779 1.3 3.06 1.193 3 .312-.068-1.213-2.14-3.179-3.166-3.834a14.54 14.54 0 0 0-7.968-2.417c-3.91.02-6.98 1.194-6.07 3.209Z" opacity=".15"/><path fill="#000" d="M67.58 22.229a6.9 6.9 0 0 1 1.202 4.685c-.058.812-.302 3.815-2.483 4.891-1.535.754-3.206.137-4.194-.225a5.787 5.787 0 0 1-3.03-2.113 5.951 5.951 0 0 1-.606-4.89 6.681 6.681 0 0 1 2.658-3.806 4.544 4.544 0 0 1 2.66-.978c2.072.068 3.402 1.868 3.792 2.436Z"/><path fill="url(#e)" d="M50.738 31.059c0 1.526-4.155 3.746-9.287 3.746-5.133 0-9.287-2.22-9.287-3.746 0-1.527 4.164-1.78 9.286-1.78 5.123 0 9.288.263 9.288 1.78Z" transform="translate(6 6)"/><path fill="url(#f)" d="M57.728 57.285a15.16 15.16 0 0 1-2.024 6.427 36.752 36.752 0 0 1-10.949 11.62 58.125 58.125 0 0 1-12.709 6.614A78.802 78.802 0 0 1 25.936 84a46.341 46.341 0 0 1-10.627-10.262 61.483 61.483 0 0 1-1.407-1.956 47.022 47.022 0 0 1-.724-1.125c-.234-.381-.498-.792-.733-1.193-.39-.666-.762-1.35-1.104-2.035a38.163 38.163 0 0 1-2.161-5.087 36.447 36.447 0 0 1-1.241-4.441 24.285 24.285 0 0 1-.264-10.643c.115-.506.259-1.006.43-1.497.117-.342.253-.665.4-.978.392-.891.891-1.731 1.486-2.504a13.142 13.142 0 0 1 3.217-2.935 13.62 13.62 0 0 1 14.155-.694c3.168 1.79 5.377 4.724 6.453 9.019 8.534-6.075 16.121-5.87 20.637-.352a14.034 14.034 0 0 1 3.275 9.968Z" transform="translate(6 6)"/><path fill="url(#g)" d="M30.198 63.536c-5.523 2.24-12.757 2.171-21.018-1.204a47 47 0 0 1-4.888-2.328 23.302 23.302 0 0 1-.978-2.191l-.322-.763a41.75 41.75 0 0 1-1.897-5.87 28.383 28.383 0 0 1-.264-1.203c-.088-.43-.176-.86-.244-1.29-.069-.431-.147-.862-.205-1.302a38.44 38.44 0 0 1-.322-3.091v-.665A37.75 37.75 0 0 1 0 41.486V40.04c0-.47 0-.734.049-1.096v-.391c0-.44.058-.88.107-1.32l.059-.52c.088-.782.195-1.555.332-2.328.137-.772.333-1.75.538-2.621.117-.49.244-.978.38-1.458a22.605 22.605 0 0 0 8.565 11.993c.43.313.88.607 1.36.9a15.79 15.79 0 0 0 9.1 2.24 13.678 13.678 0 0 0 5.3-1.085c2.639-1.438 6.657.84 2.933 3.776-4.077 3.16 2.042 1.408 2.042 1.408s5.71-1.095 6.336 2.573c.624 3.668-.303 8.755-6.903 11.426Z" transform="translate(6 6)"/><path fill="url(#h)" d="M82.999 41.437v1.204c0 .978-.098 2.044-.195 3.052l-.088.792a47.72 47.72 0 0 1-.303 2.064c-.06.367-.128.732-.206 1.096-.078.362-.156.753-.244 1.125-.088.371-.176.753-.273 1.125a38.843 38.843 0 0 1-.636 2.201c-.117.362-.234.724-.361 1.076-.127.352-.167.48-.255.724a15.98 15.98 0 0 1-.303.782 40.373 40.373 0 0 1-2.748 5.664c-.185.323-.38.646-.576.978-.195.333-.254.411-.39.617-.138.205-.275.42-.411.635-.137.216-.284.421-.43.617-.148.195-.362.518-.549.773A42.587 42.587 0 0 1 72.1 69.58c-.254.264-.488.518-.743.773l-.782.792c-.264.264-.537.519-.81.773l-.823.743-.85.724c-4.419 2.857-17.186 4.715-21.625 2.7a33.124 33.124 0 0 1-1.633-.763c-7.44-3.795-6.843-8.422-4.125-10.917a11.278 11.278 0 0 1 6.227-2.739c.86-.117 1.349-.43-.117-1.232-2.933-1.605-6.355-7.895 3.978-3.982a13.356 13.356 0 0 0 6.99.822c6.501-1.076 11.145-7.395 14.518-13.402 4.399-7.826 5.025-23.056 5.044-23.477.225.391.45.773.665 1.174.215.4.42.792.625 1.193.206.401.401.802.587 1.213.332.802.662 1.618.988 2.446a38.52 38.52 0 0 1 1.633 5.223c.215.9.41 1.8.566 2.72.078.457.147.917.205 1.38.059.41.108.82.156 1.222v.362c0 .401.069.802.098 1.213.03.41.059.978.068 1.438.01.46.06.978.06 1.457Z" transform="translate(6 6)"/></g></g></svg>