<svg xmlns="http://www.w3.org/2000/svg" xmlns:xlink="http://www.w3.org/1999/xlink" width="95" height="95" viewBox="0 0 95 95"><title>haha</title><defs><linearGradient id="c" x1="75%" x2="24.988%" y1="6.682%" y2="93.306%"><stop offset="0%" stop-color="#FBEA78"/><stop offset="19%" stop-color="#FBE774"/><stop offset="40%" stop-color="#FBDD67"/><stop offset="60%" stop-color="#FCCD53"/><stop offset="81%" stop-color="#FCB636"/><stop offset="100%" stop-color="#FD9B14"/></linearGradient><linearGradient id="d" x1="50%" x2="50%" y1="100%" y2="0%"><stop offset="46%" stop-color="#660F00"/><stop offset="61%" stop-color="#5C0F01"/><stop offset="86%" stop-color="#400E02"/><stop offset="100%" stop-color="#2E0E03"/></linearGradient><linearGradient id="e" x1="50%" x2="50%" y1="100%" y2=".001%"><stop offset="0%" stop-color="#D00F05"/><stop offset="100%" stop-color="#F6515D"/></linearGradient><path id="a" d="M0 0h95v95H0z"/></defs><g fill="none" fill-rule="evenodd"><mask id="b" fill="#fff"><use xlink:href="#a"/></mask><g fill-rule="nonzero" mask="url(#b)"><g transform="translate(5 5)"><circle cx="42.5" cy="42.5" r="42.5" fill="url(#c)"/><path fill="url(#d)" d="M72.32 48.39c-.13.5-.27 1-.41 1.49a38.56 38.56 0 0 1-8.86 15.7c-5.49 5.78-12.68 9.28-20.55 9.28-7.87 0-15.06-3.5-20.55-9.28a38.56 38.56 0 0 1-8.86-15.7c-.14-.49-.28-1-.41-1.49a6.11 6.11 0 0 1 4.48-7.4c6.21-1.57 15.26-2.56 25.34-2.56s19.13 1 25.34 2.56a6.11 6.11 0 0 1 4.48 7.4Z"/><path fill="url(#e)" d="M63.05 65.58c-5.49 5.78-12.68 9.28-20.55 9.28-7.87 0-15.06-3.5-20.55-9.28a40.63 40.63 0 0 1 41.1 0Z"/><path fill="#000" d="M19.79 15.86c2.4 1.18 4.77 2.37 7.14 3.63 1.19.63 2.37 1.26 3.55 1.95.6.34 1.18.68 1.79 1.08.3.19.61.39.93.63a8.75 8.75 0 0 1 1.08.88 2.41 2.41 0 0 1-1.18 4.14h-.26c-1.31.17-2.67.37-4 .58-1.33.21-2.66.46-4 .72-1.34.26-2.62.56-3.86.9-.62.18-1.23.37-1.79.57a6.49 6.49 0 0 0-1.25.59l-.22.15a2.043 2.043 0 0 1-2.49-3.24 9.15 9.15 0 0 1 2.36-1.4c.72-.31 1.41-.57 2.11-.8 1.38-.47 2.75-.85 4.12-1.2s2.74-.68 4.11-1c1.37-.32 2.73-.57 4.13-.83l-1.43 4.18c-.12-.09-.19-.2-.44-.39s-.44-.34-.69-.52c-.48-.36-1-.72-1.54-1.07-1.06-.7-2.17-1.39-3.28-2.07-2.23-1.36-4.51-2.7-6.78-4a2.009 2.009 0 0 1 1.88-3.55l.01.07ZM66.15 19.42c-2.28 1.29-4.55 2.63-6.78 4-1.11.68-2.22 1.37-3.28 2.07-.53.35-1.07.71-1.55 1.07-.24.18-.48.35-.68.52-.2.17-.32.3-.44.39l-1.44-4.18c1.41.26 2.77.53 4.14.83 1.37.3 2.74.62 4.11 1s2.74.73 4.12 1.2c.7.23 1.39.49 2.11.8a9.11 9.11 0 0 1 2.35 1.4 2.04 2.04 0 0 1-2.48 3.24l-.22-.15a6.49 6.49 0 0 0-1.25-.59c-.56-.2-1.17-.39-1.79-.57a62.3 62.3 0 0 0-3.86-.9c-1.31-.27-2.65-.5-4-.72-1.35-.22-2.69-.41-4-.58h-.26a2.42 2.42 0 0 1-1.91-2.82 2.37 2.37 0 0 1 .73-1.32 9.56 9.56 0 0 1 1.07-.88c.33-.24.64-.44.94-.63.61-.4 1.19-.74 1.79-1.08 1.18-.69 2.36-1.32 3.55-1.95 2.37-1.26 4.74-2.45 7.14-3.63a2.009 2.009 0 1 1 1.88 3.55l.01-.07Z"/></g></g></g></svg>