<svg xmlns="http://www.w3.org/2000/svg" xmlns:xlink="http://www.w3.org/1999/xlink" width="95" height="95" viewBox="0 0 95 95"><title>haha</title><defs><linearGradient id="c" x1="75%" x2="24.988%" y1="6.682%" y2="93.306%"><stop offset="0%" stop-color="#FBEA78"/><stop offset="19%" stop-color="#FBE774"/><stop offset="40%" stop-color="#FBDD67"/><stop offset="60%" stop-color="#FCCD53"/><stop offset="81%" stop-color="#FCB636"/><stop offset="100%" stop-color="#FD9B14"/></linearGradient><linearGradient id="d" x1="50%" x2="50%" y1="100%" y2="0%"><stop offset="46%" stop-color="#660F00"/><stop offset="61%" stop-color="#5C0F01"/><stop offset="86%" stop-color="#400E02"/><stop offset="100%" stop-color="#2E0E03"/></linearGradient><linearGradient id="e" x1="50%" x2="50%" y1="100%" y2=".001%"><stop offset="0%" stop-color="#D00F05"/><stop offset="100%" stop-color="#F6515D"/></linearGradient><path id="a" d="M0 0h95v95H0z"/></defs><g fill="none" fill-rule="evenodd"><mask id="b" fill="#fff"><use xlink:href="#a"/></mask><g fill-rule="nonzero" mask="url(#b)"><g transform="translate(6 6)"><circle cx="41.5" cy="41.5" r="41.5" fill="url(#c)"/><path fill="url(#d)" d="M70.618 47.251c-.127.489-.263.977-.4 1.455a37.653 37.653 0 0 1-8.652 15.33C56.206 69.682 49.185 73.1 41.5 73.1c-7.685 0-14.706-3.418-20.066-9.062a37.653 37.653 0 0 1-8.652-15.33 80.623 80.623 0 0 1-.4-1.456 5.966 5.966 0 0 1 4.374-7.225c6.064-1.534 14.901-2.5 24.744-2.5s18.68.976 24.744 2.5a5.966 5.966 0 0 1 4.374 7.225Z"/><path fill="url(#e)" d="M61.566 64.037c-5.36 5.644-12.381 9.062-20.066 9.062-7.685 0-14.706-3.418-20.066-9.062a39.674 39.674 0 0 1 40.132 0Z"/><path fill="#000" d="M19.324 15.487a245.953 245.953 0 0 1 6.972 3.544 93.03 93.03 0 0 1 3.467 1.905c.586.332 1.152.664 1.748 1.054.293.186.595.38.908.615.374.258.726.546 1.054.86a2.353 2.353 0 0 1-1.152 4.042h-.254c-1.279.166-2.607.361-3.906.567-1.298.205-2.597.449-3.905.703a50.827 50.827 0 0 0-3.77.878 30.82 30.82 0 0 0-1.748.557 6.337 6.337 0 0 0-1.22.576l-.215.147a1.995 1.995 0 1 1-2.431-3.164 8.935 8.935 0 0 1 2.304-1.367 24.484 24.484 0 0 1 2.06-.781 53.335 53.335 0 0 1 4.024-1.172c1.337-.342 2.675-.664 4.013-.977 1.338-.312 2.666-.556 4.033-.81l-1.397 4.082c-.117-.088-.185-.196-.43-.381-.243-.186-.429-.332-.673-.508a26.964 26.964 0 0 0-1.504-1.045 112.311 112.311 0 0 0-3.203-2.021 280.145 280.145 0 0 0-6.62-3.906 1.962 1.962 0 0 1 1.836-3.467l.01.069Zm45.27 3.476a213.89 213.89 0 0 0-6.62 3.906 112.311 112.311 0 0 0-3.204 2.021c-.517.342-1.045.694-1.513 1.045-.235.176-.469.342-.664.508-.196.166-.313.293-.43.38l-1.406-4.081c1.377.254 2.705.518 4.043.81 1.337.293 2.675.606 4.013.977s2.675.713 4.023 1.172c.683.224 1.357.478 2.06.78.83.338 1.603.8 2.295 1.368a1.992 1.992 0 1 1-2.422 3.164l-.215-.147a6.337 6.337 0 0 0-1.22-.576 30.82 30.82 0 0 0-1.748-.556 60.834 60.834 0 0 0-3.77-.88 95.514 95.514 0 0 0-3.905-.702c-1.318-.215-2.627-.4-3.906-.567h-.254a2.363 2.363 0 0 1-1.865-2.753c.091-.496.341-.949.713-1.29a9.335 9.335 0 0 1 1.045-.859c.322-.234.625-.43.918-.615.595-.39 1.162-.722 1.748-1.054a93.03 93.03 0 0 1 3.466-1.904 245.954 245.954 0 0 1 6.972-3.545 1.962 1.962 0 1 1 1.836 3.466l.01-.068Z"/></g></g></g></svg>