<svg xmlns="http://www.w3.org/2000/svg" xmlns:xlink="http://www.w3.org/1999/xlink" width="95" height="95" viewBox="0 0 95 95"><title>like</title><defs><linearGradient id="c" x1="75%" x2="25%" y1="6.682%" y2="93.306%"><stop offset="0%" stop-color="#26ADFF"/><stop offset="100%" stop-color="#005DE9"/></linearGradient><path id="a" d="M0 0h95v95H0z"/></defs><g fill="none" fill-rule="evenodd"><mask id="b" fill="#fff"><use xlink:href="#a"/></mask><g fill-rule="nonzero" mask="url(#b)"><g transform="translate(6 6)"><circle cx="41.5" cy="41.5" r="41.5" fill="url(#c)"/><rect width="11.61" height="27.722" x="17.508" y="35.573" fill="#FFF" rx="3.506"/><path fill="#FFF" d="M32.81 50.67c0 .78-.069 1.845 0 2.84.136 2.246-.391 7.549 7.508 7.656 9.834.137 17.01 0 17.01 0s5.45-1.181 2.93-5.722c0 0 6.562-2.441 3.076-7.109 0 0 5.224-3.769.693-8.515 0 0 2.393-1.952 1.953-4.384-.44-2.431-3.056-3.77-4.296-4.18-1.24-.41-9.18-.888-12.402.509-2.05.888-1.513-.772-.8-2.168a13.387 13.387 0 0 0 1.406-7.548 7.948 7.948 0 0 0-3.242-5.937c-2.588-1.748-4.365-1.436-5.498-.684a3.71 3.71 0 0 0-1.533 3.281c.108 2.539.127 7.988-1.552 10.517-1.133 1.69-2.422 4.033-3.418 5.927a15.038 15.038 0 0 0-1.728 6.777l-.108 8.74Z"/></g></g></g></svg>