<svg xmlns="http://www.w3.org/2000/svg" xmlns:xlink="http://www.w3.org/1999/xlink" width="95" height="95" viewBox="0 0 95 95"><title>like</title><defs><linearGradient id="c" x1="75%" x2="25%" y1="6.682%" y2="93.306%"><stop offset="0%" stop-color="#26ADFF"/><stop offset="100%" stop-color="#005DE9"/></linearGradient><path id="a" d="M0 0h95v95H0z"/></defs><g fill="none" fill-rule="evenodd"><mask id="b" fill="#fff"><use xlink:href="#a"/></mask><g fill-rule="nonzero" mask="url(#b)"><g transform="translate(5 5)"><circle cx="42.5" cy="42.5" r="42.5" fill="url(#c)"/><rect width="11.89" height="28.39" x="17.93" y="36.43" fill="#FFF" rx="3.59"/><path fill="#FFF" d="M33.6 51.89c0 .8-.07 1.89 0 2.91.14 2.3-.4 7.73 7.69 7.84 10.07.14 17.42 0 17.42 0s5.58-1.21 3-5.86c0 0 6.72-2.5 3.15-7.28 0 0 5.35-3.86.71-8.72 0 0 2.45-2 2-4.49-.45-2.49-3.13-3.86-4.4-4.28-1.27-.42-9.4-.91-12.7.52-2.1.91-1.55-.79-.82-2.22a13.71 13.71 0 0 0 1.44-7.73 8.14 8.14 0 0 0-3.32-6.08c-2.65-1.79-4.47-1.47-5.63-.7a3.8 3.8 0 0 0-1.57 3.36c.11 2.6.13 8.18-1.59 10.77-1.16 1.73-2.48 4.13-3.5 6.07a15.4 15.4 0 0 0-1.77 6.94l-.11 8.95Z"/></g></g></g></svg>