<svg xmlns="http://www.w3.org/2000/svg" xmlns:xlink="http://www.w3.org/1999/xlink" width="95" height="95" viewBox="0 0 95 95"><title>sad</title><defs><linearGradient id="c" x1="25%" x2="75%" y1="93.306%" y2="6.682%"><stop offset="0%" stop-color="#FD9B14"/><stop offset="19%" stop-color="#FCB636"/><stop offset="40%" stop-color="#FCCD53"/><stop offset="60%" stop-color="#FBDD67"/><stop offset="81%" stop-color="#FBE774"/><stop offset="100%" stop-color="#FBEA78"/></linearGradient><linearGradient id="d" x1="50%" x2="50%" y1="99.915%" y2=".275%"><stop offset="0%" stop-color="#801400"/><stop offset="22%" stop-color="#7C1400"/><stop offset="44%" stop-color="#6F1301"/><stop offset="67%" stop-color="#5B1101"/><stop offset="90%" stop-color="#3E0F02"/><stop offset="100%" stop-color="#2E0E03"/></linearGradient><path id="a" d="M0 0h95v95H0z"/></defs><g fill="none" fill-rule="evenodd"><mask id="b" fill="#fff"><use xlink:href="#a"/></mask><g fill-rule="nonzero" mask="url(#b)"><g transform="translate(5 5)"><circle cx="42.5" cy="42.5" r="42.5" fill="url(#c)"/><path fill="#0F86F7" d="M78.87 75.64a8.86 8.86 0 0 1-8.39 8.85h-1c-.32 0-.48 0-.72-.07a9.69 9.69 0 0 1-2.2-.58 8.48 8.48 0 0 1-5.3-7v-.94a6.87 6.87 0 0 1 .77-3.17l1.56-3.09L69.09 59A1.08 1.08 0 0 1 71 59l5.51 10.64 1.63 3.16a6.21 6.21 0 0 1 .73 2.84Z"/><path fill="url(#d)" d="M57.21 71.64a1 1 0 0 1-1.46 1.28 27.52 27.52 0 0 0-26.5 0 1 1 0 0 1-1.46-1.28 15.83 15.83 0 0 1 29.42 0Z"/><ellipse cx="25.67" cy="46.98" fill="#1A1A1A" rx="6.62" ry="7.77"/><path fill="#FB7707" d="M11.99 37.21a33.21 33.21 0 0 1 3.26-3.34 37.29 37.29 0 0 1 3.69-2.89 29.09 29.09 0 0 1 4.16-2.34 22.79 22.79 0 0 1 4.68-1.48 1.751 1.751 0 0 1 .71 3.43h-.25a18.75 18.75 0 0 0-4.06.82 24.27 24.27 0 0 0-3.95 1.68 34.28 34.28 0 0 0-3.72 2.31 33 33 0 0 0-3.4 2.79.75.75 0 0 1-1.09-1l-.03.02Z"/><path fill="#000" d="M11.99 37.21a33.21 33.21 0 0 1 3.26-3.34 37.29 37.29 0 0 1 3.69-2.89 29.09 29.09 0 0 1 4.16-2.34 22.79 22.79 0 0 1 4.68-1.48 1.751 1.751 0 0 1 .71 3.43h-.25a18.75 18.75 0 0 0-4.06.82 24.27 24.27 0 0 0-3.95 1.68 34.28 34.28 0 0 0-3.72 2.31 33 33 0 0 0-3.4 2.79.75.75 0 0 1-1.09-1l-.03.02Z"/><ellipse cx="59.33" cy="46.98" fill="#1A1A1A" rx="6.62" ry="7.77"/><path fill="#FB7707" d="M73.01 37.21a33.21 33.21 0 0 0-3.26-3.34 37.29 37.29 0 0 0-3.69-2.89 29.09 29.09 0 0 0-4.19-2.34 22.69 22.69 0 0 0-4.69-1.48 1.75 1.75 0 0 0-.7 3.43h.25a18.75 18.75 0 0 1 4.06.82 24.27 24.27 0 0 1 3.95 1.68 34.28 34.28 0 0 1 3.72 2.31 33 33 0 0 1 3.4 2.79.75.75 0 0 0 1.09-1l.06.02Z"/><path fill="#000" d="M73.01 37.21a33.21 33.21 0 0 0-3.26-3.34 37.29 37.29 0 0 0-3.69-2.89 29.09 29.09 0 0 0-4.19-2.34 22.69 22.69 0 0 0-4.69-1.48 1.75 1.75 0 0 0-.7 3.43h.25a18.75 18.75 0 0 1 4.06.82 24.27 24.27 0 0 1 3.95 1.68 34.28 34.28 0 0 1 3.72 2.31 33 33 0 0 1 3.4 2.79.75.75 0 0 0 1.09-1l.06.02Z"/></g></g></g></svg>