<svg xmlns="http://www.w3.org/2000/svg" xmlns:xlink="http://www.w3.org/1999/xlink" width="95" height="95" viewBox="0 0 95 95"><title>wow</title><defs><linearGradient id="c" x1="25%" x2="75.012%" y1="93.306%" y2="6.682%"><stop offset="0%" stop-color="#FD9B14"/><stop offset="19%" stop-color="#FCB636"/><stop offset="40%" stop-color="#FCCD53"/><stop offset="60%" stop-color="#FBDD67"/><stop offset="81%" stop-color="#FBE774"/><stop offset="100%" stop-color="#FBEA78"/></linearGradient><linearGradient id="d" x1="50%" x2="50%" y1="100.031%" y2="0%"><stop offset="0%" stop-color="#801400"/><stop offset="22%" stop-color="#7C1400"/><stop offset="44%" stop-color="#6F1301"/><stop offset="67%" stop-color="#5B1101"/><stop offset="90%" stop-color="#3E0F02"/><stop offset="100%" stop-color="#2E0E03"/></linearGradient><path id="a" d="M0 0h95v95H0z"/></defs><g fill="none" fill-rule="evenodd"><mask id="b" fill="#fff"><use xlink:href="#a"/></mask><g fill-rule="nonzero" mask="url(#b)"><g transform="translate(6 6)"><circle cx="41.5" cy="41.5" r="41.5" fill="url(#c)"/><ellipse cx="41.5" cy="58.93" fill="url(#d)" rx="12.762" ry="15.829"/><ellipse cx="24.343" cy="30.202" fill="#1A1A1A" rx="6.904" ry="9.276"/><path fill="#FB7707" d="M28.738 16.317a1.455 1.455 0 0 1-1.221-.654c-1.328-2.012-2.793-3.057-4.336-3.125-2.929-.098-5.605 3.183-5.634 3.222a1.467 1.467 0 0 1-2.304-1.816c.146-.186 3.593-4.53 8.056-4.336 2.538.108 4.775 1.592 6.66 4.434a1.465 1.465 0 0 1-1.221 2.275Z"/><path fill="#000" d="M28.738 16.317a1.455 1.455 0 0 1-1.221-.654c-1.328-2.012-2.793-3.057-4.336-3.125-2.929-.098-5.605 3.183-5.634 3.222a1.467 1.467 0 0 1-2.304-1.816c.146-.186 3.593-4.53 8.056-4.336 2.538.108 4.775 1.592 6.66 4.434a1.465 1.465 0 0 1-1.221 2.275Z"/><ellipse cx="58.666" cy="30.202" fill="#1A1A1A" rx="6.904" ry="9.276"/><path fill="#FB7707" d="M54.262 16.317a1.465 1.465 0 0 1-1.21-2.275c1.884-2.842 4.12-4.326 6.66-4.434 4.481-.166 7.909 4.15 8.055 4.336a1.467 1.467 0 1 1-2.304 1.816s-2.676-3.417-5.605-3.222c-1.543.068-2.998 1.123-4.326 3.125a1.465 1.465 0 0 1-1.27.654Z"/><path fill="#000" d="M54.262 16.317a1.465 1.465 0 0 1-1.21-2.275c1.884-2.842 4.12-4.326 6.66-4.434 4.481-.166 7.909 4.15 8.055 4.336a1.467 1.467 0 1 1-2.304 1.816s-2.676-3.417-5.605-3.222c-1.543.068-2.998 1.123-4.326 3.125a1.465 1.465 0 0 1-1.27.654Z"/></g></g></g></svg>