<svg xmlns="http://www.w3.org/2000/svg" xmlns:xlink="http://www.w3.org/1999/xlink" width="95" height="95" viewBox="0 0 95 95"><title>wow</title><defs><linearGradient id="c" x1="25%" x2="75.012%" y1="93.306%" y2="6.682%"><stop offset="0%" stop-color="#FD9B14"/><stop offset="19%" stop-color="#FCB636"/><stop offset="40%" stop-color="#FCCD53"/><stop offset="60%" stop-color="#FBDD67"/><stop offset="81%" stop-color="#FBE774"/><stop offset="100%" stop-color="#FBEA78"/></linearGradient><linearGradient id="d" x1="50%" x2="50%" y1="100.031%" y2="0%"><stop offset="0%" stop-color="#801400"/><stop offset="22%" stop-color="#7C1400"/><stop offset="44%" stop-color="#6F1301"/><stop offset="67%" stop-color="#5B1101"/><stop offset="90%" stop-color="#3E0F02"/><stop offset="100%" stop-color="#2E0E03"/></linearGradient><path id="a" d="M0 0h95v95H0z"/></defs><g fill="none" fill-rule="evenodd"><mask id="b" fill="#fff"><use xlink:href="#a"/></mask><g fill-rule="nonzero" mask="url(#b)"><g transform="translate(5 5)"><circle cx="42.5" cy="42.5" r="42.5" fill="url(#c)"/><ellipse cx="42.5" cy="60.35" fill="url(#d)" rx="13.07" ry="16.21"/><ellipse cx="24.93" cy="30.93" fill="#1A1A1A" rx="7.07" ry="9.5"/><path fill="#FB7707" d="M29.43 16.71a1.49 1.49 0 0 1-1.25-.67c-1.36-2.06-2.86-3.13-4.44-3.2-3-.1-5.74 3.26-5.77 3.3a1.502 1.502 0 0 1-2.36-1.86c.15-.19 3.68-4.64 8.25-4.44 2.6.11 4.89 1.63 6.82 4.54a1.5 1.5 0 0 1-1.25 2.33Z"/><path fill="#000" d="M29.43 16.71a1.49 1.49 0 0 1-1.25-.67c-1.36-2.06-2.86-3.13-4.44-3.2-3-.1-5.74 3.26-5.77 3.3a1.502 1.502 0 0 1-2.36-1.86c.15-.19 3.68-4.64 8.25-4.44 2.6.11 4.89 1.63 6.82 4.54a1.5 1.5 0 0 1-1.25 2.33Z"/><ellipse cx="60.08" cy="30.93" fill="#1A1A1A" rx="7.07" ry="9.5"/><path fill="#FB7707" d="M55.57 16.71a1.5 1.5 0 0 1-1.24-2.33c1.93-2.91 4.22-4.43 6.82-4.54 4.59-.17 8.1 4.25 8.25 4.44a1.502 1.502 0 1 1-2.36 1.86s-2.74-3.5-5.74-3.3c-1.58.07-3.07 1.15-4.43 3.2a1.5 1.5 0 0 1-1.3.67Z"/><path fill="#000" d="M55.57 16.71a1.5 1.5 0 0 1-1.24-2.33c1.93-2.91 4.22-4.43 6.82-4.54 4.59-.17 8.1 4.25 8.25 4.44a1.502 1.502 0 1 1-2.36 1.86s-2.74-3.5-5.74-3.3c-1.58.07-3.07 1.15-4.43 3.2a1.5 1.5 0 0 1-1.3.67Z"/></g></g></g></svg>