<svg xmlns="http://www.w3.org/2000/svg" xmlns:xlink="http://www.w3.org/1999/xlink" width="100" height="100" viewBox="0 0 100 100"><title>koobai备份 2</title><defs><circle id="a" cx="50" cy="50" r="50"/><rect id="c" width="94.231" height="94.231" x="0" y="0" rx="47.115"/></defs><g fill="none" fill-rule="evenodd"><mask id="b" fill="#fff"><use xlink:href="#a"/></mask><circle cx="50" cy="50" r="48" stroke="#000" stroke-width="4"/><g mask="url(#b)"><g transform="translate(2.885 2.885)"><mask id="d" fill="#fff"><use xlink:href="#c"/></mask><use xlink:href="#c" fill="#FFF"/><g mask="url(#d)"><path fill="#000" fill-rule="nonzero" d="M84.986 79.544s-2.198-3.446-7.941-9.89c-6.687-7.5-37.09-5.2-37.09-5.2s-15.62 6.872-20.866 11.262c-4.894 4.098-8.975 14.173-9.616 17.936-.431 2.529 3.414 3.43 10.122 3.047 6.708-.381 8.946-.87 13.747.117 2.11.434-1.619.7-1.72.987-.734 2.067 14.48.726 19.452.54 7.275-.272 20.56.865 17.957-.918-.897-.614 2.014-1.086 9.09-2.047 7.024-.955 10.758-.37 10.647-5.79"/><path fill="#F9CFC2" fill-rule="nonzero" d="M33.924 71.788S28.181 82.135 36.2 87.77C45.915 94.6 67.877 93.534 65.2 68.927"/><path fill="#ECA495" fill-rule="nonzero" d="M37.406 68.894c.024 1.423-3.553 1.573-2.187 7.713.319 1.432.98 5.54.98 5.54s-.243-3.528-2.227-4.31c-.74-.293-1.415-.31-1.62-1.061-.297-1.09.16-2.891.912-4.955.858-2.354 1.12-4.313 1.994-4.273.874.041 2.116-.563 2.148 1.346"/><path fill="#DD9B90" fill-rule="nonzero" d="M33.546 84.307s8.403 6.172 17.367 4.9c7.6-1.082 10.891-6.026 10.897-4.371.006 1.654-3.553 5.408-6.45 6.131-2.897.723-14.102 1.303-20.137-3.824-.003 0-2.696-1.46-1.677-2.836Z"/><path stroke="#000" stroke-linecap="round" stroke-width="1.146" d="M9.388 94.748s0-9.424 9.698-19.031c6.467-6.404 22.399-11.885 22.399-11.885s27.465-2.46 37.537 8.153c9.622 10.137 9.75 19.958 9.75 19.958"/><path stroke="#0F0F0F" stroke-width="1.146" d="M33.924 71.788s-5.942 12.277 2.98 16.337c16.752 7.624 28.194 3.012 28.5-19.212"/><path fill="#FFE1D2" fill-rule="nonzero" d="m59.393 79.413 2.14-11.416-7.153-4.7-19.352 4.152 3.517 14.284"/><path fill="#ECA495" fill-rule="nonzero" d="M61.125 77.208s-2.684 4.4-5.679 5.472-8.526 4.721-15.931-.71c-5.613-4.118-4.295-5.692-4.295-5.692l.21-1.32s4.215 2.812 7.202 3.6c2.986.787 12.226 2.05 16.561-1.858 0 0 1.436-1.618 1.93-.855.495.764.002 1.363.002 1.363ZM35.01 70.222c4.79 1.877 10.976 3.07 16.32 1.989 5.343-1.082 7.551-2.253 8.125-2.853l1.361-6.498-23.355-.541-3.487 3.695 1.036 4.208Z"/><path fill="#FFE1D2" fill-rule="nonzero" d="M16.134 33.823s-2.585-2.9-6.987-1.436-5.706 6.45-1.794 11.823c3.32 4.559-.293 13.112 4.516 14.077.859.171 3.5.337 4.289-1.524 1.099-2.593-.064-23.664-.064-23.664"/><path fill="#ECA495" fill-rule="nonzero" d="M8.535 39.732c.28 1.154 1.679 7.021 4.476 7.006 1.356-.007-.533-6.34-.557-6.929-.1-2.385.145-4.24-1.222-4.425-1.147-.156-3.547.856-2.697 4.348M14.246 53.925s-.191 3.103-2.028 3.309c-2.146.24-2.49-1.11-2.809-1.516 0 0-.573 1.823.951 2.626 1.525.803 4.397.19 4.702-.735.304-.925-.816-3.684-.816-3.684Z"/><path stroke="#0F0F0F" stroke-linecap="round" stroke-width="1.146" d="M9.21 41.646s-2.061-6.24 2.518-6.081"/><path stroke="#0F0F0F" stroke-linecap="round" stroke-width="1.146" d="M9.21 36.826s1.633.59 2.3 2.997"/><path stroke="#141414" stroke-width="1.146" d="M15.911 35.883s-2.362-4.964-6.764-3.5c-4.402 1.463-5.384 6.452-1.475 11.827 3.923 5.396-2.473 15.164 5.536 14.886 2.331-.08 2.95-2.333 3.74-3.009 2.142-1.83-1.037-20.204-1.037-20.204Z"/><path fill="#FFE1D2" fill-rule="nonzero" d="M78.105 33.736s2.629-3.785 7.03-2.32c4.402 1.464 5.625 8.058 1.713 13.43-3.178 4.363 1.864 12.556-3.378 14.134-1.214.366-3.992-.667-5.595-1.927-2.217-1.74.231-23.317.231-23.317"/><path fill="#ECA495" fill-rule="nonzero" d="M85.666 39.944c-.28 1.154-2.748 7.91-4.216 7.555-1.316-.318.272-6.89.297-7.478.1-2.385-.145-4.24 1.221-4.425 1.147-.156 3.548.855 2.698 4.348"/><path stroke="#0F0F0F" stroke-linecap="round" stroke-width="1.146" d="M85.74 39.676s.72-3.91-3.192-4.08"/><path stroke="#0F0F0F" stroke-linecap="round" stroke-width="1.146" d="M84.682 37.382s-1.585.708-2.07 3.16"/><path stroke="#141414" stroke-width="1.146" d="M78.105 33.736s2.629-3.785 7.03-2.32c4.402 1.464 5.625 8.058 1.713 13.43-3.245 4.455 1.596 12.179-3.519 14.179-1.117.437-2.063.186-3.017-.476-.55-.381-.887-2.134-1.52-2.839-1.882-2.097-.687-21.974-.687-21.974Z"/><path fill="#FFE1D2" fill-rule="nonzero" d="M15.489 14.731c-.866 3.514-4.367 2.482-2.016 24.147.396 3.641.773 22.852 7.171 27.935 6.678 5.297 12.794 5.409 16.826 8.654 4.426 3.558 16.799 2.912 23.44-.614 6.564-3.487 15.78-4.493 18.414-11.41 0 0 3.95-15.19 3.358-30.935-.68-18.072-1.535-20.67-9.326-29.764-9.185-10.73-20.475-16.305-33.038-12.586C28.074-6.215 19.61 4.406 16.75 10.643"/><path fill="#ECA495" fill-rule="nonzero" d="M12.788 33.165s2.08-2.326 1.986-.19c-.382 8.673 1.867 23.17 3.069 25.741.995 2.128 4.004 8.325 13.792 11.245 0 0 3.314.719 5.007 2.56C39.038 75.13 48.294 78.577 56 75.575c3.346-1.304 7.733-4.65 9.425-5.108 4.594-1.241 5.377-1.59 7.775-2.996 3.09-1.81 4.769-5.568 5.916-12.117.645-3.687 2.141-16.311 1.81-20.704-.255-3.325.573-4.824 1.619-2.764 0 0 1.265 24.843-4.937 34.338 0 0-1.07 2.54-7.32 4.825-6.25 2.286-10.183 4.528-13.127 6.004-2.944 1.475-9.65 4.836-20.265-1.337 0 0-7.486-3.938-11.289-5.307 0 0-7.997-3.103-10.497-12.493-2.499-9.39-2.182-23.323-2.322-24.75Z"/><path fill="#F1A394" fill-rule="nonzero" d="M45.117 22.49s-.302 3.205-1.515 3.711c-1.213.507-1.926.637-.167.91 3.168.496 1.89-5.282 1.89-5.282s-.384.017-.208.66ZM38.395 24.467a7.073 7.073 0 0 1-2.21.17c-1.307-.113-2.842-.516-3.356-.637-1.02-.231-4.914-.8-5.353-.618-.439.184-6.674 3.156-5.034 3.684 1.041.335 4.943-.459 7.87-.318 3.738.183 7.539.963 8.065 1.045 1.829.287 1.98-1.464 1.748-2.727-.127-.71-.7-1.304-.7-1.304s-.86-.41-1.03.705ZM57.406 25.316s.283.254 1.475.07c1.297-.201 2.8-.71 3.306-.861 1-.301 4.847-1.137 5.297-.984.45.153 6.875 2.69 5.275 3.33-1.015.406-4.963-.12-7.873.224-3.716.44-7.13 1.535-7.65 1.655-1.805.412-2.457-1.577-2.549-2.86-.064-.89.807-1.24.807-1.24s1.667-.438 1.912.666ZM50.168 24.233s-.956 3.294 1.084 2.975c1.133-.177.673-.26-.107-.585-.781-.326-.976-2.39-.976-2.39"/><path fill="#ECA495" fill-rule="nonzero" d="M13.272 34.647s2.723.449 2.819 1.722c.096 1.272.487 4.664 2.21 6.457 1.975 2.057 6.34 2.927 6.34 2.927s8.189 1.018 12.49-.287c4.301-1.304 5.395-3.563 5.9-7.572 0 0 .152-3.627.063-4.676 0 0 4.198-2.578 8.367-.064 0 0-.417 6.312 1.152 8.557 1.76 2.516 7.128 3.402 10.378 3.691 3.25.29 13.105-.732 14.602-3.436 1.498-2.705 1.785-7.65 1.785-7.65s1.428-1.66 3.186-1.81l-.412-1.773-27.114-1.241-34.533 1.273-7.494 1.304.26 2.578Z"/><path fill="#F2C3BB" fill-rule="nonzero" d="M49.59-10.34s-5.21.414-10.168 2.482c-2.758 1.15-5.438 2.97-7.102 4.292C29.325-1.189 17.705 8.88 22.685 13.27c1.338 1.181-2.064 2.663-2.955 3.182-2.27 1.334-4.255 4.45-4.255 8.197 0 2.124-.476 2.906-.297 7.437 0 0-2.127.396-2.508-.318 0 0 .01-10.287 1.218-13.745C15.096 14.564 17.667 4.236 27.93-3.83c0 .002 11.91-7.974 21.66-6.51ZM64.099-4.98C66.874-2.35 79.1 9.198 80.049 24.331c.101 1.598.499 2.905.32 7.436 0 0 1.528.713 1.91 0 0 0 1.112-10.14-.097-13.597-1.208-3.457-5.161-14.045-15.427-22.112-.002 0-4.48-2.769-2.656-1.04Z"/><path stroke="#141414" stroke-width="1.146" d="M16.058 11.664c-2.119 5.133-3.29 6.507-3.139 27.56.032 4.454 1.284 17.03 2.839 20.643 5.135 11.937 15.198 12.09 19.671 15.089 12.017 8.051 20.406 3.48 26.166.293 8.004-4.429 16.487-3.848 18.313-14.337 0 0 3.353-12.229 2.656-28.405-.734-17.026-.016-16.44-7.077-26.853C72.38 1.072 61.53-11.808 48.888-10.904c-3.532.254-2.072.015-6.117.596-9.225 1.328-18.605 7.31-26.713 21.972Z"/><path stroke="#0F0F0F" stroke-linecap="round" stroke-width=".5" d="m50.155 78.255-.856 2.87M48.325 78.575l-.1 3.422M46.064 78.08l.856 2.868M44.168 78.08l.673 2.428M42.579 77.384l.672 2.43M54.376 57.98l.417 1.22M53.168 57.794l.418 1.221M51.717 57.22l.417 1.22M56.568 57.913l.417 1.22M55.36 57.92l.418 1.22M57.647 58.103l.418 1.221M59.985 59.636l.418 1.22M59.02 59.574l.418 1.221M58.778 58.777l.417 1.22M51.744 77.908l-.672 2.43M53.395 77.474l-.673 2.43M55.55 76.925l-1.174 2.231M57.753 76.27l-1.175 2.23M59.574 74.817l-1.175 2.231M41.038 76.925l1.175 2.231M39.235 75.933l1.174 2.231M37.015 74.817l1.173 2.231"/><path fill="#E99F91" fill-rule="nonzero" d="M39.347 53.763s1.466.055 2.372.254c1.197.264.946.72 2.216 1.368 1.912.977 5.132 3.063 9.128-.869 0 0 .794-.353 1.96-.805 1.466-.567 2.158-2.92 2.74-3.867 0 0-1.688 2.143-2.453 2.678-.764.535-1.388-.267-4.159 1.347-3.965 2.309-6.27-.538-8.904-.725-.436-.03-2.103.368-2.9-.208-1.38-1-1.752-2.66-1.9-2.274-.266.688.087 2.337 1.9 3.1Z"/><path fill="#0F0F0F" fill-rule="nonzero" d="M37.406 46.584s-2.166 4.728 1.53 6.73l1.062.278s-1.997-.89-2.294-3.118c-.298-2.227.043-3.281.297-3.893.255-.613-.34-.684-.595.003ZM56.746 45.415s3.727 5.057-.574 7.09l-1.026.64s1.997-1.558 2.294-3.782c.297-2.225-1.076-3.77-1.331-4.382-.255-.611.382-.253.637.434Z"/><path fill="#141414" fill-rule="nonzero" d="M22.58 26.752s3.171-3.273 5.109-3.535c.968-.127 4.306.646 7.286 1.457.985.268 2.4.677 3.293.348 1.406-.52 1.571.89 1.571.89s-.615 3.982-3.92 2.59c-1.083-.458-1.275-2.068-4.679-2.093-3.132-.022-8.66.343-8.66.343ZM23.166 23.224s-4.566 3.477-5.32 4.345c0 0-.054.247.236.026 1.211-.922 4.63-3.75 5.084-4.371M24.947 22.606s-4.565 3.477-5.32 4.345c0 0-.055.248.235.027 1.214-.923 4.63-3.75 5.085-4.372M25.914 22.554s-3.136 2.373-3.887 3.241c0 0-.055.247.236.026 1.21-.922 3.51-2.663 3.966-3.284M21.033 22.485s-4.142 4.024-4.788 4.985c0 0-.027.255.237 0 1.1-1.068 4.17-4.306 4.551-4.984"/><path fill="#0F0F0F" fill-rule="nonzero" d="M17.7 27.118c1.252-1.109 3.936-3.263 5.48-4.297l-.892-.053a1.538 1.538 0 0 0-1.132.404c-1.283 1.187-4.026 3.989-4.631 4.765l.24-.046c.128-.11.561-.44.937-.773"/><path fill="#141414" fill-rule="nonzero" d="M72.327 26.422s-3.468-3.727-5.406-3.986c-.969-.128-3.817 1.26-6.797 2.072-.983.268-1.757.352-2.57.615-.432.14-1.148-.187-1.47-.169a.892.892 0 0 0-.771 1.26c.487 1.052 1.893 2.764 3.801 1.96 1.083-.458 1.274-2.067 4.679-2.092 3.135-.024 8.534.34 8.534.34ZM71.868 22.518s4.567 3.477 5.32 4.345c0 0 .056.247-.235.026-1.21-.922-4.63-3.75-5.085-4.371M70.088 21.904s4.566 3.477 5.32 4.344c0 0 .055.248-.236.027-1.21-.922-4.63-3.75-5.084-4.371M69.121 21.851s3.136 2.373 3.888 3.241c0 0 .055.248-.236.027-1.21-.922-3.511-2.663-3.966-3.285M74.001 21.782s4.142 4.025 4.79 4.986c0 0 .027.254-.237 0-1.1-1.068-4.172-4.307-4.553-4.985"/><path fill="#0F0F0F" fill-rule="nonzero" d="M77.335 26.415c-1.251-1.108-3.935-3.262-5.48-4.296l.892-.054c.418-.025.827.121 1.134.405 1.284 1.186 4.027 3.988 4.632 4.764l-.24-.045c-.128-.11-.561-.44-.937-.774M10.36 32.578v-1.152s2.255-.869 5.927-1.553c0 0 .063-.968.408-1.155 2.07-1.136 19.598-3.687 25.918-.598l.404.98s.404 7.895 0 9.267c-.404 1.373-.91 4.021-4.854 5.198-3.943 1.177-11.383.785-11.383.785s-7.342-.54-8.858-3.627a24.38 24.38 0 0 1-1.211-5.477l-.62-.827c-1.69-.823-3.485-1.46-5.335-1.773l-.396-.068ZM84.286 31.7v-1.8s-2.01-.632-3.872-.78c-1.217-.097-.967-.115-1.456-.118-.488-.003.243-1.252-.852-1.607-6.15-1.99-14.689-3.063-26.04-.123l-.405.979s-.404 7.894 0 9.267c.404 1.373.91 4.02 4.849 5.197 3.938 1.176 12.776.784 12.776.784s6.878-.67 8.394-3.758c0 0 .96-2.677 1.01-5.623l.492-.475a6.739 6.739 0 0 1 4.158-1.87l.946-.072Z"/><path fill="#0F0F0F" fill-rule="nonzero" d="M41.54 30.457s4.375-2.774 10.998-.613l1.506 1.07v1.842s-6.535-3.05-12.505-.128v-1.797"/><path fill="#ECA495" fill-rule="nonzero" d="M34.411 61.367s.319-1.54 2.262-1.75c.524-.057.708 1.123 4.066 1.292 2.025.103 4.224.11 4.843.22.62.11 1.517.445 2.485.44.968-.005 1.536-.033 2.786-.482 1.25-.449 3.883-.22 4.927-.42 1.044-.2 2.065-.805 2.814-.42 1.81.93.574 2.069 0 1.597-.363-.298-1.416-.803-2.239-.572-.822.23-4.165.307-4.637.523-.471.217-3.17.687-4.007.617-1.543-.127-2.827-.153-3.541-.354-.714-.201-4.46-.539-5.748-.804-1.287-.266-1.654-.22-1.654-.22s-1.757 1.16-2.357.333Z"/><path fill="#0F0F0F" fill-rule="nonzero" d="M35.436 60.873s.742-.898 1.268-.926c.526-.028.675.474 4.032.644 2.026.103 4.224.046 4.844.156.619.11 1.517.318 2.485.313.968-.005 1.536.094 2.786-.355 1.25-.448 4.301-.022 5.345-.22 1.044-.2 1.753-.426 2.438.063.685.49.097.992-.229.654-.325-.338-1.23-.542-2.052-.31-.823.233-4.665.31-5.136.527-.472.216-2.145.336-2.983.285-.837-.05-2.27.09-2.983-.112-.714-.2-5.544-.516-6.832-.781-1.287-.266-1.515-.35-1.515-.35s-.697 1.07-1.468.412Z"/><path fill="#ECA495" fill-rule="nonzero" d="M36.032 71.789s-1.932-1.973-2.092-2.8c0 0-.541-.255-.446.51.096.763 1.203 3.117 2.354 3.976 1.15.86 1.646-.035.184-1.686ZM62.586 71.569s1.667-1.901 2.376-2.667c0 0 .574-.163.357.573-.217.735-1.698 2.88-2.974 3.539-1.275.659-1.942.302.24-1.445Z"/><path fill="#F1A394" fill-rule="nonzero" d="M41.337 64.696s1.265 3.199 4.43 3.708c3.165.509 6.56-.159 8.318-1.984s1.186-2.055 1.186-2.055-1.458 1.796-4.875 1.794c-3.669 0-5.607.59-9.06-1.463"/><path fill="#FFF" fill-rule="nonzero" d="M46.32 48.171s-1.938.294-.865 1.019c1.073.724 3.644.434 3.231-.357-.413-.79-1.21-.777-2.366-.662M47.128 64.274s-1.317.18-.587.625c.729.446 2.476.268 2.196-.219-.28-.486-.824-.477-1.609-.406"/><path fill="#443C3B" fill-rule="nonzero" d="M40.944 35.289s-.96-.075-.626.59c.335.663 1.587.833 1.571.218-.015-.615-.387-.722-.945-.808"/><path fill="#FFF" fill-rule="nonzero" d="M50.452 48.49s-.357.157-.16.547c.198.39.672.234.596-.19-.076-.425-.223-.419-.436-.356"/><path stroke="#0F0F0F" stroke-linecap="round" stroke-width=".5" d="m41.427 57.8-.417 1.22M42.634 57.615l-.417 1.157M44.086 56.85l-.418 1.218M39.235 57.734l-.418 1.22M40.442 57.676l-.418 1.22M38.155 57.925l-.418 1.22M35.594 59.217l-.418 1.22M34.618 60.184l-.418 1.221M36.905 58.364l-.418 1.22"/><path fill="#FFF" fill-rule="nonzero" d="m71.814 27.395-6.4 16.168h.887l6.34-17.272-.43-.066zM23.855 42.014l6.68-15.366-1.637.132-7.05 16.604.79.236c.353.1 1.143.27 1.18.277l1.417.266-.72-.298c-.12-.094-.215-.177-.318-.244-.357-.235-.544-.713-.478-1.135l.136-.472ZM32.365 28.555l-6.138 15.723.525.08 6.588-17.587h-.233zM69.093 25.606h.005s-.593-.049-1.49-.098l-.729-.049v.014c-1.3-.058-2.95.028-4.416.11a30.22 30.22 0 0 0-3.09.318s2.669-.096 3.59-.104c.905-.008 2.804.093 4.192.482l.16.064a.97.97 0 0 1 .595 1.08l-.166.474-6.275 15.511 1.869.115 6.792-17.847-1.037-.07Z"/><path fill="#0F0F0F" fill-rule="nonzero" d="M43.838 65.549s.974.484 1.517.519c.542.035 5.198.127 5.709.077.362-.035 1.585-.343 1.99-.665.18-.143.259 0 .205.09 0 0-.416.954-2.207 1.063-1.79.11-4.731.049-5.348.029-.616-.02-2.197-.871-1.866-1.113Z"/><path fill="#443C3B" fill-rule="nonzero" d="M41.06 37.313a.588.588 0 0 1 .339.727c-.34 1.04-1.327 3.322-3.666 4.219-1.452.556-2.47.807-3.14.917a.117.117 0 0 1-.054-.226c1.465-.469 4.09-1.458 4.741-2.708l.01-.014c.063-.085.764-1.021.92-2.218v-.011l.013-.24a.549.549 0 0 1 .756-.477l.08.031ZM77.118 36.133c.142.075.138.827.043 1.125-.174.532-.493 1.4-1.051 2.23-.53.793-1.083 1.213-2.125 1.64-1.438.59-1.147.34-1.814.45-.143.024-.573-.46-.088-.62.874-.284 1.63-.353 2.339-.784 1.03-.626 1.734-1.765 2.133-2.657.31-.693.563-1.384.563-1.384Z"/></g></g></g></g></svg>