<?xml version="1.0" encoding="UTF-8"?>
<svg width="20px" height="20px" viewBox="0 0 20 20" version="1.1" xmlns="http://www.w3.org/2000/svg" xmlns:xlink="http://www.w3.org/1999/xlink">
    <title>memos-imgup</title>
    <g id="页面-1" stroke="none" stroke-width="1" fill="none" fill-rule="evenodd">
        <g id="memos-imgup">
            <path d="M12.7906977,0 C17.8271754,0 20,2.17282459 20,7.20930233 L20,12.7906977 C20,17.8271754 17.8271754,20 12.7906977,20 L7.20930233,20 C2.17282459,20 0,17.8271754 0,12.7906977 L0,7.20930233 C0,2.17282459 2.17282459,0 7.20930233,0 L12.7906977,0 Z M12.7906977,1.39534884 L7.20930233,1.39534884 C2.94345448,1.39534884 1.39534884,2.94345448 1.39534884,7.20930233 L1.39534884,12.7906977 C1.39534884,17.0565455 2.94345448,18.6046512 7.20930233,18.6046512 L12.7906977,18.6046512 C17.0565455,18.6046512 18.6046512,17.0565455 18.6046512,12.7906977 L18.6046512,7.20930233 C18.6046512,2.94345448 17.0565455,1.39534884 12.7906977,1.39534884 Z" id="Vector备份-3" fill="#888888" fill-rule="nonzero"></path>
            <path d="M8,9 C6.89543045,9 6,8.10456955 6,7 C6,5.89543045 6.89543045,5 8,5 C9.10456955,5 10,5.89543045 10,7 C10,8.10456955 9.10456955,9 8,9 Z" id="Vector备份-4" stroke="#888888" stroke-width="1.5" stroke-linecap="round" stroke-linejoin="round" stroke-dasharray="0,0"></path>
            <path d="M2,16 L6.33574741,13.1434735 C7.03052239,12.6860842 8.03310893,12.7378636 8.65752692,13.2642929 L8.9477493,13.5145625 C9.63372962,14.0927717 10.7418523,14.0927717 11.4278327,13.5145625 L15.0863935,10.4336569 C15.7723738,9.85544768 16.8804974,9.85544768 17.5664777,10.4336569 L19,11.641855" id="Vector备份-5" stroke="#888888" stroke-width="1.5" stroke-linecap="round" stroke-linejoin="round" stroke-dasharray="0,0" fill-rule="nonzero"></path>
        </g>
    </g>
</svg>