<?xml version="1.0" encoding="UTF-8"?>
<svg width="24px" height="24px" viewBox="0 0 24 24" version="1.1" xmlns="http://www.w3.org/2000/svg" xmlns:xlink="http://www.w3.org/1999/xlink">
    <title>telegram</title>
    <g id="页面-1" stroke="none" stroke-width="1" fill="none" fill-rule="evenodd">
        <g id="telegram" fill="#444444" fill-rule="nonzero">
            <path d="M12,0 C18.627417,0 24,5.372583 24,12 C24,18.627417 18.627417,24 12,24 C5.372583,24 0,18.627417 0,12 C0,5.372583 5.372583,0 12,0 Z M17.159,6.958 C17.159,6.958 14.7401875,7.82606505 12.0852508,8.80127173 L11.469375,9.027875 C8.585,10.091 5.6215,11.2105 5.305,11.436 C5.168,11.532 5.127,11.588 5.099,11.653 C4.987,11.972 5.333,12.112 5.333,12.112 L8.224,13.052 C8.2719633,13.0637013 8.3220367,13.0637013 8.37,13.052 C8.66436842,12.8667895 10.0192708,12.0113151 11.4577836,11.1109834 L11.967375,10.792375 C13.582,9.784 15.1575,8.8115 15.33,8.748 C15.383,8.732 15.424,8.748 15.413,8.789 C15.275,9.271 10.1,13.872 10.1,13.872 C10.0869525,13.8881151 10.0761849,13.905949 10.068,13.925 L9.799,16.793 C9.799,16.793 9.79583333,16.8173889 9.794625,16.8539722 L9.79492187,16.9164688 C9.8040625,17.12225 9.90475,17.4515 10.564,16.793 C11.184,16.174 11.784,15.655 12.084,15.403 C13.077,16.089 14.148,16.848 14.608,17.244 C14.7647294,17.3961216 14.9767223,17.4777407 15.195,17.47 C15.632,17.454 15.755,16.972 15.755,16.972 L15.7657939,16.9285071 C15.9253794,16.2849814 17.8018936,8.70110638 17.867,7.646 C17.867,7.538 17.8830164,7.468 17.8830164,7.394 C17.8835604,7.30273547 17.8697237,7.21195357 17.842,7.125 C17.8224889,7.03096402 17.754834,6.95418707 17.664,6.923 C17.4955733,6.88917717 17.3211505,6.90126589 17.159,6.958 Z" id="形状结合"></path>
        </g>
    </g>
</svg>