<?xml version="1.0" encoding="UTF-8"?>
<svg width="24px" height="24px" viewBox="0 0 24 24" version="1.1" xmlns="http://www.w3.org/2000/svg" xmlns:xlink="http://www.w3.org/1999/xlink">
    <title>up</title>
    <g id="页面-1" stroke="none" stroke-width="1" fill="none" fill-rule="evenodd">
        <rect id="矩形" x="0" y="0" width="24" height="24"></rect>
        <path d="M21.5759771,10.8586234 C21.5732574,10.855876 21.5704854,10.8531805 21.5677134,10.8504331 L13.0432424,2.39063085 C12.9755115,2.32386476 12.9006675,2.26456321 12.8200703,2.21371109 L12.5746177,2.08100831 L12.4072518,2.0256982 L12.2844993,2.0256982 C12.0964218,1.99143393 11.9035848,1.99143393 11.715455,2.0256982 L11.6038952,2.0256982 L11.4700024,2.0256982 L11.2803036,2.12522529 C11.1746015,2.18214234 11.0770062,2.25279621 10.9901851,2.33532075 L2.43224089,10.8504331 C1.85916941,11.4139016 1.85545598,12.3311577 2.4239772,12.899136 C2.4266969,12.9018833 2.4294689,12.9045789 2.43224089,12.9073262 C3.00991495,13.4535848 3.91871208,13.4535848 4.49643843,12.9073262 L9.59550373,7.86462055 C9.81548536,7.65084467 10.1687321,7.65426591 10.384425,7.87234427 C10.4847923,7.97378932 10.5419059,8.10960233 10.5438934,8.25168761 L10.5438934,20.551207 C10.5438411,21.3513115 11.1981896,22 12.0054689,22 C12.8127481,22 13.467149,21.3515188 13.4672536,20.5514144 L13.4672536,8.25168761 C13.4715946,7.94636754 13.7248402,7.70226699 14.0328982,7.70656947 C14.1762053,7.70859111 14.3132885,7.7651453 14.4156432,7.86462055 L19.4924279,12.9073262 C20.0715664,13.4606346 20.9886272,13.4606346 21.5677657,12.9073262 C22.1408372,12.3438578 22.1445507,11.4266016 21.5759771,10.8586234 Z" id="路径" fill="#000000" fill-rule="nonzero"></path>
    </g>
</svg>