<?xml version="1.0" encoding="UTF-8"?>
<svg width="50px" height="14px" viewBox="0 0 50 14" version="1.1" xmlns="http://www.w3.org/2000/svg" xmlns:xlink="http://www.w3.org/1999/xlink">
    <title>又拍云_logo8</title>
    <g id="页面-1" stroke="none" stroke-width="1" fill="none" fill-rule="evenodd">
        <g id="又拍云_logo8" fill="#D6D6D6" fill-rule="nonzero">
            <path d="M11.4368766,1.40717915 L11.4368766,1.40717915 L11.4368766,1.40717915 L11.4368766,1.40717915 L11.4368766,1.40717915 C11.1692401,1.20987676 10.8920799,1.03399032 10.6074524,0.878883709 C10.401395,0.766609001 10.1426328,0.81908868 10.0009684,1.00366872 L8.21614787,3.3267692 L8.08887714,3.49247776 C7.89559013,3.74406216 7.58693696,3.88103943 7.2658381,3.86662077 C7.14874037,3.86142581 7.03164264,3.86248601 6.9149778,3.86969534 C6.01791395,3.9253556 5.15007042,4.34943382 4.56717913,5.10810975 C4.09857176,5.71804025 3.8930555,6.44141166 3.93093369,7.14845607 C3.93775177,7.27578556 4.01285881,7.39208901 4.13125523,7.44488675 C4.37692237,7.55429893 4.56598867,7.77747009 4.6132823,8.06298075 C4.68016437,8.46680923 4.42692159,8.8635344 4.02692786,8.98100407 C3.55539846,9.11946561 3.07109869,8.83649942 2.9648233,8.37414814 C2.90724845,8.12372995 2.97337295,7.87469002 3.12315415,7.68714143 C3.20626973,7.58313624 3.24804397,7.45358035 3.23613939,7.32201008 C3.15410605,6.41533085 3.40063898,5.4770578 4.00344338,4.6925131 C4.76382106,3.70292658 5.92083755,3.17918998 7.09452044,3.17251075 C7.32070737,3.17123851 7.5330417,3.06532498 7.66907853,2.88827232 L9.3127757,0.749009755 C9.44145333,0.581604879 9.35833775,0.34104651 9.15303794,0.281993618 C6.4009166,-0.508912257 3.31925497,0.381015882 1.4735047,2.73592222 C-0.918124459,5.78727101 -0.336964742,10.1868705 2.77077873,12.5387023 C3.06157503,12.7587988 3.36405947,12.9531327 3.67552644,13.122658 C3.88039336,13.2341905 4.1380733,13.1795905 4.27908841,12.9961766 L6.0639089,10.6731822 L6.19117963,10.5074736 C6.38446664,10.2558892 6.69311981,10.1189119 7.01421867,10.1333306 C7.1313164,10.1385256 7.24841413,10.1374654 7.36507897,10.130256 C8.26214282,10.0745958 9.12998636,9.65051755 9.71287765,8.89184162 C10.181485,8.28191113 10.3870013,7.55853971 10.3491231,6.8514953 C10.342305,6.72416582 10.267198,6.60786236 10.1488015,6.55506463 C9.9031344,6.44565245 9.7140681,6.22248128 9.66677447,5.93697062 C9.59989241,5.53314214 9.85313519,5.13641697 10.2531289,5.01905332 C10.7246583,4.88059179 11.2089581,5.16355798 11.3152335,5.62590925 C11.3728083,5.87632744 11.3066838,6.12536737 11.1569026,6.31291596 C11.073787,6.41692115 11.0320128,6.54647704 11.0439174,6.67804731 C11.1259507,7.58472654 10.8794178,8.52299959 10.2766134,9.30754429 C9.51623571,10.2971308 8.35921922,10.8208674 7.18553633,10.8275466 C6.9593494,10.8288189 6.74701507,10.9347324 6.61097824,11.1117851 L4.9673893,13.2509416 C4.83968567,13.4171803 4.91987922,13.6582687 5.12366391,13.7170036 C7.8977546,14.5157549 11.0075543,13.6062131 12.8490839,11.2094291 C15.2219904,8.12054936 14.5898574,3.73197593 11.4368766,1.40717915 Z" id="路径"></path>
            <g id="编组" transform="translate(16.4755, 1.3193)">
                <path d="M9.21966948,0.948178311 L9.21953076,0.7345792 C9.21939204,0.580139001 9.09190756,0.454869325 8.93473682,0.454869325 L1.80115508,0.454869325 C1.64384562,0.454869325 1.51636114,0.580139001 1.51636114,0.734715511 L1.51636114,1.16232267 C1.51636114,1.31689918 1.64384562,1.44216885 1.80115508,1.44216885 L7.85340768,1.44216885 C8.02750237,1.44216885 8.16150672,1.59306497 8.13556592,1.76222674 C7.96577158,2.86811671 7.43349963,4.93622501 5.77023646,6.92213786 C5.65273989,7.06240174 5.43467069,7.05994814 5.32064214,6.91682174 C3.92899442,5.16822609 3.50076311,3.37546572 3.38382142,2.71490331 C3.35829678,2.57027749 3.2220729,2.47063426 3.07350285,2.48617369 L2.84558447,2.50989178 L2.64457794,2.53047472 C2.47977755,2.54737727 2.36352946,2.69786445 2.39377061,2.85802971 C2.53637566,3.61564544 3.0558853,5.69888425 4.6894622,7.68179826 C4.78420855,7.79670831 4.77616274,7.9647796 4.66518605,8.06483177 C2.67648373,9.85718321 0.887955626,10.2500311 0.248174999,10.3353617 C0.105708671,10.3544452 -0.000690232716,10.4728993 0,10.6142537 L0.00208418458,11.0462228 C0.00291650977,11.212522 0.149821905,11.3425626 0.317812873,11.3232065 C1.07855809,11.235286 3.10832179,10.8129949 5.35116073,8.7860525 C5.4619987,8.68600034 5.63054455,8.68600034 5.74096636,8.78646144 C6.82479247,9.77267048 8.21005903,10.723575 10.0782129,11.3075307 C10.2295574,11.3548306 10.3915833,11.2684095 10.4363902,11.1187402 L10.5594356,10.7088534 C10.6035488,10.5619103 10.5182355,10.4092422 10.3698042,10.3627602 C8.67019614,9.83005735 7.41713056,8.97238944 6.43318347,8.09304811 C6.3197098,7.99163284 6.31402225,7.81960854 6.41362383,7.70510742 C9.18582159,4.51597864 9.21994692,1.10330006 9.21966948,0.948178311 Z" id="路径"></path>
                <path d="M14.1715882,0.0073607862 L13.7364208,0.0073607862 C13.5791114,0.0073607862 13.4516269,0.132630462 13.4516269,0.287206973 L13.4516269,1.78649007 C13.4516269,1.94106658 13.3241424,2.06633626 13.166833,2.06633626 L12.1432117,2.06633626 C11.9859022,2.06633626 11.8584178,2.19160594 11.8584178,2.34618245 L11.8584178,2.7737896 C11.8584178,2.92836611 11.9859022,3.05363579 12.1432117,3.05363579 L13.166833,3.05363579 C13.3241424,3.05363579 13.4516269,3.17890546 13.4516269,3.33348197 L13.4516269,5.50532283 C13.4516269,5.65989934 13.3241424,5.78516902 13.166833,5.78516902 L12.1432117,5.78516902 C11.9859022,5.78516902 11.8584178,5.9104387 11.8584178,6.06501521 L11.8584178,6.49262236 C11.8584178,6.64719887 11.9859022,6.77246855 12.1432117,6.77246855 L13.166833,6.77246855 C13.3241424,6.77246855 13.4516269,6.89773822 13.4516269,7.05231473 L13.4516269,9.10583777 C13.4516269,9.55157427 13.2703187,10.278929 12.113248,10.3748918 C11.9637069,10.3872961 11.8467652,10.5064318 11.8467652,10.6539202 L11.8467652,11.0798916 C11.8467652,11.2429194 11.9878443,11.3739141 12.1531996,11.3600104 C13.2766999,11.265547 14.4563821,10.6386533 14.4563821,9.10583777 L14.4563821,7.05231473 C14.4563821,6.89773822 14.5838666,6.77246855 14.7411761,6.77246855 L15.6507688,6.77246855 C15.8080782,6.77246855 15.9355627,6.64719887 15.9355627,6.49262236 L15.9355627,6.06501521 C15.9355627,5.9104387 15.8080782,5.78516902 15.6507688,5.78516902 L14.7411761,5.78516902 C14.5838666,5.78516902 14.4563821,5.65989934 14.4563821,5.50532283 L14.4563821,3.33348197 C14.4563821,3.17890546 14.5838666,3.05363579 14.7411761,3.05363579 L15.6507688,3.05363579 C15.8080782,3.05363579 15.9355627,2.92836611 15.9355627,2.7737896 L15.9355627,2.34618245 C15.9355627,2.19160594 15.8080782,2.06633626 15.6507688,2.06633626 L14.7411761,2.06633626 C14.5838666,2.06633626 14.4563821,1.94106658 14.4563821,1.78649007 L14.4563821,0.287206973 C14.4563821,0.132630462 14.3288976,0.0073607862 14.1715882,0.0073607862 Z" id="路径"></path>
                <path d="M16.4380097,11.0126903 C16.4380097,11.1672668 16.5654941,11.2925365 16.7228036,11.2925365 L19.932527,11.2925365 C21.3528899,11.2925365 22.5084347,10.2102283 22.5084347,8.87983437 L22.5084347,2.25103747 C22.5084347,2.09646096 22.3809502,1.97119128 22.2236408,1.97119128 L16.7228036,1.97119128 C16.5654941,1.97119128 16.4380097,2.09646096 16.4380097,2.25103747 L16.4380097,11.0126903 Z M19.932527,10.305237 L17.7275588,10.305237 C17.5702494,10.305237 17.4427649,10.1799673 17.4427649,10.0253908 L17.4427649,7.05245104 C17.4427649,6.89787453 17.5702494,6.77260486 17.7275588,6.77260486 L21.2187468,6.77260486 C21.3760563,6.77260486 21.5035408,6.89787453 21.5035408,7.05245104 L21.5035408,8.87983437 C21.5036795,9.66580276 20.7988388,10.305237 19.932527,10.305237 Z M21.5036795,3.23847331 L21.5036795,5.50545914 C21.5036795,5.66003565 21.376195,5.78530533 21.2188856,5.78530533 L17.7276976,5.78530533 C17.5703881,5.78530533 17.4429036,5.66003565 17.4429036,5.50545914 L17.4429036,3.23847331 C17.4429036,3.0838968 17.5703881,2.95862712 17.7276976,2.95862712 L21.2188856,2.95862712 C21.376195,2.95862712 21.5036795,3.0838968 21.5036795,3.23847331 Z" id="形状"></path>
                <path d="M20.8109075,0 L17.975453,0 C17.8181436,0 17.6906591,0.125269676 17.6906591,0.279846186 L17.6906591,0.70745334 C17.6906591,0.86202985 17.8181436,0.987299527 17.975453,0.987299527 L20.8109075,0.987299527 C20.968217,0.987299527 21.0957014,0.86202985 21.0957014,0.70745334 L21.0957014,0.279846186 C21.0957014,0.125269676 20.968217,0 20.8109075,0 Z" id="路径"></path>
                <path d="M31.6494461,0.434286386 L25.7436827,0.434286386 C25.5863733,0.434286386 25.4588888,0.559556062 25.4588888,0.714132572 L25.4588888,1.14173973 C25.4588888,1.29631624 25.5863733,1.42158591 25.7436827,1.42158591 L31.6494461,1.42158591 C31.8067556,1.42158591 31.93424,1.29631624 31.93424,1.14173973 L31.93424,0.714132572 C31.93424,0.559556062 31.8067556,0.434286386 31.6494461,0.434286386 Z" id="路径"></path>
                <path d="M29.1256974,5.38414248 L33.2397421,5.38414248 C33.3970515,5.38414248 33.524536,5.25887281 33.524536,5.1042963 L33.524536,4.67668914 C33.524536,4.52211263 33.3970515,4.39684296 33.2397421,4.39684296 L24.1521382,4.39684296 C23.9948288,4.39684296 23.8673443,4.52211263 23.8673443,4.67668914 L23.8673443,5.1042963 C23.8673443,5.25887281 23.9948288,5.38414248 24.1521382,5.38414248 L26.9645651,5.38414248 C27.1917898,5.38414248 27.3275976,5.63277348 27.2019164,5.8188378 L25.3302945,9.13705296 C25.2799389,9.21134237 25.242623,9.28426868 25.2164047,9.35964858 C25.0597889,9.8093381 25.1330335,10.2917422 25.4176887,10.683227 C25.7159385,11.0935227 26.2092299,11.338337 26.7367854,11.338337 L31.8661281,11.338337 C32.0966822,11.338337 32.3073992,11.2253353 32.4294735,11.0359995 C32.5491896,10.850753 32.563894,10.6217508 32.4687315,10.4232822 L31.2776742,8.15466062 C31.2055393,8.01725928 31.0336642,7.96341649 30.8939723,8.03429814 L30.5072185,8.23044946 C30.3673879,8.3013311 30.3125931,8.47008394 30.384728,8.60748528 L31.0859619,9.94278642 C31.1837601,10.1291234 31.0461491,10.3510374 30.8327964,10.3510374 L26.7366467,10.3510374 C26.5296751,10.3510374 26.346841,10.2628443 26.235032,10.1090857 C26.1841215,10.0392945 26.110322,9.90053006 26.1533254,9.72768789 C26.1605389,9.69878999 26.1751046,9.67139151 26.1918898,9.64644662 L28.4664959,5.73159885 C28.6132625,5.51459197 28.8606018,5.38414248 29.1256974,5.38414248 Z" id="路径"></path>
            </g>
        </g>
    </g>
</svg>