<svg xmlns="http://www.w3.org/2000/svg" xmlns:xlink="http://www.w3.org/1999/xlink" width="24" height="24" viewBox="0 0 24 24"><title>github</title><defs><path id="a" d="M11.953 0C5.362 0 0 5.362 0 11.953 0 18.544 5.362 24 11.953 24 18.544 24 24 18.544 24 11.953S18.544 0 11.953 0Z"/></defs><g fill="none" fill-rule="evenodd"><mask id="b" fill="#fff"><use xlink:href="#a"/></mask><use xlink:href="#a" fill="#444" fill-rule="nonzero"/><path fill="#DEDEDE" fill-rule="nonzero" d="M8.896 24c.624 0 .8-.249.8-.567 0-.318 0-1.009-.013-1.99-3.24.704-3.932-1.577-3.932-1.577-.528-1.34-1.301-1.714-1.301-1.714-1.058-.719.081-.705.081-.705 1.166.083 1.79 1.203 1.79 1.203 1.044 1.797 2.725 1.272 3.389.968a2.491 2.491 0 0 1 .746-1.577c-2.59-.29-5.315-1.3-5.315-5.778a4.54 4.54 0 0 1 1.207-3.139c-.136-.29-.529-1.479.095-3.096 0 0 .976-.318 3.213 1.202a10.978 10.978 0 0 1 5.83 0c2.209-1.507 3.199-1.202 3.199-1.202.623 1.603.23 2.792.122 3.096A4.527 4.527 0 0 1 20 12.263c0 4.493-2.725 5.474-5.328 5.765.406.345.786 1.064.786 2.156 0 1.576-.013 2.82-.013 3.194 0 .304.135.553.8.553L8.895 24Z" mask="url(#b)"/></g></svg>