<svg xmlns="http://www.w3.org/2000/svg" width="24" height="24" viewBox="0 0 24 24"><title>instagram</title><g fill="none" fill-rule="nonzero"><circle cx="12" cy="12" r="12" fill="#444"/><path fill="#DEDEDE" d="M12 5.806c2.018 0 2.256 0 3.052.045.48.005.955.092 1.405.26.66.252 1.183.773 1.44 1.432.167.45.255.925.26 1.405.037.796.044 1.034.044 3.052s0 2.256-.045 3.052a4.16 4.16 0 0 1-.26 1.405 2.508 2.508 0 0 1-1.432 1.433 4.16 4.16 0 0 1-1.404.26c-.797.037-1.035.044-3.053.044s-2.256 0-3.052-.045a4.16 4.16 0 0 1-1.405-.26 2.508 2.508 0 0 1-1.433-1.432 4.16 4.16 0 0 1-.26-1.405c-.049-.796-.049-1.034-.049-3.052s0-2.256.044-3.052a4.16 4.16 0 0 1 .26-1.405A2.508 2.508 0 0 1 7.545 6.11a4.16 4.16 0 0 1 1.404-.26c.797-.037 1.035-.044 3.053-.044m0-1.362c-2.052 0-2.311.01-3.115.047a5.511 5.511 0 0 0-1.835.355 3.858 3.858 0 0 0-2.21 2.21 5.511 5.511 0 0 0-.355 1.835c-.037.805-.046 1.066-.046 3.114s.009 2.311.046 3.115c.013.627.134 1.248.356 1.835a3.858 3.858 0 0 0 2.21 2.204 5.511 5.511 0 0 0 1.834.356c.805.037 1.067.046 3.115.046s2.31 0 3.114-.046a5.511 5.511 0 0 0 1.835-.356 3.858 3.858 0 0 0 2.208-2.21 5.511 5.511 0 0 0 .356-1.834c.037-.806.046-1.067.046-3.115s-.009-2.311-.046-3.115a5.511 5.511 0 0 0-.356-1.834 3.858 3.858 0 0 0-2.21-2.21 5.511 5.511 0 0 0-1.834-.356c-.806-.037-1.067-.046-3.115-.046l.002.005Z"/><path fill="#DEDEDE" d="M12 8.12a3.88 3.88 0 1 0 0 7.76 3.88 3.88 0 0 0 0-7.76Zm0 6.4a2.52 2.52 0 1 1 0-5.034 2.52 2.52 0 0 1 0 5.033v.002Z"/><circle cx="16.034" cy="7.966" r="1" fill="#DEDEDE"/></g></svg>