<svg xmlns="http://www.w3.org/2000/svg" width="24" height="24" viewBox="0 0 24 24"><title>编组 2</title><g fill="none" fill-rule="nonzero"><path fill="#444" d="M12 0C5.373 0 0 5.373 0 12s5.373 12 12 12 12-5.373 12-12S18.627 0 12 0Z"/><path fill="#DEDEDE" d="M7.558 18.316a1.876 1.876 0 0 1 0-3.75 1.876 1.876 0 0 1 0 3.75Z"/><path fill="#DEDEDE" d="M13.857 18.316h-2.222c.01-.123.02-.245.02-.37a5.642 5.642 0 0 0-5.601-5.6c-.125 0-.247.01-.37.019v-2.222c.123 0 .245-.019.37-.019a7.866 7.866 0 0 1 7.822 7.822c0 .125-.014.247-.02.37Z"/><path fill="#DEDEDE" d="M18.297 18.316h-2.22c0-.123.019-.245.019-.37C16.07 12.411 11.589 7.93 6.054 7.904c-.125 0-.247.014-.37.02v-2.22c.125 0 .245-.02.37-.02 6.764.02 12.243 5.498 12.262 12.262 0 .125-.016.245-.02.37Z"/></g></svg>