<svg xmlns="http://www.w3.org/2000/svg" width="24" height="24" viewBox="0 0 24 24"><title>telegram</title><g fill="none" fill-rule="nonzero"><circle cx="12" cy="12" r="12" fill="#444"/><path fill="#DEDEDE" d="M17.842 7.125a.272.272 0 0 0-.178-.202.958.958 0 0 0-.505.035S5.938 10.985 5.305 11.436c-.137.096-.178.152-.206.217-.112.319.234.459.234.459l2.891.94a.308.308 0 0 0 .146 0c.658-.414 6.615-4.177 6.96-4.304.053-.016.094 0 .083.041-.138.482-5.313 5.083-5.313 5.083a.226.226 0 0 0-.032.053l-.269 2.868s-.114.878.765 0c.62-.619 1.22-1.138 1.52-1.39.993.686 2.064 1.445 2.524 1.841a.802.802 0 0 0 .587.226c.437-.016.56-.498.56-.498s2.044-8.224 2.112-9.326c0-.108.016-.178.016-.252a.868.868 0 0 0-.041-.269Z"/></g></svg>