<svg xmlns="http://www.w3.org/2000/svg" width="24" height="24" viewBox="0 0 24 24"><title>twitter</title><g fill="none" fill-rule="nonzero"><circle cx="12" cy="12" r="12" fill="#444"/><path fill="#DEDEDE" d="M9.575 18.912c5.867 0 9.067-4.857 9.067-9.067v-.412a6.492 6.492 0 0 0 1.59-1.65 6.324 6.324 0 0 1-1.83.501 3.2 3.2 0 0 0 1.4-1.761 6.437 6.437 0 0 1-2.031.766 3.188 3.188 0 0 0-5.43 2.905 9.044 9.044 0 0 1-6.567-3.328 3.188 3.188 0 0 0 .987 4.254 3.148 3.148 0 0 1-1.444-.4v.04a3.188 3.188 0 0 0 2.557 3.124 3.2 3.2 0 0 1-1.438.056 3.2 3.2 0 0 0 2.972 2.22 6.388 6.388 0 0 1-4.716 1.32 9.01 9.01 0 0 0 4.883 1.432"/></g></svg>