<?xml version="1.0" encoding="UTF-8"?>
<svg width="47px" height="16px" viewBox="0 0 47 16" version="1.1" xmlns="http://www.w3.org/2000/svg" xmlns:xlink="http://www.w3.org/1999/xlink">
    <title>又拍云_logo8</title>
    <g id="页面-1" stroke="none" stroke-width="1" fill="none" fill-rule="evenodd">
        <g id="iPhone-11" transform="translate(-183.000000, -379.000000)" fill="#999999" fill-rule="nonzero">
            <g id="又拍云_logo8" transform="translate(183.000000, 379.000000)">
                <path d="M12.7401948,1.60820474 L12.7401948,1.60820474 L12.7401948,1.60820474 L12.7401948,1.60820474 L12.7401948,1.60820474 C12.4420591,1.38271629 12.1333145,1.18170322 11.8162514,1.00443852 C11.5867123,0.876124573 11.2984622,0.936101349 11.140654,1.14704997 L9.15243979,3.80202194 L9.0106656,3.99140316 C8.79535208,4.27892819 8.45152556,4.43547363 8.09383506,4.41899516 C7.96339316,4.41305807 7.83295127,4.41426972 7.70299159,4.42250895 C6.70370056,4.48612069 5.73695972,4.97078151 5.08764358,5.83783971 C4.56563487,6.53490314 4.33669849,7.36161333 4.37889319,8.16966408 C4.38648823,8.31518349 4.47015429,8.44810172 4.60204287,8.50844199 C4.87570563,8.63348449 5.08631746,8.88853724 5.13900055,9.21483514 C5.21350434,9.6763534 4.93140263,10.1297536 4.48582661,10.2640046 C3.96056288,10.4222464 3.42107351,10.0988565 3.30268724,9.57045502 C3.2385513,9.2842628 3.31221119,8.99964574 3.47906109,8.78530449 C3.57164831,8.66644142 3.61818304,8.51837754 3.60492185,8.36801152 C3.51354018,7.33180669 3.7881674,6.25949463 4.4596659,5.36287211 C5.30669434,4.23191609 6.59556157,3.63335998 7.90299447,3.62572657 C8.1549571,3.62427259 8.39148853,3.50322855 8.54302778,3.30088265 L10.3740366,0.856011149 C10.517378,0.66469129 10.4247908,0.38976744 10.1960955,0.322278421 C7.13034925,-0.581614008 3.69750907,0.435446722 1.64142166,3.12676825 C-1.02275165,6.61402402 -0.375364412,11.6421377 3.08652983,14.3299454 C3.41046456,14.5814844 3.74741937,14.8035802 4.09438036,14.9973234 C4.3225934,15.1247892 4.60963791,15.0623891 4.76672275,14.8527733 L6.75493698,12.1979225 L6.89671117,12.0085413 C7.11202469,11.7210162 7.45585121,11.5644708 7.8135417,11.5809493 C7.9439836,11.5868864 8.0744255,11.5856747 8.20438518,11.5774355 C9.20367621,11.5138237 10.170417,11.0291629 10.8197332,10.1621047 C11.3417419,9.46504129 11.5706783,8.63833109 11.5284836,7.83028034 C11.5208885,7.68476093 11.4372225,7.5518427 11.3053339,7.49150243 C11.0316711,7.36645994 10.8210593,7.11140718 10.7683762,6.78510929 C10.6938724,6.32359102 10.9759741,5.87019082 11.4215502,5.73606094 C11.9468139,5.57781918 12.4863033,5.90120912 12.6046895,6.42961057 C12.6688255,6.71580279 12.5951656,7.00041985 12.4283157,7.2147611 C12.3357285,7.33362417 12.2891937,7.48168805 12.3024549,7.63205407 C12.3938366,8.6682589 12.1192094,9.74057096 11.4477109,10.6371935 C10.6006824,11.7681495 9.3118152,12.3667056 8.0043823,12.374339 C7.75241967,12.375793 7.51588824,12.496837 7.36434899,12.6991829 L5.53346071,15.1439333 C5.3912043,15.3339203 5.48053651,15.60945 5.70754399,15.6765755 C8.7977632,16.5894342 12.261948,15.5499579 14.3133337,12.8107761 C16.9566508,9.28062785 16.2524816,4.26511535 12.7401948,1.60820474 Z" id="路径"></path>
                <g id="编组" transform="translate(17.865281, 2.950473)">
                    <path d="M8.01241465,0.842825165 L8.01229409,0.652959289 C8.01217353,0.515679112 7.90138231,0.404328289 7.76479204,0.404328289 L1.56530572,0.404328289 C1.42859489,0.404328289 1.31780367,0.515679112 1.31780367,0.653080454 L1.31780367,1.0331757 C1.31780367,1.17057704 1.42859489,1.28192787 1.56530572,1.28192787 L6.82505581,1.28192787 C6.97635395,1.28192787 7.09281132,1.41605775 7.07026729,1.56642377 C6.9227064,2.54943708 6.46013194,4.38775557 5.0146621,6.15301144 C4.91255093,6.27769043 4.72303645,6.27550946 4.62393919,6.14828599 C3.41451855,4.59397874 3.0423613,3.00041397 2.94073235,2.41324739 C2.91855,2.2846911 2.80016373,2.19611934 2.67104795,2.20993217 L2.47297397,2.23101492 L2.29828792,2.24931086 C2.15506705,2.26433535 2.05404089,2.39810174 2.08032216,2.54047085 C2.20425402,3.21390706 2.6557373,5.06567489 4.0754081,6.82826512 C4.15774804,6.93040739 4.15075577,7.07980409 4.05431075,7.16873935 C2.32601586,8.76194063 0.771683701,9.11113875 0.215678121,9.18698817 C0.0918668182,9.2039513 -0.0005998513,9.30924386 0,9.43489218 L0.00181127437,9.81886471 C0.00253461207,9.96668626 0.130203716,10.0822779 0.276197376,10.0650724 C0.937328035,9.98692085 2.70130758,9.61155104 4.65046157,7.80982445 C4.74678604,7.72088919 4.89326192,7.72088919 4.98922472,7.81018794 C5.93113097,8.6868182 7.13500602,9.53206667 8.75853749,10.0511384 C8.89006439,10.0931827 9.03087413,10.016364 9.06981381,9.8833246 L9.17674723,9.51898083 C9.21508413,9.38836474 9.14094202,9.25265971 9.01194679,9.21134237 C7.53489121,8.73782875 6.4459063,7.97545728 5.59080058,7.19382055 C5.49218554,7.10367363 5.48724273,6.95076314 5.57380214,6.84898437 C7.98299891,4.01420324 8.01265576,0.980711169 8.01241465,0.842825165 Z" id="路径"></path>
                    <path d="M12.3159123,0.00654292106 L11.9377272,0.00654292106 C11.8010164,0.00654292106 11.6902252,0.117893744 11.6902252,0.255295087 L11.6902252,1.58799118 C11.6902252,1.72539252 11.579434,1.83674334 11.4427231,1.83674334 L10.5531383,1.83674334 C10.4164275,1.83674334 10.3056363,1.94809416 10.3056363,2.08549551 L10.3056363,2.46559075 C10.3056363,2.6029921 10.4164275,2.71434292 10.5531383,2.71434292 L11.4427231,2.71434292 C11.579434,2.71434292 11.6902252,2.82569374 11.6902252,2.96309509 L11.6902252,4.8936203 C11.6902252,5.03102164 11.579434,5.14237246 11.4427231,5.14237246 L10.5531383,5.14237246 C10.4164275,5.14237246 10.3056363,5.25372328 10.3056363,5.39112463 L10.3056363,5.77121987 C10.3056363,5.90862122 10.4164275,6.01997204 10.5531383,6.01997204 L11.4427231,6.01997204 C11.579434,6.01997204 11.6902252,6.13132286 11.6902252,6.26872421 L11.6902252,8.09407802 C11.6902252,8.49028824 11.5326581,9.13682577 10.5270982,9.22212608 C10.3971385,9.23315211 10.2955095,9.3390505 10.2955095,9.47015125 L10.2955095,9.84879252 C10.2955095,9.9937061 10.4181153,10.1101459 10.5618184,10.097787 C11.5382037,10.0138195 12.5634144,9.45658075 12.5634144,8.09407802 L12.5634144,6.26872421 C12.5634144,6.13132286 12.6742056,6.01997204 12.8109164,6.01997204 L13.601404,6.01997204 C13.7381148,6.01997204 13.848906,5.90862122 13.848906,5.77121987 L13.848906,5.39112463 C13.848906,5.25372328 13.7381148,5.14237246 13.601404,5.14237246 L12.8109164,5.14237246 C12.6742056,5.14237246 12.5634144,5.03102164 12.5634144,4.8936203 L12.5634144,2.96309509 C12.5634144,2.82569374 12.6742056,2.71434292 12.8109164,2.71434292 L13.601404,2.71434292 C13.7381148,2.71434292 13.848906,2.6029921 13.848906,2.46559075 L13.848906,2.08549551 C13.848906,1.94809416 13.7381148,1.83674334 13.601404,1.83674334 L12.8109164,1.83674334 C12.6742056,1.83674334 12.5634144,1.72539252 12.5634144,1.58799118 L12.5634144,0.255295087 C12.5634144,0.117893744 12.4526231,0.00654292106 12.3159123,0.00654292106 Z" id="路径"></path>
                    <path d="M14.2855609,9.78905807 C14.2855609,9.92645941 14.3963521,10.0378102 14.5330629,10.0378102 L17.3224942,10.0378102 C18.55687,10.0378102 19.5611038,9.07575851 19.5611038,7.89318611 L19.5611038,2.00092219 C19.5611038,1.86352085 19.4503126,1.75217003 19.3136018,1.75217003 L14.5330629,1.75217003 C14.3963521,1.75217003 14.2855609,1.86352085 14.2855609,2.00092219 L14.2855609,9.78905807 Z M17.3224942,9.16021066 L15.4062521,9.16021066 C15.2695412,9.16021066 15.15875,9.04885983 15.15875,8.91145849 L15.15875,6.26884537 C15.15875,6.13144403 15.2695412,6.02009321 15.4062521,6.02009321 L18.4402921,6.02009321 C18.5770029,6.02009321 18.6877941,6.13144403 18.6877941,6.26884537 L18.6877941,7.89318611 C18.6879147,8.59182468 18.0753682,9.16021066 17.3224942,9.16021066 Z M18.6879147,2.87864294 L18.6879147,4.89374146 C18.6879147,5.0311428 18.5771234,5.14249363 18.4404126,5.14249363 L15.4063726,5.14249363 C15.2696618,5.14249363 15.1588706,5.0311428 15.1588706,4.89374146 L15.1588706,2.87864294 C15.1588706,2.7412416 15.2696618,2.62989077 15.4063726,2.62989077 L18.4404126,2.62989077 C18.5771234,2.62989077 18.6879147,2.7412416 18.6879147,2.87864294 Z" id="形状"></path>
                    <path d="M18.0858566,0 L15.6216862,0 C15.4849753,0 15.3741841,0.111350823 15.3741841,0.248752166 L15.3741841,0.628847413 C15.3741841,0.766248756 15.4849753,0.877599579 15.6216862,0.877599579 L18.0858566,0.877599579 C18.2225674,0.877599579 18.3333586,0.766248756 18.3333586,0.628847413 L18.3333586,0.248752166 C18.3333586,0.111350823 18.2225674,0 18.0858566,0 Z" id="路径"></path>
                    <path d="M27.5051601,0.386032343 L22.3727175,0.386032343 C22.2360066,0.386032343 22.1252154,0.497383166 22.1252154,0.634784509 L22.1252154,1.01487976 C22.1252154,1.1522811 22.2360066,1.26363192 22.3727175,1.26363192 L27.5051601,1.26363192 C27.641871,1.26363192 27.7526622,1.1522811 27.7526622,1.01487976 L27.7526622,0.634784509 C27.7526622,0.497383166 27.641871,0.386032343 27.5051601,0.386032343 Z" id="路径"></path>
                    <path d="M25.3118797,4.78590443 L28.8872174,4.78590443 C29.0239282,4.78590443 29.1347194,4.67455361 29.1347194,4.53715226 L29.1347194,4.15705702 C29.1347194,4.01965567 29.0239282,3.90830485 28.8872174,3.90830485 L20.9895752,3.90830485 C20.8528644,3.90830485 20.7420732,4.01965567 20.7420732,4.15705702 L20.7420732,4.53715226 C20.7420732,4.67455361 20.8528644,4.78590443 20.9895752,4.78590443 L23.4337333,4.78590443 C23.6312045,4.78590443 23.7492291,5.00690976 23.6400051,5.17230027 L22.0134597,8.12182485 C21.9696978,8.18785989 21.9372682,8.25268327 21.914483,8.31968763 C21.778375,8.71941164 21.8420287,9.1482153 22.0894102,9.49620177 C22.3486062,9.86090904 22.7773044,10.0785217 23.2357799,10.0785217 L27.693469,10.0785217 C27.8938336,10.0785217 28.0769586,9.97807579 28.1830481,9.80977732 C28.2870882,9.64511381 28.2998672,9.44155626 28.2171655,9.26513972 L27.1820693,7.24858722 C27.11938,7.12645269 26.9700108,7.07859244 26.8486106,7.14159834 L26.5124997,7.31595507 C26.390979,7.37896098 26.3433592,7.5289635 26.4060485,7.65109803 L27.0154605,8.83803238 C27.1004527,9.00366521 26.9808609,9.20092216 26.7954453,9.20092216 L23.2356594,9.20092216 C23.0557894,9.20092216 22.8968962,9.12252828 22.7997278,8.98585393 C22.7554837,8.92381734 22.6913477,8.80047116 22.7287202,8.64683368 C22.7349891,8.62114666 22.7476475,8.59679245 22.7622348,8.57461922 L24.7389962,5.09475454 C24.8665448,4.90185953 25.0814966,4.78590443 25.3118797,4.78590443 Z" id="路径"></path>
                </g>
            </g>
        </g>
    </g>
</svg>