<?xml version="1.0" encoding="UTF-8"?>
<svg width="24px" height="24px" viewBox="0 0 24 24" version="1.1" xmlns="http://www.w3.org/2000/svg" xmlns:xlink="http://www.w3.org/1999/xlink">
    <title>编组 7</title>
    <g id="页面-1" stroke="none" stroke-width="1" fill="none" fill-rule="evenodd">
        <g id="编组-7" fill-rule="nonzero">
            <g id="编组-4备份" fill="#010201">
                <circle id="椭圆形" cx="12" cy="12" r="12"></circle>
            </g>
            <g id="编组-6" transform="translate(4.000000, 6.000000)" fill="#FFFFFF">
                <path d="M12.1247129,6.67739662 C11.8683504,6.50419094 11.5808915,6.36388869 11.2629515,6.25645851 C11.195952,6.23246316 11.1484427,6.214647 11.1205409,6.202665 C11.0926684,6.19071438 11.0590514,6.16838145 11.0201589,6.13550938 C10.9810319,6.10260594 10.9683706,6.06524847 10.9825266,6.02349969 C10.9965655,5.98171955 11.0089923,5.92206051 11.0201589,5.84445984 C11.2710114,5.15791041 11.2710114,4.6265623 11.0201589,4.25044688 C10.7633568,3.88628209 10.3368284,3.70413696 9.73972385,3.70413696 C9.14285378,3.70413696 8.45670964,3.88032246 7.68140867,4.23250526 L7.63105646,4.25044688 C7.59779118,4.26239751 7.56007098,4.27271708 7.5183062,4.28175063 C7.47636556,4.29078417 7.43589035,4.29219566 7.39688058,4.2862674 C7.35795873,4.2803705 7.33002761,4.25948043 7.31326308,4.22362854 C7.29649855,4.18777666 7.29937079,4.12808626 7.32167465,4.0444946 C7.57258576,3.17877985 7.51689938,2.55496337 7.1542345,2.17279422 C6.74148118,1.73102877 6.05395954,1.71013869 5.09158165,2.11015537 C4.12946753,2.51026614 3.17696664,3.21469447 2.23410829,4.22375401 C1.52009165,4.98790411 0.969177495,5.75807657 0.58148305,6.53420866 C0.193759297,7.31046622 0,8.04158741 0,8.72832505 C0,9.3730316 0.181303132,9.96855552 0.543821471,10.5149282 C0.906515662,11.0613008 1.38477375,11.5120057 1.97894743,11.8671997 C2.57297457,12.2222682 3.24384892,12.5000811 3.991336,12.7000738 C4.73885239,12.8999409 5.50594694,13 6.29250241,13 C7.07908719,13 7.83354973,12.907563 8.55589001,12.7225008 C9.2782303,12.5373445 9.90871736,12.2897061 10.4469116,11.979178 C10.9853403,11.6688381 11.4553333,11.3180668 11.85692,10.9268955 C12.2587119,10.5358496 12.562613,10.1271131 12.7691216,9.69999575 C12.9755422,9.27322348 13.0788551,8.85670804 13.0788551,8.45088857 C13.0788551,8.06884488 12.9841882,7.72086519 12.7942977,7.4075141 C12.6047588,7.09375523 12.3814858,6.85050821 12.1247129,6.67739662 Z M9.39288562,10.7839271 C8.57564402,11.4913352 7.54497704,11.9137162 6.30103122,12.0510073 C5.48654463,12.1346303 4.72085689,12.0719287 4.00408525,11.8629652 C3.28728429,11.6538449 2.7056547,11.3286059 2.25943094,10.8868091 C1.81314856,10.4448555 1.56490453,9.93734588 1.51469887,9.36415489 C1.43653277,8.49254325 1.80617311,7.70304904 2.62341471,6.99557816 C3.44065631,6.28795045 4.47132329,5.86560085 5.71529842,5.72830978 C6.52978501,5.64462402 7.29541413,5.70741971 8.01206854,5.91638317 C8.72881088,6.12531527 9.31055771,6.45067973 9.75686939,6.89244519 C10.2032104,7.33436747 10.4513372,7.84187706 10.5014842,8.41497395 C10.5795038,9.28674243 10.2101272,10.0762366 9.39288562,10.7839271 Z" id="形状"></path>
                <path d="M6.54370661,7.07176733 C5.95243448,6.91051228 5.36526555,6.96741107 4.78231707,7.2419932 C4.19930998,7.51657533 3.7768262,7.93136562 3.51460196,8.48674045 C3.25240703,9.05372087 3.23420638,9.61351838 3.46017585,10.1657566 C3.68614532,10.7180261 4.09749182,11.0955844 4.69442052,11.2987451 C5.31359445,11.5135427 5.93848357,11.4777849 6.56879479,11.1910639 C7.19916462,10.9044684 7.63979043,10.4566493 7.89105324,9.84782596 C8.14190573,9.25067098 8.13495959,8.68209086 7.86998034,8.14170921 C7.60485455,7.60160985 7.16288054,7.24491028 6.54370661,7.07176733 Z M5.64832822,9.97329186 C5.52558371,10.1761702 5.35128534,10.3180722 5.12522794,10.3985899 C4.89931709,10.4792959 4.69137242,10.4717993 4.50180426,10.376257 C4.31217748,10.2807147 4.1922466,10.1299988 4.14204093,9.92392103 C4.09180595,9.71812558 4.12806072,9.51377298 4.25077591,9.31067505 C4.36786386,9.11350538 4.5352747,8.97630841 4.75280329,8.89880185 C4.97044911,8.82116982 5.1740268,8.8240869 5.3637122,8.90770993 C5.55896623,8.99713575 5.68458299,9.14653428 5.74035729,9.35540364 C5.79610229,9.56433574 5.76547478,9.77019393 5.64832822,9.97329186 Z M6.43482508,8.88945464 C6.3958153,8.96718077 6.33438443,9.0224485 6.25076693,9.0552892 C6.16709082,9.08816127 6.08614041,9.08954139 6.00809155,9.05980597 C5.84079794,8.97608885 5.80454317,8.84193443 5.89932725,8.65684085 C5.93836634,8.57911472 5.99833178,8.52397246 6.07916496,8.49100629 C6.15999813,8.45816559 6.23948312,8.4567541 6.3176199,8.48661498 C6.39012943,8.51631903 6.43892828,8.57171223 6.46410439,8.65232408 C6.48919257,8.73274772 6.47949142,8.81207354 6.43482508,8.88945464 Z" id="形状"></path>
                <path d="M11.9574193,4.96262273 C12.019026,5.09100572 12.1136929,5.17902005 12.2420646,5.22682256 C12.3704657,5.2686027 12.4944119,5.25671481 12.6143721,5.19097068 C12.7343322,5.12538337 12.8166602,5.02388146 12.8613265,4.88649629 C12.9672186,4.55225512 12.9854778,4.20138971 12.9154888,3.83430784 C12.8458809,3.4671946 12.693857,3.14324163 12.4597398,2.86263713 C12.2254467,2.58200127 11.9434977,2.38646266 11.6145084,2.27595856 C11.2853433,2.1655172 10.9534232,2.1491439 10.618836,2.22674456 C10.484749,2.25663681 10.381612,2.33279462 10.3090145,2.45515524 C10.2365929,2.5774845 10.2143477,2.71035289 10.2423374,2.85360359 C10.264612,2.99691702 10.3342199,3.10735838 10.4512493,3.18495905 C10.568513,3.26255971 10.6939833,3.2864296 10.8279823,3.25666281 C11.1795392,3.17903078 11.4777251,3.28354388 11.7233607,3.57007664 C11.9689083,3.85657804 12.0356733,4.18793349 11.9241833,4.56411165 C11.8847925,4.70140271 11.896135,4.83427111 11.9574193,4.96262273 Z" id="路径"></path>
                <path d="M14.9156557,3.39536537 C14.7732451,2.64021745 14.4595843,1.97600095 13.9742335,1.40290406 C13.4888241,0.823878903 12.9086892,0.422356639 12.2334479,0.198337265 C11.558529,-0.02558801 10.8781293,-0.0598715687 10.19178,0.0953297564 C10.0355065,0.131181639 9.91413946,0.219195972 9.82767902,0.359560953 C9.74121859,0.499957302 9.7147236,0.653621669 9.74834059,0.820804988 C9.78175241,0.987988308 9.86528199,1.11781415 9.99936893,1.21034526 C10.1330749,1.30287636 10.2782112,1.33126302 10.4342796,1.29541114 C10.9197183,1.18801233 11.4023433,1.21341917 11.8820082,1.37156895 C12.3618197,1.52978145 12.7746609,1.81477726 13.1205906,2.22674456 C13.4663444,2.63275223 13.6897054,3.10431583 13.7901167,3.64171767 C13.890616,4.17896268 13.8627435,4.6924319 13.7064699,5.1819685 C13.6619208,5.34325492 13.6757838,5.49845624 13.7484106,5.6477293 C13.8208322,5.796971 13.9323515,5.89841018 14.0829978,5.95220369 C14.2336734,6.005809 14.3786925,5.99395247 14.5181136,5.91635181 C14.6576226,5.83875115 14.7524946,5.71937034 14.8027589,5.55814665 C15.0202582,4.87156585 15.0578611,4.15063875 14.9156557,3.39536537 Z" id="路径"></path>
            </g>
        </g>
    </g>
</svg>