<svg xmlns="http://www.w3.org/2000/svg" width="24" height="24" viewBox="0 0 24 24"><title>weibo</title><g fill="none" fill-rule="nonzero"><circle cx="12" cy="12" r="12" fill="#444"/><g fill="#DEDEDE"><path d="M16.125 12.677a3.575 3.575 0 0 0-.862-.42 2.876 2.876 0 0 1-.142-.054.427.427 0 0 1-.1-.067c-.04-.033-.053-.07-.038-.113.014-.041.026-.1.037-.179.251-.686.251-1.217 0-1.594-.257-.364-.683-.546-1.28-.546s-1.283.176-2.059.529l-.05.017a.897.897 0 0 1-.113.032.334.334 0 0 1-.121.004.105.105 0 0 1-.084-.062c-.017-.036-.014-.096.009-.18.25-.865.195-1.489-.168-1.871-.413-.442-1.1-.463-2.062-.063-.963.4-1.915 1.105-2.858 2.114-.714.764-1.265 1.534-1.653 2.31C4.194 13.31 4 14.042 4 14.728c0 .645.181 1.24.544 1.787.363.546.84.997 1.435 1.352a7.86 7.86 0 0 0 2.012.833c.748.2 1.515.3 2.302.3.786 0 1.54-.092 2.263-.277.722-.186 1.353-.433 1.89-.744a7.06 7.06 0 0 0 1.41-1.052c.403-.391.707-.8.913-1.227.207-.427.31-.843.31-1.25 0-.381-.095-.73-.285-1.042a2.285 2.285 0 0 0-.67-.73Zm-2.732 4.107c-.817.707-1.848 1.13-3.092 1.267-.814.084-1.58.02-2.297-.188-.717-.21-1.298-.534-1.745-.976-.446-.442-.694-.95-.744-1.523-.078-.871.291-1.661 1.108-2.368.818-.708 1.848-1.13 3.092-1.268a5.96 5.96 0 0 1 2.297.188c.717.21 1.299.535 1.745.976.446.442.694.95.744 1.523.079.872-.29 1.661-1.108 2.369Z"/><path d="M10.544 13.072c-.592-.161-1.179-.105-1.762.17s-1.005.69-1.267 1.245c-.263.567-.28 1.127-.055 1.679.226.552.637.93 1.234 1.133.62.215 1.244.179 1.875-.108.63-.287 1.07-.734 1.322-1.343.25-.597.244-1.166-.021-1.706s-.707-.897-1.326-1.07Zm-.896 2.901a.976.976 0 0 1-.523.426.763.763 0 0 1-.623-.023.66.66 0 0 1-.36-.452.788.788 0 0 1 .109-.613.929.929 0 0 1 .502-.412.8.8 0 0 1 .61.009c.196.09.322.239.377.447a.789.789 0 0 1-.092.618Zm.787-1.084a.336.336 0 0 1-.184.166.326.326 0 0 1-.243.005c-.167-.084-.203-.218-.109-.403a.337.337 0 0 1 .18-.166.314.314 0 0 1 .239-.004c.072.03.12.085.146.165.025.08.015.16-.03.237ZM15.957 10.963a.5.5 0 0 0 .285.264c.128.042.252.03.372-.036a.513.513 0 0 0 .247-.305 2.12 2.12 0 0 0 .054-1.052 2.103 2.103 0 0 0-.455-.971 1.857 1.857 0 0 0-.845-.587 1.797 1.797 0 0 0-.996-.05.466.466 0 0 0-.31.23.55.55 0 0 0-.067.398.466.466 0 0 0 .21.331.472.472 0 0 0 .376.072c.352-.078.65.027.895.313.246.287.313.618.201.994a.546.546 0 0 0 .033.399Z"/><path d="M18.916 9.395a4.246 4.246 0 0 0-.942-1.992 3.809 3.809 0 0 0-1.74-1.205 3.744 3.744 0 0 0-2.042-.103.56.56 0 0 0-.364.265.617.617 0 0 0-.08.46.596.596 0 0 0 .251.39c.134.093.28.121.435.085a2.689 2.689 0 0 1 1.448.077c.48.158.893.443 1.239.855.345.406.569.877.67 1.415.1.537.072 1.05-.085 1.54a.641.641 0 0 0 .042.466c.073.149.184.25.335.304.15.054.296.042.435-.036a.595.595 0 0 0 .285-.358 4.376 4.376 0 0 0 .113-2.163Z"/></g></g></svg>